G04*
G04 #@! TF.GenerationSoftware,Altium Limited,Altium Designer,20.1.10 (176)*
G04*
G04 Layer_Color=8388736*
%FSLAX25Y25*%
%MOIN*%
G70*
G04*
G04 #@! TF.SameCoordinates,11B260F6-AB26-4D87-AEF0-EC618B47F653*
G04*
G04*
G04 #@! TF.FilePolarity,Negative*
G04*
G01*
G75*
%ADD39R,0.02800X0.02800*%
%ADD40R,0.02800X0.02800*%
%ADD41R,0.03162X0.05918*%
%ADD42R,0.03950X0.03556*%
G04:AMPARAMS|DCode=43|XSize=39.5mil|YSize=35.56mil|CornerRadius=0mil|HoleSize=0mil|Usage=FLASHONLY|Rotation=0.000|XOffset=0mil|YOffset=0mil|HoleType=Round|Shape=Octagon|*
%AMOCTAGOND43*
4,1,8,0.01975,-0.00889,0.01975,0.00889,0.01086,0.01778,-0.01086,0.01778,-0.01975,0.00889,-0.01975,-0.00889,-0.01086,-0.01778,0.01086,-0.01778,0.01975,-0.00889,0.0*
%
%ADD43OCTAGOND43*%

%ADD44P,0.03960X4X180.0*%
%ADD45P,0.03960X4X270.0*%
G04:AMPARAMS|DCode=46|XSize=32.8mil|YSize=96.58mil|CornerRadius=0mil|HoleSize=0mil|Usage=FLASHONLY|Rotation=45.000|XOffset=0mil|YOffset=0mil|HoleType=Round|Shape=Round|*
%AMOVALD46*
21,1,0.06378,0.03280,0.00000,0.00000,135.0*
1,1,0.03280,0.02255,-0.02255*
1,1,0.03280,-0.02255,0.02255*
%
%ADD46OVALD46*%

G04:AMPARAMS|DCode=47|XSize=88mil|YSize=32mil|CornerRadius=0mil|HoleSize=0mil|Usage=FLASHONLY|Rotation=135.000|XOffset=0mil|YOffset=0mil|HoleType=Round|Shape=Round|*
%AMOVALD47*
21,1,0.05600,0.03200,0.00000,0.00000,135.0*
1,1,0.03200,0.01980,-0.01980*
1,1,0.03200,-0.01980,0.01980*
%
%ADD47OVALD47*%

%ADD48R,0.05918X0.03162*%
%ADD49R,0.03800X0.03800*%
%ADD50P,0.04113X8X292.5*%
%ADD51P,0.24516X4X360.0*%
G04:AMPARAMS|DCode=52|XSize=16.66mil|YSize=47.37mil|CornerRadius=0mil|HoleSize=0mil|Usage=FLASHONLY|Rotation=315.000|XOffset=0mil|YOffset=0mil|HoleType=Round|Shape=Round|*
%AMOVALD52*
21,1,0.03071,0.01666,0.00000,0.00000,45.0*
1,1,0.01666,-0.01086,-0.01086*
1,1,0.01666,0.01086,0.01086*
%
%ADD52OVALD52*%

G04:AMPARAMS|DCode=53|XSize=16.66mil|YSize=47.37mil|CornerRadius=0mil|HoleSize=0mil|Usage=FLASHONLY|Rotation=45.000|XOffset=0mil|YOffset=0mil|HoleType=Round|Shape=Round|*
%AMOVALD53*
21,1,0.03071,0.01666,0.00000,0.00000,135.0*
1,1,0.01666,0.01086,-0.01086*
1,1,0.01666,-0.01086,0.01086*
%
%ADD53OVALD53*%

G04:AMPARAMS|DCode=54|XSize=39.5mil|YSize=78.87mil|CornerRadius=11.87mil|HoleSize=0mil|Usage=FLASHONLY|Rotation=180.000|XOffset=0mil|YOffset=0mil|HoleType=Round|Shape=RoundedRectangle|*
%AMROUNDEDRECTD54*
21,1,0.03950,0.05512,0,0,180.0*
21,1,0.01575,0.07887,0,0,180.0*
1,1,0.02375,-0.00787,0.02756*
1,1,0.02375,0.00787,0.02756*
1,1,0.02375,0.00787,-0.02756*
1,1,0.02375,-0.00787,-0.02756*
%
%ADD54ROUNDEDRECTD54*%
G04:AMPARAMS|DCode=55|XSize=63.12mil|YSize=55.24mil|CornerRadius=15.81mil|HoleSize=0mil|Usage=FLASHONLY|Rotation=315.000|XOffset=0mil|YOffset=0mil|HoleType=Round|Shape=RoundedRectangle|*
%AMROUNDEDRECTD55*
21,1,0.06312,0.02362,0,0,315.0*
21,1,0.03150,0.05524,0,0,315.0*
1,1,0.03162,0.00278,-0.01949*
1,1,0.03162,-0.01949,0.00278*
1,1,0.03162,-0.00278,0.01949*
1,1,0.03162,0.01949,-0.00278*
%
%ADD55ROUNDEDRECTD55*%
G04:AMPARAMS|DCode=56|XSize=63.12mil|YSize=55.24mil|CornerRadius=0mil|HoleSize=0mil|Usage=FLASHONLY|Rotation=315.000|XOffset=0mil|YOffset=0mil|HoleType=Round|Shape=Rectangle|*
%AMROTATEDRECTD56*
4,1,4,-0.04185,0.00278,-0.00278,0.04185,0.04185,-0.00278,0.00278,-0.04185,-0.04185,0.00278,0.0*
%
%ADD56ROTATEDRECTD56*%

G04:AMPARAMS|DCode=57|XSize=59.18mil|YSize=31.62mil|CornerRadius=0mil|HoleSize=0mil|Usage=FLASHONLY|Rotation=45.000|XOffset=0mil|YOffset=0mil|HoleType=Round|Shape=Rectangle|*
%AMROTATEDRECTD57*
4,1,4,-0.00974,-0.03210,-0.03210,-0.00974,0.00974,0.03210,0.03210,0.00974,-0.00974,-0.03210,0.0*
%
%ADD57ROTATEDRECTD57*%

%ADD58R,0.02965X0.04737*%
%ADD59R,0.02965X0.04737*%
%ADD60R,0.04737X0.02965*%
%ADD61R,0.04737X0.02965*%
%ADD62R,0.02178X0.12611*%
%ADD63O,0.07887X0.04737*%
%ADD64O,0.09068X0.04737*%
%ADD65C,0.04737*%
%ADD66C,0.07493*%
D39*
X68800Y27357D02*
D03*
X68800Y30900D02*
D03*
X65200Y27400D02*
D03*
X65200Y30943D02*
D03*
X61600Y27500D02*
D03*
X61600Y31043D02*
D03*
X35400Y10400D02*
D03*
X35400Y13943D02*
D03*
X112200Y33757D02*
D03*
X112200Y37300D02*
D03*
X40200Y133900D02*
D03*
X40200Y130357D02*
D03*
X1300Y80757D02*
D03*
X1300Y84300D02*
D03*
X43800Y133900D02*
D03*
X43800Y130357D02*
D03*
X36600Y133800D02*
D03*
X36600Y130257D02*
D03*
D40*
X49500Y25500D02*
D03*
X53043Y25500D02*
D03*
X93800Y112300D02*
D03*
X97343Y112300D02*
D03*
X93800Y105100D02*
D03*
X97343Y105100D02*
D03*
X93800Y108700D02*
D03*
X97343Y108700D02*
D03*
X33357Y68400D02*
D03*
X36900Y68400D02*
D03*
X19357Y33200D02*
D03*
X22900Y33200D02*
D03*
X102900Y17700D02*
D03*
X99357Y17700D02*
D03*
X33357Y64800D02*
D03*
X36900Y64800D02*
D03*
X99357Y21300D02*
D03*
X102900Y21300D02*
D03*
X11300Y116800D02*
D03*
X14843Y116800D02*
D03*
X97343Y115900D02*
D03*
X93800Y115900D02*
D03*
X97343Y101500D02*
D03*
X93800Y101500D02*
D03*
X33400Y57600D02*
D03*
X36943Y57600D02*
D03*
X33400Y61200D02*
D03*
X36943Y61200D02*
D03*
X18600Y74100D02*
D03*
X15057Y74100D02*
D03*
X18616Y70441D02*
D03*
X15073Y70442D02*
D03*
X99357Y14100D02*
D03*
X102900Y14100D02*
D03*
X99357Y10500D02*
D03*
X102900Y10500D02*
D03*
X91443Y28200D02*
D03*
X87900Y28200D02*
D03*
D41*
X53660Y11051D02*
D03*
X57400Y20500D02*
D03*
X61140Y11051D02*
D03*
X47940Y11051D02*
D03*
X44200Y20500D02*
D03*
X40460Y11051D02*
D03*
X66760Y11151D02*
D03*
X70500Y20600D02*
D03*
X74240Y11151D02*
D03*
X106340Y34651D02*
D03*
X102600Y44100D02*
D03*
X98860Y34651D02*
D03*
D42*
X85354Y33800D02*
D03*
Y37800D02*
D03*
Y45800D02*
D03*
Y41800D02*
D03*
D43*
X92047Y33800D02*
D03*
Y37800D02*
D03*
Y45800D02*
D03*
Y41800D02*
D03*
D44*
X69000Y129200D02*
D03*
X66495Y131705D02*
D03*
X3321Y118579D02*
D03*
X5826Y116074D02*
D03*
X68100Y114100D02*
D03*
X70605Y111594D02*
D03*
X65500Y111500D02*
D03*
X68005Y108994D02*
D03*
X62900Y108900D02*
D03*
X65405Y106395D02*
D03*
X3351Y113457D02*
D03*
X846Y115963D02*
D03*
X806Y110912D02*
D03*
X-1699Y113417D02*
D03*
D45*
X53105Y134905D02*
D03*
X50600Y132400D02*
D03*
X41295Y78445D02*
D03*
X43800Y80950D02*
D03*
X41200Y83450D02*
D03*
X38695Y80945D02*
D03*
X24863Y82662D02*
D03*
X22357Y80157D02*
D03*
X2005Y97305D02*
D03*
X-500Y94800D02*
D03*
X11769Y106601D02*
D03*
X9264Y104096D02*
D03*
X21363Y86162D02*
D03*
X18857Y83657D02*
D03*
D46*
X86338Y71966D02*
D03*
X89873Y75502D02*
D03*
X93409Y79037D02*
D03*
X96944Y82573D02*
D03*
X66683Y91620D02*
D03*
X70219Y95156D02*
D03*
X73754Y98691D02*
D03*
X77290Y102227D02*
D03*
D47*
X65956Y60387D02*
D03*
X61006Y86550D02*
D03*
X57470Y83014D02*
D03*
X73027Y67458D02*
D03*
X53935Y79479D02*
D03*
X50399Y75943D02*
D03*
X76562Y70993D02*
D03*
X69491Y63922D02*
D03*
D48*
X19151Y46440D02*
D03*
X28600Y42700D02*
D03*
X19151Y38960D02*
D03*
D49*
X108700Y18718D02*
D03*
D50*
Y12600D02*
D03*
D51*
X39316Y105301D02*
D03*
D52*
X25118Y103352D02*
D03*
X26232Y102239D02*
D03*
X27345Y101125D02*
D03*
X28459Y100012D02*
D03*
X29573Y98898D02*
D03*
X30686Y97785D02*
D03*
X31800Y96671D02*
D03*
X32913Y95558D02*
D03*
X34027Y94444D02*
D03*
X35140Y93331D02*
D03*
X36254Y92217D02*
D03*
X37367Y91103D02*
D03*
X53514Y107250D02*
D03*
X52400Y108363D02*
D03*
X51287Y109477D02*
D03*
X50173Y110591D02*
D03*
X49060Y111704D02*
D03*
X47946Y112818D02*
D03*
X46833Y113931D02*
D03*
X45719Y115045D02*
D03*
X44606Y116158D02*
D03*
X43492Y117272D02*
D03*
X42379Y118386D02*
D03*
X41265Y119499D02*
D03*
D53*
X53514Y103352D02*
D03*
X52400Y102239D02*
D03*
X51287Y101125D02*
D03*
X50173Y100012D02*
D03*
X49060Y98898D02*
D03*
X47946Y97785D02*
D03*
X46833Y96671D02*
D03*
X45719Y95558D02*
D03*
X44606Y94444D02*
D03*
X43492Y93331D02*
D03*
X42379Y92217D02*
D03*
X41265Y91103D02*
D03*
X25118Y107250D02*
D03*
X26232Y108363D02*
D03*
X27345Y109477D02*
D03*
X28459Y110591D02*
D03*
X29573Y111704D02*
D03*
X30686Y112818D02*
D03*
X31800Y113931D02*
D03*
X32913Y115045D02*
D03*
X34027Y116158D02*
D03*
X35140Y117272D02*
D03*
X36254Y118386D02*
D03*
X37367Y119499D02*
D03*
D54*
X17200Y133900D02*
D03*
X-2891D02*
D03*
D55*
X53600Y126700D02*
D03*
D56*
X59724Y120575D02*
D03*
X64457Y125308D02*
D03*
X58333Y131433D02*
D03*
D57*
X3801Y91422D02*
D03*
X13127Y95458D02*
D03*
X9090Y86132D02*
D03*
D58*
X85246Y10547D02*
D03*
X92727D02*
D03*
Y22358D02*
D03*
X85246D02*
D03*
D59*
X88987Y10547D02*
D03*
D60*
X26211Y57700D02*
D03*
Y65180D02*
D03*
X14400D02*
D03*
Y57700D02*
D03*
D61*
X26211Y61440D02*
D03*
D62*
X70657Y43500D02*
D03*
X67902D02*
D03*
X65146D02*
D03*
X62390D02*
D03*
X59634D02*
D03*
X56878D02*
D03*
X54122D02*
D03*
X51366D02*
D03*
X48610D02*
D03*
X45854D02*
D03*
X43098D02*
D03*
X40343D02*
D03*
D63*
X-1449Y18256D02*
D03*
Y52272D02*
D03*
D64*
X15008Y18256D02*
D03*
Y52272D02*
D03*
D65*
X101910Y28565D02*
D03*
Y60061D02*
D03*
D66*
X84284Y119811D02*
D03*
Y96189D02*
D03*
M02*
