G04*
G04 #@! TF.GenerationSoftware,Altium Limited,Altium Designer,20.1.10 (176)*
G04*
G04 Layer_Color=128*
%FSLAX25Y25*%
%MOIN*%
G70*
G04*
G04 #@! TF.SameCoordinates,F252A181-4E7B-4898-9581-9C64CF10C23C*
G04*
G04*
G04 #@! TF.FilePolarity,Positive*
G04*
G01*
G75*
%ADD117C,0.00200*%
D117*
X-2630Y18256D02*
X-268D01*
X-1449Y17075D02*
Y19437D01*
X13827Y18256D02*
X16189D01*
X15008Y17075D02*
Y19437D01*
X13827Y52272D02*
X16189D01*
X15008Y51091D02*
Y53453D01*
X-2630Y52272D02*
X-268D01*
X-1449Y51091D02*
Y53453D01*
X99942Y28565D02*
X103879D01*
X101910Y26596D02*
Y30533D01*
X99942Y60061D02*
X103879D01*
X101910Y58092D02*
Y62029D01*
X50900Y84600D02*
X51700D01*
X51300Y84200D02*
Y85000D01*
X64200Y102400D02*
X65000D01*
X64600Y102000D02*
Y102800D01*
X56800Y90800D02*
X57600D01*
X57200Y90400D02*
Y91200D01*
X33800Y37500D02*
X34600D01*
X34200Y37100D02*
Y37900D01*
X33000Y41000D02*
X33800D01*
X33400Y40600D02*
Y41400D01*
X31900Y48400D02*
X32700D01*
X32300Y48000D02*
Y48800D01*
X34300Y51100D02*
X35100D01*
X34700Y50700D02*
Y51500D01*
X64300Y138400D02*
X65100D01*
X64700Y138000D02*
Y138800D01*
X65700Y136000D02*
X66500D01*
X66100Y135600D02*
Y136400D01*
X70500Y132200D02*
X71300D01*
X70900Y131800D02*
Y132600D01*
X76400Y124200D02*
X77200D01*
X76800Y123800D02*
Y124600D01*
X79200Y133300D02*
X80000D01*
X79600Y132900D02*
Y133700D01*
X81600Y134300D02*
X82400D01*
X82000Y133900D02*
Y134700D01*
X73500Y130300D02*
X74300D01*
X73900Y129900D02*
Y130700D01*
X67700Y53250D02*
X68500D01*
X68100Y52850D02*
Y53650D01*
X39900Y54000D02*
X40700D01*
X40300Y53600D02*
Y54400D01*
X39400Y56100D02*
X40200D01*
X39800Y55700D02*
Y56500D01*
X80200Y90300D02*
X81000D01*
X80600Y89900D02*
Y90700D01*
X81400Y79900D02*
X82200D01*
X81800Y79500D02*
Y80300D01*
X76400Y75200D02*
X77200D01*
X76800Y74800D02*
Y75600D01*
X80000Y55500D02*
X80800D01*
X80400Y55100D02*
Y55900D01*
X102900Y83000D02*
X103700D01*
X103300Y82600D02*
Y83400D01*
X100700Y76500D02*
X101500D01*
X101100Y76100D02*
Y76900D01*
X104100Y76800D02*
X104900D01*
X104500Y76400D02*
Y77200D01*
X104900Y80500D02*
X105700D01*
X105300Y80100D02*
Y80900D01*
X102300Y79900D02*
X103100D01*
X102700Y79500D02*
Y80300D01*
X79500Y66800D02*
X80300D01*
X79900Y66400D02*
Y67200D01*
X81200Y68600D02*
X82000D01*
X81600Y68200D02*
Y69000D01*
X24500Y71300D02*
X25300D01*
X24900Y70900D02*
Y71700D01*
X21200D02*
X22000D01*
X21600Y71300D02*
Y72100D01*
X62400Y103800D02*
X63200D01*
X62800Y103400D02*
Y104200D01*
X57000Y12100D02*
X57800D01*
X57400Y11700D02*
Y12500D01*
X57000Y14800D02*
X57800D01*
X57400Y14400D02*
Y15200D01*
X89900Y14200D02*
X90700D01*
X90300Y13800D02*
Y14600D01*
X92300Y14100D02*
X93100D01*
X92700Y13700D02*
Y14500D01*
X102500Y32500D02*
X103300D01*
X102900Y32100D02*
Y32900D01*
X113100Y14600D02*
X113900D01*
X113500Y14200D02*
Y15000D01*
X114400Y19400D02*
X115200D01*
X114800Y19000D02*
Y19800D01*
X110400Y71900D02*
X111200D01*
X110800Y71500D02*
Y72300D01*
X107200Y57600D02*
X108000D01*
X107600Y57200D02*
Y58000D01*
X108600Y48600D02*
X109400D01*
X109000Y48200D02*
Y49000D01*
X104900Y51200D02*
X105700D01*
X105300Y50800D02*
Y51600D01*
X108700Y62100D02*
X109500D01*
X109100Y61700D02*
Y62500D01*
X111400Y76000D02*
X112200D01*
X111800Y75600D02*
Y76400D01*
X89600Y54600D02*
X90400D01*
X90000Y54200D02*
Y55000D01*
X80000Y48200D02*
X80800D01*
X80400Y47800D02*
Y48600D01*
X79800Y26000D02*
X80600D01*
X80200Y25600D02*
Y26400D01*
X48500Y123400D02*
X49300D01*
X48900Y123000D02*
Y123800D01*
X40700Y127000D02*
X41500D01*
X41100Y126600D02*
Y127400D01*
X19500Y116100D02*
X20300D01*
X19900Y115700D02*
Y116500D01*
X5300Y121200D02*
X6100D01*
X5700Y120800D02*
Y121600D01*
X7200Y120000D02*
X8000D01*
X7600Y119600D02*
Y120400D01*
X4800Y100200D02*
X5600D01*
X5200Y99800D02*
Y100600D01*
X5300Y102700D02*
X6100D01*
X5700Y102300D02*
Y103100D01*
X11000Y67900D02*
X11800D01*
X11400Y67500D02*
Y68300D01*
X11000Y69900D02*
X11800D01*
X11400Y69500D02*
Y70300D01*
X11100Y83500D02*
X11900D01*
X11500Y83100D02*
Y83900D01*
X87000Y90300D02*
X87800D01*
X87400Y89900D02*
Y90700D01*
X90800Y125700D02*
X91600D01*
X91200Y125300D02*
Y126100D01*
X86800Y126600D02*
X87600D01*
X87200Y126200D02*
Y127000D01*
X67100Y120500D02*
X67900D01*
X67500Y120100D02*
Y120900D01*
X65700Y118200D02*
X66500D01*
X66100Y117800D02*
Y118600D01*
X60100Y137400D02*
X60900D01*
X60500Y137000D02*
Y137800D01*
X54400D02*
X55200D01*
X54800Y137400D02*
Y138200D01*
X56800Y137800D02*
X57600D01*
X57200Y137400D02*
Y138200D01*
X36600Y137700D02*
X37400D01*
X37000Y137300D02*
Y138100D01*
X38900Y137600D02*
X39700D01*
X39300Y137200D02*
Y138000D01*
X95300Y119400D02*
X96100D01*
X95700Y119000D02*
Y119800D01*
X97400Y119100D02*
X98200D01*
X97800Y118700D02*
Y119500D01*
X101900Y101800D02*
X102700D01*
X102300Y101400D02*
Y102200D01*
X102200Y99300D02*
X103000D01*
X102600Y98900D02*
Y99700D01*
X95200Y57300D02*
X96000D01*
X95600Y56900D02*
Y57700D01*
X95300Y63100D02*
X96100D01*
X95700Y62700D02*
Y63500D01*
X87500Y56600D02*
X88300D01*
X87900Y56200D02*
Y57000D01*
X88800Y60900D02*
X89600D01*
X89200Y60500D02*
Y61300D01*
X84900Y66300D02*
X85700D01*
X85300Y65900D02*
Y66700D01*
X75400Y59800D02*
X76200D01*
X75800Y59400D02*
Y60200D01*
X74900Y56200D02*
X75700D01*
X75300Y55800D02*
Y56600D01*
X70400Y52000D02*
X71200D01*
X70800Y51600D02*
Y52400D01*
X71000Y58300D02*
X71800D01*
X71400Y57900D02*
Y58700D01*
X75000Y21500D02*
X75800D01*
X75400Y21100D02*
Y21900D01*
X78300Y20800D02*
X79100D01*
X78700Y20400D02*
Y21200D01*
X71000Y11100D02*
X71800D01*
X71400Y10700D02*
Y11500D01*
X74100Y17400D02*
X74900D01*
X74500Y17000D02*
Y17800D01*
X76500Y17400D02*
X77300D01*
X76900Y17000D02*
Y17800D01*
X89900Y5500D02*
X90700D01*
X90300Y5100D02*
Y5900D01*
X85500Y5500D02*
X86300D01*
X85900Y5100D02*
Y5900D01*
X87700Y5500D02*
X88500D01*
X88100Y5100D02*
Y5900D01*
X111900Y30200D02*
X112700D01*
X112300Y29800D02*
Y30600D01*
X105800Y10100D02*
X106600D01*
X106200Y9700D02*
Y10500D01*
X105600Y7800D02*
X106400D01*
X106000Y7400D02*
Y8200D01*
X105100Y20500D02*
X105900D01*
X105500Y20100D02*
Y20900D01*
X105200Y22500D02*
X106000D01*
X105600Y22100D02*
Y22900D01*
X109200Y28500D02*
X110000D01*
X109600Y28100D02*
Y28900D01*
X108600Y30600D02*
X109400D01*
X109000Y30200D02*
Y31000D01*
X106400Y29200D02*
X107200D01*
X106800Y28800D02*
Y29600D01*
X73000Y31200D02*
X73800D01*
X73400Y30800D02*
Y31600D01*
X72600Y42600D02*
X73400D01*
X73000Y42200D02*
Y43000D01*
X71000Y35100D02*
X71800D01*
X71400Y34700D02*
Y35500D01*
X73900Y33400D02*
X74700D01*
X74300Y33000D02*
Y33800D01*
X36700Y36000D02*
X37500D01*
X37100Y35600D02*
Y36400D01*
X4300Y83200D02*
X5100D01*
X4700Y82800D02*
Y83600D01*
X10900Y80800D02*
X11700D01*
X11300Y80400D02*
Y81200D01*
X3000Y24200D02*
X3800D01*
X3400Y23800D02*
Y24600D01*
X4400Y29500D02*
X5200D01*
X4800Y29100D02*
Y29900D01*
X3500Y36800D02*
X4300D01*
X3900Y36400D02*
Y37200D01*
X6800Y44500D02*
X7600D01*
X7200Y44100D02*
Y44900D01*
X34500Y47600D02*
X35300D01*
X34900Y47200D02*
Y48000D01*
X33500Y18200D02*
X34300D01*
X33900Y17800D02*
Y18600D01*
X40300Y18200D02*
X41100D01*
X40700Y17800D02*
Y18600D01*
X33600Y23300D02*
X34400D01*
X34000Y22900D02*
Y23700D01*
X40200Y23100D02*
X41000D01*
X40600Y22700D02*
Y23500D01*
X36800Y20300D02*
X37600D01*
X37200Y19900D02*
Y20700D01*
X36000Y40200D02*
X36800D01*
X36400Y39800D02*
Y40600D01*
X37300Y46700D02*
X38100D01*
X37700Y46300D02*
Y47100D01*
X36100Y43800D02*
X36900D01*
X36500Y43400D02*
Y44200D01*
X43866Y105301D02*
X44666D01*
X44266Y104901D02*
Y105701D01*
X41391Y102826D02*
X42191D01*
X41791Y102426D02*
Y103226D01*
X38916Y100352D02*
X39716D01*
X39316Y99951D02*
Y100751D01*
X36441Y102826D02*
X37241D01*
X36841Y102426D02*
Y103226D01*
X38916Y105301D02*
X39716D01*
X39316Y104901D02*
Y105701D01*
X41391Y107776D02*
X42191D01*
X41791Y107376D02*
Y108176D01*
X38916Y110251D02*
X39716D01*
X39316Y109851D02*
Y110651D01*
X33966Y105301D02*
X34767D01*
X34367Y104901D02*
Y105701D01*
X36441Y107776D02*
X37241D01*
X36841Y107376D02*
Y108176D01*
X57000Y25300D02*
X57800D01*
X57400Y24900D02*
Y25700D01*
X78500Y14500D02*
X79300D01*
X78900Y14100D02*
Y14900D01*
X19200Y108400D02*
X20000D01*
X19600Y108000D02*
Y108800D01*
X21000Y110400D02*
X21800D01*
X21400Y110000D02*
Y110800D01*
X16900Y97800D02*
X17700D01*
X17300Y97400D02*
Y98200D01*
X16400Y100300D02*
X17200D01*
X16800Y99900D02*
Y100700D01*
X18000Y102100D02*
X18800D01*
X18400Y101700D02*
Y102500D01*
X33100Y54300D02*
X33900D01*
X33500Y53900D02*
Y54700D01*
X45700Y29100D02*
X46500D01*
X46100Y28700D02*
Y29500D01*
X53300Y54100D02*
X54100D01*
X53700Y53700D02*
Y54500D01*
X31800Y90800D02*
X32600D01*
X32200Y90400D02*
Y91200D01*
X32400Y84300D02*
X33200D01*
X32800Y83900D02*
Y84700D01*
X25800Y84200D02*
X26600D01*
X26200Y83800D02*
Y84600D01*
X8100Y113100D02*
X8900D01*
X8500Y112700D02*
Y113500D01*
X8100Y99200D02*
X8900D01*
X8500Y98800D02*
Y99600D01*
X25800Y5200D02*
X26600D01*
X26200Y4800D02*
Y5600D01*
X26885Y28485D02*
X27685D01*
X27285Y28085D02*
Y28885D01*
X34700Y6800D02*
X35500D01*
X35100Y6400D02*
Y7200D01*
X39800Y5700D02*
X40600D01*
X40200Y5300D02*
Y6100D01*
X30500Y6800D02*
X31300D01*
X30900Y6400D02*
Y7200D01*
X36800Y5600D02*
X37600D01*
X37200Y5200D02*
Y6000D01*
X25500Y33200D02*
X26300D01*
X25900Y32800D02*
Y33600D01*
X21200Y56500D02*
X22000D01*
X21600Y56100D02*
Y56900D01*
X6600Y94500D02*
X7400D01*
X7000Y94100D02*
Y94900D01*
X-4600Y105900D02*
X-3800D01*
X-4200Y105500D02*
Y106300D01*
X-5900Y104747D02*
X-5100D01*
X-5500Y104347D02*
Y105147D01*
X28300Y117600D02*
X29100D01*
X28700Y117200D02*
Y118000D01*
X54600Y111900D02*
X55400D01*
X55000Y111500D02*
Y112300D01*
X58400Y111100D02*
X59200D01*
X58800Y110700D02*
Y111500D01*
X56400Y109800D02*
X57200D01*
X56800Y109400D02*
Y110200D01*
X43800Y137700D02*
X44600D01*
X44200Y137300D02*
Y138100D01*
X100300Y112300D02*
X101100D01*
X100700Y111900D02*
Y112700D01*
X3800Y80800D02*
X4600D01*
X4200Y80400D02*
Y81200D01*
X27000Y91400D02*
X27800D01*
X27400Y91000D02*
Y91800D01*
X23500Y93300D02*
X24300D01*
X23900Y92900D02*
Y93700D01*
X29300Y91200D02*
X30100D01*
X29700Y90800D02*
Y91600D01*
X22800Y95600D02*
X23600D01*
X23200Y95200D02*
Y96000D01*
X93000Y28200D02*
X93800D01*
X93400Y27800D02*
Y28600D01*
X94800Y28200D02*
X95600D01*
X95200Y27800D02*
Y28600D01*
X21400Y50400D02*
X22200D01*
X21800Y50000D02*
Y50800D01*
X87700Y41800D02*
X88500D01*
X88100Y41400D02*
Y42200D01*
X98700Y41800D02*
X99500D01*
X99100Y41400D02*
Y42200D01*
X74700Y37600D02*
X75500D01*
X75100Y37200D02*
Y38000D01*
X21200Y54413D02*
X22000D01*
X21600Y54013D02*
Y54813D01*
X11200Y37300D02*
X12000D01*
X11600Y36900D02*
Y37700D01*
X14020Y34280D02*
X14820D01*
X14421Y33880D02*
Y34679D01*
X61700Y111300D02*
X62500D01*
X62100Y110900D02*
Y111700D01*
X54200Y117300D02*
X55000D01*
X54600Y116900D02*
Y117700D01*
X84400Y82800D02*
X85200D01*
X84800Y82400D02*
Y83200D01*
X67900Y80800D02*
X68700D01*
X68300Y80400D02*
Y81200D01*
X72200Y81400D02*
X73000D01*
X72600Y81000D02*
Y81800D01*
X70900Y84600D02*
X71700D01*
X71300Y84200D02*
Y85000D01*
X75900Y86800D02*
X76700D01*
X76300Y86400D02*
Y87200D01*
X54850Y96500D02*
X55650D01*
X55250Y96100D02*
Y96900D01*
X56500Y98200D02*
X57300D01*
X56900Y97800D02*
Y98600D01*
X85100Y48900D02*
X85900D01*
X85500Y48500D02*
Y49300D01*
X57357Y102050D02*
X58157D01*
X57757Y101650D02*
Y102450D01*
X58400Y100000D02*
X59200D01*
X58800Y99600D02*
Y100400D01*
X64600Y87400D02*
X65400D01*
X65000Y87000D02*
Y87800D01*
X52300Y118800D02*
X53100D01*
X52700Y118400D02*
Y119200D01*
X75100Y91500D02*
X75900D01*
X75500Y91100D02*
Y91900D01*
X59300Y78400D02*
X60100D01*
X59700Y78000D02*
Y78800D01*
X71600Y88100D02*
X72400D01*
X72000Y87700D02*
Y88500D01*
X77600Y82400D02*
X78400D01*
X78000Y82000D02*
Y82800D01*
X90400Y105200D02*
X91200D01*
X90800Y104800D02*
Y105600D01*
X90500Y109500D02*
X91300D01*
X90900Y109100D02*
Y109900D01*
X92100Y49300D02*
X92900D01*
X92500Y48900D02*
Y49700D01*
X80800Y109400D02*
X81600D01*
X81200Y109000D02*
Y109800D01*
X84361Y79661D02*
X85161D01*
X84761Y79261D02*
Y80061D01*
X89300Y114300D02*
X90100D01*
X89700Y113900D02*
Y114700D01*
X78500Y77900D02*
X79300D01*
X78900Y77500D02*
Y78300D01*
X69138Y71162D02*
X69938D01*
X69538Y70762D02*
Y71562D01*
X61200Y24600D02*
X62000D01*
X61600Y24200D02*
Y25000D01*
X53733Y61833D02*
X54533D01*
X54133Y61433D02*
Y62233D01*
X53700Y67300D02*
X54500D01*
X54100Y66900D02*
Y67700D01*
X53800Y57800D02*
X54600D01*
X54200Y57400D02*
Y58200D01*
X64900Y65500D02*
X65700D01*
X65300Y65100D02*
Y65900D01*
X64700Y35200D02*
X65500D01*
X65100Y34800D02*
Y35600D01*
X38000Y84400D02*
X38800D01*
X38400Y84000D02*
Y84800D01*
X65000Y51900D02*
X65800D01*
X65400Y51500D02*
Y52300D01*
X53800Y94300D02*
X54600D01*
X54200Y93900D02*
Y94700D01*
X51599Y91399D02*
X52399D01*
X51999Y90999D02*
Y91799D01*
X78300Y105400D02*
X79100D01*
X78700Y105000D02*
Y105800D01*
X46000Y123200D02*
X46800D01*
X46400Y122800D02*
Y123600D01*
X21100Y94000D02*
X21900D01*
X21500Y93600D02*
Y94400D01*
X53500Y32700D02*
X54300D01*
X53900Y32300D02*
Y33100D01*
X53600Y35800D02*
X54400D01*
X54000Y35400D02*
Y36200D01*
X18800Y112000D02*
X19600D01*
X19200Y111600D02*
Y112400D01*
X26000Y117100D02*
X26800D01*
X26400Y116700D02*
Y117500D01*
X24200Y115500D02*
X25000D01*
X24600Y115100D02*
Y115900D01*
X80100Y107200D02*
X80900D01*
X80500Y106800D02*
Y107600D01*
X22400Y113700D02*
X23200D01*
X22800Y113300D02*
Y114100D01*
X4000Y65800D02*
X4800D01*
X4400Y65400D02*
Y66200D01*
Y72800D02*
X5200D01*
X4800Y72400D02*
Y73200D01*
X46900Y91400D02*
X47700D01*
X47300Y91000D02*
Y91800D01*
X49200Y91400D02*
X50000D01*
X49600Y91000D02*
Y91800D01*
X34900Y122700D02*
X35700D01*
X35300Y122300D02*
Y123100D01*
X11661Y46642D02*
X14417D01*
X13039Y45264D02*
Y48020D01*
X11661Y23886D02*
X14417D01*
X13039Y22508D02*
Y25264D01*
X80937Y119811D02*
X87630D01*
X84284Y116465D02*
Y123158D01*
X80937Y96189D02*
X87630D01*
X84284Y92843D02*
Y99535D01*
M02*
