G04*
G04 #@! TF.GenerationSoftware,Altium Limited,Altium Designer,20.1.10 (176)*
G04*
G04 Layer_Color=2752767*
%FSLAX25Y25*%
%MOIN*%
G70*
G04*
G04 #@! TF.SameCoordinates,11B260F6-AB26-4D87-AEF0-EC618B47F653*
G04*
G04*
G04 #@! TF.FilePolarity,Positive*
G04*
G01*
G75*
%ADD117C,0.00200*%
%ADD118C,0.00267*%
D117*
X-2249Y17456D02*
Y19056D01*
X-649D01*
Y17456D01*
X-2249D01*
Y51472D02*
Y53072D01*
X-649D01*
Y51472D01*
X-2249D01*
X101910Y27764D02*
X101110Y29364D01*
X102710D01*
X101910Y27764D01*
Y59261D02*
X101110Y60861D01*
X102710D01*
X101910Y59261D01*
X51300Y83800D02*
X51700Y84200D01*
X52100D01*
X51700Y84600D01*
X52100Y85000D01*
X51700D01*
X51300Y85400D01*
X50900Y85000D01*
X50500D01*
X50900Y84600D01*
X50500Y84200D01*
X50900D01*
X51300Y83800D01*
X64600Y101600D02*
X65000Y102000D01*
X65400D01*
X65000Y102400D01*
X65400Y102800D01*
X65000D01*
X64600Y103200D01*
X64200Y102800D01*
X63800D01*
X64200Y102400D01*
X63800Y102000D01*
X64200D01*
X64600Y101600D01*
X57200Y90000D02*
X57600Y90400D01*
X58000D01*
X57600Y90800D01*
X58000Y91200D01*
X57600D01*
X57200Y91600D01*
X56800Y91200D01*
X56400D01*
X56800Y90800D01*
X56400Y90400D01*
X56800D01*
X57200Y90000D01*
X34200Y36700D02*
X34600Y37100D01*
X35000D01*
X34600Y37500D01*
X35000Y37900D01*
X34600D01*
X34200Y38300D01*
X33800Y37900D01*
X33400D01*
X33800Y37500D01*
X33400Y37100D01*
X33800D01*
X34200Y36700D01*
X33400Y40200D02*
X33800Y40600D01*
X34200D01*
X33800Y41000D01*
X34200Y41400D01*
X33800D01*
X33400Y41800D01*
X33000Y41400D01*
X32600D01*
X33000Y41000D01*
X32600Y40600D01*
X33000D01*
X33400Y40200D01*
X32300Y47600D02*
X32700Y48000D01*
X33100D01*
X32700Y48400D01*
X33100Y48800D01*
X32700D01*
X32300Y49200D01*
X31900Y48800D01*
X31500D01*
X31900Y48400D01*
X31500Y48000D01*
X31900D01*
X32300Y47600D01*
X34700Y50300D02*
X35100Y50700D01*
X35500D01*
X35100Y51100D01*
X35500Y51500D01*
X35100D01*
X34700Y51900D01*
X34300Y51500D01*
X33900D01*
X34300Y51100D01*
X33900Y50700D01*
X34300D01*
X34700Y50300D01*
X64700Y137600D02*
X65100Y138000D01*
X65500D01*
X65100Y138400D01*
X65500Y138800D01*
X65100D01*
X64700Y139200D01*
X64300Y138800D01*
X63900D01*
X64300Y138400D01*
X63900Y138000D01*
X64300D01*
X64700Y137600D01*
X66100Y135200D02*
X66500Y135600D01*
X66900D01*
X66500Y136000D01*
X66900Y136400D01*
X66500D01*
X66100Y136800D01*
X65700Y136400D01*
X65300D01*
X65700Y136000D01*
X65300Y135600D01*
X65700D01*
X66100Y135200D01*
X70900Y131400D02*
X71300Y131800D01*
X71700D01*
X71300Y132200D01*
X71700Y132600D01*
X71300D01*
X70900Y133000D01*
X70500Y132600D01*
X70100D01*
X70500Y132200D01*
X70100Y131800D01*
X70500D01*
X70900Y131400D01*
X76800Y123400D02*
X77200Y123800D01*
X77600D01*
X77200Y124200D01*
X77600Y124600D01*
X77200D01*
X76800Y125000D01*
X76400Y124600D01*
X76000D01*
X76400Y124200D01*
X76000Y123800D01*
X76400D01*
X76800Y123400D01*
X79600Y132500D02*
X80000Y132900D01*
X80400D01*
X80000Y133300D01*
X80400Y133700D01*
X80000D01*
X79600Y134100D01*
X79200Y133700D01*
X78800D01*
X79200Y133300D01*
X78800Y132900D01*
X79200D01*
X79600Y132500D01*
X82000Y133500D02*
X82400Y133900D01*
X82800D01*
X82400Y134300D01*
X82800Y134700D01*
X82400D01*
X82000Y135100D01*
X81600Y134700D01*
X81200D01*
X81600Y134300D01*
X81200Y133900D01*
X81600D01*
X82000Y133500D01*
X73900Y129500D02*
X74300Y129900D01*
X74700D01*
X74300Y130300D01*
X74700Y130700D01*
X74300D01*
X73900Y131100D01*
X73500Y130700D01*
X73100D01*
X73500Y130300D01*
X73100Y129900D01*
X73500D01*
X73900Y129500D01*
X68100Y52450D02*
X68500Y52850D01*
X68900D01*
X68500Y53250D01*
X68900Y53650D01*
X68500D01*
X68100Y54050D01*
X67700Y53650D01*
X67300D01*
X67700Y53250D01*
X67300Y52850D01*
X67700D01*
X68100Y52450D01*
X40300Y53200D02*
X40700Y53600D01*
X41100D01*
X40700Y54000D01*
X41100Y54400D01*
X40700D01*
X40300Y54800D01*
X39900Y54400D01*
X39500D01*
X39900Y54000D01*
X39500Y53600D01*
X39900D01*
X40300Y53200D01*
X39800Y55300D02*
X40200Y55700D01*
X40600D01*
X40200Y56100D01*
X40600Y56500D01*
X40200D01*
X39800Y56900D01*
X39400Y56500D01*
X39000D01*
X39400Y56100D01*
X39000Y55700D01*
X39400D01*
X39800Y55300D01*
X80600Y89500D02*
X81000Y89900D01*
X81400D01*
X81000Y90300D01*
X81400Y90700D01*
X81000D01*
X80600Y91100D01*
X80200Y90700D01*
X79800D01*
X80200Y90300D01*
X79800Y89900D01*
X80200D01*
X80600Y89500D01*
X81800Y79100D02*
X82200Y79500D01*
X82600D01*
X82200Y79900D01*
X82600Y80300D01*
X82200D01*
X81800Y80700D01*
X81400Y80300D01*
X81000D01*
X81400Y79900D01*
X81000Y79500D01*
X81400D01*
X81800Y79100D01*
X76800Y74400D02*
X77200Y74800D01*
X77600D01*
X77200Y75200D01*
X77600Y75600D01*
X77200D01*
X76800Y76000D01*
X76400Y75600D01*
X76000D01*
X76400Y75200D01*
X76000Y74800D01*
X76400D01*
X76800Y74400D01*
X80400Y54700D02*
X80800Y55100D01*
X81200D01*
X80800Y55500D01*
X81200Y55900D01*
X80800D01*
X80400Y56300D01*
X80000Y55900D01*
X79600D01*
X80000Y55500D01*
X79600Y55100D01*
X80000D01*
X80400Y54700D01*
X103300Y82200D02*
X103700Y82600D01*
X104100D01*
X103700Y83000D01*
X104100Y83400D01*
X103700D01*
X103300Y83800D01*
X102900Y83400D01*
X102500D01*
X102900Y83000D01*
X102500Y82600D01*
X102900D01*
X103300Y82200D01*
X101100Y75700D02*
X101500Y76100D01*
X101900D01*
X101500Y76500D01*
X101900Y76900D01*
X101500D01*
X101100Y77300D01*
X100700Y76900D01*
X100300D01*
X100700Y76500D01*
X100300Y76100D01*
X100700D01*
X101100Y75700D01*
X104500Y76000D02*
X104900Y76400D01*
X105300D01*
X104900Y76800D01*
X105300Y77200D01*
X104900D01*
X104500Y77600D01*
X104100Y77200D01*
X103700D01*
X104100Y76800D01*
X103700Y76400D01*
X104100D01*
X104500Y76000D01*
X105300Y79700D02*
X105700Y80100D01*
X106100D01*
X105700Y80500D01*
X106100Y80900D01*
X105700D01*
X105300Y81300D01*
X104900Y80900D01*
X104500D01*
X104900Y80500D01*
X104500Y80100D01*
X104900D01*
X105300Y79700D01*
X102700Y79100D02*
X103100Y79500D01*
X103500D01*
X103100Y79900D01*
X103500Y80300D01*
X103100D01*
X102700Y80700D01*
X102300Y80300D01*
X101900D01*
X102300Y79900D01*
X101900Y79500D01*
X102300D01*
X102700Y79100D01*
X79900Y66000D02*
X80300Y66400D01*
X80700D01*
X80300Y66800D01*
X80700Y67200D01*
X80300D01*
X79900Y67600D01*
X79500Y67200D01*
X79100D01*
X79500Y66800D01*
X79100Y66400D01*
X79500D01*
X79900Y66000D01*
X81600Y67800D02*
X82000Y68200D01*
X82400D01*
X82000Y68600D01*
X82400Y69000D01*
X82000D01*
X81600Y69400D01*
X81200Y69000D01*
X80800D01*
X81200Y68600D01*
X80800Y68200D01*
X81200D01*
X81600Y67800D01*
X24900Y70500D02*
X25300Y70900D01*
X25700D01*
X25300Y71300D01*
X25700Y71700D01*
X25300D01*
X24900Y72100D01*
X24500Y71700D01*
X24100D01*
X24500Y71300D01*
X24100Y70900D01*
X24500D01*
X24900Y70500D01*
X21600Y70900D02*
X22000Y71300D01*
X22400D01*
X22000Y71700D01*
X22400Y72100D01*
X22000D01*
X21600Y72500D01*
X21200Y72100D01*
X20800D01*
X21200Y71700D01*
X20800Y71300D01*
X21200D01*
X21600Y70900D01*
X62800Y103000D02*
X63200Y103400D01*
X63600D01*
X63200Y103800D01*
X63600Y104200D01*
X63200D01*
X62800Y104600D01*
X62400Y104200D01*
X62000D01*
X62400Y103800D01*
X62000Y103400D01*
X62400D01*
X62800Y103000D01*
X57400Y11300D02*
X57800Y11700D01*
X58200D01*
X57800Y12100D01*
X58200Y12500D01*
X57800D01*
X57400Y12900D01*
X57000Y12500D01*
X56600D01*
X57000Y12100D01*
X56600Y11700D01*
X57000D01*
X57400Y11300D01*
Y14000D02*
X57800Y14400D01*
X58200D01*
X57800Y14800D01*
X58200Y15200D01*
X57800D01*
X57400Y15600D01*
X57000Y15200D01*
X56600D01*
X57000Y14800D01*
X56600Y14400D01*
X57000D01*
X57400Y14000D01*
X90300Y13400D02*
X90700Y13800D01*
X91100D01*
X90700Y14200D01*
X91100Y14600D01*
X90700D01*
X90300Y15000D01*
X89900Y14600D01*
X89500D01*
X89900Y14200D01*
X89500Y13800D01*
X89900D01*
X90300Y13400D01*
X92700Y13300D02*
X93100Y13700D01*
X93500D01*
X93100Y14100D01*
X93500Y14500D01*
X93100D01*
X92700Y14900D01*
X92300Y14500D01*
X91900D01*
X92300Y14100D01*
X91900Y13700D01*
X92300D01*
X92700Y13300D01*
X102900Y31700D02*
X103300Y32100D01*
X103700D01*
X103300Y32500D01*
X103700Y32900D01*
X103300D01*
X102900Y33300D01*
X102500Y32900D01*
X102100D01*
X102500Y32500D01*
X102100Y32100D01*
X102500D01*
X102900Y31700D01*
X113500Y13800D02*
X113900Y14200D01*
X114300D01*
X113900Y14600D01*
X114300Y15000D01*
X113900D01*
X113500Y15400D01*
X113100Y15000D01*
X112700D01*
X113100Y14600D01*
X112700Y14200D01*
X113100D01*
X113500Y13800D01*
X114800Y18600D02*
X115200Y19000D01*
X115600D01*
X115200Y19400D01*
X115600Y19800D01*
X115200D01*
X114800Y20200D01*
X114400Y19800D01*
X114000D01*
X114400Y19400D01*
X114000Y19000D01*
X114400D01*
X114800Y18600D01*
X110800Y71100D02*
X111200Y71500D01*
X111600D01*
X111200Y71900D01*
X111600Y72300D01*
X111200D01*
X110800Y72700D01*
X110400Y72300D01*
X110000D01*
X110400Y71900D01*
X110000Y71500D01*
X110400D01*
X110800Y71100D01*
X107600Y56800D02*
X108000Y57200D01*
X108400D01*
X108000Y57600D01*
X108400Y58000D01*
X108000D01*
X107600Y58400D01*
X107200Y58000D01*
X106800D01*
X107200Y57600D01*
X106800Y57200D01*
X107200D01*
X107600Y56800D01*
X109000Y47800D02*
X109400Y48200D01*
X109800D01*
X109400Y48600D01*
X109800Y49000D01*
X109400D01*
X109000Y49400D01*
X108600Y49000D01*
X108200D01*
X108600Y48600D01*
X108200Y48200D01*
X108600D01*
X109000Y47800D01*
X105300Y50400D02*
X105700Y50800D01*
X106100D01*
X105700Y51200D01*
X106100Y51600D01*
X105700D01*
X105300Y52000D01*
X104900Y51600D01*
X104500D01*
X104900Y51200D01*
X104500Y50800D01*
X104900D01*
X105300Y50400D01*
X109100Y61300D02*
X109500Y61700D01*
X109900D01*
X109500Y62100D01*
X109900Y62500D01*
X109500D01*
X109100Y62900D01*
X108700Y62500D01*
X108300D01*
X108700Y62100D01*
X108300Y61700D01*
X108700D01*
X109100Y61300D01*
X111800Y75200D02*
X112200Y75600D01*
X112600D01*
X112200Y76000D01*
X112600Y76400D01*
X112200D01*
X111800Y76800D01*
X111400Y76400D01*
X111000D01*
X111400Y76000D01*
X111000Y75600D01*
X111400D01*
X111800Y75200D01*
X90000Y53800D02*
X90400Y54200D01*
X90800D01*
X90400Y54600D01*
X90800Y55000D01*
X90400D01*
X90000Y55400D01*
X89600Y55000D01*
X89200D01*
X89600Y54600D01*
X89200Y54200D01*
X89600D01*
X90000Y53800D01*
X80400Y47400D02*
X80800Y47800D01*
X81200D01*
X80800Y48200D01*
X81200Y48600D01*
X80800D01*
X80400Y49000D01*
X80000Y48600D01*
X79600D01*
X80000Y48200D01*
X79600Y47800D01*
X80000D01*
X80400Y47400D01*
X80200Y25200D02*
X80600Y25600D01*
X81000D01*
X80600Y26000D01*
X81000Y26400D01*
X80600D01*
X80200Y26800D01*
X79800Y26400D01*
X79400D01*
X79800Y26000D01*
X79400Y25600D01*
X79800D01*
X80200Y25200D01*
X48900Y122600D02*
X49300Y123000D01*
X49700D01*
X49300Y123400D01*
X49700Y123800D01*
X49300D01*
X48900Y124200D01*
X48500Y123800D01*
X48100D01*
X48500Y123400D01*
X48100Y123000D01*
X48500D01*
X48900Y122600D01*
X41100Y126200D02*
X41500Y126600D01*
X41900D01*
X41500Y127000D01*
X41900Y127400D01*
X41500D01*
X41100Y127800D01*
X40700Y127400D01*
X40300D01*
X40700Y127000D01*
X40300Y126600D01*
X40700D01*
X41100Y126200D01*
X19900Y115300D02*
X20300Y115700D01*
X20700D01*
X20300Y116100D01*
X20700Y116500D01*
X20300D01*
X19900Y116900D01*
X19500Y116500D01*
X19100D01*
X19500Y116100D01*
X19100Y115700D01*
X19500D01*
X19900Y115300D01*
X5700Y120400D02*
X6100Y120800D01*
X6500D01*
X6100Y121200D01*
X6500Y121600D01*
X6100D01*
X5700Y122000D01*
X5300Y121600D01*
X4900D01*
X5300Y121200D01*
X4900Y120800D01*
X5300D01*
X5700Y120400D01*
X7600Y119200D02*
X8000Y119600D01*
X8400D01*
X8000Y120000D01*
X8400Y120400D01*
X8000D01*
X7600Y120800D01*
X7200Y120400D01*
X6800D01*
X7200Y120000D01*
X6800Y119600D01*
X7200D01*
X7600Y119200D01*
X5200Y99400D02*
X5600Y99800D01*
X6000D01*
X5600Y100200D01*
X6000Y100600D01*
X5600D01*
X5200Y101000D01*
X4800Y100600D01*
X4400D01*
X4800Y100200D01*
X4400Y99800D01*
X4800D01*
X5200Y99400D01*
X5700Y101900D02*
X6100Y102300D01*
X6500D01*
X6100Y102700D01*
X6500Y103100D01*
X6100D01*
X5700Y103500D01*
X5300Y103100D01*
X4900D01*
X5300Y102700D01*
X4900Y102300D01*
X5300D01*
X5700Y101900D01*
X11400Y67100D02*
X11800Y67500D01*
X12200D01*
X11800Y67900D01*
X12200Y68300D01*
X11800D01*
X11400Y68700D01*
X11000Y68300D01*
X10600D01*
X11000Y67900D01*
X10600Y67500D01*
X11000D01*
X11400Y67100D01*
Y69100D02*
X11800Y69500D01*
X12200D01*
X11800Y69900D01*
X12200Y70300D01*
X11800D01*
X11400Y70700D01*
X11000Y70300D01*
X10600D01*
X11000Y69900D01*
X10600Y69500D01*
X11000D01*
X11400Y69100D01*
X11500Y82700D02*
X11900Y83100D01*
X12300D01*
X11900Y83500D01*
X12300Y83900D01*
X11900D01*
X11500Y84300D01*
X11100Y83900D01*
X10700D01*
X11100Y83500D01*
X10700Y83100D01*
X11100D01*
X11500Y82700D01*
X87400Y89500D02*
X87800Y89900D01*
X88200D01*
X87800Y90300D01*
X88200Y90700D01*
X87800D01*
X87400Y91100D01*
X87000Y90700D01*
X86600D01*
X87000Y90300D01*
X86600Y89900D01*
X87000D01*
X87400Y89500D01*
X91200Y124900D02*
X91600Y125300D01*
X92000D01*
X91600Y125700D01*
X92000Y126100D01*
X91600D01*
X91200Y126500D01*
X90800Y126100D01*
X90400D01*
X90800Y125700D01*
X90400Y125300D01*
X90800D01*
X91200Y124900D01*
X87200Y125800D02*
X87600Y126200D01*
X88000D01*
X87600Y126600D01*
X88000Y127000D01*
X87600D01*
X87200Y127400D01*
X86800Y127000D01*
X86400D01*
X86800Y126600D01*
X86400Y126200D01*
X86800D01*
X87200Y125800D01*
X67500Y119700D02*
X67900Y120100D01*
X68300D01*
X67900Y120500D01*
X68300Y120900D01*
X67900D01*
X67500Y121300D01*
X67100Y120900D01*
X66700D01*
X67100Y120500D01*
X66700Y120100D01*
X67100D01*
X67500Y119700D01*
X66100Y117400D02*
X66500Y117800D01*
X66900D01*
X66500Y118200D01*
X66900Y118600D01*
X66500D01*
X66100Y119000D01*
X65700Y118600D01*
X65300D01*
X65700Y118200D01*
X65300Y117800D01*
X65700D01*
X66100Y117400D01*
X60500Y136600D02*
X60900Y137000D01*
X61300D01*
X60900Y137400D01*
X61300Y137800D01*
X60900D01*
X60500Y138200D01*
X60100Y137800D01*
X59700D01*
X60100Y137400D01*
X59700Y137000D01*
X60100D01*
X60500Y136600D01*
X54800Y137000D02*
X55200Y137400D01*
X55600D01*
X55200Y137800D01*
X55600Y138200D01*
X55200D01*
X54800Y138600D01*
X54400Y138200D01*
X54000D01*
X54400Y137800D01*
X54000Y137400D01*
X54400D01*
X54800Y137000D01*
X57200D02*
X57600Y137400D01*
X58000D01*
X57600Y137800D01*
X58000Y138200D01*
X57600D01*
X57200Y138600D01*
X56800Y138200D01*
X56400D01*
X56800Y137800D01*
X56400Y137400D01*
X56800D01*
X57200Y137000D01*
X37000Y136900D02*
X37400Y137300D01*
X37800D01*
X37400Y137700D01*
X37800Y138100D01*
X37400D01*
X37000Y138500D01*
X36600Y138100D01*
X36200D01*
X36600Y137700D01*
X36200Y137300D01*
X36600D01*
X37000Y136900D01*
X39300Y136800D02*
X39700Y137200D01*
X40100D01*
X39700Y137600D01*
X40100Y138000D01*
X39700D01*
X39300Y138400D01*
X38900Y138000D01*
X38500D01*
X38900Y137600D01*
X38500Y137200D01*
X38900D01*
X39300Y136800D01*
X95700Y118600D02*
X96100Y119000D01*
X96500D01*
X96100Y119400D01*
X96500Y119800D01*
X96100D01*
X95700Y120200D01*
X95300Y119800D01*
X94900D01*
X95300Y119400D01*
X94900Y119000D01*
X95300D01*
X95700Y118600D01*
X97800Y118300D02*
X98200Y118700D01*
X98600D01*
X98200Y119100D01*
X98600Y119500D01*
X98200D01*
X97800Y119900D01*
X97400Y119500D01*
X97000D01*
X97400Y119100D01*
X97000Y118700D01*
X97400D01*
X97800Y118300D01*
X102300Y101000D02*
X102700Y101400D01*
X103100D01*
X102700Y101800D01*
X103100Y102200D01*
X102700D01*
X102300Y102600D01*
X101900Y102200D01*
X101500D01*
X101900Y101800D01*
X101500Y101400D01*
X101900D01*
X102300Y101000D01*
X102600Y98500D02*
X103000Y98900D01*
X103400D01*
X103000Y99300D01*
X103400Y99700D01*
X103000D01*
X102600Y100100D01*
X102200Y99700D01*
X101800D01*
X102200Y99300D01*
X101800Y98900D01*
X102200D01*
X102600Y98500D01*
X95600Y56500D02*
X96000Y56900D01*
X96400D01*
X96000Y57300D01*
X96400Y57700D01*
X96000D01*
X95600Y58100D01*
X95200Y57700D01*
X94800D01*
X95200Y57300D01*
X94800Y56900D01*
X95200D01*
X95600Y56500D01*
X95700Y62300D02*
X96100Y62700D01*
X96500D01*
X96100Y63100D01*
X96500Y63500D01*
X96100D01*
X95700Y63900D01*
X95300Y63500D01*
X94900D01*
X95300Y63100D01*
X94900Y62700D01*
X95300D01*
X95700Y62300D01*
X87900Y55800D02*
X88300Y56200D01*
X88700D01*
X88300Y56600D01*
X88700Y57000D01*
X88300D01*
X87900Y57400D01*
X87500Y57000D01*
X87100D01*
X87500Y56600D01*
X87100Y56200D01*
X87500D01*
X87900Y55800D01*
X89200Y60100D02*
X89600Y60500D01*
X90000D01*
X89600Y60900D01*
X90000Y61300D01*
X89600D01*
X89200Y61700D01*
X88800Y61300D01*
X88400D01*
X88800Y60900D01*
X88400Y60500D01*
X88800D01*
X89200Y60100D01*
X85300Y65500D02*
X85700Y65900D01*
X86100D01*
X85700Y66300D01*
X86100Y66700D01*
X85700D01*
X85300Y67100D01*
X84900Y66700D01*
X84500D01*
X84900Y66300D01*
X84500Y65900D01*
X84900D01*
X85300Y65500D01*
X75800Y59000D02*
X76200Y59400D01*
X76600D01*
X76200Y59800D01*
X76600Y60200D01*
X76200D01*
X75800Y60600D01*
X75400Y60200D01*
X75000D01*
X75400Y59800D01*
X75000Y59400D01*
X75400D01*
X75800Y59000D01*
X75300Y55400D02*
X75700Y55800D01*
X76100D01*
X75700Y56200D01*
X76100Y56600D01*
X75700D01*
X75300Y57000D01*
X74900Y56600D01*
X74500D01*
X74900Y56200D01*
X74500Y55800D01*
X74900D01*
X75300Y55400D01*
X70800Y51200D02*
X71200Y51600D01*
X71600D01*
X71200Y52000D01*
X71600Y52400D01*
X71200D01*
X70800Y52800D01*
X70400Y52400D01*
X70000D01*
X70400Y52000D01*
X70000Y51600D01*
X70400D01*
X70800Y51200D01*
X71400Y57500D02*
X71800Y57900D01*
X72200D01*
X71800Y58300D01*
X72200Y58700D01*
X71800D01*
X71400Y59100D01*
X71000Y58700D01*
X70600D01*
X71000Y58300D01*
X70600Y57900D01*
X71000D01*
X71400Y57500D01*
X75400Y20700D02*
X75800Y21100D01*
X76200D01*
X75800Y21500D01*
X76200Y21900D01*
X75800D01*
X75400Y22300D01*
X75000Y21900D01*
X74600D01*
X75000Y21500D01*
X74600Y21100D01*
X75000D01*
X75400Y20700D01*
X78700Y20000D02*
X79100Y20400D01*
X79500D01*
X79100Y20800D01*
X79500Y21200D01*
X79100D01*
X78700Y21600D01*
X78300Y21200D01*
X77900D01*
X78300Y20800D01*
X77900Y20400D01*
X78300D01*
X78700Y20000D01*
X71400Y10300D02*
X71800Y10700D01*
X72200D01*
X71800Y11100D01*
X72200Y11500D01*
X71800D01*
X71400Y11900D01*
X71000Y11500D01*
X70600D01*
X71000Y11100D01*
X70600Y10700D01*
X71000D01*
X71400Y10300D01*
X74500Y16600D02*
X74900Y17000D01*
X75300D01*
X74900Y17400D01*
X75300Y17800D01*
X74900D01*
X74500Y18200D01*
X74100Y17800D01*
X73700D01*
X74100Y17400D01*
X73700Y17000D01*
X74100D01*
X74500Y16600D01*
X76900D02*
X77300Y17000D01*
X77700D01*
X77300Y17400D01*
X77700Y17800D01*
X77300D01*
X76900Y18200D01*
X76500Y17800D01*
X76100D01*
X76500Y17400D01*
X76100Y17000D01*
X76500D01*
X76900Y16600D01*
X90300Y4700D02*
X90700Y5100D01*
X91100D01*
X90700Y5500D01*
X91100Y5900D01*
X90700D01*
X90300Y6300D01*
X89900Y5900D01*
X89500D01*
X89900Y5500D01*
X89500Y5100D01*
X89900D01*
X90300Y4700D01*
X85900D02*
X86300Y5100D01*
X86700D01*
X86300Y5500D01*
X86700Y5900D01*
X86300D01*
X85900Y6300D01*
X85500Y5900D01*
X85100D01*
X85500Y5500D01*
X85100Y5100D01*
X85500D01*
X85900Y4700D01*
X88100D02*
X88500Y5100D01*
X88900D01*
X88500Y5500D01*
X88900Y5900D01*
X88500D01*
X88100Y6300D01*
X87700Y5900D01*
X87300D01*
X87700Y5500D01*
X87300Y5100D01*
X87700D01*
X88100Y4700D01*
X112300Y29400D02*
X112700Y29800D01*
X113100D01*
X112700Y30200D01*
X113100Y30600D01*
X112700D01*
X112300Y31000D01*
X111900Y30600D01*
X111500D01*
X111900Y30200D01*
X111500Y29800D01*
X111900D01*
X112300Y29400D01*
X106200Y9300D02*
X106600Y9700D01*
X107000D01*
X106600Y10100D01*
X107000Y10500D01*
X106600D01*
X106200Y10900D01*
X105800Y10500D01*
X105400D01*
X105800Y10100D01*
X105400Y9700D01*
X105800D01*
X106200Y9300D01*
X106000Y7000D02*
X106400Y7400D01*
X106800D01*
X106400Y7800D01*
X106800Y8200D01*
X106400D01*
X106000Y8600D01*
X105600Y8200D01*
X105200D01*
X105600Y7800D01*
X105200Y7400D01*
X105600D01*
X106000Y7000D01*
X105500Y19700D02*
X105900Y20100D01*
X106300D01*
X105900Y20500D01*
X106300Y20900D01*
X105900D01*
X105500Y21300D01*
X105100Y20900D01*
X104700D01*
X105100Y20500D01*
X104700Y20100D01*
X105100D01*
X105500Y19700D01*
X105600Y21700D02*
X106000Y22100D01*
X106400D01*
X106000Y22500D01*
X106400Y22900D01*
X106000D01*
X105600Y23300D01*
X105200Y22900D01*
X104800D01*
X105200Y22500D01*
X104800Y22100D01*
X105200D01*
X105600Y21700D01*
X109600Y27700D02*
X110000Y28100D01*
X110400D01*
X110000Y28500D01*
X110400Y28900D01*
X110000D01*
X109600Y29300D01*
X109200Y28900D01*
X108800D01*
X109200Y28500D01*
X108800Y28100D01*
X109200D01*
X109600Y27700D01*
X109000Y29800D02*
X109400Y30200D01*
X109800D01*
X109400Y30600D01*
X109800Y31000D01*
X109400D01*
X109000Y31400D01*
X108600Y31000D01*
X108200D01*
X108600Y30600D01*
X108200Y30200D01*
X108600D01*
X109000Y29800D01*
X106800Y28400D02*
X107200Y28800D01*
X107600D01*
X107200Y29200D01*
X107600Y29600D01*
X107200D01*
X106800Y30000D01*
X106400Y29600D01*
X106000D01*
X106400Y29200D01*
X106000Y28800D01*
X106400D01*
X106800Y28400D01*
X73400Y30400D02*
X73800Y30800D01*
X74200D01*
X73800Y31200D01*
X74200Y31600D01*
X73800D01*
X73400Y32000D01*
X73000Y31600D01*
X72600D01*
X73000Y31200D01*
X72600Y30800D01*
X73000D01*
X73400Y30400D01*
X73000Y41800D02*
X73400Y42200D01*
X73800D01*
X73400Y42600D01*
X73800Y43000D01*
X73400D01*
X73000Y43400D01*
X72600Y43000D01*
X72200D01*
X72600Y42600D01*
X72200Y42200D01*
X72600D01*
X73000Y41800D01*
X71400Y34300D02*
X71800Y34700D01*
X72200D01*
X71800Y35100D01*
X72200Y35500D01*
X71800D01*
X71400Y35900D01*
X71000Y35500D01*
X70600D01*
X71000Y35100D01*
X70600Y34700D01*
X71000D01*
X71400Y34300D01*
X74300Y32600D02*
X74700Y33000D01*
X75100D01*
X74700Y33400D01*
X75100Y33800D01*
X74700D01*
X74300Y34200D01*
X73900Y33800D01*
X73500D01*
X73900Y33400D01*
X73500Y33000D01*
X73900D01*
X74300Y32600D01*
X37100Y35200D02*
X37500Y35600D01*
X37900D01*
X37500Y36000D01*
X37900Y36400D01*
X37500D01*
X37100Y36800D01*
X36700Y36400D01*
X36300D01*
X36700Y36000D01*
X36300Y35600D01*
X36700D01*
X37100Y35200D01*
X4700Y82400D02*
X5100Y82800D01*
X5500D01*
X5100Y83200D01*
X5500Y83600D01*
X5100D01*
X4700Y84000D01*
X4300Y83600D01*
X3900D01*
X4300Y83200D01*
X3900Y82800D01*
X4300D01*
X4700Y82400D01*
X11300Y80000D02*
X11700Y80400D01*
X12100D01*
X11700Y80800D01*
X12100Y81200D01*
X11700D01*
X11300Y81600D01*
X10900Y81200D01*
X10500D01*
X10900Y80800D01*
X10500Y80400D01*
X10900D01*
X11300Y80000D01*
X3400Y23400D02*
X3800Y23800D01*
X4200D01*
X3800Y24200D01*
X4200Y24600D01*
X3800D01*
X3400Y25000D01*
X3000Y24600D01*
X2600D01*
X3000Y24200D01*
X2600Y23800D01*
X3000D01*
X3400Y23400D01*
X4800Y28700D02*
X5200Y29100D01*
X5600D01*
X5200Y29500D01*
X5600Y29900D01*
X5200D01*
X4800Y30300D01*
X4400Y29900D01*
X4000D01*
X4400Y29500D01*
X4000Y29100D01*
X4400D01*
X4800Y28700D01*
X3900Y36000D02*
X4300Y36400D01*
X4700D01*
X4300Y36800D01*
X4700Y37200D01*
X4300D01*
X3900Y37600D01*
X3500Y37200D01*
X3100D01*
X3500Y36800D01*
X3100Y36400D01*
X3500D01*
X3900Y36000D01*
X7200Y43700D02*
X7600Y44100D01*
X8000D01*
X7600Y44500D01*
X8000Y44900D01*
X7600D01*
X7200Y45300D01*
X6800Y44900D01*
X6400D01*
X6800Y44500D01*
X6400Y44100D01*
X6800D01*
X7200Y43700D01*
X34900Y46800D02*
X35300Y47200D01*
X35700D01*
X35300Y47600D01*
X35700Y48000D01*
X35300D01*
X34900Y48400D01*
X34500Y48000D01*
X34100D01*
X34500Y47600D01*
X34100Y47200D01*
X34500D01*
X34900Y46800D01*
X33900Y17400D02*
X34300Y17800D01*
X34700D01*
X34300Y18200D01*
X34700Y18600D01*
X34300D01*
X33900Y19000D01*
X33500Y18600D01*
X33100D01*
X33500Y18200D01*
X33100Y17800D01*
X33500D01*
X33900Y17400D01*
X40700D02*
X41100Y17800D01*
X41500D01*
X41100Y18200D01*
X41500Y18600D01*
X41100D01*
X40700Y19000D01*
X40300Y18600D01*
X39900D01*
X40300Y18200D01*
X39900Y17800D01*
X40300D01*
X40700Y17400D01*
X34000Y22500D02*
X34400Y22900D01*
X34800D01*
X34400Y23300D01*
X34800Y23700D01*
X34400D01*
X34000Y24100D01*
X33600Y23700D01*
X33200D01*
X33600Y23300D01*
X33200Y22900D01*
X33600D01*
X34000Y22500D01*
X40600Y22300D02*
X41000Y22700D01*
X41400D01*
X41000Y23100D01*
X41400Y23500D01*
X41000D01*
X40600Y23900D01*
X40200Y23500D01*
X39800D01*
X40200Y23100D01*
X39800Y22700D01*
X40200D01*
X40600Y22300D01*
X37200Y19500D02*
X37600Y19900D01*
X38000D01*
X37600Y20300D01*
X38000Y20700D01*
X37600D01*
X37200Y21100D01*
X36800Y20700D01*
X36400D01*
X36800Y20300D01*
X36400Y19900D01*
X36800D01*
X37200Y19500D01*
X36400Y39400D02*
X36800Y39800D01*
X37200D01*
X36800Y40200D01*
X37200Y40600D01*
X36800D01*
X36400Y41000D01*
X36000Y40600D01*
X35600D01*
X36000Y40200D01*
X35600Y39800D01*
X36000D01*
X36400Y39400D01*
X37700Y45900D02*
X38100Y46300D01*
X38500D01*
X38100Y46700D01*
X38500Y47100D01*
X38100D01*
X37700Y47500D01*
X37300Y47100D01*
X36900D01*
X37300Y46700D01*
X36900Y46300D01*
X37300D01*
X37700Y45900D01*
X36500Y43000D02*
X36900Y43400D01*
X37300D01*
X36900Y43800D01*
X37300Y44200D01*
X36900D01*
X36500Y44600D01*
X36100Y44200D01*
X35700D01*
X36100Y43800D01*
X35700Y43400D01*
X36100D01*
X36500Y43000D01*
X44266Y104501D02*
X44666Y104901D01*
X45066D01*
X44666Y105301D01*
X45066Y105701D01*
X44666D01*
X44266Y106101D01*
X43866Y105701D01*
X43466D01*
X43866Y105301D01*
X43466Y104901D01*
X43866D01*
X44266Y104501D01*
X41791Y102026D02*
X42191Y102426D01*
X42591D01*
X42191Y102826D01*
X42591Y103226D01*
X42191D01*
X41791Y103626D01*
X41391Y103226D01*
X40991D01*
X41391Y102826D01*
X40991Y102426D01*
X41391D01*
X41791Y102026D01*
X39316Y99551D02*
X39716Y99951D01*
X40116D01*
X39716Y100352D01*
X40116Y100751D01*
X39716D01*
X39316Y101152D01*
X38916Y100751D01*
X38516D01*
X38916Y100352D01*
X38516Y99951D01*
X38916D01*
X39316Y99551D01*
X36841Y102026D02*
X37241Y102426D01*
X37641D01*
X37241Y102826D01*
X37641Y103226D01*
X37241D01*
X36841Y103626D01*
X36441Y103226D01*
X36041D01*
X36441Y102826D01*
X36041Y102426D01*
X36441D01*
X36841Y102026D01*
X39316Y104501D02*
X39716Y104901D01*
X40116D01*
X39716Y105301D01*
X40116Y105701D01*
X39716D01*
X39316Y106101D01*
X38916Y105701D01*
X38516D01*
X38916Y105301D01*
X38516Y104901D01*
X38916D01*
X39316Y104501D01*
X41791Y106976D02*
X42191Y107376D01*
X42591D01*
X42191Y107776D01*
X42591Y108176D01*
X42191D01*
X41791Y108576D01*
X41391Y108176D01*
X40991D01*
X41391Y107776D01*
X40991Y107376D01*
X41391D01*
X41791Y106976D01*
X39316Y109451D02*
X39716Y109851D01*
X40116D01*
X39716Y110251D01*
X40116Y110651D01*
X39716D01*
X39316Y111051D01*
X38916Y110651D01*
X38516D01*
X38916Y110251D01*
X38516Y109851D01*
X38916D01*
X39316Y109451D01*
X34367Y104501D02*
X34767Y104901D01*
X35166D01*
X34767Y105301D01*
X35166Y105701D01*
X34767D01*
X34367Y106101D01*
X33966Y105701D01*
X33566D01*
X33966Y105301D01*
X33566Y104901D01*
X33966D01*
X34367Y104501D01*
X36841Y106976D02*
X37241Y107376D01*
X37641D01*
X37241Y107776D01*
X37641Y108176D01*
X37241D01*
X36841Y108576D01*
X36441Y108176D01*
X36041D01*
X36441Y107776D01*
X36041Y107376D01*
X36441D01*
X36841Y106976D01*
X57400Y24500D02*
X57800Y24900D01*
X58200D01*
X57800Y25300D01*
X58200Y25700D01*
X57800D01*
X57400Y26100D01*
X57000Y25700D01*
X56600D01*
X57000Y25300D01*
X56600Y24900D01*
X57000D01*
X57400Y24500D01*
X78900Y13700D02*
X79300Y14100D01*
X79700D01*
X79300Y14500D01*
X79700Y14900D01*
X79300D01*
X78900Y15300D01*
X78500Y14900D01*
X78100D01*
X78500Y14500D01*
X78100Y14100D01*
X78500D01*
X78900Y13700D01*
X19600Y107600D02*
X20000Y108000D01*
X20400D01*
X20000Y108400D01*
X20400Y108800D01*
X20000D01*
X19600Y109200D01*
X19200Y108800D01*
X18800D01*
X19200Y108400D01*
X18800Y108000D01*
X19200D01*
X19600Y107600D01*
X21400Y109600D02*
X21800Y110000D01*
X22200D01*
X21800Y110400D01*
X22200Y110800D01*
X21800D01*
X21400Y111200D01*
X21000Y110800D01*
X20600D01*
X21000Y110400D01*
X20600Y110000D01*
X21000D01*
X21400Y109600D01*
X17300Y97000D02*
X17700Y97400D01*
X18100D01*
X17700Y97800D01*
X18100Y98200D01*
X17700D01*
X17300Y98600D01*
X16900Y98200D01*
X16500D01*
X16900Y97800D01*
X16500Y97400D01*
X16900D01*
X17300Y97000D01*
X16800Y99500D02*
X17200Y99900D01*
X17600D01*
X17200Y100300D01*
X17600Y100700D01*
X17200D01*
X16800Y101100D01*
X16400Y100700D01*
X16000D01*
X16400Y100300D01*
X16000Y99900D01*
X16400D01*
X16800Y99500D01*
X18400Y101300D02*
X18800Y101700D01*
X19200D01*
X18800Y102100D01*
X19200Y102500D01*
X18800D01*
X18400Y102900D01*
X18000Y102500D01*
X17600D01*
X18000Y102100D01*
X17600Y101700D01*
X18000D01*
X18400Y101300D01*
X33500Y53500D02*
X33900Y53900D01*
X34300D01*
X33900Y54300D01*
X34300Y54700D01*
X33900D01*
X33500Y55100D01*
X33100Y54700D01*
X32700D01*
X33100Y54300D01*
X32700Y53900D01*
X33100D01*
X33500Y53500D01*
X46100Y28300D02*
X46500Y28700D01*
X46900D01*
X46500Y29100D01*
X46900Y29500D01*
X46500D01*
X46100Y29900D01*
X45700Y29500D01*
X45300D01*
X45700Y29100D01*
X45300Y28700D01*
X45700D01*
X46100Y28300D01*
X53700Y53300D02*
X54100Y53700D01*
X54500D01*
X54100Y54100D01*
X54500Y54500D01*
X54100D01*
X53700Y54900D01*
X53300Y54500D01*
X52900D01*
X53300Y54100D01*
X52900Y53700D01*
X53300D01*
X53700Y53300D01*
X32200Y90000D02*
X32600Y90400D01*
X33000D01*
X32600Y90800D01*
X33000Y91200D01*
X32600D01*
X32200Y91600D01*
X31800Y91200D01*
X31400D01*
X31800Y90800D01*
X31400Y90400D01*
X31800D01*
X32200Y90000D01*
X32800Y83500D02*
X33200Y83900D01*
X33600D01*
X33200Y84300D01*
X33600Y84700D01*
X33200D01*
X32800Y85100D01*
X32400Y84700D01*
X32000D01*
X32400Y84300D01*
X32000Y83900D01*
X32400D01*
X32800Y83500D01*
X26200Y83400D02*
X26600Y83800D01*
X27000D01*
X26600Y84200D01*
X27000Y84600D01*
X26600D01*
X26200Y85000D01*
X25800Y84600D01*
X25400D01*
X25800Y84200D01*
X25400Y83800D01*
X25800D01*
X26200Y83400D01*
X8500Y112300D02*
X8900Y112700D01*
X9300D01*
X8900Y113100D01*
X9300Y113500D01*
X8900D01*
X8500Y113900D01*
X8100Y113500D01*
X7700D01*
X8100Y113100D01*
X7700Y112700D01*
X8100D01*
X8500Y112300D01*
Y98400D02*
X8900Y98800D01*
X9300D01*
X8900Y99200D01*
X9300Y99600D01*
X8900D01*
X8500Y100000D01*
X8100Y99600D01*
X7700D01*
X8100Y99200D01*
X7700Y98800D01*
X8100D01*
X8500Y98400D01*
X26200Y4400D02*
X26600Y4800D01*
X27000D01*
X26600Y5200D01*
X27000Y5600D01*
X26600D01*
X26200Y6000D01*
X25800Y5600D01*
X25400D01*
X25800Y5200D01*
X25400Y4800D01*
X25800D01*
X26200Y4400D01*
X27285Y27685D02*
X27685Y28085D01*
X28085D01*
X27685Y28485D01*
X28085Y28885D01*
X27685D01*
X27285Y29285D01*
X26885Y28885D01*
X26485D01*
X26885Y28485D01*
X26485Y28085D01*
X26885D01*
X27285Y27685D01*
X35100Y6000D02*
X35500Y6400D01*
X35900D01*
X35500Y6800D01*
X35900Y7200D01*
X35500D01*
X35100Y7600D01*
X34700Y7200D01*
X34300D01*
X34700Y6800D01*
X34300Y6400D01*
X34700D01*
X35100Y6000D01*
X40200Y4900D02*
X40600Y5300D01*
X41000D01*
X40600Y5700D01*
X41000Y6100D01*
X40600D01*
X40200Y6500D01*
X39800Y6100D01*
X39400D01*
X39800Y5700D01*
X39400Y5300D01*
X39800D01*
X40200Y4900D01*
X30900Y6000D02*
X31300Y6400D01*
X31700D01*
X31300Y6800D01*
X31700Y7200D01*
X31300D01*
X30900Y7600D01*
X30500Y7200D01*
X30100D01*
X30500Y6800D01*
X30100Y6400D01*
X30500D01*
X30900Y6000D01*
X37200Y4800D02*
X37600Y5200D01*
X38000D01*
X37600Y5600D01*
X38000Y6000D01*
X37600D01*
X37200Y6400D01*
X36800Y6000D01*
X36400D01*
X36800Y5600D01*
X36400Y5200D01*
X36800D01*
X37200Y4800D01*
X25900Y32400D02*
X26300Y32800D01*
X26700D01*
X26300Y33200D01*
X26700Y33600D01*
X26300D01*
X25900Y34000D01*
X25500Y33600D01*
X25100D01*
X25500Y33200D01*
X25100Y32800D01*
X25500D01*
X25900Y32400D01*
X21600Y55700D02*
X22000Y56100D01*
X22400D01*
X22000Y56500D01*
X22400Y56900D01*
X22000D01*
X21600Y57300D01*
X21200Y56900D01*
X20800D01*
X21200Y56500D01*
X20800Y56100D01*
X21200D01*
X21600Y55700D01*
X7000Y93700D02*
X7400Y94100D01*
X7800D01*
X7400Y94500D01*
X7800Y94900D01*
X7400D01*
X7000Y95300D01*
X6600Y94900D01*
X6200D01*
X6600Y94500D01*
X6200Y94100D01*
X6600D01*
X7000Y93700D01*
X-4200Y105100D02*
X-3800Y105500D01*
X-3400D01*
X-3800Y105900D01*
X-3400Y106300D01*
X-3800D01*
X-4200Y106700D01*
X-4600Y106300D01*
X-5000D01*
X-4600Y105900D01*
X-5000Y105500D01*
X-4600D01*
X-4200Y105100D01*
X-5500Y103947D02*
X-5100Y104347D01*
X-4700D01*
X-5100Y104747D01*
X-4700Y105147D01*
X-5100D01*
X-5500Y105547D01*
X-5900Y105147D01*
X-6300D01*
X-5900Y104747D01*
X-6300Y104347D01*
X-5900D01*
X-5500Y103947D01*
X28700Y116800D02*
X29100Y117200D01*
X29500D01*
X29100Y117600D01*
X29500Y118000D01*
X29100D01*
X28700Y118400D01*
X28300Y118000D01*
X27900D01*
X28300Y117600D01*
X27900Y117200D01*
X28300D01*
X28700Y116800D01*
X55000Y111100D02*
X55400Y111500D01*
X55800D01*
X55400Y111900D01*
X55800Y112300D01*
X55400D01*
X55000Y112700D01*
X54600Y112300D01*
X54200D01*
X54600Y111900D01*
X54200Y111500D01*
X54600D01*
X55000Y111100D01*
X58800Y110300D02*
X59200Y110700D01*
X59600D01*
X59200Y111100D01*
X59600Y111500D01*
X59200D01*
X58800Y111900D01*
X58400Y111500D01*
X58000D01*
X58400Y111100D01*
X58000Y110700D01*
X58400D01*
X58800Y110300D01*
X56800Y109000D02*
X57200Y109400D01*
X57600D01*
X57200Y109800D01*
X57600Y110200D01*
X57200D01*
X56800Y110600D01*
X56400Y110200D01*
X56000D01*
X56400Y109800D01*
X56000Y109400D01*
X56400D01*
X56800Y109000D01*
X44200Y136900D02*
X44600Y137300D01*
X45000D01*
X44600Y137700D01*
X45000Y138100D01*
X44600D01*
X44200Y138500D01*
X43800Y138100D01*
X43400D01*
X43800Y137700D01*
X43400Y137300D01*
X43800D01*
X44200Y136900D01*
X100700Y111500D02*
X101100Y111900D01*
X101500D01*
X101100Y112300D01*
X101500Y112700D01*
X101100D01*
X100700Y113100D01*
X100300Y112700D01*
X99900D01*
X100300Y112300D01*
X99900Y111900D01*
X100300D01*
X100700Y111500D01*
X4200Y80000D02*
X4600Y80400D01*
X5000D01*
X4600Y80800D01*
X5000Y81200D01*
X4600D01*
X4200Y81600D01*
X3800Y81200D01*
X3400D01*
X3800Y80800D01*
X3400Y80400D01*
X3800D01*
X4200Y80000D01*
X27400Y90600D02*
X27800Y91000D01*
X28200D01*
X27800Y91400D01*
X28200Y91800D01*
X27800D01*
X27400Y92200D01*
X27000Y91800D01*
X26600D01*
X27000Y91400D01*
X26600Y91000D01*
X27000D01*
X27400Y90600D01*
X23900Y92500D02*
X24300Y92900D01*
X24700D01*
X24300Y93300D01*
X24700Y93700D01*
X24300D01*
X23900Y94100D01*
X23500Y93700D01*
X23100D01*
X23500Y93300D01*
X23100Y92900D01*
X23500D01*
X23900Y92500D01*
X29700Y90400D02*
X30100Y90800D01*
X30500D01*
X30100Y91200D01*
X30500Y91600D01*
X30100D01*
X29700Y92000D01*
X29300Y91600D01*
X28900D01*
X29300Y91200D01*
X28900Y90800D01*
X29300D01*
X29700Y90400D01*
X23200Y94800D02*
X23600Y95200D01*
X24000D01*
X23600Y95600D01*
X24000Y96000D01*
X23600D01*
X23200Y96400D01*
X22800Y96000D01*
X22400D01*
X22800Y95600D01*
X22400Y95200D01*
X22800D01*
X23200Y94800D01*
X93400Y27400D02*
X93800Y27800D01*
X94200D01*
X93800Y28200D01*
X94200Y28600D01*
X93800D01*
X93400Y29000D01*
X93000Y28600D01*
X92600D01*
X93000Y28200D01*
X92600Y27800D01*
X93000D01*
X93400Y27400D01*
X95200Y27400D02*
X95600Y27800D01*
X96000D01*
X95600Y28200D01*
X96000Y28600D01*
X95600D01*
X95200Y29000D01*
X94800Y28600D01*
X94400D01*
X94800Y28200D01*
X94400Y27800D01*
X94800D01*
X95200Y27400D01*
X21800Y49600D02*
X22200Y50000D01*
X22600D01*
X22200Y50400D01*
X22600Y50800D01*
X22200D01*
X21800Y51200D01*
X21400Y50800D01*
X21000D01*
X21400Y50400D01*
X21000Y50000D01*
X21400D01*
X21800Y49600D01*
X88100Y41000D02*
X88500Y41400D01*
X88900D01*
X88500Y41800D01*
X88900Y42200D01*
X88500D01*
X88100Y42600D01*
X87700Y42200D01*
X87300D01*
X87700Y41800D01*
X87300Y41400D01*
X87700D01*
X88100Y41000D01*
X99100Y41000D02*
X99500Y41400D01*
X99900D01*
X99500Y41800D01*
X99900Y42200D01*
X99500D01*
X99100Y42600D01*
X98700Y42200D01*
X98300D01*
X98700Y41800D01*
X98300Y41400D01*
X98700D01*
X99100Y41000D01*
X75100Y36800D02*
X75500Y37200D01*
X75900D01*
X75500Y37600D01*
X75900Y38000D01*
X75500D01*
X75100Y38400D01*
X74700Y38000D01*
X74300D01*
X74700Y37600D01*
X74300Y37200D01*
X74700D01*
X75100Y36800D01*
X21600Y53613D02*
X22000Y54013D01*
X22400D01*
X22000Y54413D01*
X22400Y54813D01*
X22000D01*
X21600Y55213D01*
X21200Y54813D01*
X20800D01*
X21200Y54413D01*
X20800Y54013D01*
X21200D01*
X21600Y53613D01*
X11600Y36500D02*
X12000Y36900D01*
X12400D01*
X12000Y37300D01*
X12400Y37700D01*
X12000D01*
X11600Y38100D01*
X11200Y37700D01*
X10800D01*
X11200Y37300D01*
X10800Y36900D01*
X11200D01*
X11600Y36500D01*
X14421Y33479D02*
X14820Y33880D01*
X15221D01*
X14820Y34280D01*
X15221Y34679D01*
X14820D01*
X14421Y35080D01*
X14020Y34679D01*
X13621D01*
X14020Y34280D01*
X13621Y33880D01*
X14020D01*
X14421Y33479D01*
X62100Y110500D02*
X62500Y110900D01*
X62900D01*
X62500Y111300D01*
X62900Y111700D01*
X62500D01*
X62100Y112100D01*
X61700Y111700D01*
X61300D01*
X61700Y111300D01*
X61300Y110900D01*
X61700D01*
X62100Y110500D01*
X54600Y116500D02*
X55000Y116900D01*
X55400D01*
X55000Y117300D01*
X55400Y117700D01*
X55000D01*
X54600Y118100D01*
X54200Y117700D01*
X53800D01*
X54200Y117300D01*
X53800Y116900D01*
X54200D01*
X54600Y116500D01*
X84800Y82000D02*
X85200Y82400D01*
X85600D01*
X85200Y82800D01*
X85600Y83200D01*
X85200D01*
X84800Y83600D01*
X84400Y83200D01*
X84000D01*
X84400Y82800D01*
X84000Y82400D01*
X84400D01*
X84800Y82000D01*
X68300Y80000D02*
X68700Y80400D01*
X69100D01*
X68700Y80800D01*
X69100Y81200D01*
X68700D01*
X68300Y81600D01*
X67900Y81200D01*
X67500D01*
X67900Y80800D01*
X67500Y80400D01*
X67900D01*
X68300Y80000D01*
X72600Y80600D02*
X73000Y81000D01*
X73400D01*
X73000Y81400D01*
X73400Y81800D01*
X73000D01*
X72600Y82200D01*
X72200Y81800D01*
X71800D01*
X72200Y81400D01*
X71800Y81000D01*
X72200D01*
X72600Y80600D01*
X71300Y83800D02*
X71700Y84200D01*
X72100D01*
X71700Y84600D01*
X72100Y85000D01*
X71700D01*
X71300Y85400D01*
X70900Y85000D01*
X70500D01*
X70900Y84600D01*
X70500Y84200D01*
X70900D01*
X71300Y83800D01*
X76300Y86000D02*
X76700Y86400D01*
X77100D01*
X76700Y86800D01*
X77100Y87200D01*
X76700D01*
X76300Y87600D01*
X75900Y87200D01*
X75500D01*
X75900Y86800D01*
X75500Y86400D01*
X75900D01*
X76300Y86000D01*
X55250Y95700D02*
X55650Y96100D01*
X56050D01*
X55650Y96500D01*
X56050Y96900D01*
X55650D01*
X55250Y97300D01*
X54850Y96900D01*
X54450D01*
X54850Y96500D01*
X54450Y96100D01*
X54850D01*
X55250Y95700D01*
X56900Y97400D02*
X57300Y97800D01*
X57700D01*
X57300Y98200D01*
X57700Y98600D01*
X57300D01*
X56900Y99000D01*
X56500Y98600D01*
X56100D01*
X56500Y98200D01*
X56100Y97800D01*
X56500D01*
X56900Y97400D01*
X85500Y48100D02*
X85900Y48500D01*
X86300D01*
X85900Y48900D01*
X86300Y49300D01*
X85900D01*
X85500Y49700D01*
X85100Y49300D01*
X84700D01*
X85100Y48900D01*
X84700Y48500D01*
X85100D01*
X85500Y48100D01*
X57757Y101250D02*
X58157Y101650D01*
X58557D01*
X58157Y102050D01*
X58557Y102450D01*
X58157D01*
X57757Y102850D01*
X57357Y102450D01*
X56957D01*
X57357Y102050D01*
X56957Y101650D01*
X57357D01*
X57757Y101250D01*
X58800Y99200D02*
X59200Y99600D01*
X59600D01*
X59200Y100000D01*
X59600Y100400D01*
X59200D01*
X58800Y100800D01*
X58400Y100400D01*
X58000D01*
X58400Y100000D01*
X58000Y99600D01*
X58400D01*
X58800Y99200D01*
X65000Y86600D02*
X65400Y87000D01*
X65800D01*
X65400Y87400D01*
X65800Y87800D01*
X65400D01*
X65000Y88200D01*
X64600Y87800D01*
X64200D01*
X64600Y87400D01*
X64200Y87000D01*
X64600D01*
X65000Y86600D01*
X52700Y118000D02*
X53100Y118400D01*
X53500D01*
X53100Y118800D01*
X53500Y119200D01*
X53100D01*
X52700Y119600D01*
X52300Y119200D01*
X51900D01*
X52300Y118800D01*
X51900Y118400D01*
X52300D01*
X52700Y118000D01*
X75500Y90700D02*
X75900Y91100D01*
X76300D01*
X75900Y91500D01*
X76300Y91900D01*
X75900D01*
X75500Y92300D01*
X75100Y91900D01*
X74700D01*
X75100Y91500D01*
X74700Y91100D01*
X75100D01*
X75500Y90700D01*
X59700Y77600D02*
X60100Y78000D01*
X60500D01*
X60100Y78400D01*
X60500Y78800D01*
X60100D01*
X59700Y79200D01*
X59300Y78800D01*
X58900D01*
X59300Y78400D01*
X58900Y78000D01*
X59300D01*
X59700Y77600D01*
X72000Y87300D02*
X72400Y87700D01*
X72800D01*
X72400Y88100D01*
X72800Y88500D01*
X72400D01*
X72000Y88900D01*
X71600Y88500D01*
X71200D01*
X71600Y88100D01*
X71200Y87700D01*
X71600D01*
X72000Y87300D01*
X78000Y81600D02*
X78400Y82000D01*
X78800D01*
X78400Y82400D01*
X78800Y82800D01*
X78400D01*
X78000Y83200D01*
X77600Y82800D01*
X77200D01*
X77600Y82400D01*
X77200Y82000D01*
X77600D01*
X78000Y81600D01*
X90800Y104400D02*
X91200Y104800D01*
X91600D01*
X91200Y105200D01*
X91600Y105600D01*
X91200D01*
X90800Y106000D01*
X90400Y105600D01*
X90000D01*
X90400Y105200D01*
X90000Y104800D01*
X90400D01*
X90800Y104400D01*
X90900Y108700D02*
X91300Y109100D01*
X91700D01*
X91300Y109500D01*
X91700Y109900D01*
X91300D01*
X90900Y110300D01*
X90500Y109900D01*
X90100D01*
X90500Y109500D01*
X90100Y109100D01*
X90500D01*
X90900Y108700D01*
X92500Y48500D02*
X92900Y48900D01*
X93300D01*
X92900Y49300D01*
X93300Y49700D01*
X92900D01*
X92500Y50100D01*
X92100Y49700D01*
X91700D01*
X92100Y49300D01*
X91700Y48900D01*
X92100D01*
X92500Y48500D01*
X81200Y108600D02*
X81600Y109000D01*
X82000D01*
X81600Y109400D01*
X82000Y109800D01*
X81600D01*
X81200Y110200D01*
X80800Y109800D01*
X80400D01*
X80800Y109400D01*
X80400Y109000D01*
X80800D01*
X81200Y108600D01*
X84761Y78861D02*
X85161Y79261D01*
X85561D01*
X85161Y79661D01*
X85561Y80061D01*
X85161D01*
X84761Y80461D01*
X84361Y80061D01*
X83961D01*
X84361Y79661D01*
X83961Y79261D01*
X84361D01*
X84761Y78861D01*
X89700Y113500D02*
X90100Y113900D01*
X90500D01*
X90100Y114300D01*
X90500Y114700D01*
X90100D01*
X89700Y115100D01*
X89300Y114700D01*
X88900D01*
X89300Y114300D01*
X88900Y113900D01*
X89300D01*
X89700Y113500D01*
X78900Y77100D02*
X79300Y77500D01*
X79700D01*
X79300Y77900D01*
X79700Y78300D01*
X79300D01*
X78900Y78700D01*
X78500Y78300D01*
X78100D01*
X78500Y77900D01*
X78100Y77500D01*
X78500D01*
X78900Y77100D01*
X69538Y70362D02*
X69938Y70762D01*
X70338D01*
X69938Y71162D01*
X70338Y71562D01*
X69938D01*
X69538Y71962D01*
X69138Y71562D01*
X68738D01*
X69138Y71162D01*
X68738Y70762D01*
X69138D01*
X69538Y70362D01*
X61600Y23800D02*
X62000Y24200D01*
X62400D01*
X62000Y24600D01*
X62400Y25000D01*
X62000D01*
X61600Y25400D01*
X61200Y25000D01*
X60800D01*
X61200Y24600D01*
X60800Y24200D01*
X61200D01*
X61600Y23800D01*
X54133Y61033D02*
X54533Y61433D01*
X54933D01*
X54533Y61833D01*
X54933Y62233D01*
X54533D01*
X54133Y62633D01*
X53733Y62233D01*
X53333D01*
X53733Y61833D01*
X53333Y61433D01*
X53733D01*
X54133Y61033D01*
X54100Y66500D02*
X54500Y66900D01*
X54900D01*
X54500Y67300D01*
X54900Y67700D01*
X54500D01*
X54100Y68100D01*
X53700Y67700D01*
X53300D01*
X53700Y67300D01*
X53300Y66900D01*
X53700D01*
X54100Y66500D01*
X54200Y57000D02*
X54600Y57400D01*
X55000D01*
X54600Y57800D01*
X55000Y58200D01*
X54600D01*
X54200Y58600D01*
X53800Y58200D01*
X53400D01*
X53800Y57800D01*
X53400Y57400D01*
X53800D01*
X54200Y57000D01*
X65300Y64700D02*
X65700Y65100D01*
X66100D01*
X65700Y65500D01*
X66100Y65900D01*
X65700D01*
X65300Y66300D01*
X64900Y65900D01*
X64500D01*
X64900Y65500D01*
X64500Y65100D01*
X64900D01*
X65300Y64700D01*
X65100Y34400D02*
X65500Y34800D01*
X65900D01*
X65500Y35200D01*
X65900Y35600D01*
X65500D01*
X65100Y36000D01*
X64700Y35600D01*
X64300D01*
X64700Y35200D01*
X64300Y34800D01*
X64700D01*
X65100Y34400D01*
X38400Y83600D02*
X38800Y84000D01*
X39200D01*
X38800Y84400D01*
X39200Y84800D01*
X38800D01*
X38400Y85200D01*
X38000Y84800D01*
X37600D01*
X38000Y84400D01*
X37600Y84000D01*
X38000D01*
X38400Y83600D01*
X65400Y51100D02*
X65800Y51500D01*
X66200D01*
X65800Y51900D01*
X66200Y52300D01*
X65800D01*
X65400Y52700D01*
X65000Y52300D01*
X64600D01*
X65000Y51900D01*
X64600Y51500D01*
X65000D01*
X65400Y51100D01*
X54200Y93500D02*
X54600Y93900D01*
X55000D01*
X54600Y94300D01*
X55000Y94700D01*
X54600D01*
X54200Y95100D01*
X53800Y94700D01*
X53400D01*
X53800Y94300D01*
X53400Y93900D01*
X53800D01*
X54200Y93500D01*
X51999Y90599D02*
X52399Y90999D01*
X52799D01*
X52399Y91399D01*
X52799Y91799D01*
X52399D01*
X51999Y92199D01*
X51599Y91799D01*
X51199D01*
X51599Y91399D01*
X51199Y90999D01*
X51599D01*
X51999Y90599D01*
X78700Y104600D02*
X79100Y105000D01*
X79500D01*
X79100Y105400D01*
X79500Y105800D01*
X79100D01*
X78700Y106200D01*
X78300Y105800D01*
X77900D01*
X78300Y105400D01*
X77900Y105000D01*
X78300D01*
X78700Y104600D01*
X46400Y122400D02*
X46800Y122800D01*
X47200D01*
X46800Y123200D01*
X47200Y123600D01*
X46800D01*
X46400Y124000D01*
X46000Y123600D01*
X45600D01*
X46000Y123200D01*
X45600Y122800D01*
X46000D01*
X46400Y122400D01*
X21500Y93200D02*
X21900Y93600D01*
X22300D01*
X21900Y94000D01*
X22300Y94400D01*
X21900D01*
X21500Y94800D01*
X21100Y94400D01*
X20700D01*
X21100Y94000D01*
X20700Y93600D01*
X21100D01*
X21500Y93200D01*
X53900Y31900D02*
X54300Y32300D01*
X54700D01*
X54300Y32700D01*
X54700Y33100D01*
X54300D01*
X53900Y33500D01*
X53500Y33100D01*
X53100D01*
X53500Y32700D01*
X53100Y32300D01*
X53500D01*
X53900Y31900D01*
X54000Y35000D02*
X54400Y35400D01*
X54800D01*
X54400Y35800D01*
X54800Y36200D01*
X54400D01*
X54000Y36600D01*
X53600Y36200D01*
X53200D01*
X53600Y35800D01*
X53200Y35400D01*
X53600D01*
X54000Y35000D01*
X19200Y111200D02*
X19600Y111600D01*
X20000D01*
X19600Y112000D01*
X20000Y112400D01*
X19600D01*
X19200Y112800D01*
X18800Y112400D01*
X18400D01*
X18800Y112000D01*
X18400Y111600D01*
X18800D01*
X19200Y111200D01*
X26400Y116300D02*
X26800Y116700D01*
X27200D01*
X26800Y117100D01*
X27200Y117500D01*
X26800D01*
X26400Y117900D01*
X26000Y117500D01*
X25600D01*
X26000Y117100D01*
X25600Y116700D01*
X26000D01*
X26400Y116300D01*
X24600Y114700D02*
X25000Y115100D01*
X25400D01*
X25000Y115500D01*
X25400Y115900D01*
X25000D01*
X24600Y116300D01*
X24200Y115900D01*
X23800D01*
X24200Y115500D01*
X23800Y115100D01*
X24200D01*
X24600Y114700D01*
X80500Y106400D02*
X80900Y106800D01*
X81300D01*
X80900Y107200D01*
X81300Y107600D01*
X80900D01*
X80500Y108000D01*
X80100Y107600D01*
X79700D01*
X80100Y107200D01*
X79700Y106800D01*
X80100D01*
X80500Y106400D01*
X22800Y112900D02*
X23200Y113300D01*
X23600D01*
X23200Y113700D01*
X23600Y114100D01*
X23200D01*
X22800Y114500D01*
X22400Y114100D01*
X22000D01*
X22400Y113700D01*
X22000Y113300D01*
X22400D01*
X22800Y112900D01*
X4400Y65000D02*
X4800Y65400D01*
X5200D01*
X4800Y65800D01*
X5200Y66200D01*
X4800D01*
X4400Y66600D01*
X4000Y66200D01*
X3600D01*
X4000Y65800D01*
X3600Y65400D01*
X4000D01*
X4400Y65000D01*
X4800Y72000D02*
X5200Y72400D01*
X5600D01*
X5200Y72800D01*
X5600Y73200D01*
X5200D01*
X4800Y73600D01*
X4400Y73200D01*
X4000D01*
X4400Y72800D01*
X4000Y72400D01*
X4400D01*
X4800Y72000D01*
X47300Y90600D02*
X47700Y91000D01*
X48100D01*
X47700Y91400D01*
X48100Y91800D01*
X47700D01*
X47300Y92200D01*
X46900Y91800D01*
X46500D01*
X46900Y91400D01*
X46500Y91000D01*
X46900D01*
X47300Y90600D01*
X49600D02*
X50000Y91000D01*
X50400D01*
X50000Y91400D01*
X50400Y91800D01*
X50000D01*
X49600Y92200D01*
X49200Y91800D01*
X48800D01*
X49200Y91400D01*
X48800Y91000D01*
X49200D01*
X49600Y90600D01*
X35300Y121900D02*
X35700Y122300D01*
X36100D01*
X35700Y122700D01*
X36100Y123100D01*
X35700D01*
X35300Y123500D01*
X34900Y123100D01*
X34500D01*
X34900Y122700D01*
X34500Y122300D01*
X34900D01*
X35300Y121900D01*
X12239Y45842D02*
X12639Y46642D01*
X12239Y47442D01*
X13039Y47042D01*
X13839Y47442D01*
X13439Y46642D01*
X13839Y45842D01*
X13039Y46242D01*
X12239Y45842D01*
Y23086D02*
X12639Y23886D01*
X12239Y24686D01*
X13039Y24286D01*
X13839Y24686D01*
X13439Y23886D01*
X13839Y23086D01*
X13039Y23486D01*
X12239Y23086D01*
X83884Y119411D02*
Y119011D01*
X84684D01*
Y119411D01*
X85084D01*
Y120211D01*
X84684D01*
Y120611D01*
X83884D01*
Y120211D01*
X83483D01*
Y119411D01*
X83884D01*
Y95789D02*
Y95389D01*
X84684D01*
Y95789D01*
X85084D01*
Y96589D01*
X84684D01*
Y96989D01*
X83884D01*
Y96589D01*
X83483D01*
Y95789D01*
X83884D01*
D118*
X15808Y18256D02*
X15255Y19017D01*
X14361Y18726D01*
Y17786D01*
X15255Y17495D01*
X15808Y18256D01*
Y52272D02*
X15255Y53032D01*
X14361Y52742D01*
Y51801D01*
X15255Y51511D01*
X15808Y52272D01*
M02*
