G04*
G04 #@! TF.GenerationSoftware,Altium Limited,Altium Designer,20.1.10 (176)*
G04*
G04 Layer_Color=32896*
%FSLAX25Y25*%
%MOIN*%
G70*
G04*
G04 #@! TF.SameCoordinates,11B260F6-AB26-4D87-AEF0-EC618B47F653*
G04*
G04*
G04 #@! TF.FilePolarity,Positive*
G04*
G01*
G75*
%ADD10C,0.00600*%
%ADD11C,0.01181*%
%ADD12C,0.01000*%
%ADD13C,0.00787*%
%ADD116C,0.00400*%
G36*
X11810Y133348D02*
X10588Y132476D01*
X10151Y133494D01*
X8667Y133843D01*
X5173Y134192D01*
X4096Y134514D01*
X3427Y135154D01*
X7036Y141587D01*
X11810Y133348D01*
D02*
G37*
G36*
X2290Y130852D02*
X2568Y130259D01*
X2847Y130003D01*
X4173Y129088D01*
X-2235Y125326D01*
X1567Y132075D01*
X2290Y130852D01*
D02*
G37*
G36*
X17835Y123197D02*
X-1481Y123284D01*
X6117Y127625D01*
X8857Y124421D01*
X9513Y124406D01*
X9811Y124764D01*
X9893Y125077D01*
X9878Y126322D01*
X9576Y126740D01*
X8982Y127501D01*
X7890Y128699D01*
X10407Y130201D01*
X11104Y129186D01*
X10938Y126776D01*
X10513Y126152D01*
X10466Y124758D01*
X10785Y124356D01*
X11269Y124392D01*
X12545Y125691D01*
X13135Y128890D01*
X11966Y130969D01*
X12923Y131394D01*
X17835Y123197D01*
D02*
G37*
G36*
X49449Y82253D02*
X50863Y80641D01*
X50013D01*
X49574Y81121D01*
X49514Y81191D01*
X49454Y81255D01*
X49403Y81311D01*
X49362Y81366D01*
X49320Y81412D01*
X49283Y81454D01*
X49255Y81491D01*
X49228Y81523D01*
X49186Y81574D01*
X49158Y81611D01*
X49144Y81629D01*
X49140Y81634D01*
X49126Y81602D01*
X49112Y81565D01*
X49075Y81486D01*
X49034Y81398D01*
X48992Y81311D01*
X48950Y81232D01*
X48932Y81200D01*
X48918Y81167D01*
X48904Y81144D01*
X48895Y81126D01*
X48886Y81112D01*
Y81107D01*
X48641Y80641D01*
X47897D01*
X48687Y82156D01*
X47223Y83838D01*
X48059D01*
X48558Y83283D01*
X48627Y83205D01*
X48701Y83117D01*
X48775Y83029D01*
X48849Y82951D01*
X48909Y82877D01*
X48937Y82845D01*
X48955Y82817D01*
X48974Y82798D01*
X48987Y82780D01*
X48997Y82771D01*
X49001Y82766D01*
X49011Y82789D01*
X49020Y82807D01*
X49024Y82817D01*
X49029Y82821D01*
X49066Y82891D01*
X49094Y82955D01*
X49121Y83011D01*
X49144Y83057D01*
X49167Y83099D01*
X49181Y83131D01*
X49200Y83163D01*
X49209Y83186D01*
X49218Y83205D01*
X49228Y83219D01*
X49237Y83242D01*
X49242Y83251D01*
X49556Y83838D01*
X50244D01*
X49449Y82253D01*
D02*
G37*
G36*
X39854Y80641D02*
X39235D01*
X39040Y81555D01*
X39022Y81634D01*
X39008Y81703D01*
X38994Y81763D01*
X38980Y81823D01*
X38967Y81874D01*
X38957Y81916D01*
X38943Y81958D01*
X38934Y81990D01*
X38925Y82017D01*
X38920Y82041D01*
X38906Y82078D01*
X38902Y82096D01*
X38897Y82101D01*
X38856Y82175D01*
X38809Y82244D01*
X38759Y82304D01*
X38712Y82355D01*
X38671Y82396D01*
X38639Y82424D01*
X38616Y82447D01*
X38606Y82452D01*
X38551Y82489D01*
X38495Y82516D01*
X38445Y82535D01*
X38394Y82549D01*
X38357Y82558D01*
X38324Y82563D01*
X38297D01*
X38250Y82558D01*
X38214Y82553D01*
X38177Y82540D01*
X38149Y82526D01*
X38126Y82512D01*
X38112Y82503D01*
X38103Y82493D01*
X38098Y82489D01*
X38075Y82461D01*
X38056Y82429D01*
X38043Y82401D01*
X38033Y82369D01*
X38029Y82345D01*
X38024Y82322D01*
Y82309D01*
Y82304D01*
X38029Y82272D01*
X38033Y82230D01*
X38043Y82184D01*
X38052Y82138D01*
X38061Y82091D01*
X38066Y82055D01*
X38075Y82027D01*
Y82022D01*
Y82017D01*
X38371Y80641D01*
X37751D01*
X37461Y81990D01*
X37437Y82091D01*
X37424Y82184D01*
X37410Y82258D01*
X37400Y82318D01*
X37396Y82364D01*
X37391Y82396D01*
Y82420D01*
Y82424D01*
X37400Y82516D01*
X37419Y82600D01*
X37442Y82669D01*
X37474Y82734D01*
X37507Y82780D01*
X37530Y82817D01*
X37548Y82835D01*
X37558Y82845D01*
X37622Y82900D01*
X37696Y82942D01*
X37770Y82969D01*
X37844Y82992D01*
X37909Y83002D01*
X37959Y83006D01*
X37978Y83011D01*
X38006D01*
X38084Y83006D01*
X38158Y83002D01*
X38223Y82988D01*
X38283Y82974D01*
X38334Y82960D01*
X38371Y82951D01*
X38394Y82942D01*
X38403Y82937D01*
X38472Y82905D01*
X38541Y82868D01*
X38611Y82831D01*
X38671Y82789D01*
X38722Y82752D01*
X38763Y82724D01*
X38791Y82706D01*
X38796Y82697D01*
X38800D01*
X38565Y83838D01*
X39184D01*
X39854Y80641D01*
D02*
G37*
G36*
X59576D02*
X58879D01*
X57114Y83838D01*
X57765D01*
X59091Y81422D01*
X59493Y83838D01*
X60145D01*
X59576Y80641D01*
D02*
G37*
G36*
X41078Y83002D02*
X41207Y82978D01*
X41323Y82951D01*
X41424Y82914D01*
X41471Y82895D01*
X41512Y82877D01*
X41544Y82863D01*
X41577Y82849D01*
X41600Y82835D01*
X41618Y82826D01*
X41628Y82821D01*
X41632Y82817D01*
X41743Y82738D01*
X41840Y82651D01*
X41919Y82563D01*
X41983Y82480D01*
X42039Y82401D01*
X42057Y82369D01*
X42076Y82341D01*
X42085Y82318D01*
X42094Y82299D01*
X42104Y82290D01*
Y82285D01*
X42154Y82156D01*
X42196Y82031D01*
X42224Y81911D01*
X42242Y81800D01*
X42247Y81750D01*
X42251Y81708D01*
X42256Y81666D01*
Y81634D01*
X42261Y81606D01*
Y81588D01*
Y81574D01*
Y81569D01*
X42256Y81486D01*
X42251Y81408D01*
X42237Y81329D01*
X42219Y81260D01*
X42201Y81195D01*
X42178Y81135D01*
X42154Y81084D01*
X42131Y81033D01*
X42108Y80992D01*
X42085Y80950D01*
X42062Y80918D01*
X42044Y80895D01*
X42025Y80872D01*
X42011Y80858D01*
X42006Y80849D01*
X42002Y80844D01*
X41951Y80798D01*
X41896Y80756D01*
X41840Y80724D01*
X41785Y80692D01*
X41725Y80668D01*
X41665Y80645D01*
X41554Y80613D01*
X41503Y80604D01*
X41452Y80595D01*
X41411Y80590D01*
X41374Y80585D01*
X41341Y80581D01*
X41300D01*
X41226Y80585D01*
X41157Y80590D01*
X41027Y80613D01*
X40912Y80645D01*
X40810Y80687D01*
X40768Y80705D01*
X40731Y80724D01*
X40694Y80742D01*
X40667Y80756D01*
X40644Y80770D01*
X40630Y80779D01*
X40620Y80789D01*
X40616D01*
X40510Y80876D01*
X40422Y80973D01*
X40343Y81075D01*
X40279Y81177D01*
X40233Y81265D01*
X40214Y81301D01*
X40196Y81338D01*
X40182Y81366D01*
X40177Y81385D01*
X40168Y81398D01*
Y81403D01*
X40778Y81505D01*
X40810Y81426D01*
X40847Y81362D01*
X40884Y81306D01*
X40916Y81260D01*
X40949Y81223D01*
X40976Y81200D01*
X40995Y81181D01*
X40999Y81177D01*
X41050Y81140D01*
X41101Y81117D01*
X41152Y81098D01*
X41193Y81084D01*
X41230Y81075D01*
X41258Y81070D01*
X41286D01*
X41341Y81075D01*
X41388Y81089D01*
X41434Y81107D01*
X41471Y81126D01*
X41498Y81144D01*
X41521Y81163D01*
X41535Y81177D01*
X41540Y81181D01*
X41572Y81227D01*
X41595Y81278D01*
X41614Y81329D01*
X41623Y81380D01*
X41632Y81426D01*
X41637Y81463D01*
Y81486D01*
Y81495D01*
X41632Y81588D01*
X41623Y81676D01*
X41609Y81763D01*
X41595Y81842D01*
X41581Y81907D01*
X41568Y81958D01*
X41563Y81976D01*
X41558Y81990D01*
X41554Y81999D01*
Y82004D01*
X41521Y82101D01*
X41480Y82184D01*
X41443Y82253D01*
X41401Y82309D01*
X41369Y82355D01*
X41341Y82387D01*
X41318Y82406D01*
X41313Y82410D01*
X41254Y82456D01*
X41193Y82489D01*
X41138Y82516D01*
X41087Y82530D01*
X41041Y82540D01*
X41009Y82549D01*
X40976D01*
X40921Y82544D01*
X40870Y82535D01*
X40828Y82516D01*
X40791Y82503D01*
X40759Y82484D01*
X40741Y82466D01*
X40727Y82456D01*
X40722Y82452D01*
X40690Y82415D01*
X40662Y82369D01*
X40644Y82322D01*
X40625Y82276D01*
X40616Y82230D01*
X40607Y82198D01*
X40602Y82175D01*
Y82165D01*
X40006Y82225D01*
X40015Y82290D01*
X40029Y82350D01*
X40062Y82461D01*
X40108Y82558D01*
X40159Y82641D01*
X40205Y82706D01*
X40246Y82757D01*
X40260Y82771D01*
X40274Y82784D01*
X40279Y82789D01*
X40283Y82794D01*
X40330Y82831D01*
X40380Y82868D01*
X40491Y82918D01*
X40597Y82960D01*
X40704Y82983D01*
X40796Y83002D01*
X40838Y83006D01*
X40870D01*
X40898Y83011D01*
X40939D01*
X41078Y83002D01*
D02*
G37*
G36*
X43587Y83006D02*
X43702Y82988D01*
X43808Y82965D01*
X43905Y82932D01*
X43998Y82895D01*
X44081Y82854D01*
X44159Y82807D01*
X44229Y82761D01*
X44289Y82710D01*
X44344Y82669D01*
X44386Y82623D01*
X44427Y82586D01*
X44455Y82553D01*
X44474Y82530D01*
X44488Y82512D01*
X44492Y82507D01*
X44538Y82438D01*
X44580Y82364D01*
X44612Y82290D01*
X44645Y82216D01*
X44668Y82142D01*
X44691Y82073D01*
X44723Y81944D01*
X44732Y81884D01*
X44742Y81828D01*
X44746Y81777D01*
X44751Y81736D01*
X44755Y81703D01*
Y81680D01*
Y81662D01*
Y81657D01*
X44751Y81569D01*
X44742Y81486D01*
X44728Y81403D01*
X44709Y81329D01*
X44686Y81260D01*
X44663Y81195D01*
X44635Y81140D01*
X44608Y81084D01*
X44585Y81038D01*
X44557Y80997D01*
X44534Y80959D01*
X44511Y80932D01*
X44492Y80909D01*
X44478Y80890D01*
X44469Y80881D01*
X44464Y80876D01*
X44409Y80826D01*
X44349Y80779D01*
X44284Y80738D01*
X44224Y80705D01*
X44159Y80678D01*
X44095Y80655D01*
X43975Y80618D01*
X43919Y80604D01*
X43868Y80595D01*
X43822Y80590D01*
X43781Y80585D01*
X43748Y80581D01*
X43702D01*
X43577Y80590D01*
X43466Y80608D01*
X43360Y80632D01*
X43272Y80664D01*
X43194Y80696D01*
X43166Y80710D01*
X43138Y80719D01*
X43120Y80733D01*
X43106Y80738D01*
X43097Y80747D01*
X43092D01*
X42995Y80816D01*
X42907Y80900D01*
X42829Y80983D01*
X42764Y81066D01*
X42718Y81144D01*
X42695Y81177D01*
X42681Y81204D01*
X42667Y81227D01*
X42658Y81246D01*
X42649Y81255D01*
Y81260D01*
X43208Y81352D01*
X43240Y81297D01*
X43277Y81246D01*
X43319Y81204D01*
X43360Y81167D01*
X43397Y81135D01*
X43439Y81107D01*
X43480Y81084D01*
X43517Y81070D01*
X43587Y81047D01*
X43619Y81038D01*
X43647Y81033D01*
X43665Y81029D01*
X43698D01*
X43767Y81033D01*
X43831Y81052D01*
X43887Y81075D01*
X43933Y81098D01*
X43975Y81126D01*
X44002Y81144D01*
X44021Y81163D01*
X44025Y81167D01*
X44067Y81223D01*
X44099Y81288D01*
X44122Y81348D01*
X44136Y81408D01*
X44146Y81463D01*
X44155Y81505D01*
Y81532D01*
Y81537D01*
Y81542D01*
Y81560D01*
X44150Y81579D01*
Y81597D01*
Y81602D01*
X42579D01*
X42552Y81740D01*
X42542Y81810D01*
X42538Y81874D01*
X42533Y81925D01*
Y81971D01*
Y81999D01*
Y82004D01*
Y82008D01*
X42538Y82096D01*
X42542Y82175D01*
X42556Y82253D01*
X42575Y82322D01*
X42593Y82392D01*
X42612Y82452D01*
X42635Y82507D01*
X42658Y82558D01*
X42686Y82600D01*
X42709Y82641D01*
X42727Y82674D01*
X42746Y82701D01*
X42764Y82720D01*
X42778Y82734D01*
X42783Y82743D01*
X42787Y82748D01*
X42838Y82794D01*
X42889Y82835D01*
X42944Y82868D01*
X43000Y82900D01*
X43055Y82928D01*
X43111Y82946D01*
X43222Y82978D01*
X43272Y82988D01*
X43319Y82997D01*
X43360Y83002D01*
X43397Y83006D01*
X43425Y83011D01*
X43466D01*
X43587Y83006D01*
D02*
G37*
G36*
X57521Y80641D02*
X56869D01*
X56195Y83838D01*
X56851D01*
X57521Y80641D01*
D02*
G37*
G36*
X56259D02*
X55608D01*
X55321Y81999D01*
X53769D01*
X53658Y82535D01*
X55211D01*
X55049Y83302D01*
X53469D01*
X53353Y83838D01*
X55589D01*
X56259Y80641D01*
D02*
G37*
G36*
X53520D02*
X51025D01*
X50909Y81177D01*
X52771D01*
X52582Y82045D01*
X50914D01*
X50803Y82581D01*
X52462D01*
X52305Y83302D01*
X50590D01*
X50480Y83838D01*
X52850D01*
X53520Y80641D01*
D02*
G37*
G36*
X47209Y83302D02*
X46275D01*
X46830Y80641D01*
X46174D01*
X45619Y83302D01*
X44686D01*
X44580Y83838D01*
X47102D01*
X47209Y83302D01*
D02*
G37*
G36*
X63185Y79758D02*
X60634D01*
Y80156D01*
X63185D01*
Y79758D01*
D02*
G37*
G36*
X11734Y90272D02*
X11678Y90265D01*
X11609Y90258D01*
X11540Y90251D01*
X11463Y90230D01*
X11290Y90189D01*
X11116Y90126D01*
X11026Y90084D01*
X10943Y90036D01*
X10866Y89973D01*
X10790Y89911D01*
X10783Y89904D01*
X10776Y89897D01*
X10755Y89876D01*
X10728Y89849D01*
X10700Y89807D01*
X10665Y89765D01*
X10630Y89717D01*
X10596Y89661D01*
X10526Y89529D01*
X10464Y89370D01*
X10415Y89189D01*
X10408Y89092D01*
X10401Y88988D01*
Y90279D01*
X11783D01*
X11734Y90272D01*
D02*
G37*
G36*
X61591Y89370D02*
X61584Y89356D01*
X61570Y89321D01*
X61556Y89300D01*
X61542Y89272D01*
X61528Y89238D01*
X61501Y89189D01*
X61480Y89141D01*
X61445Y89078D01*
X61410Y89009D01*
X61369Y88925D01*
X61327Y88828D01*
X61272Y88724D01*
X61265Y88717D01*
X61258Y88703D01*
X61244Y88676D01*
X61230Y88641D01*
X61223Y88648D01*
X61209Y88662D01*
X61188Y88690D01*
X61161Y88717D01*
X61133Y88759D01*
X61091Y88807D01*
X61001Y88919D01*
X60890Y89037D01*
X60779Y89168D01*
X60668Y89300D01*
X60564Y89418D01*
X59814Y90251D01*
X62063D01*
X61591Y89370D01*
D02*
G37*
G36*
X64027Y85449D02*
D01*
X61903Y87871D01*
X63097Y90251D01*
X64027D01*
X58558D01*
X60758Y87725D01*
X59571Y85449D01*
X60689D01*
X61057Y86150D01*
Y86156D01*
X61070Y86177D01*
X61084Y86205D01*
X61105Y86240D01*
X61126Y86288D01*
X61154Y86337D01*
X61216Y86455D01*
X61278Y86587D01*
X61341Y86719D01*
X61396Y86837D01*
X61417Y86892D01*
X61438Y86941D01*
X61445Y86934D01*
X61466Y86906D01*
X61508Y86850D01*
X61570Y86774D01*
X61612Y86725D01*
X61653Y86670D01*
X61709Y86607D01*
X61771Y86538D01*
X61834Y86455D01*
X61910Y86372D01*
X62000Y86274D01*
X62090Y86170D01*
X62750Y85449D01*
X64027D01*
Y85358D01*
X42679D01*
D01*
X40847D01*
X40889Y85365D01*
X40951D01*
X41028Y85372D01*
X41111Y85386D01*
X41208Y85400D01*
X41305Y85428D01*
X41416Y85456D01*
X41527Y85490D01*
X41645Y85532D01*
X41756Y85580D01*
X41874Y85643D01*
X41985Y85712D01*
X42089Y85796D01*
X42187Y85886D01*
X42193Y85893D01*
X42207Y85913D01*
X42235Y85941D01*
X42263Y85983D01*
X42298Y86039D01*
X42339Y86108D01*
X42388Y86191D01*
X42430Y86281D01*
X42478Y86386D01*
X42527Y86497D01*
X42568Y86628D01*
X42603Y86767D01*
X42631Y86913D01*
X42658Y87080D01*
X42672Y87246D01*
X42679Y87433D01*
Y85358D01*
Y87517D01*
X42672Y87572D01*
Y87642D01*
X42658Y87732D01*
X42652Y87822D01*
X42638Y87926D01*
X42624Y88037D01*
X42596Y88162D01*
X42541Y88412D01*
X42457Y88676D01*
X42409Y88801D01*
X42353Y88932D01*
X42346Y88939D01*
X42339Y88960D01*
X42318Y88995D01*
X42291Y89043D01*
X42256Y89099D01*
X42214Y89168D01*
X42166Y89238D01*
X42110Y89321D01*
X41978Y89488D01*
X41826Y89661D01*
X41638Y89828D01*
X41534Y89904D01*
X41430Y89973D01*
X41423Y89980D01*
X41402Y89987D01*
X41368Y90008D01*
X41326Y90029D01*
X41271Y90057D01*
X41208Y90091D01*
X41132Y90126D01*
X41048Y90161D01*
X40958Y90189D01*
X40854Y90223D01*
X40639Y90286D01*
X40403Y90327D01*
X40278Y90334D01*
X40146Y90341D01*
X42679D01*
D01*
X38314D01*
X40070D01*
X40014Y90334D01*
X39952Y90327D01*
X39876Y90320D01*
X39785Y90307D01*
X39695Y90286D01*
X39494Y90237D01*
X39390Y90202D01*
X39286Y90161D01*
X39175Y90112D01*
X39077Y90057D01*
X38973Y89994D01*
X38883Y89918D01*
X38876Y89911D01*
X38862Y89897D01*
X38842Y89876D01*
X38807Y89842D01*
X38772Y89800D01*
X38724Y89751D01*
X38682Y89689D01*
X38633Y89619D01*
X38585Y89543D01*
X38536Y89460D01*
X38488Y89363D01*
X38439Y89266D01*
X38397Y89154D01*
X38363Y89037D01*
X38335Y88912D01*
X38314Y88780D01*
X39258Y88690D01*
Y88696D01*
X39265Y88710D01*
Y88731D01*
X39272Y88759D01*
X39293Y88828D01*
X39327Y88919D01*
X39369Y89023D01*
X39424Y89120D01*
X39487Y89217D01*
X39563Y89293D01*
X39570Y89300D01*
X39605Y89321D01*
X39654Y89356D01*
X39723Y89390D01*
X39806Y89425D01*
X39910Y89460D01*
X40028Y89481D01*
X40160Y89488D01*
X40202D01*
X40229Y89481D01*
X40306Y89474D01*
X40410Y89453D01*
X40528Y89425D01*
X40653Y89377D01*
X40792Y89314D01*
X40924Y89231D01*
X40931D01*
X40937Y89217D01*
X40979Y89182D01*
X41048Y89127D01*
X41125Y89037D01*
X41215Y88932D01*
X41312Y88794D01*
X41409Y88634D01*
X41493Y88447D01*
Y88440D01*
X41500Y88426D01*
X41513Y88398D01*
X41527Y88356D01*
X41541Y88308D01*
X41555Y88252D01*
X41576Y88190D01*
X41597Y88121D01*
X41631Y87961D01*
X41666Y87780D01*
X41694Y87586D01*
X41701Y87392D01*
Y87385D01*
Y87364D01*
Y87336D01*
X41694Y87295D01*
Y87246D01*
X41687Y87191D01*
X41666Y87066D01*
X41631Y86920D01*
X41590Y86774D01*
X41520Y86628D01*
X41430Y86497D01*
X41416Y86483D01*
X41382Y86448D01*
X41319Y86399D01*
X41243Y86344D01*
X41139Y86281D01*
X41021Y86233D01*
X40889Y86198D01*
X40819Y86191D01*
X40743Y86184D01*
X40708D01*
X40681Y86191D01*
X40604Y86198D01*
X40514Y86212D01*
X40403Y86247D01*
X40285Y86288D01*
X40167Y86344D01*
X40042Y86427D01*
X40035D01*
X40028Y86441D01*
X39987Y86476D01*
X39931Y86531D01*
X39862Y86615D01*
X39785Y86719D01*
X39702Y86844D01*
X39633Y86996D01*
X39563Y87170D01*
X38564Y87017D01*
Y87010D01*
X38578Y86982D01*
X38592Y86941D01*
X38620Y86885D01*
X38654Y86816D01*
X38689Y86739D01*
X38730Y86649D01*
X38786Y86559D01*
X38911Y86358D01*
X39064Y86156D01*
X39237Y85955D01*
X39341Y85865D01*
X39445Y85782D01*
X39452Y85775D01*
X39473Y85761D01*
X39501Y85740D01*
X39549Y85719D01*
X39605Y85685D01*
X39667Y85650D01*
X39751Y85608D01*
X39834Y85574D01*
X39931Y85532D01*
X40035Y85490D01*
X40146Y85456D01*
X40264Y85428D01*
X40389Y85400D01*
X40521Y85379D01*
X40660Y85365D01*
X40806Y85358D01*
X38314D01*
D01*
X26495D01*
Y90341D01*
Y85358D01*
X24712D01*
X24767Y85365D01*
X24830Y85372D01*
X24899D01*
X24975Y85386D01*
X25142Y85407D01*
X25322Y85442D01*
X25510Y85490D01*
X25683Y85560D01*
X25690D01*
X25704Y85567D01*
X25725Y85580D01*
X25760Y85601D01*
X25836Y85643D01*
X25933Y85712D01*
X26037Y85789D01*
X26141Y85893D01*
X26239Y86004D01*
X26322Y86136D01*
Y86143D01*
X26329Y86150D01*
X26336Y86170D01*
X26349Y86205D01*
X26363Y86240D01*
X26377Y86281D01*
X26412Y86386D01*
X26447Y86510D01*
X26474Y86656D01*
X26488Y86816D01*
X26495Y86989D01*
X25551Y87045D01*
Y87038D01*
Y87024D01*
Y87003D01*
X25545Y86975D01*
X25537Y86892D01*
X25524Y86802D01*
X25510Y86698D01*
X25482Y86594D01*
X25447Y86503D01*
X25399Y86434D01*
X25385Y86420D01*
X25357Y86392D01*
X25302Y86358D01*
X25218Y86309D01*
X25170Y86288D01*
X25107Y86260D01*
X25045Y86240D01*
X24969Y86226D01*
X24892Y86205D01*
X24802Y86198D01*
X24705Y86184D01*
X24524D01*
X24483Y86191D01*
X24434D01*
X24330Y86205D01*
X24219Y86226D01*
X24101Y86260D01*
X23990Y86302D01*
X23900Y86358D01*
X23893Y86365D01*
X23865Y86386D01*
X23830Y86427D01*
X23789Y86476D01*
X23747Y86538D01*
X23712Y86607D01*
X23685Y86684D01*
X23678Y86774D01*
Y86781D01*
Y86809D01*
X23685Y86850D01*
X23698Y86899D01*
X23719Y86954D01*
X23754Y87017D01*
X23796Y87079D01*
X23858Y87135D01*
X23865Y87142D01*
X23886Y87156D01*
X23927Y87184D01*
X23990Y87218D01*
X24032Y87246D01*
X24080Y87274D01*
X24136Y87301D01*
X24198Y87329D01*
X24274Y87364D01*
X24351Y87406D01*
X24448Y87447D01*
X24545Y87489D01*
X24552D01*
X24573Y87503D01*
X24601Y87510D01*
X24635Y87531D01*
X24684Y87551D01*
X24739Y87572D01*
X24857Y87628D01*
X24989Y87697D01*
X25128Y87760D01*
X25253Y87829D01*
X25315Y87864D01*
X25364Y87891D01*
X25378Y87898D01*
X25406Y87919D01*
X25454Y87961D01*
X25510Y88009D01*
X25572Y88065D01*
X25642Y88141D01*
X25704Y88225D01*
X25767Y88315D01*
X25774Y88329D01*
X25787Y88363D01*
X25815Y88419D01*
X25836Y88488D01*
X25864Y88578D01*
X25892Y88683D01*
X25905Y88801D01*
X25912Y88925D01*
Y88932D01*
Y88953D01*
Y88988D01*
X25905Y89030D01*
X25898Y89078D01*
X25892Y89141D01*
X25878Y89210D01*
X25857Y89279D01*
X25808Y89439D01*
X25767Y89522D01*
X25725Y89613D01*
X25676Y89696D01*
X25621Y89779D01*
X25551Y89862D01*
X25475Y89939D01*
X25468Y89946D01*
X25454Y89960D01*
X25427Y89973D01*
X25392Y90001D01*
X25350Y90029D01*
X25295Y90064D01*
X25225Y90105D01*
X25149Y90140D01*
X25066Y90175D01*
X24975Y90216D01*
X24871Y90251D01*
X24753Y90279D01*
X24628Y90307D01*
X24497Y90327D01*
X24358Y90334D01*
X24205Y90341D01*
X26495D01*
X22380D01*
X24122D01*
X24066Y90334D01*
X23997Y90327D01*
X23914Y90320D01*
X23823Y90307D01*
X23726Y90293D01*
X23511Y90244D01*
X23400Y90209D01*
X23296Y90175D01*
X23185Y90126D01*
X23081Y90071D01*
X22984Y90008D01*
X22893Y89939D01*
X22886Y89932D01*
X22873Y89918D01*
X22852Y89897D01*
X22817Y89869D01*
X22782Y89828D01*
X22741Y89779D01*
X22699Y89724D01*
X22658Y89661D01*
X22609Y89585D01*
X22560Y89508D01*
X22519Y89418D01*
X22477Y89328D01*
X22442Y89224D01*
X22414Y89120D01*
X22394Y89002D01*
X22380Y88884D01*
X23324Y88842D01*
Y88849D01*
Y88856D01*
X23331Y88898D01*
X23351Y88960D01*
X23372Y89037D01*
X23407Y89120D01*
X23449Y89210D01*
X23504Y89293D01*
X23581Y89370D01*
X23587Y89377D01*
X23622Y89397D01*
X23671Y89432D01*
X23740Y89467D01*
X23823Y89495D01*
X23934Y89529D01*
X24066Y89550D01*
X24212Y89557D01*
X24281D01*
X24351Y89550D01*
X24441Y89536D01*
X24531Y89522D01*
X24628Y89495D01*
X24719Y89460D01*
X24795Y89411D01*
X24802Y89404D01*
X24823Y89384D01*
X24850Y89356D01*
X24878Y89314D01*
X24913Y89259D01*
X24941Y89196D01*
X24961Y89120D01*
X24969Y89043D01*
Y89037D01*
Y89009D01*
X24961Y88974D01*
X24948Y88925D01*
X24927Y88870D01*
X24899Y88814D01*
X24864Y88759D01*
X24809Y88703D01*
X24802Y88696D01*
X24774Y88676D01*
X24733Y88648D01*
X24663Y88606D01*
X24614Y88578D01*
X24566Y88551D01*
X24510Y88516D01*
X24441Y88481D01*
X24372Y88447D01*
X24288Y88405D01*
X24198Y88363D01*
X24101Y88322D01*
X24094Y88315D01*
X24066Y88308D01*
X24025Y88287D01*
X23969Y88266D01*
X23900Y88231D01*
X23823Y88197D01*
X23657Y88113D01*
X23476Y88023D01*
X23303Y87926D01*
X23220Y87878D01*
X23150Y87829D01*
X23088Y87780D01*
X23039Y87739D01*
X23032Y87732D01*
X23025Y87725D01*
X23004Y87704D01*
X22984Y87683D01*
X22928Y87607D01*
X22866Y87510D01*
X22803Y87392D01*
X22755Y87246D01*
X22713Y87079D01*
X22706Y86996D01*
X22699Y86899D01*
Y86892D01*
Y86871D01*
Y86836D01*
X22706Y86795D01*
X22713Y86739D01*
X22727Y86670D01*
X22741Y86601D01*
X22761Y86524D01*
X22789Y86441D01*
X22824Y86351D01*
X22866Y86260D01*
X22914Y86170D01*
X22970Y86080D01*
X23039Y85983D01*
X23115Y85900D01*
X23206Y85809D01*
X23213Y85803D01*
X23226Y85789D01*
X23261Y85768D01*
X23296Y85740D01*
X23351Y85705D01*
X23414Y85664D01*
X23483Y85629D01*
X23573Y85587D01*
X23664Y85539D01*
X23768Y85504D01*
X23886Y85462D01*
X24011Y85428D01*
X24143Y85400D01*
X24288Y85379D01*
X24441Y85365D01*
X24608Y85358D01*
X22380D01*
Y85358D01*
X17626D01*
Y90279D01*
Y85358D01*
X16196D01*
X16245Y85365D01*
X16294Y85372D01*
X16356Y85379D01*
X16425Y85386D01*
X16495Y85400D01*
X16654Y85442D01*
X16821Y85504D01*
X16904Y85546D01*
X16987Y85594D01*
X17071Y85643D01*
X17147Y85705D01*
X17154Y85712D01*
X17161Y85719D01*
X17182Y85740D01*
X17210Y85768D01*
X17244Y85803D01*
X17279Y85851D01*
X17314Y85900D01*
X17355Y85962D01*
X17397Y86025D01*
X17439Y86101D01*
X17480Y86177D01*
X17515Y86268D01*
X17550Y86365D01*
X17584Y86469D01*
X17605Y86573D01*
X17626Y86691D01*
X16724Y86802D01*
Y86795D01*
Y86788D01*
X16717Y86767D01*
X16710Y86739D01*
X16696Y86670D01*
X16675Y86587D01*
X16647Y86503D01*
X16613Y86413D01*
X16571Y86330D01*
X16522Y86268D01*
X16515Y86260D01*
X16495Y86247D01*
X16460Y86219D01*
X16418Y86198D01*
X16363Y86170D01*
X16294Y86143D01*
X16217Y86129D01*
X16134Y86122D01*
X16120D01*
X16078Y86129D01*
X16023Y86136D01*
X15947Y86150D01*
X15863Y86177D01*
X15773Y86212D01*
X15683Y86268D01*
X15599Y86337D01*
X15593Y86344D01*
X15565Y86379D01*
X15530Y86420D01*
X15488Y86489D01*
X15454Y86566D01*
X15419Y86663D01*
X15391Y86774D01*
X15384Y86892D01*
Y86899D01*
Y86906D01*
Y86941D01*
X15391Y86996D01*
X15405Y87066D01*
X15426Y87142D01*
X15461Y87218D01*
X15502Y87295D01*
X15558Y87364D01*
X15565Y87371D01*
X15593Y87392D01*
X15627Y87419D01*
X15683Y87454D01*
X15745Y87482D01*
X15829Y87510D01*
X15919Y87531D01*
X16023Y87537D01*
X16064D01*
X16113Y87531D01*
X16169Y87524D01*
X16009Y88301D01*
X15849D01*
X15780Y88308D01*
X15697Y88322D01*
X15606Y88349D01*
X15516Y88377D01*
X15426Y88426D01*
X15343Y88488D01*
X15336Y88495D01*
X15308Y88523D01*
X15280Y88565D01*
X15239Y88627D01*
X15204Y88703D01*
X15169Y88794D01*
X15148Y88898D01*
X15141Y89016D01*
Y89030D01*
Y89057D01*
X15148Y89099D01*
X15155Y89154D01*
X15176Y89210D01*
X15197Y89272D01*
X15232Y89335D01*
X15280Y89390D01*
X15287Y89397D01*
X15301Y89411D01*
X15336Y89432D01*
X15370Y89460D01*
X15426Y89488D01*
X15482Y89508D01*
X15551Y89522D01*
X15627Y89529D01*
X15662D01*
X15697Y89522D01*
X15745Y89508D01*
X15801Y89495D01*
X15863Y89467D01*
X15926Y89425D01*
X15988Y89377D01*
X15995Y89370D01*
X16016Y89349D01*
X16044Y89307D01*
X16078Y89259D01*
X16120Y89189D01*
X16162Y89099D01*
X16203Y88995D01*
X16238Y88870D01*
X17098Y89037D01*
Y89043D01*
X17092Y89057D01*
X17085Y89085D01*
X17071Y89127D01*
X17050Y89168D01*
X17029Y89217D01*
X16981Y89335D01*
X16918Y89467D01*
X16842Y89599D01*
X16751Y89731D01*
X16647Y89849D01*
X16641Y89855D01*
X16627Y89869D01*
X16599Y89890D01*
X16571Y89918D01*
X16522Y89946D01*
X16474Y89987D01*
X16411Y90022D01*
X16342Y90064D01*
X16266Y90105D01*
X16189Y90140D01*
X16002Y90209D01*
X15898Y90237D01*
X15787Y90258D01*
X15676Y90272D01*
X15558Y90279D01*
X17626D01*
X14205D01*
X15495D01*
X15447Y90272D01*
X15391Y90265D01*
X15329Y90258D01*
X15183Y90230D01*
X15023Y90189D01*
X14857Y90119D01*
X14774Y90078D01*
X14697Y90029D01*
X14621Y89973D01*
X14551Y89904D01*
X14545Y89897D01*
X14538Y89890D01*
X14517Y89869D01*
X14496Y89842D01*
X14468Y89800D01*
X14441Y89758D01*
X14378Y89654D01*
X14316Y89529D01*
X14260Y89377D01*
X14218Y89210D01*
X14211Y89120D01*
X14205Y89023D01*
Y89030D01*
Y87614D01*
Y88960D01*
X14218Y88891D01*
X14232Y88801D01*
X14260Y88690D01*
X14295Y88578D01*
X14350Y88460D01*
X14427Y88342D01*
X14434Y88329D01*
X14468Y88294D01*
X14517Y88238D01*
X14586Y88176D01*
X14670Y88100D01*
X14774Y88023D01*
X14892Y87961D01*
X15030Y87898D01*
X15023D01*
X15017Y87891D01*
X14982Y87871D01*
X14926Y87836D01*
X14857Y87787D01*
X14787Y87725D01*
X14711Y87656D01*
X14642Y87572D01*
X14579Y87482D01*
X14572Y87468D01*
X14559Y87440D01*
X14531Y87385D01*
X14503Y87322D01*
X14482Y87239D01*
X14454Y87149D01*
X14441Y87052D01*
X14434Y86948D01*
Y86941D01*
Y86927D01*
Y86899D01*
X14441Y86857D01*
X14447Y86809D01*
X14454Y86753D01*
X14468Y86691D01*
X14482Y86628D01*
X14524Y86476D01*
X14593Y86309D01*
X14635Y86226D01*
X14690Y86136D01*
X14746Y86052D01*
X14815Y85969D01*
X14822Y85962D01*
X14836Y85941D01*
X14871Y85913D01*
X14906Y85872D01*
X14961Y85830D01*
X15023Y85775D01*
X15093Y85719D01*
X15176Y85664D01*
X15266Y85608D01*
X15363Y85553D01*
X15474Y85497D01*
X15593Y85456D01*
X15717Y85414D01*
X15849Y85386D01*
X15995Y85365D01*
X16141Y85358D01*
X14205D01*
Y85358D01*
X10401D01*
Y85449D01*
D01*
Y88939D01*
X10408Y88884D01*
X10415Y88807D01*
X10429Y88724D01*
X10450Y88627D01*
X10478Y88523D01*
X10519Y88412D01*
X10526Y88398D01*
X10540Y88363D01*
X10568Y88308D01*
X10610Y88231D01*
X10665Y88141D01*
X10734Y88037D01*
X10811Y87926D01*
X10908Y87808D01*
X10915Y87801D01*
X10943Y87766D01*
X10991Y87718D01*
X11061Y87648D01*
X11151Y87558D01*
X11262Y87447D01*
X11394Y87322D01*
X11547Y87177D01*
X11553Y87170D01*
X11567Y87156D01*
X11588Y87142D01*
X11616Y87114D01*
X11692Y87045D01*
X11783Y86954D01*
X11880Y86864D01*
X11977Y86774D01*
X12060Y86691D01*
X12129Y86621D01*
X12136Y86615D01*
X12150Y86594D01*
X12178Y86566D01*
X12213Y86531D01*
X12254Y86483D01*
X12296Y86427D01*
X12393Y86309D01*
X10728D01*
X10908Y85449D01*
X13823D01*
Y85462D01*
X13816Y85483D01*
Y85511D01*
X13802Y85580D01*
X13781Y85664D01*
X13753Y85768D01*
X13719Y85879D01*
X13677Y86004D01*
X13622Y86122D01*
Y86129D01*
X13615Y86136D01*
X13594Y86177D01*
X13559Y86240D01*
X13510Y86316D01*
X13448Y86406D01*
X13379Y86503D01*
X13302Y86607D01*
X13219Y86712D01*
X13205Y86725D01*
X13171Y86767D01*
X13143Y86795D01*
X13108Y86830D01*
X13066Y86878D01*
X13018Y86927D01*
X12962Y86989D01*
X12893Y87052D01*
X12823Y87128D01*
X12740Y87204D01*
X12650Y87295D01*
X12553Y87392D01*
X12449Y87496D01*
X12331Y87607D01*
X12324Y87614D01*
X12310Y87628D01*
X12282Y87648D01*
X12254Y87683D01*
X12171Y87760D01*
X12074Y87857D01*
X11970Y87961D01*
X11866Y88058D01*
X11783Y88148D01*
X11748Y88183D01*
X11720Y88211D01*
X11713Y88225D01*
X11685Y88252D01*
X11644Y88301D01*
X11595Y88363D01*
X11540Y88433D01*
X11491Y88509D01*
X11442Y88585D01*
X11408Y88655D01*
X11401Y88662D01*
X11394Y88690D01*
X11380Y88724D01*
X11359Y88766D01*
X11345Y88821D01*
X11331Y88877D01*
X11324Y88939D01*
X11317Y88995D01*
Y89009D01*
Y89037D01*
X11324Y89078D01*
X11338Y89134D01*
X11352Y89196D01*
X11380Y89266D01*
X11415Y89328D01*
X11463Y89390D01*
X11470Y89397D01*
X11491Y89411D01*
X11519Y89439D01*
X11560Y89467D01*
X11616Y89495D01*
X11678Y89522D01*
X11748Y89536D01*
X11824Y89543D01*
X11859D01*
X11900Y89536D01*
X11956Y89522D01*
X12018Y89502D01*
X12081Y89467D01*
X12150Y89425D01*
X12213Y89370D01*
X12220Y89363D01*
X12241Y89335D01*
X12268Y89293D01*
X12303Y89231D01*
X12345Y89148D01*
X12386Y89043D01*
X12428Y88919D01*
X12463Y88766D01*
X13379Y88898D01*
Y88905D01*
X13372Y88925D01*
X13365Y88960D01*
X13358Y89009D01*
X13337Y89064D01*
X13323Y89127D01*
X13302Y89196D01*
X13275Y89272D01*
X13205Y89439D01*
X13115Y89613D01*
X13004Y89772D01*
X12934Y89849D01*
X12865Y89918D01*
X12858Y89925D01*
X12844Y89932D01*
X12823Y89953D01*
X12789Y89973D01*
X12754Y90001D01*
X12706Y90029D01*
X12650Y90064D01*
X12581Y90098D01*
X12511Y90133D01*
X12435Y90168D01*
X12261Y90223D01*
X12067Y90265D01*
X11956Y90272D01*
X11845Y90279D01*
X13823D01*
X10401D01*
Y90341D01*
X64027D01*
Y85449D01*
D02*
G37*
G36*
X55326Y78164D02*
X54702D01*
X54587Y78728D01*
X55206D01*
X55326Y78164D01*
D02*
G37*
G36*
X42732Y75531D02*
X42168D01*
X42090Y75905D01*
X42044Y75827D01*
X41988Y75762D01*
X41933Y75702D01*
X41877Y75656D01*
X41813Y75614D01*
X41752Y75577D01*
X41692Y75550D01*
X41632Y75526D01*
X41577Y75508D01*
X41526Y75494D01*
X41480Y75485D01*
X41438Y75480D01*
X41401Y75476D01*
X41378Y75471D01*
X41355D01*
X41277Y75476D01*
X41207Y75485D01*
X41138Y75499D01*
X41078Y75517D01*
X41027Y75531D01*
X40990Y75545D01*
X40967Y75554D01*
X40958Y75559D01*
X40884Y75596D01*
X40819Y75642D01*
X40755Y75688D01*
X40699Y75734D01*
X40653Y75771D01*
X40620Y75804D01*
X40597Y75827D01*
X40588Y75836D01*
X40523Y75910D01*
X40473Y75993D01*
X40422Y76072D01*
X40385Y76150D01*
X40353Y76219D01*
X40330Y76270D01*
X40320Y76293D01*
X40316Y76307D01*
X40311Y76316D01*
Y76321D01*
X40274Y76432D01*
X40251Y76543D01*
X40233Y76649D01*
X40219Y76741D01*
X40209Y76820D01*
Y76852D01*
X40205Y76880D01*
Y76903D01*
Y76922D01*
Y76931D01*
Y76935D01*
X40209Y77023D01*
X40214Y77102D01*
X40223Y77176D01*
X40237Y77245D01*
X40256Y77310D01*
X40274Y77370D01*
X40293Y77421D01*
X40316Y77472D01*
X40334Y77513D01*
X40357Y77550D01*
X40376Y77582D01*
X40389Y77605D01*
X40408Y77624D01*
X40417Y77642D01*
X40422Y77647D01*
X40426Y77652D01*
X40468Y77698D01*
X40514Y77735D01*
X40565Y77767D01*
X40611Y77795D01*
X40713Y77841D01*
X40805Y77869D01*
X40889Y77887D01*
X40925Y77892D01*
X40958Y77896D01*
X40981Y77901D01*
X41018D01*
X41083Y77896D01*
X41147Y77892D01*
X41203Y77883D01*
X41254Y77873D01*
X41290Y77859D01*
X41323Y77850D01*
X41341Y77846D01*
X41350Y77841D01*
X41406Y77818D01*
X41461Y77790D01*
X41517Y77758D01*
X41563Y77730D01*
X41609Y77702D01*
X41642Y77679D01*
X41660Y77661D01*
X41669Y77656D01*
X41443Y78728D01*
X42062D01*
X42732Y75531D01*
D02*
G37*
G36*
X53533Y77892D02*
X53635Y77873D01*
X53728Y77846D01*
X53806Y77813D01*
X53875Y77781D01*
X53908Y77767D01*
X53931Y77753D01*
X53949Y77744D01*
X53963Y77735D01*
X53972Y77726D01*
X53977D01*
X54069Y77652D01*
X54153Y77573D01*
X54226Y77485D01*
X54286Y77402D01*
X54333Y77324D01*
X54351Y77291D01*
X54365Y77264D01*
X54379Y77241D01*
X54383Y77222D01*
X54393Y77213D01*
Y77208D01*
X54444Y77079D01*
X54476Y76949D01*
X54504Y76825D01*
X54522Y76709D01*
X54527Y76654D01*
X54531Y76608D01*
X54536Y76566D01*
Y76529D01*
X54541Y76501D01*
Y76478D01*
Y76464D01*
Y76460D01*
X54536Y76376D01*
X54531Y76298D01*
X54522Y76224D01*
X54508Y76155D01*
X54490Y76090D01*
X54471Y76035D01*
X54453Y75984D01*
X54430Y75938D01*
X54411Y75896D01*
X54393Y75859D01*
X54374Y75827D01*
X54356Y75804D01*
X54342Y75780D01*
X54333Y75767D01*
X54324Y75762D01*
Y75757D01*
X54282Y75716D01*
X54236Y75679D01*
X54189Y75647D01*
X54143Y75624D01*
X54051Y75577D01*
X53963Y75550D01*
X53885Y75536D01*
X53852Y75531D01*
X53820Y75526D01*
X53797Y75522D01*
X53764D01*
X53695Y75526D01*
X53631Y75536D01*
X53566Y75545D01*
X53501Y75563D01*
X53386Y75605D01*
X53279Y75656D01*
X53233Y75679D01*
X53187Y75707D01*
X53155Y75730D01*
X53122Y75748D01*
X53095Y75767D01*
X53076Y75780D01*
X53067Y75785D01*
X53062Y75790D01*
X53085Y75683D01*
X53104Y75586D01*
X53122Y75508D01*
X53141Y75443D01*
X53150Y75393D01*
X53164Y75355D01*
X53173Y75332D01*
X53178Y75318D01*
Y75314D01*
X53201Y75268D01*
X53228Y75226D01*
X53252Y75194D01*
X53279Y75166D01*
X53302Y75148D01*
X53316Y75134D01*
X53330Y75125D01*
X53335Y75120D01*
X53386Y75092D01*
X53441Y75074D01*
X53496Y75055D01*
X53552Y75046D01*
X53598Y75041D01*
X53635Y75037D01*
X53718D01*
X53755Y75041D01*
X53787Y75051D01*
X53820Y75055D01*
X53838Y75064D01*
X53857Y75069D01*
X53866Y75074D01*
X53871D01*
X53917Y75101D01*
X53949Y75134D01*
X53968Y75152D01*
X53972Y75161D01*
X53982Y75185D01*
X53991Y75208D01*
X54000Y75258D01*
X54005Y75277D01*
Y75295D01*
Y75309D01*
Y75314D01*
X54670Y75406D01*
X54675Y75374D01*
Y75346D01*
Y75328D01*
Y75318D01*
X54670Y75249D01*
X54665Y75180D01*
X54651Y75120D01*
X54638Y75064D01*
X54615Y75014D01*
X54596Y74967D01*
X54573Y74931D01*
X54550Y74893D01*
X54504Y74833D01*
X54462Y74792D01*
X54434Y74769D01*
X54430Y74760D01*
X54425D01*
X54374Y74732D01*
X54324Y74704D01*
X54203Y74663D01*
X54083Y74630D01*
X53963Y74612D01*
X53908Y74602D01*
X53852Y74598D01*
X53806Y74593D01*
X53764D01*
X53732Y74589D01*
X53607D01*
X53533Y74593D01*
X53464Y74602D01*
X53404Y74607D01*
X53353Y74616D01*
X53316Y74621D01*
X53293Y74625D01*
X53284D01*
X53219Y74639D01*
X53155Y74658D01*
X53104Y74676D01*
X53053Y74699D01*
X53016Y74713D01*
X52988Y74727D01*
X52970Y74736D01*
X52965Y74741D01*
X52914Y74773D01*
X52873Y74806D01*
X52831Y74838D01*
X52799Y74870D01*
X52776Y74898D01*
X52753Y74921D01*
X52743Y74935D01*
X52739Y74940D01*
X52706Y74986D01*
X52679Y75037D01*
X52651Y75092D01*
X52628Y75138D01*
X52609Y75185D01*
X52596Y75222D01*
X52586Y75245D01*
X52582Y75254D01*
X52568Y75295D01*
X52554Y75337D01*
X52526Y75439D01*
X52499Y75550D01*
X52471Y75656D01*
X52448Y75753D01*
X52438Y75799D01*
X52429Y75836D01*
X52420Y75868D01*
X52415Y75891D01*
X52411Y75905D01*
Y75910D01*
X52046Y77850D01*
X52628D01*
X52711Y77439D01*
X52753Y77518D01*
X52803Y77582D01*
X52854Y77642D01*
X52900Y77689D01*
X52942Y77726D01*
X52979Y77753D01*
X53002Y77772D01*
X53011Y77776D01*
X53085Y77818D01*
X53155Y77850D01*
X53228Y77869D01*
X53293Y77887D01*
X53349Y77896D01*
X53395Y77901D01*
X53432D01*
X53533Y77892D01*
D02*
G37*
G36*
X39387Y75531D02*
X39424Y75453D01*
X39461Y75388D01*
X39503Y75328D01*
X39540Y75277D01*
X39581Y75235D01*
X39623Y75198D01*
X39660Y75171D01*
X39696Y75148D01*
X39729Y75129D01*
X39761Y75115D01*
X39817Y75101D01*
X39835Y75097D01*
X39849Y75092D01*
X39863D01*
X39941Y75097D01*
X39978Y75106D01*
X40011Y75111D01*
X40038Y75120D01*
X40062Y75125D01*
X40075Y75129D01*
X40080D01*
X40131Y74663D01*
X40043Y74639D01*
X39960Y74621D01*
X39881Y74607D01*
X39817Y74598D01*
X39761Y74593D01*
X39724Y74589D01*
X39687D01*
X39613Y74593D01*
X39549Y74602D01*
X39493Y74612D01*
X39442Y74625D01*
X39401Y74639D01*
X39369Y74653D01*
X39350Y74658D01*
X39345Y74663D01*
X39295Y74695D01*
X39248Y74727D01*
X39207Y74760D01*
X39170Y74792D01*
X39142Y74820D01*
X39124Y74843D01*
X39110Y74861D01*
X39105Y74866D01*
X39064Y74921D01*
X39017Y74986D01*
X38971Y75060D01*
X38925Y75134D01*
X38883Y75198D01*
X38851Y75254D01*
X38842Y75277D01*
X38833Y75291D01*
X38823Y75300D01*
Y75305D01*
X37391Y77850D01*
X38052D01*
X38606Y76815D01*
X38680Y76672D01*
X38749Y76534D01*
X38805Y76409D01*
X38856Y76298D01*
X38874Y76247D01*
X38893Y76206D01*
X38906Y76164D01*
X38920Y76132D01*
X38930Y76109D01*
X38939Y76086D01*
X38943Y76076D01*
Y76109D01*
X38948Y76150D01*
X38957Y76243D01*
X38971Y76344D01*
X38980Y76446D01*
X38994Y76543D01*
X38999Y76584D01*
X39004Y76617D01*
X39008Y76649D01*
Y76672D01*
X39013Y76686D01*
Y76691D01*
X39165Y77850D01*
X39789D01*
X39387Y75531D01*
D02*
G37*
G36*
X59600Y77896D02*
X59715Y77878D01*
X59821Y77855D01*
X59918Y77823D01*
X60011Y77786D01*
X60094Y77744D01*
X60172Y77698D01*
X60242Y77652D01*
X60302Y77601D01*
X60357Y77559D01*
X60399Y77513D01*
X60440Y77476D01*
X60468Y77444D01*
X60487Y77421D01*
X60500Y77402D01*
X60505Y77398D01*
X60551Y77328D01*
X60593Y77254D01*
X60625Y77180D01*
X60658Y77106D01*
X60681Y77033D01*
X60704Y76963D01*
X60736Y76834D01*
X60745Y76774D01*
X60755Y76718D01*
X60759Y76668D01*
X60764Y76626D01*
X60768Y76594D01*
Y76571D01*
Y76552D01*
Y76547D01*
X60764Y76460D01*
X60755Y76376D01*
X60741Y76293D01*
X60722Y76219D01*
X60699Y76150D01*
X60676Y76086D01*
X60648Y76030D01*
X60620Y75975D01*
X60597Y75928D01*
X60570Y75887D01*
X60547Y75850D01*
X60523Y75822D01*
X60505Y75799D01*
X60491Y75780D01*
X60482Y75771D01*
X60477Y75767D01*
X60422Y75716D01*
X60362Y75670D01*
X60297Y75628D01*
X60237Y75596D01*
X60172Y75568D01*
X60108Y75545D01*
X59988Y75508D01*
X59932Y75494D01*
X59881Y75485D01*
X59835Y75480D01*
X59794Y75476D01*
X59761Y75471D01*
X59715D01*
X59590Y75480D01*
X59479Y75499D01*
X59373Y75522D01*
X59285Y75554D01*
X59207Y75586D01*
X59179Y75600D01*
X59151Y75610D01*
X59133Y75624D01*
X59119Y75628D01*
X59110Y75637D01*
X59105D01*
X59008Y75707D01*
X58920Y75790D01*
X58842Y75873D01*
X58777Y75956D01*
X58731Y76035D01*
X58708Y76067D01*
X58694Y76095D01*
X58680Y76118D01*
X58671Y76136D01*
X58662Y76145D01*
Y76150D01*
X59221Y76243D01*
X59253Y76187D01*
X59290Y76136D01*
X59332Y76095D01*
X59373Y76058D01*
X59410Y76025D01*
X59452Y75998D01*
X59493Y75975D01*
X59530Y75961D01*
X59600Y75938D01*
X59632Y75928D01*
X59660Y75924D01*
X59678Y75919D01*
X59710D01*
X59780Y75924D01*
X59844Y75942D01*
X59900Y75965D01*
X59946Y75988D01*
X59988Y76016D01*
X60015Y76035D01*
X60034Y76053D01*
X60038Y76058D01*
X60080Y76113D01*
X60112Y76178D01*
X60135Y76238D01*
X60149Y76298D01*
X60158Y76353D01*
X60168Y76395D01*
Y76423D01*
Y76427D01*
Y76432D01*
Y76450D01*
X60163Y76469D01*
Y76487D01*
Y76492D01*
X58592D01*
X58565Y76631D01*
X58555Y76700D01*
X58551Y76765D01*
X58546Y76815D01*
Y76862D01*
Y76889D01*
Y76894D01*
Y76899D01*
X58551Y76986D01*
X58555Y77065D01*
X58569Y77143D01*
X58588Y77213D01*
X58606Y77282D01*
X58625Y77342D01*
X58648Y77398D01*
X58671Y77448D01*
X58699Y77490D01*
X58722Y77531D01*
X58740Y77564D01*
X58759Y77592D01*
X58777Y77610D01*
X58791Y77624D01*
X58796Y77633D01*
X58800Y77638D01*
X58851Y77684D01*
X58902Y77726D01*
X58957Y77758D01*
X59013Y77790D01*
X59068Y77818D01*
X59124Y77836D01*
X59234Y77869D01*
X59285Y77878D01*
X59332Y77887D01*
X59373Y77892D01*
X59410Y77896D01*
X59438Y77901D01*
X59479D01*
X59600Y77896D01*
D02*
G37*
G36*
X47925D02*
X48040Y77878D01*
X48147Y77855D01*
X48243Y77823D01*
X48336Y77786D01*
X48419Y77744D01*
X48498Y77698D01*
X48567Y77652D01*
X48627Y77601D01*
X48682Y77559D01*
X48724Y77513D01*
X48766Y77476D01*
X48793Y77444D01*
X48812Y77421D01*
X48826Y77402D01*
X48830Y77398D01*
X48877Y77328D01*
X48918Y77254D01*
X48950Y77180D01*
X48983Y77106D01*
X49006Y77033D01*
X49029Y76963D01*
X49061Y76834D01*
X49071Y76774D01*
X49080Y76718D01*
X49084Y76668D01*
X49089Y76626D01*
X49094Y76594D01*
Y76571D01*
Y76552D01*
Y76547D01*
X49089Y76460D01*
X49080Y76376D01*
X49066Y76293D01*
X49047Y76219D01*
X49024Y76150D01*
X49001Y76086D01*
X48974Y76030D01*
X48946Y75975D01*
X48923Y75928D01*
X48895Y75887D01*
X48872Y75850D01*
X48849Y75822D01*
X48830Y75799D01*
X48816Y75780D01*
X48807Y75771D01*
X48803Y75767D01*
X48747Y75716D01*
X48687Y75670D01*
X48622Y75628D01*
X48562Y75596D01*
X48498Y75568D01*
X48433Y75545D01*
X48313Y75508D01*
X48257Y75494D01*
X48207Y75485D01*
X48160Y75480D01*
X48119Y75476D01*
X48087Y75471D01*
X48040D01*
X47916Y75480D01*
X47805Y75499D01*
X47698Y75522D01*
X47611Y75554D01*
X47532Y75586D01*
X47504Y75600D01*
X47477Y75610D01*
X47458Y75624D01*
X47444Y75628D01*
X47435Y75637D01*
X47430D01*
X47333Y75707D01*
X47246Y75790D01*
X47167Y75873D01*
X47102Y75956D01*
X47056Y76035D01*
X47033Y76067D01*
X47019Y76095D01*
X47005Y76118D01*
X46996Y76136D01*
X46987Y76145D01*
Y76150D01*
X47546Y76243D01*
X47578Y76187D01*
X47615Y76136D01*
X47657Y76095D01*
X47698Y76058D01*
X47735Y76025D01*
X47777Y75998D01*
X47818Y75975D01*
X47855Y75961D01*
X47925Y75938D01*
X47957Y75928D01*
X47985Y75924D01*
X48003Y75919D01*
X48036D01*
X48105Y75924D01*
X48170Y75942D01*
X48225Y75965D01*
X48271Y75988D01*
X48313Y76016D01*
X48341Y76035D01*
X48359Y76053D01*
X48364Y76058D01*
X48405Y76113D01*
X48438Y76178D01*
X48461Y76238D01*
X48474Y76298D01*
X48484Y76353D01*
X48493Y76395D01*
Y76423D01*
Y76427D01*
Y76432D01*
Y76450D01*
X48488Y76469D01*
Y76487D01*
Y76492D01*
X46918D01*
X46890Y76631D01*
X46881Y76700D01*
X46876Y76765D01*
X46871Y76815D01*
Y76862D01*
Y76889D01*
Y76894D01*
Y76899D01*
X46876Y76986D01*
X46881Y77065D01*
X46894Y77143D01*
X46913Y77213D01*
X46931Y77282D01*
X46950Y77342D01*
X46973Y77398D01*
X46996Y77448D01*
X47024Y77490D01*
X47047Y77531D01*
X47065Y77564D01*
X47084Y77592D01*
X47102Y77610D01*
X47116Y77624D01*
X47121Y77633D01*
X47126Y77638D01*
X47176Y77684D01*
X47227Y77726D01*
X47283Y77758D01*
X47338Y77790D01*
X47394Y77818D01*
X47449Y77836D01*
X47560Y77869D01*
X47611Y77878D01*
X47657Y77887D01*
X47698Y77892D01*
X47735Y77896D01*
X47763Y77901D01*
X47805D01*
X47925Y77896D01*
D02*
G37*
G36*
X64062Y75531D02*
X62787D01*
X62718Y75536D01*
X62658Y75540D01*
X62598D01*
X62547Y75545D01*
X62501Y75550D01*
X62459Y75554D01*
X62422Y75559D01*
X62390Y75563D01*
X62362Y75568D01*
X62339D01*
X62325Y75573D01*
X62311Y75577D01*
X62302D01*
X62173Y75614D01*
X62057Y75656D01*
X61956Y75702D01*
X61873Y75744D01*
X61803Y75785D01*
X61775Y75799D01*
X61752Y75818D01*
X61734Y75827D01*
X61720Y75836D01*
X61716Y75845D01*
X61711D01*
X61605Y75942D01*
X61508Y76044D01*
X61420Y76150D01*
X61351Y76252D01*
X61290Y76344D01*
X61267Y76381D01*
X61249Y76418D01*
X61230Y76446D01*
X61221Y76464D01*
X61212Y76478D01*
Y76483D01*
X61175Y76561D01*
X61147Y76640D01*
X61096Y76797D01*
X61059Y76949D01*
X61050Y77023D01*
X61036Y77093D01*
X61032Y77157D01*
X61023Y77217D01*
X61018Y77268D01*
Y77314D01*
X61013Y77351D01*
Y77379D01*
Y77398D01*
Y77402D01*
Y77490D01*
X61023Y77569D01*
X61027Y77647D01*
X61036Y77712D01*
X61046Y77763D01*
X61055Y77804D01*
X61059Y77832D01*
X61064Y77841D01*
X61083Y77915D01*
X61106Y77984D01*
X61133Y78044D01*
X61156Y78095D01*
X61175Y78137D01*
X61193Y78169D01*
X61203Y78192D01*
X61207Y78197D01*
X61244Y78252D01*
X61281Y78303D01*
X61318Y78349D01*
X61351Y78386D01*
X61383Y78419D01*
X61406Y78442D01*
X61424Y78456D01*
X61429Y78460D01*
X61480Y78502D01*
X61526Y78534D01*
X61577Y78562D01*
X61618Y78589D01*
X61660Y78608D01*
X61688Y78622D01*
X61706Y78627D01*
X61716Y78631D01*
X61836Y78673D01*
X61896Y78686D01*
X61951Y78696D01*
X62002Y78705D01*
X62039Y78710D01*
X62062Y78714D01*
X62071D01*
X62094Y78719D01*
X62117D01*
X62182Y78724D01*
X62261D01*
X62339Y78728D01*
X63393D01*
X64062Y75531D01*
D02*
G37*
G36*
X55876D02*
X55257D01*
X54767Y77850D01*
X55391D01*
X55876Y75531D01*
D02*
G37*
G36*
X50129Y77896D02*
X50202Y77887D01*
X50272Y77873D01*
X50332Y77859D01*
X50383Y77846D01*
X50424Y77832D01*
X50447Y77823D01*
X50457Y77818D01*
X50530Y77781D01*
X50604Y77739D01*
X50674Y77693D01*
X50738Y77652D01*
X50794Y77610D01*
X50840Y77578D01*
X50868Y77555D01*
X50872Y77545D01*
X50877D01*
X50817Y77850D01*
X51408D01*
X51893Y75531D01*
X51274D01*
X51076Y76478D01*
X51057Y76552D01*
X51043Y76621D01*
X51025Y76686D01*
X51011Y76741D01*
X50997Y76792D01*
X50983Y76838D01*
X50969Y76876D01*
X50960Y76912D01*
X50951Y76940D01*
X50942Y76968D01*
X50928Y77005D01*
X50919Y77028D01*
X50914Y77033D01*
X50872Y77102D01*
X50831Y77162D01*
X50784Y77213D01*
X50743Y77254D01*
X50706Y77291D01*
X50674Y77314D01*
X50655Y77333D01*
X50646Y77337D01*
X50581Y77374D01*
X50526Y77402D01*
X50475Y77425D01*
X50429Y77439D01*
X50387Y77448D01*
X50359Y77453D01*
X50336D01*
X50290Y77448D01*
X50249Y77444D01*
X50216Y77430D01*
X50189Y77421D01*
X50165Y77407D01*
X50152Y77393D01*
X50142Y77388D01*
X50138Y77384D01*
X50115Y77356D01*
X50096Y77324D01*
X50082Y77291D01*
X50073Y77264D01*
X50068Y77236D01*
X50064Y77213D01*
Y77199D01*
Y77194D01*
Y77180D01*
X50068Y77162D01*
X50078Y77116D01*
X50087Y77056D01*
X50096Y76996D01*
X50110Y76940D01*
X50119Y76889D01*
X50124Y76871D01*
Y76857D01*
X50129Y76848D01*
Y76843D01*
X50410Y75531D01*
X49791D01*
X49509Y76838D01*
X49496Y76899D01*
X49482Y76954D01*
X49472Y77005D01*
X49463Y77051D01*
X49449Y77134D01*
X49440Y77194D01*
X49431Y77245D01*
X49426Y77277D01*
Y77296D01*
Y77301D01*
X49435Y77398D01*
X49454Y77481D01*
X49477Y77555D01*
X49509Y77619D01*
X49542Y77670D01*
X49565Y77707D01*
X49583Y77726D01*
X49593Y77735D01*
X49662Y77790D01*
X49736Y77832D01*
X49810Y77859D01*
X49884Y77883D01*
X49948Y77892D01*
X50004Y77896D01*
X50022Y77901D01*
X50050D01*
X50129Y77896D01*
D02*
G37*
G36*
X57146D02*
X57243Y77887D01*
X57331Y77873D01*
X57414Y77859D01*
X57493Y77836D01*
X57562Y77813D01*
X57622Y77786D01*
X57682Y77763D01*
X57733Y77735D01*
X57775Y77707D01*
X57812Y77684D01*
X57839Y77666D01*
X57862Y77647D01*
X57881Y77633D01*
X57890Y77624D01*
X57895Y77619D01*
X57932Y77582D01*
X57959Y77541D01*
X58010Y77462D01*
X58047Y77384D01*
X58070Y77310D01*
X58089Y77245D01*
X58093Y77194D01*
X58098Y77176D01*
Y77162D01*
Y77153D01*
Y77148D01*
X58093Y77097D01*
X58089Y77051D01*
X58066Y76963D01*
X58033Y76885D01*
X57992Y76820D01*
X57955Y76769D01*
X57922Y76732D01*
X57899Y76709D01*
X57890Y76700D01*
X57858Y76681D01*
X57821Y76658D01*
X57775Y76635D01*
X57719Y76608D01*
X57604Y76561D01*
X57484Y76511D01*
X57368Y76469D01*
X57317Y76450D01*
X57276Y76437D01*
X57239Y76423D01*
X57206Y76414D01*
X57188Y76404D01*
X57183D01*
X57109Y76381D01*
X57054Y76358D01*
X57008Y76335D01*
X56971Y76316D01*
X56948Y76303D01*
X56929Y76293D01*
X56924Y76289D01*
X56920Y76284D01*
X56892Y76247D01*
X56878Y76210D01*
X56874Y76183D01*
Y76178D01*
Y76173D01*
X56878Y76136D01*
X56888Y76109D01*
X56920Y76058D01*
X56938Y76039D01*
X56952Y76025D01*
X56962Y76016D01*
X56966Y76012D01*
X57017Y75979D01*
X57072Y75956D01*
X57132Y75942D01*
X57188Y75933D01*
X57239Y75924D01*
X57276Y75919D01*
X57313D01*
X57386Y75924D01*
X57451Y75933D01*
X57507Y75942D01*
X57553Y75961D01*
X57590Y75975D01*
X57617Y75984D01*
X57636Y75993D01*
X57641Y75998D01*
X57682Y76030D01*
X57724Y76072D01*
X57756Y76118D01*
X57784Y76164D01*
X57807Y76206D01*
X57825Y76238D01*
X57835Y76261D01*
X57839Y76270D01*
X58444Y76173D01*
X58403Y76053D01*
X58347Y75951D01*
X58283Y75859D01*
X58223Y75785D01*
X58167Y75730D01*
X58121Y75683D01*
X58103Y75670D01*
X58089Y75660D01*
X58079Y75651D01*
X58075D01*
X58020Y75619D01*
X57964Y75591D01*
X57839Y75545D01*
X57710Y75517D01*
X57585Y75494D01*
X57525Y75485D01*
X57474Y75480D01*
X57424Y75476D01*
X57382D01*
X57345Y75471D01*
X57299D01*
X57206Y75476D01*
X57119Y75480D01*
X57040Y75494D01*
X56966Y75508D01*
X56892Y75526D01*
X56832Y75545D01*
X56772Y75568D01*
X56721Y75591D01*
X56675Y75614D01*
X56634Y75637D01*
X56596Y75656D01*
X56569Y75674D01*
X56546Y75688D01*
X56532Y75702D01*
X56523Y75707D01*
X56518Y75711D01*
X56467Y75757D01*
X56426Y75808D01*
X56389Y75854D01*
X56356Y75905D01*
X56328Y75951D01*
X56305Y76002D01*
X56273Y76090D01*
X56250Y76169D01*
X56245Y76201D01*
X56241Y76229D01*
X56236Y76252D01*
Y76270D01*
Y76279D01*
Y76284D01*
X56241Y76330D01*
X56245Y76376D01*
X56269Y76460D01*
X56305Y76534D01*
X56347Y76598D01*
X56389Y76649D01*
X56421Y76691D01*
X56449Y76714D01*
X56453Y76723D01*
X56458D01*
X56490Y76746D01*
X56527Y76769D01*
X56573Y76792D01*
X56620Y76815D01*
X56721Y76862D01*
X56823Y76899D01*
X56920Y76931D01*
X56962Y76945D01*
X56998Y76959D01*
X57031Y76968D01*
X57054Y76977D01*
X57068Y76982D01*
X57072D01*
X57128Y76996D01*
X57174Y77014D01*
X57216Y77028D01*
X57253Y77037D01*
X57289Y77051D01*
X57317Y77060D01*
X57363Y77079D01*
X57396Y77088D01*
X57414Y77097D01*
X57424Y77106D01*
X57428D01*
X57456Y77130D01*
X57474Y77153D01*
X57493Y77176D01*
X57502Y77199D01*
X57507Y77217D01*
X57511Y77236D01*
Y77245D01*
Y77250D01*
X57507Y77282D01*
X57497Y77310D01*
X57470Y77356D01*
X57456Y77374D01*
X57442Y77388D01*
X57433Y77393D01*
X57428Y77398D01*
X57391Y77421D01*
X57345Y77439D01*
X57299Y77448D01*
X57253Y77458D01*
X57211Y77462D01*
X57174Y77467D01*
X57142D01*
X57068Y77462D01*
X57003Y77453D01*
X56948Y77439D01*
X56897Y77425D01*
X56860Y77407D01*
X56827Y77393D01*
X56809Y77384D01*
X56804Y77379D01*
X56767Y77356D01*
X56735Y77324D01*
X56707Y77296D01*
X56689Y77264D01*
X56670Y77236D01*
X56661Y77213D01*
X56652Y77199D01*
Y77194D01*
X56074Y77291D01*
X56107Y77393D01*
X56148Y77481D01*
X56195Y77555D01*
X56245Y77619D01*
X56292Y77670D01*
X56333Y77707D01*
X56361Y77726D01*
X56366Y77735D01*
X56370D01*
X56416Y77763D01*
X56463Y77790D01*
X56569Y77832D01*
X56684Y77859D01*
X56791Y77883D01*
X56892Y77892D01*
X56934Y77896D01*
X56971D01*
X57003Y77901D01*
X57045D01*
X57146Y77896D01*
D02*
G37*
G36*
X44732Y77527D02*
X44778Y77592D01*
X44829Y77652D01*
X44885Y77702D01*
X44945Y77744D01*
X45000Y77781D01*
X45060Y77809D01*
X45120Y77836D01*
X45176Y77855D01*
X45231Y77869D01*
X45282Y77883D01*
X45328Y77892D01*
X45365Y77896D01*
X45398D01*
X45421Y77901D01*
X45444D01*
X45541Y77896D01*
X45629Y77883D01*
X45716Y77859D01*
X45795Y77832D01*
X45869Y77795D01*
X45938Y77758D01*
X46003Y77716D01*
X46058Y77675D01*
X46109Y77633D01*
X46155Y77592D01*
X46197Y77555D01*
X46225Y77518D01*
X46252Y77490D01*
X46271Y77467D01*
X46280Y77453D01*
X46285Y77448D01*
X46340Y77365D01*
X46391Y77277D01*
X46433Y77190D01*
X46470Y77102D01*
X46502Y77014D01*
X46525Y76931D01*
X46548Y76852D01*
X46562Y76779D01*
X46576Y76705D01*
X46585Y76640D01*
X46594Y76584D01*
X46599Y76534D01*
X46603Y76497D01*
Y76464D01*
Y76446D01*
Y76441D01*
X46599Y76353D01*
X46594Y76270D01*
X46585Y76196D01*
X46567Y76127D01*
X46553Y76062D01*
X46534Y76002D01*
X46511Y75947D01*
X46493Y75901D01*
X46470Y75854D01*
X46451Y75818D01*
X46433Y75785D01*
X46414Y75762D01*
X46400Y75744D01*
X46391Y75730D01*
X46386Y75721D01*
X46382Y75716D01*
X46340Y75674D01*
X46294Y75637D01*
X46248Y75600D01*
X46197Y75573D01*
X46100Y75531D01*
X46007Y75503D01*
X45924Y75485D01*
X45892Y75480D01*
X45860Y75476D01*
X45832Y75471D01*
X45800D01*
X45726Y75476D01*
X45652Y75480D01*
X45592Y75494D01*
X45536Y75508D01*
X45490Y75517D01*
X45453Y75531D01*
X45435Y75536D01*
X45425Y75540D01*
X45361Y75573D01*
X45301Y75605D01*
X45245Y75647D01*
X45194Y75683D01*
X45153Y75721D01*
X45116Y75748D01*
X45097Y75767D01*
X45088Y75776D01*
X45139Y75531D01*
X44552D01*
X43850Y78728D01*
X44469D01*
X44732Y77527D01*
D02*
G37*
G36*
X40555Y73093D02*
X39931D01*
X39816Y73657D01*
X40435D01*
X40555Y73093D01*
D02*
G37*
G36*
X43420Y72825D02*
X43493Y72816D01*
X43558Y72798D01*
X43627Y72779D01*
X43747Y72724D01*
X43858Y72664D01*
X43909Y72632D01*
X43951Y72604D01*
X43988Y72576D01*
X44020Y72548D01*
X44048Y72530D01*
X44066Y72511D01*
X44076Y72502D01*
X44080Y72497D01*
X44025Y72779D01*
X44611D01*
X45096Y70460D01*
X44477D01*
X44256Y71523D01*
X44242Y71574D01*
X44233Y71620D01*
X44214Y71694D01*
X44196Y71758D01*
X44186Y71804D01*
X44177Y71837D01*
X44168Y71860D01*
X44163Y71874D01*
Y71878D01*
X44140Y71939D01*
X44117Y71989D01*
X44094Y72040D01*
X44071Y72077D01*
X44052Y72109D01*
X44039Y72132D01*
X44029Y72146D01*
X44025Y72151D01*
X43992Y72188D01*
X43960Y72220D01*
X43928Y72253D01*
X43895Y72276D01*
X43872Y72294D01*
X43849Y72308D01*
X43835Y72313D01*
X43831Y72317D01*
X43789Y72340D01*
X43752Y72354D01*
X43715Y72368D01*
X43683Y72373D01*
X43655Y72377D01*
X43637Y72382D01*
X43618D01*
X43577Y72377D01*
X43544Y72373D01*
X43516Y72364D01*
X43489Y72354D01*
X43470Y72340D01*
X43456Y72331D01*
X43452Y72326D01*
X43447Y72322D01*
X43424Y72299D01*
X43410Y72271D01*
X43392Y72225D01*
X43387Y72202D01*
X43382Y72183D01*
Y72174D01*
Y72170D01*
Y72137D01*
X43392Y72091D01*
X43396Y72040D01*
X43406Y71985D01*
X43415Y71939D01*
X43424Y71897D01*
X43429Y71864D01*
X43433Y71860D01*
Y71855D01*
X43724Y70460D01*
X43105D01*
X42884Y71509D01*
X42865Y71592D01*
X42847Y71666D01*
X42828Y71735D01*
X42805Y71795D01*
X42786Y71851D01*
X42768Y71902D01*
X42750Y71948D01*
X42731Y71989D01*
X42717Y72022D01*
X42699Y72054D01*
X42685Y72077D01*
X42676Y72100D01*
X42666Y72114D01*
X42657Y72123D01*
X42653Y72132D01*
X42616Y72179D01*
X42583Y72216D01*
X42546Y72248D01*
X42509Y72276D01*
X42435Y72322D01*
X42371Y72350D01*
X42315Y72368D01*
X42269Y72377D01*
X42251Y72382D01*
X42228D01*
X42186Y72377D01*
X42154Y72373D01*
X42121Y72364D01*
X42098Y72354D01*
X42080Y72340D01*
X42066Y72331D01*
X42061Y72326D01*
X42057Y72322D01*
X42038Y72299D01*
X42020Y72276D01*
X42006Y72225D01*
X42001Y72202D01*
X41996Y72188D01*
Y72174D01*
Y72170D01*
Y72160D01*
Y72146D01*
X42006Y72109D01*
X42015Y72059D01*
X42024Y72008D01*
X42033Y71957D01*
X42043Y71911D01*
X42047Y71892D01*
Y71883D01*
X42052Y71874D01*
Y71869D01*
X42352Y70460D01*
X41733D01*
X41428Y71869D01*
X41405Y71971D01*
X41391Y72059D01*
X41377Y72132D01*
X41373Y72188D01*
X41368Y72229D01*
X41364Y72262D01*
Y72280D01*
Y72285D01*
X41368Y72373D01*
X41387Y72451D01*
X41414Y72516D01*
X41442Y72571D01*
X41470Y72618D01*
X41498Y72650D01*
X41516Y72673D01*
X41521Y72678D01*
X41581Y72729D01*
X41650Y72765D01*
X41724Y72793D01*
X41793Y72812D01*
X41853Y72821D01*
X41904Y72830D01*
X41950D01*
X42043Y72825D01*
X42126Y72812D01*
X42209Y72793D01*
X42278Y72770D01*
X42338Y72747D01*
X42380Y72729D01*
X42399Y72719D01*
X42412Y72715D01*
X42417Y72710D01*
X42422D01*
X42500Y72664D01*
X42569Y72613D01*
X42625Y72567D01*
X42676Y72521D01*
X42713Y72479D01*
X42740Y72447D01*
X42759Y72428D01*
X42763Y72419D01*
X42782Y72488D01*
X42810Y72544D01*
X42842Y72599D01*
X42870Y72641D01*
X42902Y72673D01*
X42925Y72701D01*
X42944Y72715D01*
X42948Y72719D01*
X43004Y72756D01*
X43068Y72784D01*
X43138Y72802D01*
X43202Y72816D01*
X43258Y72825D01*
X43309Y72830D01*
X43350D01*
X43420Y72825D01*
D02*
G37*
G36*
X46395Y72821D02*
X46533Y72802D01*
X46593Y72789D01*
X46649Y72775D01*
X46704Y72761D01*
X46751Y72742D01*
X46792Y72724D01*
X46829Y72710D01*
X46861Y72696D01*
X46889Y72682D01*
X46908Y72673D01*
X46921Y72664D01*
X46931Y72655D01*
X46935D01*
X47023Y72585D01*
X47102Y72507D01*
X47162Y72424D01*
X47212Y72350D01*
X47249Y72280D01*
X47277Y72225D01*
X47286Y72202D01*
X47291Y72188D01*
X47296Y72179D01*
Y72174D01*
X46686Y72123D01*
X46672Y72165D01*
X46654Y72202D01*
X46630Y72234D01*
X46607Y72262D01*
X46589Y72285D01*
X46570Y72299D01*
X46561Y72308D01*
X46556Y72313D01*
X46515Y72336D01*
X46473Y72354D01*
X46427Y72364D01*
X46385Y72373D01*
X46349Y72377D01*
X46316Y72382D01*
X46288D01*
X46233Y72377D01*
X46182Y72373D01*
X46145Y72359D01*
X46108Y72350D01*
X46081Y72336D01*
X46062Y72322D01*
X46053Y72317D01*
X46048Y72313D01*
X46020Y72285D01*
X46002Y72257D01*
X45984Y72229D01*
X45974Y72202D01*
X45970Y72179D01*
X45965Y72165D01*
Y72151D01*
Y72146D01*
Y72114D01*
X45970Y72082D01*
X45984Y72012D01*
X45993Y71985D01*
X46002Y71962D01*
X46007Y71943D01*
Y71939D01*
X46039Y71929D01*
X46076Y71920D01*
X46118Y71911D01*
X46164Y71902D01*
X46261Y71883D01*
X46362Y71874D01*
X46455Y71860D01*
X46496Y71855D01*
X46529Y71851D01*
X46561D01*
X46584Y71846D01*
X46603D01*
X46700Y71837D01*
X46788Y71823D01*
X46866Y71809D01*
X46940Y71791D01*
X47009Y71772D01*
X47069Y71754D01*
X47125Y71731D01*
X47171Y71712D01*
X47212Y71689D01*
X47249Y71671D01*
X47277Y71652D01*
X47300Y71638D01*
X47319Y71624D01*
X47333Y71615D01*
X47337Y71610D01*
X47342Y71606D01*
X47379Y71569D01*
X47407Y71527D01*
X47457Y71439D01*
X47494Y71352D01*
X47517Y71264D01*
X47536Y71190D01*
X47541Y71158D01*
Y71130D01*
X47545Y71107D01*
Y71088D01*
Y71079D01*
Y71074D01*
X47536Y70968D01*
X47517Y70871D01*
X47485Y70788D01*
X47453Y70719D01*
X47420Y70659D01*
X47388Y70617D01*
X47370Y70594D01*
X47360Y70585D01*
X47286Y70525D01*
X47208Y70478D01*
X47125Y70446D01*
X47051Y70423D01*
X46986Y70409D01*
X46931Y70405D01*
X46912Y70400D01*
X46885D01*
X46815Y70405D01*
X46751Y70414D01*
X46690Y70428D01*
X46635Y70442D01*
X46589Y70455D01*
X46556Y70469D01*
X46533Y70478D01*
X46524Y70483D01*
X46459Y70516D01*
X46399Y70557D01*
X46344Y70594D01*
X46298Y70631D01*
X46261Y70668D01*
X46228Y70696D01*
X46210Y70714D01*
X46205Y70719D01*
X46196Y70622D01*
X46187Y70580D01*
X46182Y70539D01*
X46173Y70506D01*
X46164Y70483D01*
X46159Y70465D01*
Y70460D01*
X45554D01*
X45572Y70525D01*
X45582Y70589D01*
X45591Y70645D01*
X45600Y70691D01*
Y70733D01*
X45605Y70760D01*
Y70784D01*
Y70788D01*
Y70820D01*
X45600Y70862D01*
X45591Y70950D01*
X45577Y71042D01*
X45559Y71139D01*
X45545Y71227D01*
X45535Y71264D01*
X45531Y71301D01*
X45526Y71329D01*
X45522Y71347D01*
X45517Y71361D01*
Y71366D01*
X45498Y71453D01*
X45480Y71536D01*
X45461Y71610D01*
X45448Y71675D01*
X45438Y71731D01*
X45429Y71781D01*
X45420Y71828D01*
X45411Y71864D01*
X45406Y71897D01*
X45397Y71920D01*
Y71943D01*
X45392Y71957D01*
X45388Y71980D01*
Y71985D01*
X45374Y72072D01*
X45369Y72109D01*
Y72142D01*
X45364Y72170D01*
Y72188D01*
Y72202D01*
Y72206D01*
Y72257D01*
X45374Y72303D01*
X45397Y72387D01*
X45434Y72461D01*
X45471Y72525D01*
X45512Y72581D01*
X45549Y72618D01*
X45572Y72641D01*
X45577Y72650D01*
X45582D01*
X45623Y72682D01*
X45669Y72710D01*
X45776Y72756D01*
X45882Y72789D01*
X45993Y72807D01*
X46090Y72821D01*
X46131Y72825D01*
X46168D01*
X46201Y72830D01*
X46242D01*
X46395Y72821D01*
D02*
G37*
G36*
X38615Y72825D02*
X38730Y72807D01*
X38836Y72784D01*
X38934Y72752D01*
X39026Y72715D01*
X39109Y72673D01*
X39188Y72627D01*
X39257Y72581D01*
X39317Y72530D01*
X39372Y72488D01*
X39414Y72442D01*
X39456Y72405D01*
X39483Y72373D01*
X39502Y72350D01*
X39516Y72331D01*
X39520Y72326D01*
X39566Y72257D01*
X39608Y72183D01*
X39640Y72109D01*
X39673Y72035D01*
X39696Y71962D01*
X39719Y71892D01*
X39751Y71763D01*
X39760Y71703D01*
X39770Y71647D01*
X39774Y71597D01*
X39779Y71555D01*
X39783Y71523D01*
Y71500D01*
Y71481D01*
Y71477D01*
X39779Y71389D01*
X39770Y71306D01*
X39756Y71222D01*
X39737Y71148D01*
X39714Y71079D01*
X39691Y71014D01*
X39663Y70959D01*
X39636Y70904D01*
X39613Y70857D01*
X39585Y70816D01*
X39562Y70779D01*
X39539Y70751D01*
X39520Y70728D01*
X39506Y70710D01*
X39497Y70700D01*
X39492Y70696D01*
X39437Y70645D01*
X39377Y70599D01*
X39312Y70557D01*
X39252Y70525D01*
X39188Y70497D01*
X39123Y70474D01*
X39003Y70437D01*
X38947Y70423D01*
X38897Y70414D01*
X38850Y70409D01*
X38809Y70405D01*
X38776Y70400D01*
X38730D01*
X38605Y70409D01*
X38495Y70428D01*
X38388Y70451D01*
X38300Y70483D01*
X38222Y70516D01*
X38194Y70529D01*
X38166Y70539D01*
X38148Y70552D01*
X38134Y70557D01*
X38125Y70566D01*
X38120D01*
X38023Y70636D01*
X37936Y70719D01*
X37857Y70802D01*
X37792Y70885D01*
X37746Y70964D01*
X37723Y70996D01*
X37709Y71024D01*
X37695Y71047D01*
X37686Y71065D01*
X37677Y71074D01*
Y71079D01*
X38236Y71171D01*
X38268Y71116D01*
X38305Y71065D01*
X38347Y71024D01*
X38388Y70987D01*
X38425Y70954D01*
X38467Y70927D01*
X38508Y70904D01*
X38545Y70890D01*
X38615Y70867D01*
X38647Y70857D01*
X38675Y70853D01*
X38693Y70848D01*
X38726D01*
X38795Y70853D01*
X38860Y70871D01*
X38915Y70894D01*
X38961Y70917D01*
X39003Y70945D01*
X39031Y70964D01*
X39049Y70982D01*
X39054Y70987D01*
X39095Y71042D01*
X39127Y71107D01*
X39151Y71167D01*
X39165Y71227D01*
X39174Y71282D01*
X39183Y71324D01*
Y71352D01*
Y71356D01*
Y71361D01*
Y71379D01*
X39178Y71398D01*
Y71416D01*
Y71421D01*
X37607D01*
X37580Y71560D01*
X37571Y71629D01*
X37566Y71694D01*
X37561Y71744D01*
Y71791D01*
Y71818D01*
Y71823D01*
Y71828D01*
X37566Y71915D01*
X37571Y71994D01*
X37584Y72072D01*
X37603Y72142D01*
X37621Y72211D01*
X37640Y72271D01*
X37663Y72326D01*
X37686Y72377D01*
X37714Y72419D01*
X37737Y72461D01*
X37755Y72493D01*
X37774Y72521D01*
X37792Y72539D01*
X37806Y72553D01*
X37811Y72562D01*
X37815Y72567D01*
X37866Y72613D01*
X37917Y72655D01*
X37973Y72687D01*
X38028Y72719D01*
X38083Y72747D01*
X38139Y72765D01*
X38250Y72798D01*
X38300Y72807D01*
X38347Y72816D01*
X38388Y72821D01*
X38425Y72825D01*
X38453Y72830D01*
X38495D01*
X38615Y72825D01*
D02*
G37*
G36*
X41105Y70460D02*
X40486D01*
X39996Y72779D01*
X40620D01*
X41105Y70460D01*
D02*
G37*
G36*
X48599Y71740D02*
X48617Y71647D01*
X48640Y71560D01*
X48659Y71486D01*
X48672Y71416D01*
X48691Y71356D01*
X48705Y71306D01*
X48719Y71259D01*
X48733Y71222D01*
X48742Y71190D01*
X48756Y71162D01*
X48765Y71139D01*
X48769Y71125D01*
X48779Y71102D01*
X48783Y71098D01*
X48829Y71047D01*
X48885Y71014D01*
X48940Y70987D01*
X49000Y70968D01*
X49056Y70959D01*
X49097Y70954D01*
X49116Y70950D01*
X49139D01*
X49204Y70954D01*
X49259Y70964D01*
X49305Y70973D01*
X49342Y70991D01*
X49375Y71005D01*
X49393Y71014D01*
X49407Y71024D01*
X49412Y71028D01*
X49439Y71061D01*
X49458Y71098D01*
X49476Y71135D01*
X49485Y71171D01*
X49490Y71209D01*
X49495Y71236D01*
Y71255D01*
Y71259D01*
Y71310D01*
X49490Y71366D01*
Y71389D01*
X49485Y71407D01*
Y71416D01*
Y71421D01*
X50091Y71352D01*
X50095Y71287D01*
X50100Y71236D01*
Y71213D01*
Y71199D01*
Y71190D01*
Y71185D01*
X50095Y71121D01*
X50091Y71056D01*
X50063Y70941D01*
X50026Y70843D01*
X49984Y70760D01*
X49943Y70696D01*
X49924Y70668D01*
X49911Y70645D01*
X49892Y70631D01*
X49883Y70617D01*
X49878Y70613D01*
X49874Y70608D01*
X49827Y70571D01*
X49777Y70539D01*
X49670Y70488D01*
X49555Y70451D01*
X49444Y70428D01*
X49389Y70419D01*
X49342Y70409D01*
X49296Y70405D01*
X49259D01*
X49227Y70400D01*
X49185D01*
X49088Y70405D01*
X48996Y70414D01*
X48908Y70423D01*
X48829Y70442D01*
X48756Y70465D01*
X48691Y70488D01*
X48631Y70511D01*
X48580Y70539D01*
X48534Y70562D01*
X48492Y70585D01*
X48460Y70608D01*
X48432Y70631D01*
X48409Y70649D01*
X48395Y70659D01*
X48386Y70668D01*
X48381Y70673D01*
X48335Y70728D01*
X48289Y70797D01*
X48243Y70871D01*
X48206Y70950D01*
X48132Y71121D01*
X48072Y71296D01*
X48044Y71379D01*
X48021Y71458D01*
X48002Y71527D01*
X47984Y71592D01*
X47975Y71643D01*
X47966Y71684D01*
X47956Y71707D01*
Y71717D01*
X47550Y73657D01*
X48197D01*
X48599Y71740D01*
D02*
G37*
%LPC*%
G36*
X43564Y82563D02*
X43531D01*
X43462Y82558D01*
X43402Y82544D01*
X43346Y82521D01*
X43305Y82498D01*
X43268Y82475D01*
X43245Y82452D01*
X43226Y82438D01*
X43222Y82433D01*
X43185Y82378D01*
X43157Y82318D01*
X43134Y82253D01*
X43120Y82193D01*
X43111Y82133D01*
X43106Y82087D01*
Y82068D01*
Y82055D01*
Y82050D01*
Y82045D01*
Y82027D01*
Y82008D01*
Y81990D01*
Y81985D01*
X44090D01*
X44067Y82087D01*
X44035Y82170D01*
X43998Y82244D01*
X43965Y82304D01*
X43933Y82355D01*
X43905Y82387D01*
X43887Y82410D01*
X43882Y82415D01*
X43822Y82466D01*
X43762Y82503D01*
X43702Y82526D01*
X43647Y82544D01*
X43600Y82553D01*
X43564Y82563D01*
D02*
G37*
G36*
X48198Y90251D02*
X48045D01*
X48077D01*
X48198D01*
D02*
G37*
G36*
X58891Y87635D02*
X58558D01*
X57066D01*
X57246Y86725D01*
X58558D01*
X59072D01*
X58891Y87635D01*
D02*
G37*
G36*
X33178Y87635D02*
X33102D01*
X31353D01*
X31534Y86725D01*
X33102D01*
X33359D01*
X33178Y87635D01*
D02*
G37*
G36*
X56303Y90251D02*
X52354D01*
X52513Y89446D01*
X52708D01*
X53915D01*
X54748Y85449D01*
X55734D01*
X54901Y89446D01*
X56303D01*
X56143Y90251D01*
X56303D01*
D02*
G37*
G36*
X52354D02*
X49225D01*
X49439D01*
X49390Y90244D01*
X49265Y90237D01*
X49127Y90223D01*
X48988Y90202D01*
X48849Y90175D01*
X48724Y90133D01*
X48717D01*
X48710Y90126D01*
X48676Y90112D01*
X48620Y90084D01*
X48551Y90043D01*
X48467Y89980D01*
X48384Y89911D01*
X48308Y89821D01*
X48231Y89717D01*
X48224Y89703D01*
X48204Y89661D01*
X48169Y89599D01*
X48134Y89515D01*
X48099Y89411D01*
X48065Y89286D01*
X48044Y89141D01*
X48037Y88988D01*
Y88981D01*
Y88960D01*
Y88932D01*
X48044Y88884D01*
X48051Y88835D01*
X48058Y88773D01*
X48065Y88703D01*
X48086Y88634D01*
X48127Y88474D01*
X48190Y88301D01*
X48231Y88218D01*
X48280Y88134D01*
X48342Y88051D01*
X48405Y87975D01*
X48412Y87968D01*
X48419Y87961D01*
X48447Y87940D01*
X48474Y87912D01*
X48516Y87878D01*
X48557Y87843D01*
X48613Y87808D01*
X48682Y87766D01*
X48752Y87725D01*
X48835Y87683D01*
X48925Y87642D01*
X49029Y87600D01*
X49134Y87565D01*
X49251Y87537D01*
X49383Y87510D01*
X49515Y87489D01*
X49508Y87482D01*
X49481Y87461D01*
X49446Y87419D01*
X49397Y87371D01*
X49349Y87301D01*
X49286Y87225D01*
X49224Y87135D01*
X49161Y87038D01*
X49154Y87031D01*
X49147Y87010D01*
X49127Y86982D01*
X49106Y86934D01*
X49071Y86878D01*
X49036Y86809D01*
X48995Y86725D01*
X48946Y86628D01*
X48891Y86524D01*
X48835Y86406D01*
X48773Y86274D01*
X48710Y86129D01*
X48641Y85976D01*
X48571Y85809D01*
X48495Y85636D01*
X48419Y85449D01*
X49481D01*
Y85456D01*
X49488Y85469D01*
X49494Y85490D01*
X49508Y85525D01*
X49522Y85567D01*
X49543Y85622D01*
X49564Y85685D01*
X49592Y85761D01*
X49626Y85844D01*
X49661Y85934D01*
X49703Y86039D01*
X49751Y86150D01*
X49800Y86274D01*
X49855Y86413D01*
X49918Y86559D01*
X49987Y86712D01*
Y86719D01*
X49994Y86733D01*
X50008Y86753D01*
X50022Y86788D01*
X50064Y86864D01*
X50119Y86962D01*
X50182Y87066D01*
X50251Y87170D01*
X50334Y87267D01*
X50376Y87301D01*
X50418Y87336D01*
X50424Y87343D01*
X50445Y87350D01*
X50480Y87364D01*
X50529Y87385D01*
X50598Y87406D01*
X50681Y87419D01*
X50785Y87427D01*
X50910Y87433D01*
X51313D01*
X51729Y85449D01*
X52708D01*
X51701Y90251D01*
X52354D01*
D01*
D02*
G37*
G36*
X46797D02*
X43644D01*
X44414D01*
X43644Y85449D01*
X44581D01*
X44741Y86510D01*
X46642D01*
X47218Y85449D01*
X48256D01*
X48231D01*
X48037Y85794D01*
X45532Y90251D01*
X46797D01*
D02*
G37*
G36*
X38210D02*
X33102Y90251D01*
X35260Y88363D01*
X33678Y85449D01*
X34795D01*
X35982Y87732D01*
X36919Y86906D01*
X37231Y85449D01*
X38210D01*
X37204Y90251D01*
X38210D01*
D01*
D02*
G37*
G36*
X31117Y90251D02*
X26551D01*
X26717Y89446D01*
X29292D01*
X29528Y88363D01*
X27037D01*
X27203Y87558D01*
X29708D01*
X29993Y86254D01*
X27196D01*
X27370Y85449D01*
X31117D01*
X30111Y90251D01*
X31117D01*
D02*
G37*
G36*
X22172D02*
X19132D01*
X19083Y90244D01*
X19035D01*
X18917Y90237D01*
X18785Y90223D01*
X18653Y90196D01*
X18514Y90168D01*
X18396Y90126D01*
X18389D01*
X18382Y90119D01*
X18348Y90105D01*
X18292Y90071D01*
X18223Y90029D01*
X18146Y89973D01*
X18063Y89904D01*
X17980Y89814D01*
X17910Y89717D01*
X17904Y89703D01*
X17883Y89668D01*
X17855Y89606D01*
X17820Y89529D01*
X17786Y89425D01*
X17758Y89314D01*
X17737Y89182D01*
X17730Y89043D01*
Y88981D01*
X17737Y88912D01*
X17751Y88814D01*
X17765Y88710D01*
X17793Y88585D01*
X17827Y88460D01*
X17876Y88329D01*
Y88322D01*
X17883Y88315D01*
X17904Y88273D01*
X17931Y88211D01*
X17973Y88134D01*
X18022Y88044D01*
X18077Y87954D01*
X18146Y87864D01*
X18223Y87780D01*
X18230Y87774D01*
X18258Y87746D01*
X18299Y87711D01*
X18355Y87669D01*
X18417Y87614D01*
X18494Y87565D01*
X18570Y87517D01*
X18660Y87468D01*
X18674Y87461D01*
X18702Y87454D01*
X18757Y87433D01*
X18827Y87413D01*
X18917Y87385D01*
X19028Y87357D01*
X19153Y87329D01*
X19298Y87309D01*
X19312D01*
X19347Y87301D01*
X19410D01*
X19451Y87295D01*
X19555D01*
X19618Y87288D01*
X19763D01*
X19854Y87281D01*
X20805D01*
X21193Y85449D01*
X17730D01*
X22172D01*
X21165Y90251D01*
X22172D01*
D02*
G37*
%LPD*%
G36*
X51160Y88155D02*
X50438D01*
X50369Y88162D01*
X50202Y88169D01*
X50029Y88176D01*
X49855Y88197D01*
X49779Y88204D01*
X49703Y88218D01*
X49640Y88231D01*
X49585Y88245D01*
X49571Y88252D01*
X49543Y88266D01*
X49494Y88287D01*
X49432Y88322D01*
X49369Y88363D01*
X49300Y88412D01*
X49238Y88474D01*
X49175Y88544D01*
X49168Y88551D01*
X49154Y88578D01*
X49127Y88620D01*
X49099Y88676D01*
X49071Y88738D01*
X49043Y88807D01*
X49029Y88891D01*
X49022Y88974D01*
Y88988D01*
Y89016D01*
X49036Y89064D01*
X49050Y89120D01*
X49078Y89182D01*
X49113Y89245D01*
X49168Y89307D01*
X49238Y89363D01*
X49245Y89370D01*
X49265Y89377D01*
X49300Y89390D01*
X49356Y89404D01*
X49432Y89418D01*
X49536Y89432D01*
X49654Y89446D01*
X50889D01*
X51160Y88155D01*
D02*
G37*
G36*
X46198Y87315D02*
X44859D01*
X45143Y89245D01*
X46198Y87315D01*
D02*
G37*
G36*
X36648Y88204D02*
X34428Y90251D01*
X36218Y90251D01*
X36648Y88204D01*
D02*
G37*
G36*
X20638Y88086D02*
X20145D01*
X20069Y88093D01*
X19909Y88100D01*
X19736Y88107D01*
X19562Y88127D01*
X19486Y88141D01*
X19410Y88148D01*
X19347Y88169D01*
X19292Y88183D01*
X19278Y88190D01*
X19250Y88204D01*
X19201Y88225D01*
X19139Y88259D01*
X19076Y88301D01*
X19007Y88356D01*
X18938Y88419D01*
X18875Y88488D01*
X18868Y88495D01*
X18854Y88523D01*
X18827Y88572D01*
X18799Y88627D01*
X18771Y88696D01*
X18743Y88780D01*
X18729Y88863D01*
X18722Y88960D01*
Y88967D01*
Y88988D01*
X18729Y89023D01*
Y89064D01*
X18757Y89154D01*
X18778Y89203D01*
X18806Y89245D01*
Y89252D01*
X18820Y89266D01*
X18861Y89307D01*
X18931Y89356D01*
X19021Y89404D01*
X19028D01*
X19049Y89411D01*
X19090Y89425D01*
X19153Y89432D01*
X19229Y89446D01*
X19340Y89453D01*
X19403D01*
X19472Y89460D01*
X20346D01*
X20638Y88086D01*
D02*
G37*
%LPC*%
G36*
X41272Y77453D02*
X41249D01*
X41184Y77448D01*
X41124Y77430D01*
X41073Y77407D01*
X41027Y77384D01*
X40990Y77356D01*
X40962Y77333D01*
X40944Y77314D01*
X40939Y77310D01*
X40898Y77254D01*
X40865Y77190D01*
X40842Y77125D01*
X40824Y77060D01*
X40815Y77005D01*
X40810Y76963D01*
Y76945D01*
Y76931D01*
Y76926D01*
Y76922D01*
X40815Y76829D01*
X40824Y76737D01*
X40842Y76649D01*
X40856Y76575D01*
X40875Y76511D01*
X40893Y76460D01*
X40898Y76441D01*
X40902Y76427D01*
X40907Y76423D01*
Y76418D01*
X40944Y76330D01*
X40986Y76256D01*
X41027Y76192D01*
X41064Y76141D01*
X41096Y76104D01*
X41124Y76076D01*
X41143Y76058D01*
X41147Y76053D01*
X41203Y76016D01*
X41254Y75988D01*
X41304Y75970D01*
X41350Y75956D01*
X41392Y75947D01*
X41420Y75942D01*
X41447D01*
X41512Y75947D01*
X41572Y75965D01*
X41628Y75988D01*
X41674Y76016D01*
X41711Y76039D01*
X41739Y76062D01*
X41757Y76081D01*
X41762Y76086D01*
X41803Y76145D01*
X41836Y76210D01*
X41859Y76270D01*
X41873Y76335D01*
X41882Y76386D01*
X41891Y76432D01*
Y76460D01*
Y76464D01*
Y76469D01*
X41886Y76552D01*
X41882Y76635D01*
X41854Y76783D01*
X41836Y76852D01*
X41817Y76912D01*
X41799Y76973D01*
X41776Y77023D01*
X41752Y77069D01*
X41734Y77111D01*
X41715Y77148D01*
X41697Y77176D01*
X41683Y77199D01*
X41669Y77217D01*
X41665Y77227D01*
X41660Y77231D01*
X41628Y77268D01*
X41595Y77305D01*
X41521Y77361D01*
X41457Y77398D01*
X41392Y77425D01*
X41332Y77444D01*
X41290Y77448D01*
X41272Y77453D01*
D02*
G37*
G36*
X53349D02*
X53321D01*
X53256Y77448D01*
X53196Y77430D01*
X53141Y77407D01*
X53095Y77379D01*
X53058Y77347D01*
X53030Y77324D01*
X53011Y77305D01*
X53007Y77301D01*
X52961Y77241D01*
X52928Y77176D01*
X52900Y77111D01*
X52887Y77046D01*
X52877Y76991D01*
X52868Y76945D01*
Y76926D01*
Y76912D01*
Y76908D01*
Y76903D01*
X52873Y76825D01*
X52882Y76746D01*
X52896Y76668D01*
X52910Y76603D01*
X52924Y76543D01*
X52938Y76501D01*
X52942Y76483D01*
X52947Y76469D01*
X52951Y76464D01*
Y76460D01*
X52984Y76381D01*
X53025Y76307D01*
X53062Y76247D01*
X53104Y76201D01*
X53136Y76159D01*
X53164Y76132D01*
X53182Y76113D01*
X53192Y76109D01*
X53252Y76067D01*
X53307Y76039D01*
X53363Y76016D01*
X53413Y76002D01*
X53455Y75993D01*
X53487Y75988D01*
X53515D01*
X53580Y75993D01*
X53640Y76012D01*
X53690Y76030D01*
X53732Y76058D01*
X53769Y76081D01*
X53792Y76104D01*
X53811Y76118D01*
X53815Y76122D01*
X53852Y76178D01*
X53880Y76243D01*
X53903Y76312D01*
X53917Y76376D01*
X53926Y76432D01*
X53931Y76483D01*
Y76501D01*
Y76515D01*
Y76520D01*
Y76524D01*
X53926Y76589D01*
X53922Y76658D01*
X53908Y76723D01*
X53894Y76779D01*
X53885Y76834D01*
X53871Y76871D01*
X53866Y76899D01*
X53861Y76908D01*
X53825Y77005D01*
X53787Y77088D01*
X53751Y77162D01*
X53714Y77217D01*
X53681Y77264D01*
X53658Y77296D01*
X53640Y77314D01*
X53635Y77319D01*
X53580Y77365D01*
X53524Y77398D01*
X53473Y77421D01*
X53423Y77434D01*
X53381Y77448D01*
X53349Y77453D01*
D02*
G37*
G36*
X59576D02*
X59544D01*
X59475Y77448D01*
X59415Y77434D01*
X59359Y77411D01*
X59318Y77388D01*
X59281Y77365D01*
X59258Y77342D01*
X59239Y77328D01*
X59234Y77324D01*
X59198Y77268D01*
X59170Y77208D01*
X59147Y77143D01*
X59133Y77083D01*
X59124Y77023D01*
X59119Y76977D01*
Y76959D01*
Y76945D01*
Y76940D01*
Y76935D01*
Y76917D01*
Y76899D01*
Y76880D01*
Y76876D01*
X60103D01*
X60080Y76977D01*
X60048Y77060D01*
X60011Y77134D01*
X59978Y77194D01*
X59946Y77245D01*
X59918Y77277D01*
X59900Y77301D01*
X59895Y77305D01*
X59835Y77356D01*
X59775Y77393D01*
X59715Y77416D01*
X59660Y77434D01*
X59613Y77444D01*
X59576Y77453D01*
D02*
G37*
G36*
X47902D02*
X47869D01*
X47800Y77448D01*
X47740Y77434D01*
X47684Y77411D01*
X47643Y77388D01*
X47606Y77365D01*
X47583Y77342D01*
X47564Y77328D01*
X47560Y77324D01*
X47523Y77268D01*
X47495Y77208D01*
X47472Y77143D01*
X47458Y77083D01*
X47449Y77023D01*
X47444Y76977D01*
Y76959D01*
Y76945D01*
Y76940D01*
Y76935D01*
Y76917D01*
Y76899D01*
Y76880D01*
Y76876D01*
X48428D01*
X48405Y76977D01*
X48373Y77060D01*
X48336Y77134D01*
X48304Y77194D01*
X48271Y77245D01*
X48243Y77277D01*
X48225Y77301D01*
X48220Y77305D01*
X48160Y77356D01*
X48100Y77393D01*
X48040Y77416D01*
X47985Y77434D01*
X47939Y77444D01*
X47902Y77453D01*
D02*
G37*
G36*
X62847Y78201D02*
X62362D01*
X62279Y78197D01*
X62210Y78188D01*
X62154Y78183D01*
X62113Y78174D01*
X62085Y78164D01*
X62067Y78160D01*
X62062D01*
X62002Y78132D01*
X61946Y78100D01*
X61900Y78063D01*
X61859Y78026D01*
X61826Y77989D01*
X61803Y77961D01*
X61789Y77943D01*
X61785Y77934D01*
X61748Y77864D01*
X61720Y77781D01*
X61702Y77698D01*
X61688Y77615D01*
X61678Y77536D01*
Y77504D01*
X61674Y77476D01*
Y77453D01*
Y77434D01*
Y77425D01*
Y77421D01*
X61678Y77277D01*
X61692Y77143D01*
X61716Y77023D01*
X61729Y76968D01*
X61739Y76922D01*
X61752Y76876D01*
X61766Y76838D01*
X61775Y76806D01*
X61785Y76774D01*
X61794Y76755D01*
X61803Y76737D01*
X61808Y76728D01*
Y76723D01*
X61859Y76621D01*
X61914Y76529D01*
X61970Y76446D01*
X62025Y76376D01*
X62071Y76326D01*
X62108Y76284D01*
X62131Y76261D01*
X62136Y76252D01*
X62141D01*
X62191Y76210D01*
X62242Y76173D01*
X62293Y76145D01*
X62339Y76122D01*
X62381Y76109D01*
X62413Y76095D01*
X62432Y76090D01*
X62441Y76086D01*
X62473Y76076D01*
X62510Y76072D01*
X62593Y76062D01*
X62676Y76053D01*
X62764Y76048D01*
X62843D01*
X62880Y76044D01*
X63300D01*
X62847Y78201D01*
D02*
G37*
G36*
X45388Y77439D02*
X45361D01*
X45296Y77434D01*
X45236Y77416D01*
X45180Y77388D01*
X45134Y77361D01*
X45097Y77333D01*
X45070Y77305D01*
X45051Y77287D01*
X45046Y77282D01*
X45000Y77217D01*
X44968Y77153D01*
X44940Y77083D01*
X44926Y77019D01*
X44917Y76963D01*
X44908Y76917D01*
Y76899D01*
Y76885D01*
Y76880D01*
Y76876D01*
X44912Y76792D01*
X44922Y76709D01*
X44936Y76631D01*
X44949Y76561D01*
X44968Y76501D01*
X44982Y76455D01*
X44986Y76437D01*
X44991Y76423D01*
X44996Y76418D01*
Y76414D01*
X45033Y76330D01*
X45070Y76256D01*
X45111Y76196D01*
X45148Y76145D01*
X45185Y76109D01*
X45213Y76081D01*
X45231Y76062D01*
X45236Y76058D01*
X45291Y76021D01*
X45347Y75993D01*
X45402Y75970D01*
X45448Y75956D01*
X45495Y75947D01*
X45527Y75942D01*
X45555D01*
X45619Y75947D01*
X45679Y75965D01*
X45735Y75988D01*
X45781Y76012D01*
X45818Y76039D01*
X45846Y76058D01*
X45864Y76076D01*
X45869Y76081D01*
X45910Y76136D01*
X45943Y76201D01*
X45961Y76266D01*
X45980Y76326D01*
X45989Y76381D01*
X45994Y76427D01*
Y76446D01*
Y76460D01*
Y76464D01*
Y76469D01*
X45984Y76598D01*
X45966Y76723D01*
X45938Y76834D01*
X45906Y76931D01*
X45887Y76977D01*
X45873Y77014D01*
X45860Y77046D01*
X45846Y77079D01*
X45832Y77097D01*
X45827Y77116D01*
X45818Y77125D01*
Y77130D01*
X45781Y77185D01*
X45749Y77231D01*
X45707Y77273D01*
X45670Y77310D01*
X45633Y77337D01*
X45596Y77365D01*
X45522Y77402D01*
X45458Y77421D01*
X45407Y77434D01*
X45388Y77439D01*
D02*
G37*
G36*
X46095Y71541D02*
X46090D01*
X46108Y71453D01*
X46127Y71375D01*
X46145Y71306D01*
X46164Y71245D01*
X46182Y71199D01*
X46196Y71162D01*
X46210Y71139D01*
X46215Y71121D01*
X46219Y71116D01*
X46242Y71074D01*
X46275Y71042D01*
X46307Y71010D01*
X46335Y70987D01*
X46362Y70964D01*
X46385Y70950D01*
X46404Y70941D01*
X46409Y70936D01*
X46455Y70913D01*
X46501Y70899D01*
X46547Y70885D01*
X46589Y70881D01*
X46621Y70876D01*
X46649Y70871D01*
X46672D01*
X46718Y70876D01*
X46760Y70885D01*
X46797Y70894D01*
X46824Y70908D01*
X46848Y70922D01*
X46866Y70936D01*
X46875Y70941D01*
X46880Y70945D01*
X46908Y70973D01*
X46926Y71005D01*
X46940Y71038D01*
X46949Y71065D01*
X46954Y71093D01*
X46958Y71112D01*
Y71125D01*
Y71130D01*
X46954Y71176D01*
X46944Y71218D01*
X46926Y71255D01*
X46908Y71287D01*
X46889Y71310D01*
X46871Y71329D01*
X46861Y71338D01*
X46857Y71342D01*
X46824Y71361D01*
X46788Y71379D01*
X46746Y71398D01*
X46700Y71416D01*
X46598Y71444D01*
X46496Y71467D01*
X46399Y71486D01*
X46358Y71495D01*
X46316Y71500D01*
X46288Y71504D01*
X46261D01*
X46247Y71509D01*
X46242D01*
X46178Y71518D01*
X46131Y71532D01*
X46113Y71536D01*
X46099D01*
X46095Y71541D01*
D02*
G37*
G36*
X38592Y72382D02*
X38559D01*
X38490Y72377D01*
X38430Y72364D01*
X38374Y72340D01*
X38333Y72317D01*
X38296Y72294D01*
X38273Y72271D01*
X38254Y72257D01*
X38250Y72253D01*
X38213Y72197D01*
X38185Y72137D01*
X38162Y72072D01*
X38148Y72012D01*
X38139Y71952D01*
X38134Y71906D01*
Y71888D01*
Y71874D01*
Y71869D01*
Y71864D01*
Y71846D01*
Y71828D01*
Y71809D01*
Y71804D01*
X39118D01*
X39095Y71906D01*
X39063Y71989D01*
X39026Y72063D01*
X38993Y72123D01*
X38961Y72174D01*
X38934Y72206D01*
X38915Y72229D01*
X38910Y72234D01*
X38850Y72285D01*
X38790Y72322D01*
X38730Y72345D01*
X38675Y72364D01*
X38629Y72373D01*
X38592Y72382D01*
D02*
G37*
%LPD*%
D10*
X43846Y121088D02*
X43139Y121381D01*
X42432Y121088D01*
X44978Y118543D02*
X45271Y119250D01*
X44978Y119957D01*
X39927Y114906D02*
X40634Y114613D01*
X41341Y114906D01*
X38796Y117451D02*
X38503Y116744D01*
X38796Y116037D01*
X50396Y114538D02*
X49689Y114831D01*
X48982Y114538D01*
X51528Y111993D02*
X51821Y112700D01*
X51528Y113407D01*
X46477Y108356D02*
X47184Y108063D01*
X47891Y108356D01*
X45346Y110901D02*
X45053Y110194D01*
X45346Y109487D01*
X42344Y121098D02*
X42636Y121806D01*
X42344Y122513D01*
X41212Y123644D02*
X40505Y123937D01*
X39798Y123644D01*
X36162Y120007D02*
X35869Y119300D01*
X36162Y118593D01*
X37293Y117462D02*
X38000Y117169D01*
X38707Y117462D01*
X39400Y132300D02*
X40107Y132593D01*
X40400Y133300D01*
Y134900D02*
X40107Y135607D01*
X39400Y135900D01*
X34257Y135900D02*
X33550Y135607D01*
X33257Y134900D01*
Y133300D02*
X33550Y132593D01*
X34257Y132300D01*
X31000Y40743D02*
X30707Y41450D01*
X30000Y41743D01*
X28400D02*
X27693Y41450D01*
X27400Y40743D01*
X27400Y35600D02*
X27693Y34893D01*
X28400Y34600D01*
X30000D02*
X30707Y34893D01*
X31000Y35600D01*
X52100Y43600D02*
X52807Y43893D01*
X53100Y44600D01*
Y46200D02*
X52807Y46907D01*
X52100Y47200D01*
X46957Y47200D02*
X46250Y46907D01*
X45957Y46200D01*
Y44600D02*
X46250Y43893D01*
X46957Y43600D01*
X43846Y121088D02*
X44978Y119957D01*
X43705Y117270D02*
X44978Y118543D01*
X41159Y119816D02*
X42432Y121088D01*
X38796Y116037D02*
X39927Y114906D01*
X38796Y117451D02*
X40069Y118724D01*
X41341Y114906D02*
X42614Y116179D01*
X50396Y114538D02*
X51528Y113407D01*
X50255Y110720D02*
X51528Y111993D01*
X47709Y113266D02*
X48982Y114538D01*
X45346Y109487D02*
X46477Y108356D01*
X45346Y110901D02*
X46619Y112174D01*
X47891Y108356D02*
X49164Y109629D01*
X37600Y132300D02*
X40400D01*
Y128700D02*
Y132300D01*
X33257Y128700D02*
X36057D01*
X33257D02*
Y132300D01*
X37600Y128700D02*
X40400D01*
X33257Y132300D02*
X36057D01*
X50300Y64000D02*
X53100D01*
Y60400D02*
Y64000D01*
X45957Y60400D02*
X48757D01*
X45957D02*
Y64000D01*
X50300Y60400D02*
X53100D01*
X45957Y64000D02*
X48757D01*
X50300Y60400D02*
X53100D01*
Y56800D02*
Y60400D01*
X45957Y56800D02*
X48757D01*
X45957D02*
Y60400D01*
X50300Y56800D02*
X53100D01*
X45957Y60400D02*
X48757D01*
X50300Y42900D02*
X53100D01*
Y39300D02*
Y42900D01*
X45957Y39300D02*
X48757D01*
X45957D02*
Y42900D01*
X50300Y39300D02*
X53100D01*
X45957Y42900D02*
X48757D01*
X50300Y39300D02*
X53100D01*
Y35700D02*
Y39300D01*
X45957Y35700D02*
X48757D01*
X45957D02*
Y39300D01*
X50300Y35700D02*
X53100D01*
X45957Y39300D02*
X48757D01*
X50300Y35700D02*
X53100D01*
Y32100D02*
Y35700D01*
X45957Y32100D02*
X48757D01*
X45957D02*
Y35700D01*
X50300Y32100D02*
X53100D01*
X45957Y35700D02*
X48757D01*
X45957Y64026D02*
X48757D01*
X45957D02*
Y67627D01*
X50300Y67627D02*
X53100D01*
Y64027D02*
Y67627D01*
X45957Y67627D02*
X48757D01*
X50300Y64027D02*
X53100D01*
X38525Y122371D02*
X39798Y123644D01*
X41071Y119826D02*
X42344Y121098D01*
X41212Y123644D02*
X42344Y122513D01*
X38707Y117462D02*
X39980Y118734D01*
X36162Y120007D02*
X37434Y121280D01*
X36162Y118593D02*
X37293Y117462D01*
X37600Y135900D02*
X39400D01*
X37600Y132300D02*
X39400D01*
X40400Y133300D02*
Y134900D01*
X34257Y132300D02*
X36057Y132300D01*
X34257Y135900D02*
X36057D01*
X33257Y133300D02*
Y134900D01*
X27400Y38943D02*
Y40743D01*
X31000Y38943D02*
Y40743D01*
X28400Y41743D02*
X30000D01*
X31000Y37400D02*
X31000Y35600D01*
X27400D02*
Y37400D01*
X28400Y34600D02*
X30000D01*
X50300Y47200D02*
X52100D01*
X50300Y43600D02*
X52100D01*
X53100Y44600D02*
Y46200D01*
X46957Y43600D02*
X48757Y43600D01*
X46957Y47200D02*
X48757D01*
X45957Y44600D02*
Y46200D01*
X91199Y16333D02*
Y15266D01*
Y15800D01*
X88533D01*
X88000Y15266D01*
Y14733D01*
X88533Y14200D01*
X91199Y17399D02*
X88000D01*
Y19532D01*
X90666Y22731D02*
X91199Y22197D01*
Y21131D01*
X90666Y20598D01*
X88533D01*
X88000Y21131D01*
Y22197D01*
X88533Y22731D01*
X91199Y25930D02*
Y24863D01*
Y25396D01*
X88533D01*
X88000Y24863D01*
Y24330D01*
X88533Y23797D01*
X91199Y26996D02*
X88000D01*
Y29129D01*
X90666Y32327D02*
X91199Y31794D01*
Y30728D01*
X90666Y30195D01*
X88533D01*
X88000Y30728D01*
Y31794D01*
X88533Y32327D01*
X91199Y35526D02*
Y34460D01*
Y34993D01*
X88533D01*
X88000Y34460D01*
Y33927D01*
X88533Y33394D01*
X91199Y36593D02*
X88000D01*
Y38725D01*
X90666Y41924D02*
X91199Y41391D01*
Y40325D01*
X90666Y39792D01*
X88533D01*
X88000Y40325D01*
Y41391D01*
X88533Y41924D01*
X91199Y45123D02*
Y44057D01*
Y44590D01*
X88533D01*
X88000Y44057D01*
Y43524D01*
X88533Y42991D01*
X91199Y46190D02*
X88000D01*
Y48322D01*
X90666Y51521D02*
X91199Y50988D01*
Y49922D01*
X90666Y49389D01*
X88533D01*
X88000Y49922D01*
Y50988D01*
X88533Y51521D01*
X24101Y79298D02*
X27099D01*
Y77799D01*
X26600Y77299D01*
X26100D01*
X25600Y77799D01*
Y79298D01*
Y77799D01*
X25100Y77299D01*
X24600D01*
X24101Y77799D01*
Y79298D01*
X27099Y76299D02*
X25100D01*
X24101Y75300D01*
X25100Y74300D01*
X27099D01*
X25600D01*
Y76299D01*
X24101Y73300D02*
Y71301D01*
Y72300D01*
X27099D01*
X25600Y70301D02*
Y68302D01*
X77558Y133759D02*
Y137758D01*
X75559D01*
X74893Y137091D01*
Y135758D01*
X75559Y135092D01*
X77558D01*
X76226D02*
X74893Y133759D01*
X70894Y137091D02*
X71560Y137758D01*
X72893D01*
X73560Y137091D01*
Y136425D01*
X72893Y135758D01*
X71560D01*
X70894Y135092D01*
Y134425D01*
X71560Y133759D01*
X72893D01*
X73560Y134425D01*
X69561Y137758D02*
X66895D01*
X68228D01*
Y133759D01*
X13300Y79298D02*
X16299D01*
Y77799D01*
X15800Y77299D01*
X15300D01*
X14800Y77799D01*
Y79298D01*
Y77799D01*
X14300Y77299D01*
X13800D01*
X13300Y77799D01*
Y79298D01*
X16299Y76299D02*
X14300D01*
X13300Y75300D01*
X14300Y74300D01*
X16299D01*
X14800D01*
Y76299D01*
X13300Y73300D02*
Y71301D01*
Y72300D01*
X16299D01*
X14800Y70301D02*
Y68302D01*
X13800Y69301D02*
X15800D01*
X6000Y63500D02*
X3001D01*
Y62001D01*
X3501Y61501D01*
X4501D01*
X5000Y62001D01*
Y63500D01*
Y62500D02*
X6000Y61501D01*
X3001Y71000D02*
Y69001D01*
Y70000D01*
X6000D01*
X3001Y79000D02*
X5000D01*
X6000Y78000D01*
X5000Y77001D01*
X3001D01*
X3501Y85001D02*
X3001Y85501D01*
Y86500D01*
X3501Y87000D01*
X5500D01*
X6000Y86500D01*
Y85501D01*
X5500Y85001D01*
X4501D01*
Y86000D01*
D11*
X25317Y10618D02*
X24724Y11204D01*
X24136Y10613D01*
X24724Y10023D01*
X25317Y10608D01*
D12*
X59064Y131958D02*
X58940Y132937D01*
X58577Y133855D01*
X57997Y134653D01*
X57236Y135283D01*
X56343Y135703D01*
X55374Y135888D01*
X54389Y135826D01*
X53451Y135521D01*
X52617Y134992D01*
X51942Y134273D01*
X51466Y133408D01*
X51221Y132452D01*
Y131465D01*
X51466Y130509D01*
X51942Y129644D01*
X52617Y128925D01*
X53451Y128396D01*
X54389Y128091D01*
X55374Y128029D01*
X56343Y128214D01*
X57236Y128634D01*
X57997Y129263D01*
X58577Y130062D01*
X58940Y130979D01*
X59064Y131958D01*
X117197Y114517D02*
X116769Y115436D01*
X116285Y116328D01*
X115748Y117188D01*
X115158Y118014D01*
X114520Y118802D01*
X113834Y119549D01*
X113103Y120253D01*
X112331Y120911D01*
X111520Y121520D01*
X110673Y122078D01*
X109794Y122583D01*
X108885Y123034D01*
X107950Y123428D01*
X106993Y123764D01*
X106017Y124040D01*
X105026Y124256D01*
X104024Y124411D01*
X103014Y124504D01*
X102000Y124535D01*
Y91465D02*
X103014Y91496D01*
X104024Y91589D01*
X105026Y91744D01*
X106017Y91960D01*
X106993Y92237D01*
X107950Y92572D01*
X108885Y92966D01*
X109794Y93417D01*
X110673Y93922D01*
X111520Y94480D01*
X112331Y95089D01*
X113103Y95747D01*
X113834Y96451D01*
X114520Y97198D01*
X115158Y97986D01*
X115748Y98812D01*
X116285Y99672D01*
X116769Y100564D01*
X117197Y101483D01*
X130543Y108000D02*
X130526Y109002D01*
X130473Y110002D01*
X130385Y111000D01*
X130262Y111995D01*
X130105Y112984D01*
X129913Y113967D01*
X129686Y114943D01*
X129425Y115910D01*
X129131Y116868D01*
X128803Y117815D01*
X128442Y118749D01*
X128048Y119671D01*
X127623Y120578D01*
X127166Y121469D01*
X126677Y122344D01*
X126159Y123201D01*
X125610Y124040D01*
X125033Y124858D01*
X124427Y125656D01*
X123794Y126432D01*
X123133Y127186D01*
X122447Y127916D01*
X121736Y128621D01*
X121000Y129301D01*
X120240Y129955D01*
X119459Y130581D01*
X118656Y131180D01*
X117832Y131750D01*
X116989Y132291D01*
X116127Y132802D01*
X115248Y133283D01*
X114352Y133732D01*
X113442Y134150D01*
X112517Y134535D01*
X111579Y134888D01*
X110630Y135207D01*
X109669Y135494D01*
X108700Y135746D01*
X107722Y135964D01*
X106737Y136147D01*
X105746Y136296D01*
X104751Y136410D01*
X103752Y136489D01*
X102751Y136533D01*
X101750Y136542D01*
X100748Y136516D01*
X99748Y136454D01*
X98751Y136358D01*
X97758Y136226D01*
X96770Y136060D01*
X95788Y135859D01*
X94814Y135624D01*
X93849Y135355D01*
X92894Y135052D01*
X91951Y134716D01*
X91019Y134347D01*
X90101Y133945D01*
X89198Y133511D01*
X88311Y133046D01*
X87440Y132551D01*
X86588Y132025D01*
X85754Y131469D01*
X84940Y130884D01*
X84148Y130271D01*
X83377Y129631D01*
X82629Y128964D01*
X81906Y128272D01*
X81207Y127554D01*
X80533Y126812D01*
X79886Y126047D01*
X79267Y125260D01*
X78675Y124451D01*
X78112Y123623D01*
X77578Y122775D01*
X77075Y121909D01*
X76602Y121025D01*
X76161Y120126D01*
X75751Y119212D01*
X75374Y118284D01*
X75029Y117343D01*
X74718Y116391D01*
X74440Y115428D01*
X74196Y114456D01*
X73987Y113477D01*
X73812Y112490D01*
X73672Y111498D01*
X73567Y110502D01*
X73496Y109502D01*
X73461Y108501D01*
X73461Y107499D01*
X73496Y106498D01*
X73567Y105499D01*
X73672Y104502D01*
X73812Y103510D01*
X73987Y102524D01*
X74196Y101544D01*
X74440Y100572D01*
X74718Y99610D01*
X75029Y98657D01*
X75374Y97717D01*
X75751Y96789D01*
X76160Y95874D01*
X76602Y94975D01*
X77075Y94091D01*
X77578Y93225D01*
X78112Y92377D01*
X78675Y91549D01*
X79266Y90740D01*
X79886Y89953D01*
X80533Y89188D01*
X81206Y88446D01*
X81906Y87729D01*
X82629Y87036D01*
X83377Y86369D01*
X84148Y85729D01*
X84940Y85116D01*
X85754Y84531D01*
X86587Y83976D01*
X87440Y83450D01*
X88310Y82954D01*
X89198Y82489D01*
X90101Y82055D01*
X91019Y81653D01*
X91950Y81284D01*
X92894Y80948D01*
X93849Y80645D01*
X94814Y80376D01*
X95788Y80141D01*
X96769Y79940D01*
X97758Y79774D01*
X98751Y79642D01*
X99748Y79546D01*
X100748Y79484D01*
X101749Y79458D01*
X102751Y79467D01*
X103752Y79510D01*
X104751Y79589D01*
X105746Y79704D01*
X106737Y79852D01*
X107722Y80036D01*
X108700Y80254D01*
X109669Y80506D01*
X110629Y80792D01*
X111579Y81112D01*
X112517Y81465D01*
X113441Y81850D01*
X114352Y82268D01*
X115247Y82717D01*
X116127Y83198D01*
X116988Y83709D01*
X117832Y84250D01*
X118655Y84820D01*
X119459Y85419D01*
X120240Y86045D01*
X121000Y86699D01*
X121735Y87379D01*
X122447Y88084D01*
X123133Y88814D01*
X123794Y89567D01*
X124427Y90344D01*
X125033Y91141D01*
X125610Y91960D01*
X126159Y92799D01*
X126677Y93656D01*
X127165Y94531D01*
X127623Y95422D01*
X128048Y96329D01*
X128442Y97250D01*
X128803Y98185D01*
X129131Y99132D01*
X129425Y100089D01*
X129686Y101057D01*
X129913Y102033D01*
X130105Y103016D01*
X130262Y104005D01*
X130385Y104999D01*
X130473Y105998D01*
X130526Y106998D01*
X130543Y108000D01*
X15843Y32000D02*
X15792Y32996D01*
X15641Y33981D01*
X15391Y34947D01*
X15045Y35882D01*
X14606Y36777D01*
X14078Y37623D01*
X13468Y38411D01*
X12781Y39134D01*
X12025Y39783D01*
X11206Y40353D01*
X10335Y40837D01*
X9418Y41230D01*
X8467Y41528D01*
X7490Y41729D01*
X6498Y41830D01*
X5502D01*
X4510Y41729D01*
X3533Y41528D01*
X2582Y41230D01*
X1665Y40837D01*
X794Y40353D01*
X-25Y39783D01*
X-781Y39134D01*
X-1468Y38411D01*
X-2078Y37623D01*
X-2606Y36777D01*
X-3045Y35882D01*
X-3391Y34947D01*
X-3641Y33981D01*
X-3792Y32996D01*
X-3842Y32000D01*
X-3792Y31004D01*
X-3641Y30019D01*
X-3391Y29054D01*
X-3045Y28119D01*
X-2606Y27223D01*
X-2078Y26377D01*
X-1468Y25589D01*
X-781Y24866D01*
X-25Y24217D01*
X794Y23647D01*
X1665Y23163D01*
X2582Y22770D01*
X3533Y22472D01*
X4510Y22271D01*
X5502Y22170D01*
X6499D01*
X7491Y22271D01*
X8467Y22472D01*
X9418Y22770D01*
X10335Y23163D01*
X11206Y23647D01*
X12025Y24217D01*
X12781Y24866D01*
X13468Y25589D01*
X14078Y26377D01*
X14606Y27223D01*
X15045Y28119D01*
X15391Y29054D01*
X15641Y30019D01*
X15792Y31004D01*
X15843Y32000D01*
X36472Y56567D02*
X36388Y57565D01*
X36135Y58534D01*
X35723Y59447D01*
X35162Y60277D01*
X34469Y61000D01*
X33663Y61596D01*
X32769Y62047D01*
X31811Y62340D01*
X30818Y62467D01*
X29817Y62425D01*
X28838Y62214D01*
X27908Y61840D01*
X27055Y61315D01*
X26303Y60653D01*
X25674Y59874D01*
X25186Y58999D01*
X24852Y58055D01*
X24683Y57068D01*
Y56066D01*
X24852Y55079D01*
X25186Y54134D01*
X25674Y53260D01*
X26303Y52481D01*
X27055Y51819D01*
X27908Y51294D01*
X28838Y50920D01*
X29817Y50709D01*
X30818Y50667D01*
X31811Y50794D01*
X32769Y51087D01*
X33663Y51538D01*
X34469Y52134D01*
X35162Y52857D01*
X35723Y53687D01*
X36135Y54600D01*
X36388Y55569D01*
X36472Y56567D01*
X63001Y126053D02*
Y127702D01*
X47253Y126053D02*
X63001D01*
X47253Y136215D02*
Y137864D01*
X63001D01*
Y136215D02*
Y137864D01*
X47253Y126053D02*
Y127702D01*
X3051Y52256D02*
X9551D01*
X-11685Y52272D02*
X-5965D01*
X3051Y18256D02*
X9551D01*
X-11685D02*
X-5949D01*
X-11685D02*
Y52272D01*
X113000Y24590D02*
Y40884D01*
Y24590D02*
X117200Y20391D01*
Y12500D02*
Y20391D01*
X112600Y69284D02*
X113000Y68884D01*
Y40884D02*
Y68884D01*
X66677Y12561D02*
X117200Y12500D01*
X66677Y12561D02*
Y16561D01*
X65877Y17361D02*
X66677Y16561D01*
X62877Y17361D02*
X65877D01*
X62877D02*
Y69332D01*
X62830Y69284D02*
X112600D01*
X117157Y101483D02*
Y114517D01*
X73457Y128276D02*
X102000D01*
X73457Y87724D02*
X102000D01*
Y128276D01*
X73457Y87724D02*
Y128276D01*
X8520Y46724D02*
X16787D01*
X8520D02*
Y47000D01*
Y46724D02*
Y47000D01*
X16787Y21134D02*
Y46724D01*
X8520D02*
Y92000D01*
X66000Y21134D02*
Y92000D01*
X-4866D02*
X66000D01*
X-4866Y21134D02*
Y92000D01*
Y21134D02*
X66000D01*
X-4873Y118958D02*
X-4051D01*
X-4873Y100971D02*
Y118958D01*
X14305Y97132D02*
X15127D01*
X-893D02*
X9729D01*
X-4873Y100971D02*
X-1034Y97132D01*
X-893D01*
X14305D02*
X15127D01*
X14305Y118958D02*
X15127D01*
X525D02*
X9729D01*
X15127Y97132D02*
Y118785D01*
D13*
X26694Y30691D02*
X26694Y28132D01*
X26694Y30691D02*
X29253Y30691D01*
X45001Y30691D02*
X47560Y30691D01*
X47560Y28132D01*
X47560Y9848D02*
Y12384D01*
X45001Y9848D02*
X47560D01*
X26694Y9825D02*
Y12384D01*
Y9825D02*
X29253Y9825D01*
D116*
X8935Y126159D02*
X9477Y125498D01*
X9639Y125086D01*
X9677Y124764D01*
X9596Y124425D02*
X9677Y124764D01*
X12263Y125910D02*
X12458Y125847D01*
X11831Y125925D02*
X12263Y125910D01*
X11361Y125469D02*
X11831Y125925D01*
X11227Y125004D02*
X11361Y125469D01*
X11227Y125004D02*
X11247Y124716D01*
X11332Y124515D01*
X8547Y126235D02*
X8935Y126159D01*
X7975Y125552D02*
X8179Y125997D01*
X8547Y126235D01*
M02*
