G04*
G04 #@! TF.GenerationSoftware,Altium Limited,Altium Designer,20.1.10 (176)*
G04*
G04 Layer_Physical_Order=4*
G04 Layer_Color=16711680*
%FSLAX25Y25*%
%MOIN*%
G70*
G04*
G04 #@! TF.SameCoordinates,F252A181-4E7B-4898-9581-9C64CF10C23C*
G04*
G04*
G04 #@! TF.FilePolarity,Positive*
G04*
G01*
G75*
%ADD10C,0.00600*%
%ADD12C,0.01000*%
%ADD15R,0.02000X0.02000*%
%ADD16R,0.02000X0.02000*%
%ADD21P,0.02828X4X270.0*%
%ADD67C,0.00500*%
%ADD68C,0.01500*%
%ADD69C,0.01300*%
%ADD70C,0.01200*%
%ADD74O,0.07087X0.03937*%
%ADD75O,0.08268X0.03937*%
%ADD76C,0.03937*%
%ADD77C,0.01800*%
%ADD78C,0.02756*%
%ADD79C,0.06693*%
%ADD80R,0.13780X0.13780*%
%ADD81O,0.01102X0.03527*%
%ADD82O,0.03526X0.01102*%
%ADD83O,0.03527X0.01102*%
%ADD84R,0.03543X0.06693*%
%ADD85R,0.04528X0.01181*%
%ADD86R,0.04528X0.02362*%
%ADD87R,0.05512X0.04724*%
%ADD88R,0.06299X0.02756*%
%ADD89R,0.08661X0.04724*%
%ADD90R,0.05512X0.06299*%
G04:AMPARAMS|DCode=91|XSize=33.47mil|YSize=47.24mil|CornerRadius=0mil|HoleSize=0mil|Usage=FLASHONLY|Rotation=315.000|XOffset=0mil|YOffset=0mil|HoleType=Round|Shape=Rectangle|*
%AMROTATEDRECTD91*
4,1,4,-0.02854,-0.00487,0.00487,0.02854,0.02854,0.00487,-0.00487,-0.02854,-0.02854,-0.00487,0.0*
%
%ADD91ROTATEDRECTD91*%

G04:AMPARAMS|DCode=92|XSize=33.47mil|YSize=47.24mil|CornerRadius=0mil|HoleSize=0mil|Usage=FLASHONLY|Rotation=45.000|XOffset=0mil|YOffset=0mil|HoleType=Round|Shape=Rectangle|*
%AMROTATEDRECTD92*
4,1,4,0.00487,-0.02854,-0.02854,0.00487,-0.00487,0.02854,0.02854,-0.00487,0.00487,-0.02854,0.0*
%
%ADD92ROTATEDRECTD92*%

%ADD93R,0.05118X0.04724*%
%ADD94R,0.04724X0.05118*%
%ADD95O,0.07874X0.07874*%
%ADD96R,0.05906X0.05906*%
%ADD97R,0.02756X0.06693*%
G36*
X112000Y143979D02*
X113166Y143864D01*
X114288Y143524D01*
X115322Y142971D01*
X116228Y142228D01*
X116971Y141322D01*
X117524Y140288D01*
X117864Y139166D01*
X117979Y138000D01*
X117980D01*
Y8000D01*
X117980Y8000D01*
X117980D01*
X117935Y7510D01*
X117850Y6638D01*
X117452Y5328D01*
X116807Y4120D01*
X115938Y3062D01*
X114880Y2193D01*
X113672Y1548D01*
X112362Y1151D01*
X111011Y1017D01*
X111000Y1020D01*
X77503D01*
X77485Y1043D01*
X77322Y1520D01*
X83201Y7399D01*
X83477Y7812D01*
X83574Y8300D01*
Y20572D01*
X89928Y26926D01*
X92787D01*
X92854Y26881D01*
X93400Y26773D01*
X93946Y26881D01*
X94012Y26926D01*
X94587D01*
X94654Y26881D01*
X95200Y26772D01*
X95746Y26881D01*
X96209Y27190D01*
X96519Y27653D01*
X96627Y28200D01*
X96519Y28746D01*
X96209Y29209D01*
X95746Y29518D01*
X95200Y29627D01*
X94654Y29518D01*
X94588Y29474D01*
X94012D01*
X93946Y29519D01*
X93400Y29627D01*
X92854Y29519D01*
X92787Y29474D01*
X89400D01*
X88912Y29377D01*
X88499Y29101D01*
X81399Y22001D01*
X81122Y21588D01*
X81025Y21100D01*
Y8828D01*
X75772Y3574D01*
X27220D01*
Y4206D01*
X27519Y4654D01*
X27627Y5200D01*
X27519Y5746D01*
X27209Y6209D01*
X26746Y6519D01*
X26200Y6627D01*
X25654Y6519D01*
X25191Y6209D01*
X24881Y5746D01*
X24773Y5200D01*
X24881Y4654D01*
X25180Y4206D01*
Y3574D01*
X14628D01*
X8975Y9228D01*
Y29212D01*
X9436Y29403D01*
X12664Y26175D01*
X12519Y25697D01*
X12307Y25655D01*
X11685Y25240D01*
X11270Y24619D01*
X11125Y23886D01*
X11270Y23153D01*
X11685Y22532D01*
X12307Y22117D01*
X13039Y21971D01*
X13772Y22117D01*
X14393Y22532D01*
X14472Y22650D01*
X14973Y22499D01*
Y21250D01*
X12843D01*
X12068Y21148D01*
X11345Y20849D01*
X10725Y20373D01*
X10249Y19753D01*
X9950Y19031D01*
X9947Y19006D01*
X20069D01*
X20065Y19031D01*
X19766Y19753D01*
X19589Y19984D01*
X19835Y20484D01*
X21500D01*
Y21915D01*
X18236D01*
Y23415D01*
X21500D01*
Y24846D01*
X21000D01*
Y29252D01*
Y32639D01*
X21500Y32846D01*
X22084Y32262D01*
Y22500D01*
X22084Y22500D01*
X22146Y22188D01*
X22323Y21923D01*
X24565Y19682D01*
X24565Y19682D01*
X24734Y19146D01*
X24706Y19039D01*
X27284D01*
Y17539D01*
X24708D01*
X24954Y17170D01*
X25247Y16975D01*
X25082Y16729D01*
X25001Y16319D01*
X25082Y15909D01*
X25247Y15663D01*
X25287Y15334D01*
X25247Y15005D01*
X25082Y14759D01*
X25001Y14349D01*
X25082Y13938D01*
X25315Y13591D01*
X25662Y13358D01*
X26072Y13277D01*
X28497D01*
X28737Y13325D01*
X29237Y13024D01*
Y12369D01*
X29892D01*
X30193Y11868D01*
X30145Y11629D01*
Y9205D01*
X30227Y8794D01*
X30337Y8629D01*
Y8108D01*
X29891Y7809D01*
X29581Y7346D01*
X29473Y6800D01*
X29581Y6254D01*
X29891Y5791D01*
X30354Y5481D01*
X30900Y5373D01*
X31446Y5481D01*
X31909Y5791D01*
X32219Y6254D01*
X32327Y6800D01*
X32219Y7346D01*
X31909Y7809D01*
X31867Y7838D01*
Y8374D01*
X31873Y8379D01*
X32429Y8447D01*
X32777Y8214D01*
X33187Y8133D01*
X33597Y8214D01*
X34063Y7924D01*
X34075Y7875D01*
X34063Y7768D01*
X33781Y7346D01*
X33673Y6800D01*
X33781Y6254D01*
X34091Y5791D01*
X34554Y5481D01*
X35100Y5373D01*
X35646Y5481D01*
X35810Y5413D01*
X35881Y5054D01*
X36191Y4591D01*
X36654Y4281D01*
X37200Y4173D01*
X37746Y4281D01*
X38209Y4591D01*
X38451Y4952D01*
X38846Y4992D01*
X39010Y4961D01*
X39191Y4691D01*
X39654Y4381D01*
X40200Y4273D01*
X40746Y4381D01*
X41209Y4691D01*
X41519Y5154D01*
X41627Y5700D01*
X41519Y6246D01*
X41209Y6709D01*
X40746Y7019D01*
X40200Y7127D01*
X39862Y7570D01*
Y8217D01*
X40125Y8352D01*
X40361Y8412D01*
X40657Y8214D01*
X41067Y8133D01*
X41477Y8214D01*
X41825Y8447D01*
X42279D01*
X42627Y8214D01*
X43037Y8133D01*
X43447Y8214D01*
X43795Y8447D01*
X44027Y8794D01*
X44109Y9205D01*
Y11629D01*
X44061Y11868D01*
X44363Y12369D01*
X45017D01*
Y13024D01*
X45517Y13325D01*
X45757Y13277D01*
X48182D01*
X48592Y13358D01*
X48939Y13591D01*
X49172Y13938D01*
X49253Y14349D01*
X49172Y14759D01*
X49007Y15005D01*
X48967Y15334D01*
X49007Y15663D01*
X49172Y15909D01*
X49253Y16319D01*
X49172Y16729D01*
X49007Y16975D01*
X48967Y17304D01*
X49007Y17632D01*
X49172Y17878D01*
X49253Y18289D01*
X49172Y18699D01*
X48939Y19047D01*
Y19501D01*
X49172Y19849D01*
X49253Y20259D01*
X49172Y20669D01*
X49007Y20915D01*
X48967Y21244D01*
X49007Y21573D01*
X49172Y21818D01*
X49253Y22229D01*
X49172Y22639D01*
X48939Y22986D01*
Y23441D01*
X49172Y23788D01*
X49253Y24199D01*
X49172Y24609D01*
X49007Y24855D01*
X48967Y25184D01*
X49007Y25512D01*
X49172Y25758D01*
X49253Y26169D01*
X49172Y26579D01*
X48939Y26926D01*
X48592Y27159D01*
X48182Y27240D01*
X46490D01*
X46441Y27740D01*
X46646Y27781D01*
X47109Y28091D01*
X47419Y28554D01*
X47527Y29100D01*
X47419Y29646D01*
X47109Y30109D01*
X46646Y30419D01*
X46100Y30527D01*
X45554Y30419D01*
X45091Y30109D01*
X44781Y29646D01*
X44673Y29100D01*
X44684Y29043D01*
X44391Y28659D01*
X44317Y28720D01*
X44109Y29003D01*
Y31314D01*
X44027Y31724D01*
X43795Y32072D01*
X43447Y32304D01*
X43037Y32386D01*
X42627Y32304D01*
X42279Y32072D01*
X41825D01*
X41477Y32304D01*
X41067Y32386D01*
X40657Y32304D01*
X40309Y32072D01*
X39855D01*
X39507Y32304D01*
X39097Y32386D01*
X38687Y32304D01*
X38339Y32072D01*
X37885D01*
X37537Y32304D01*
X37127Y32386D01*
X36717Y32304D01*
X36369Y32072D01*
X35813Y32140D01*
X35567Y32304D01*
X35157Y32386D01*
X34747Y32304D01*
X34399Y32072D01*
X33945D01*
X33597Y32304D01*
X33187Y32386D01*
X32777Y32304D01*
X32736Y32277D01*
X32236Y32544D01*
Y34383D01*
X32159Y34773D01*
X31938Y35104D01*
X30700Y36342D01*
X30700Y37900D01*
X31182Y37943D01*
X31200D01*
Y39193D01*
X29200D01*
X27200D01*
Y37943D01*
X27218D01*
X27700Y37900D01*
X27700Y37443D01*
Y34900D01*
X29258D01*
X30197Y33961D01*
Y31574D01*
X30145Y31314D01*
Y31121D01*
X28901D01*
X28511Y31043D01*
X28180Y30822D01*
X27267Y29909D01*
X26739Y29804D01*
X26275Y29494D01*
X25966Y29031D01*
X25857Y28485D01*
X25966Y27939D01*
X26098Y27740D01*
X26093Y27639D01*
X25869Y27200D01*
X25662Y27159D01*
X25416Y26994D01*
X25055Y27115D01*
X24916Y27216D01*
Y31647D01*
X25217Y31808D01*
X25416Y31869D01*
X25900Y31773D01*
X26446Y31881D01*
X26909Y32191D01*
X27219Y32654D01*
X27327Y33200D01*
X27219Y33746D01*
X26909Y34209D01*
X26446Y34519D01*
X25900Y34627D01*
X25404Y34529D01*
X25342Y34525D01*
X24858Y34789D01*
X24854Y34812D01*
X24677Y35077D01*
X24677Y35077D01*
X22929Y36825D01*
X22664Y37002D01*
X22352Y37064D01*
X22352Y37064D01*
X21000D01*
Y41063D01*
Y45681D01*
X21500D01*
Y47112D01*
X18236D01*
Y48612D01*
X21500D01*
Y48726D01*
X21800Y48973D01*
X22346Y49081D01*
X22809Y49391D01*
X23119Y49854D01*
X23227Y50400D01*
X23119Y50946D01*
X22809Y51409D01*
X22346Y51719D01*
X21800Y51827D01*
X21254Y51719D01*
X20791Y51409D01*
X20481Y50946D01*
X20373Y50400D01*
X20275Y50282D01*
X20037Y50306D01*
X19866Y50602D01*
X19791Y50834D01*
X20065Y51497D01*
X20069Y51522D01*
X9947D01*
X9950Y51497D01*
X10249Y50775D01*
X10725Y50155D01*
X11345Y49679D01*
X12068Y49380D01*
X12843Y49277D01*
X14973D01*
Y48029D01*
X14472Y47877D01*
X14393Y47996D01*
X13772Y48411D01*
X13039Y48557D01*
X12307Y48411D01*
X11685Y47996D01*
X11270Y47374D01*
X11125Y46642D01*
X11270Y45909D01*
X11685Y45288D01*
X12307Y44873D01*
X12521Y44830D01*
X12685Y44288D01*
X6799Y38401D01*
X6522Y37988D01*
X6425Y37500D01*
Y32942D01*
Y8400D01*
X6522Y7912D01*
X6799Y7499D01*
X7212Y7222D01*
X7416Y7182D01*
X13078Y1520D01*
X12915Y1043D01*
X12897Y1020D01*
X0D01*
X-11Y1017D01*
X-1362Y1151D01*
X-2672Y1548D01*
X-3880Y2193D01*
X-4938Y3062D01*
X-5807Y4120D01*
X-6452Y5328D01*
X-6849Y6638D01*
X-6983Y7989D01*
X-6980Y8000D01*
Y103543D01*
X-6637Y103685D01*
X-6480Y103719D01*
X-6046Y103428D01*
X-5500Y103320D01*
X-4954Y103428D01*
X-4491Y103738D01*
X-4181Y104201D01*
X-4124Y104488D01*
X-3654Y104581D01*
X-3209Y104878D01*
X24700D01*
X24700Y104878D01*
X25129Y104964D01*
X25493Y105207D01*
X37448Y117161D01*
X37502Y117124D01*
X37806Y116744D01*
Y116744D01*
X38690Y115860D01*
X40104Y117275D01*
X40634Y116744D01*
X41165Y117275D01*
X42579Y115860D01*
X43463Y116744D01*
X43895Y116908D01*
X47348Y113455D01*
X47129Y112967D01*
X46300Y112139D01*
X47714Y110725D01*
X49129Y109310D01*
X49957Y110139D01*
X50013Y110194D01*
X50445Y110358D01*
X53996Y106807D01*
X53996Y106807D01*
X54360Y106564D01*
X54789Y106478D01*
X54789Y106478D01*
X58400D01*
X58400Y106478D01*
X58829Y106564D01*
X59193Y106807D01*
X62298Y109912D01*
X62646Y109981D01*
X63109Y110291D01*
X63419Y110754D01*
X63527Y111300D01*
X63419Y111846D01*
X63109Y112309D01*
X62646Y112619D01*
X62100Y112727D01*
X61554Y112619D01*
X61091Y112309D01*
X60781Y111846D01*
X60598Y111761D01*
X60119Y111646D01*
X59809Y112109D01*
X59563Y112274D01*
Y113102D01*
X59505Y113394D01*
X59339Y113643D01*
X55970Y117011D01*
X56027Y117300D01*
X55919Y117846D01*
X55609Y118309D01*
X55146Y118619D01*
X54600Y118727D01*
X54600Y118727D01*
X54592Y118728D01*
X54575Y118731D01*
X54062Y119130D01*
X54019Y119346D01*
X53709Y119809D01*
X53246Y120119D01*
X52700Y120227D01*
X52154Y120119D01*
X51691Y119809D01*
X51381Y119346D01*
X51273Y118800D01*
X51381Y118254D01*
X51478Y118108D01*
Y116075D01*
X49957Y114554D01*
X49689Y114821D01*
X49422Y114554D01*
X44993Y118982D01*
X45261Y119250D01*
X44993Y119518D01*
X47040Y121564D01*
X47040Y121564D01*
X47283Y121928D01*
X47324Y122134D01*
X47409Y122191D01*
X47719Y122654D01*
X47827Y123200D01*
X47719Y123746D01*
X47409Y124209D01*
X46946Y124519D01*
X46400Y124627D01*
X45854Y124519D01*
X45391Y124209D01*
X45081Y123746D01*
X44973Y123200D01*
X45061Y122757D01*
X43692Y121388D01*
X43637Y121425D01*
X43334Y121806D01*
Y121806D01*
X42450Y122689D01*
X41035Y121275D01*
X40505Y121806D01*
X39975Y121275D01*
X38561Y122689D01*
X37732Y121861D01*
X37244Y121642D01*
X36638Y122248D01*
X36727Y122700D01*
X36619Y123246D01*
X36309Y123709D01*
X36198Y123784D01*
Y129000D01*
X36557D01*
X36557Y131428D01*
X36866Y131607D01*
X37100Y131451D01*
Y129000D01*
X40100D01*
Y129735D01*
X44784D01*
Y128112D01*
X49327D01*
Y135805D01*
X47174D01*
X45570Y137409D01*
X45627Y137700D01*
X45519Y138246D01*
X45209Y138709D01*
X44746Y139019D01*
X44200Y139127D01*
X43654Y139019D01*
X43191Y138709D01*
X42881Y138246D01*
X42773Y137700D01*
X42881Y137154D01*
X43191Y136691D01*
X43654Y136381D01*
X44200Y136273D01*
X44486Y136330D01*
X44587Y136229D01*
X44784Y135805D01*
X44784D01*
X44784Y135805D01*
Y131265D01*
X40100D01*
Y132000D01*
X39365D01*
Y132600D01*
X40100D01*
Y135600D01*
X37100Y135600D01*
X37057Y136082D01*
Y136100D01*
X35807D01*
Y134100D01*
X35057D01*
Y133350D01*
X33057D01*
Y132100D01*
X33098D01*
X33557Y132000D01*
X33557Y131600D01*
Y129000D01*
X34159D01*
Y123512D01*
X33981Y123246D01*
X33873Y122700D01*
X33981Y122154D01*
X34291Y121691D01*
X34374Y121635D01*
X34417Y121418D01*
X34660Y121054D01*
X36146Y119568D01*
X35879Y119300D01*
X36146Y119032D01*
X24235Y107122D01*
X21031D01*
X20764Y107622D01*
X20919Y107854D01*
X21027Y108400D01*
X20999Y108543D01*
X21400Y108973D01*
X21946Y109081D01*
X22409Y109391D01*
X22719Y109854D01*
X22827Y110400D01*
X22719Y110946D01*
X22409Y111409D01*
X21946Y111719D01*
X21400Y111827D01*
X21091Y111766D01*
X20709Y111959D01*
X20600Y112139D01*
X20519Y112546D01*
X20209Y113009D01*
X19746Y113319D01*
X19200Y113427D01*
X18654Y113319D01*
X18191Y113009D01*
X17881Y112546D01*
X17773Y112000D01*
X17881Y111454D01*
X18191Y110991D01*
X18654Y110681D01*
X19200Y110573D01*
X19509Y110634D01*
X19617Y110579D01*
X19684Y110282D01*
X19335Y109775D01*
X19054Y109719D01*
X18591Y109409D01*
X18281Y108946D01*
X18173Y108400D01*
X18281Y107854D01*
X18436Y107622D01*
X18169Y107122D01*
X-3508D01*
X-3654Y107219D01*
X-4200Y107327D01*
X-4746Y107219D01*
X-5209Y106909D01*
X-5519Y106446D01*
X-5563Y106223D01*
X-5639Y106147D01*
X-6046Y106066D01*
X-6480Y105776D01*
X-6637Y105810D01*
X-6980Y105952D01*
Y123500D01*
X27200D01*
Y143980D01*
X112000D01*
Y143979D01*
D02*
G37*
%LPC*%
G36*
X34307Y136100D02*
X33057D01*
Y134850D01*
X34307D01*
Y136100D01*
D02*
G37*
G36*
X65969Y136305D02*
X63948D01*
Y132708D01*
X65969D01*
Y136305D01*
D02*
G37*
G36*
X62448D02*
X60426D01*
Y132708D01*
X62448D01*
Y136305D01*
D02*
G37*
G36*
X84299Y132622D02*
X81490D01*
Y130010D01*
X84299D01*
Y132622D01*
D02*
G37*
G36*
X79990D02*
X77181D01*
Y130010D01*
X79990D01*
Y132622D01*
D02*
G37*
G36*
X100441D02*
X97632D01*
Y130010D01*
X100441D01*
Y132622D01*
D02*
G37*
G36*
X96132D02*
X93323D01*
Y130010D01*
X96132D01*
Y132622D01*
D02*
G37*
G36*
X65969Y131208D02*
X63948D01*
Y127612D01*
X65969D01*
Y131208D01*
D02*
G37*
G36*
X62448D02*
X60426D01*
Y127612D01*
X62448D01*
Y131208D01*
D02*
G37*
G36*
X100441Y128510D02*
X97632D01*
Y125898D01*
X100441D01*
Y128510D01*
D02*
G37*
G36*
X96132D02*
X93323D01*
Y125898D01*
X96132D01*
Y128510D01*
D02*
G37*
G36*
X84299Y128510D02*
X81490D01*
Y125898D01*
X84299D01*
Y128510D01*
D02*
G37*
G36*
X79990D02*
X77181D01*
Y125898D01*
X79990D01*
Y128510D01*
D02*
G37*
G36*
X40505Y124634D02*
X39621Y123750D01*
X40505Y122866D01*
X41389Y123750D01*
X40505Y124634D01*
D02*
G37*
G36*
X113623Y123403D02*
X111776Y121556D01*
X113135Y120196D01*
X114982Y122043D01*
X113623Y123403D01*
D02*
G37*
G36*
X28700Y119027D02*
X28154Y118919D01*
X27691Y118609D01*
X27648Y118546D01*
X26962Y118408D01*
X26946Y118419D01*
X26400Y118527D01*
X25854Y118419D01*
X25391Y118109D01*
X25081Y117646D01*
X24973Y117100D01*
X24501Y116908D01*
X24054Y116819D01*
X23591Y116509D01*
X23281Y116046D01*
X23173Y115500D01*
X23177Y115476D01*
X22824Y115123D01*
X22800Y115127D01*
X22254Y115019D01*
X21791Y114709D01*
X21481Y114246D01*
X21373Y113700D01*
X21481Y113154D01*
X21791Y112691D01*
X22254Y112381D01*
X22800Y112273D01*
X23346Y112381D01*
X23809Y112691D01*
X24119Y113154D01*
X24227Y113700D01*
X24223Y113724D01*
X24576Y114077D01*
X24600Y114073D01*
X25146Y114181D01*
X25609Y114491D01*
X25919Y114954D01*
X26027Y115500D01*
X26499Y115692D01*
X26946Y115781D01*
X27409Y116091D01*
X27452Y116154D01*
X28138Y116292D01*
X28154Y116281D01*
X28700Y116173D01*
X29246Y116281D01*
X29709Y116591D01*
X30019Y117054D01*
X30127Y117600D01*
X30019Y118146D01*
X29709Y118609D01*
X29246Y118919D01*
X28700Y119027D01*
D02*
G37*
G36*
X116043Y120983D02*
X114196Y119135D01*
X115556Y117775D01*
X117403Y119623D01*
X116043Y120983D01*
D02*
G37*
G36*
X110715Y120495D02*
X108868Y118648D01*
X110228Y117288D01*
X112075Y119135D01*
X110715Y120495D01*
D02*
G37*
G36*
X84284Y123691D02*
X83279Y123558D01*
X82344Y123171D01*
X81540Y122554D01*
X80924Y121751D01*
X80536Y120815D01*
X80404Y119811D01*
X80536Y118807D01*
X80924Y117871D01*
X81540Y117068D01*
X82344Y116451D01*
X83279Y116064D01*
X84284Y115931D01*
X85288Y116064D01*
X86223Y116451D01*
X87027Y117068D01*
X87643Y117871D01*
X88031Y118807D01*
X88163Y119811D01*
X88031Y120815D01*
X87643Y121751D01*
X87027Y122554D01*
X86223Y123171D01*
X85288Y123558D01*
X84284Y123691D01*
D02*
G37*
G36*
X113135Y118075D02*
X111288Y116228D01*
X112648Y114868D01*
X114495Y116715D01*
X113135Y118075D01*
D02*
G37*
G36*
X75047Y117366D02*
X72435D01*
Y114557D01*
X75047D01*
Y117366D01*
D02*
G37*
G36*
X70935D02*
X68323D01*
Y114557D01*
X70935D01*
Y117366D01*
D02*
G37*
G36*
X13895Y120860D02*
X10139D01*
Y115187D01*
X9783D01*
X9393Y115109D01*
X9062Y114888D01*
X8669Y114494D01*
X8500Y114527D01*
X7954Y114419D01*
X7491Y114109D01*
X7181Y113646D01*
X7073Y113100D01*
X7181Y112554D01*
X7491Y112091D01*
X7954Y111781D01*
X8500Y111673D01*
X9046Y111781D01*
X9509Y112091D01*
X9819Y112554D01*
X9870Y112812D01*
X10206Y113147D01*
X11139D01*
X11237Y113167D01*
X13895D01*
Y120860D01*
D02*
G37*
G36*
X40634Y115684D02*
X39750Y114800D01*
X40634Y113916D01*
X41518Y114800D01*
X40634Y115684D01*
D02*
G37*
G36*
X115Y120860D02*
X-3641D01*
Y113167D01*
X115D01*
Y120860D01*
D02*
G37*
G36*
X74547Y126807D02*
X68823D01*
Y120689D01*
X73663D01*
X80592Y113759D01*
X80840Y113593D01*
X81133Y113535D01*
X88527D01*
X88691Y113291D01*
X89154Y112981D01*
X89700Y112873D01*
X90246Y112981D01*
X90709Y113291D01*
X91019Y113754D01*
X91127Y114300D01*
X91019Y114846D01*
X90709Y115309D01*
X90246Y115619D01*
X89700Y115727D01*
X89154Y115619D01*
X88691Y115309D01*
X88527Y115065D01*
X81450D01*
X74547Y121967D01*
Y126807D01*
D02*
G37*
G36*
X100700Y113727D02*
X100153Y113619D01*
X99690Y113309D01*
X99381Y112846D01*
X99272Y112300D01*
X99381Y111753D01*
X99690Y111290D01*
X100153Y110981D01*
X100700Y110872D01*
X101246Y110981D01*
X101709Y111290D01*
X102018Y111753D01*
X102127Y112300D01*
X102018Y112846D01*
X101709Y113309D01*
X101246Y113619D01*
X100700Y113727D01*
D02*
G37*
G36*
X75047Y113057D02*
X72435D01*
Y110248D01*
X75047D01*
Y113057D01*
D02*
G37*
G36*
X70935D02*
X68323D01*
Y110248D01*
X70935D01*
Y113057D01*
D02*
G37*
G36*
X45240Y111078D02*
X44356Y110194D01*
X45240Y109310D01*
X46123Y110194D01*
X45240Y111078D01*
D02*
G37*
G36*
X90900Y110927D02*
X90354Y110819D01*
X89891Y110509D01*
X89581Y110046D01*
X89473Y109500D01*
X89581Y108954D01*
X89891Y108491D01*
X90354Y108181D01*
X90900Y108073D01*
X91446Y108181D01*
X91909Y108491D01*
X92219Y108954D01*
X92327Y109500D01*
X92219Y110046D01*
X91909Y110509D01*
X91446Y110819D01*
X90900Y110927D01*
D02*
G37*
G36*
X47184Y109134D02*
X46300Y108250D01*
X47184Y107366D01*
X48068Y108250D01*
X47184Y109134D01*
D02*
G37*
G36*
X81200Y110827D02*
X80654Y110719D01*
X80191Y110409D01*
X80027Y110165D01*
X78892D01*
X78600Y110107D01*
X78351Y109941D01*
X73663Y105252D01*
X68823D01*
Y99134D01*
X74547D01*
Y103974D01*
X78857Y108284D01*
X78907Y108298D01*
X78942Y108288D01*
X79181Y107746D01*
X79073Y107200D01*
X79077Y107176D01*
X78724Y106823D01*
X78700Y106827D01*
X78154Y106719D01*
X77691Y106409D01*
X77381Y105946D01*
X77273Y105400D01*
X77381Y104854D01*
X77691Y104391D01*
X78154Y104081D01*
X78700Y103973D01*
X79246Y104081D01*
X79709Y104391D01*
X80019Y104854D01*
X80127Y105400D01*
X80123Y105424D01*
X80476Y105777D01*
X80500Y105773D01*
X81046Y105881D01*
X81509Y106191D01*
X81819Y106654D01*
X81927Y107200D01*
X81819Y107746D01*
X82057Y108289D01*
X82209Y108391D01*
X82519Y108854D01*
X82627Y109400D01*
X82519Y109946D01*
X82209Y110409D01*
X81746Y110719D01*
X81200Y110827D01*
D02*
G37*
G36*
X90800Y106627D02*
X90254Y106519D01*
X89791Y106209D01*
X89481Y105746D01*
X89373Y105200D01*
X89430Y104911D01*
X86883Y102365D01*
X80836D01*
X80544Y102306D01*
X80295Y102141D01*
X73466Y95311D01*
X68823D01*
Y89193D01*
X70445D01*
X70712Y88693D01*
X70681Y88646D01*
X70573Y88100D01*
X70681Y87554D01*
X70991Y87091D01*
X71454Y86781D01*
X72000Y86673D01*
X72546Y86781D01*
X73009Y87091D01*
X73319Y87554D01*
X73427Y88100D01*
X73319Y88646D01*
X73288Y88693D01*
X73555Y89193D01*
X74547D01*
Y89897D01*
X75047Y90163D01*
X75500Y90073D01*
X76046Y90181D01*
X76509Y90491D01*
X76819Y90954D01*
X76927Y91500D01*
X76819Y92046D01*
X76509Y92509D01*
X76046Y92819D01*
X75500Y92927D01*
X75047Y92837D01*
X74547Y93103D01*
Y94230D01*
X81153Y100835D01*
X87200D01*
X87493Y100893D01*
X87741Y101059D01*
X90511Y103830D01*
X90800Y103773D01*
X91346Y103881D01*
X91809Y104191D01*
X92119Y104654D01*
X92227Y105200D01*
X92119Y105746D01*
X91809Y106209D01*
X91346Y106519D01*
X90800Y106627D01*
D02*
G37*
G36*
X13895Y102750D02*
X10139D01*
Y100220D01*
X9494D01*
X9046Y100519D01*
X8500Y100627D01*
X7954Y100519D01*
X7491Y100209D01*
X7181Y99746D01*
X7073Y99200D01*
X7181Y98654D01*
X7491Y98191D01*
X7954Y97881D01*
X8500Y97773D01*
X9046Y97881D01*
X9494Y98180D01*
X10139D01*
Y95057D01*
X13895D01*
Y102750D01*
D02*
G37*
G36*
X57757Y103477D02*
X57211Y103369D01*
X56748Y103059D01*
X56438Y102596D01*
X56330Y102050D01*
X56438Y101504D01*
X56748Y101041D01*
X57211Y100731D01*
X57409Y100182D01*
X57373Y100000D01*
X56938Y99620D01*
X56900Y99627D01*
X56354Y99519D01*
X55891Y99209D01*
X55581Y98746D01*
X55473Y98200D01*
X55026Y97883D01*
X54704Y97819D01*
X54241Y97509D01*
X53931Y97046D01*
X53823Y96500D01*
X53887Y96175D01*
X53654Y95619D01*
X53191Y95309D01*
X52881Y94846D01*
X52773Y94300D01*
X52881Y93754D01*
X53191Y93291D01*
X53654Y92981D01*
X54200Y92873D01*
X54746Y92981D01*
X55209Y93291D01*
X55519Y93754D01*
X55627Y94300D01*
X55563Y94625D01*
X55796Y95181D01*
X56259Y95491D01*
X56569Y95954D01*
X56677Y96500D01*
X57124Y96817D01*
X57446Y96881D01*
X57909Y97191D01*
X58219Y97654D01*
X58327Y98200D01*
X58762Y98580D01*
X58800Y98573D01*
X59346Y98681D01*
X59809Y98991D01*
X60119Y99454D01*
X60227Y100000D01*
X60119Y100546D01*
X59809Y101009D01*
X59346Y101319D01*
X59148Y101868D01*
X59185Y102050D01*
X59076Y102596D01*
X58767Y103059D01*
X58303Y103369D01*
X57757Y103477D01*
D02*
G37*
G36*
X112648Y101132D02*
X111288Y99772D01*
X113135Y97925D01*
X114495Y99285D01*
X112648Y101132D01*
D02*
G37*
G36*
X18400Y103527D02*
X17854Y103419D01*
X17391Y103109D01*
X17081Y102646D01*
X16992Y102199D01*
X16938Y102066D01*
X16547Y101677D01*
X16254Y101619D01*
X15791Y101309D01*
X15481Y100846D01*
X15373Y100300D01*
X15481Y99754D01*
X15791Y99291D01*
X15975Y99168D01*
X16222Y98887D01*
X16102Y98527D01*
X15981Y98346D01*
X15873Y97800D01*
X15981Y97254D01*
X16291Y96791D01*
X16754Y96481D01*
X17300Y96373D01*
X17846Y96481D01*
X18309Y96791D01*
X18619Y97254D01*
X18727Y97800D01*
X18619Y98346D01*
X18309Y98809D01*
X18125Y98932D01*
X17878Y99213D01*
X17998Y99573D01*
X18119Y99754D01*
X18208Y100201D01*
X18262Y100335D01*
X18653Y100723D01*
X18946Y100781D01*
X19409Y101091D01*
X19719Y101554D01*
X19827Y102100D01*
X19719Y102646D01*
X19409Y103109D01*
X18946Y103419D01*
X18400Y103527D01*
D02*
G37*
G36*
X110228Y98712D02*
X108868Y97352D01*
X110715Y95505D01*
X112075Y96865D01*
X110228Y98712D01*
D02*
G37*
G36*
X115556Y98225D02*
X114196Y96865D01*
X116043Y95017D01*
X117403Y96377D01*
X115556Y98225D01*
D02*
G37*
G36*
X7000Y95927D02*
X6454Y95819D01*
X5991Y95509D01*
X5681Y95046D01*
X5573Y94500D01*
X5681Y93954D01*
X5991Y93491D01*
X6454Y93181D01*
X7000Y93073D01*
X7546Y93181D01*
X8009Y93491D01*
X8319Y93954D01*
X8427Y94500D01*
X8319Y95046D01*
X8009Y95509D01*
X7546Y95819D01*
X7000Y95927D01*
D02*
G37*
G36*
X113135Y95804D02*
X111776Y94444D01*
X113623Y92597D01*
X114982Y93957D01*
X113135Y95804D01*
D02*
G37*
G36*
X49600Y92827D02*
X49054Y92719D01*
X48591Y92409D01*
X48309D01*
X47846Y92719D01*
X47300Y92827D01*
X46754Y92719D01*
X46291Y92409D01*
X45981Y91946D01*
X45873Y91400D01*
X45981Y90854D01*
X46291Y90391D01*
X46754Y90081D01*
X47300Y89973D01*
X47846Y90081D01*
X48309Y90391D01*
X48591D01*
X49054Y90081D01*
X49600Y89973D01*
X50146Y90081D01*
X50456Y90288D01*
X50989Y90389D01*
X51452Y90080D01*
X51999Y89971D01*
X52545Y90080D01*
X53008Y90389D01*
X53317Y90852D01*
X53426Y91399D01*
X53317Y91945D01*
X53008Y92408D01*
X52545Y92717D01*
X51999Y92826D01*
X51452Y92717D01*
X51143Y92511D01*
X50609Y92409D01*
X50146Y92719D01*
X49600Y92827D01*
D02*
G37*
G36*
X84284Y100069D02*
X83279Y99936D01*
X82344Y99549D01*
X81540Y98932D01*
X80924Y98129D01*
X80536Y97193D01*
X80404Y96189D01*
X80536Y95185D01*
X80924Y94249D01*
X81540Y93446D01*
X82344Y92829D01*
X83279Y92441D01*
X84284Y92309D01*
X85288Y92441D01*
X86223Y92829D01*
X87027Y93446D01*
X87643Y94249D01*
X88031Y95185D01*
X88163Y96189D01*
X88031Y97193D01*
X87643Y98129D01*
X87027Y98932D01*
X86223Y99549D01*
X85288Y99936D01*
X84284Y100069D01*
D02*
G37*
G36*
X23200Y97027D02*
X22654Y96919D01*
X22191Y96609D01*
X21881Y96146D01*
X21773Y95600D01*
X21305Y95389D01*
X20954Y95319D01*
X20491Y95009D01*
X20181Y94546D01*
X20073Y94000D01*
X20181Y93454D01*
X20491Y92991D01*
X20954Y92681D01*
X21500Y92573D01*
X22046Y92681D01*
X22081Y92705D01*
X22581Y92754D01*
X22706Y92567D01*
X22891Y92291D01*
X23354Y91981D01*
X23900Y91873D01*
X24446Y91981D01*
X24909Y92291D01*
X25219Y92754D01*
X25327Y93300D01*
X25219Y93846D01*
X24909Y94309D01*
X24669Y94470D01*
X24519Y95054D01*
X24627Y95600D01*
X24519Y96146D01*
X24209Y96609D01*
X23746Y96919D01*
X23200Y97027D01*
D02*
G37*
G36*
X27400Y92827D02*
X26854Y92719D01*
X26391Y92409D01*
X26081Y91946D01*
X25973Y91400D01*
X26081Y90854D01*
X26391Y90391D01*
X26854Y90081D01*
X27400Y89973D01*
X27946Y90081D01*
X28096Y90181D01*
X28691Y90191D01*
X29154Y89881D01*
X29700Y89773D01*
X30246Y89881D01*
X30473Y90033D01*
X30733Y90174D01*
X31114Y89905D01*
X31191Y89791D01*
X31654Y89481D01*
X32200Y89373D01*
X32746Y89481D01*
X33209Y89791D01*
X33519Y90254D01*
X33627Y90800D01*
X33519Y91346D01*
X33209Y91809D01*
X32746Y92119D01*
X32200Y92227D01*
X31654Y92119D01*
X31427Y91967D01*
X31167Y91826D01*
X30786Y92095D01*
X30709Y92209D01*
X30246Y92519D01*
X29700Y92627D01*
X29154Y92519D01*
X29004Y92419D01*
X28409Y92409D01*
X27946Y92719D01*
X27400Y92827D01*
D02*
G37*
G36*
X79990Y90102D02*
X77181D01*
Y88451D01*
X76681Y88152D01*
X76300Y88227D01*
X75754Y88119D01*
X75291Y87809D01*
X74981Y87346D01*
X74873Y86800D01*
X74981Y86254D01*
X75291Y85791D01*
X75754Y85481D01*
X76300Y85373D01*
X76681Y85448D01*
X77181Y85149D01*
Y83537D01*
X76991Y83409D01*
X76681Y82946D01*
X76573Y82400D01*
X76681Y81854D01*
X76991Y81391D01*
X77454Y81081D01*
X78000Y80973D01*
X78546Y81081D01*
X79009Y81391D01*
X79319Y81854D01*
X79427Y82400D01*
X79332Y82878D01*
X79443Y83178D01*
X79549Y83378D01*
X79990D01*
Y86740D01*
Y90102D01*
D02*
G37*
G36*
X84299D02*
X81490D01*
Y87490D01*
X84299D01*
Y90102D01*
D02*
G37*
G36*
X100441D02*
X97632D01*
Y87490D01*
X100441D01*
Y90102D01*
D02*
G37*
G36*
X96132D02*
X93323D01*
Y87490D01*
X96132D01*
Y90102D01*
D02*
G37*
G36*
X3024Y90047D02*
X-179D01*
Y86844D01*
X3024D01*
Y90047D01*
D02*
G37*
G36*
X-1679D02*
X-4882D01*
Y86844D01*
X-1679D01*
Y90047D01*
D02*
G37*
G36*
X65000Y88827D02*
X64454Y88719D01*
X63991Y88409D01*
X63681Y87946D01*
X63573Y87400D01*
X63681Y86854D01*
X63991Y86391D01*
X64454Y86081D01*
X65000Y85973D01*
X65546Y86081D01*
X66009Y86391D01*
X66319Y86854D01*
X66427Y87400D01*
X66319Y87946D01*
X66009Y88409D01*
X65546Y88719D01*
X65000Y88827D01*
D02*
G37*
G36*
X100441Y85990D02*
X97632D01*
Y83378D01*
X100441D01*
Y85990D01*
D02*
G37*
G36*
X96132D02*
X93323D01*
Y83378D01*
X96132D01*
Y85990D01*
D02*
G37*
G36*
X71300Y86027D02*
X70754Y85919D01*
X70291Y85609D01*
X69981Y85146D01*
X69873Y84600D01*
X69981Y84054D01*
X70291Y83591D01*
X70754Y83281D01*
X71300Y83173D01*
X71846Y83281D01*
X72309Y83591D01*
X72619Y84054D01*
X72727Y84600D01*
X72619Y85146D01*
X72309Y85609D01*
X71846Y85919D01*
X71300Y86027D01*
D02*
G37*
G36*
X38400Y85827D02*
X37854Y85719D01*
X37391Y85409D01*
X37081Y84946D01*
X36973Y84400D01*
X37081Y83854D01*
X37391Y83391D01*
X37854Y83081D01*
X38400Y82973D01*
X38946Y83081D01*
X39409Y83391D01*
X39719Y83854D01*
X39827Y84400D01*
X39719Y84946D01*
X39409Y85409D01*
X38946Y85719D01*
X38400Y85827D01*
D02*
G37*
G36*
X32800Y85727D02*
X32254Y85619D01*
X31791Y85309D01*
X31481Y84846D01*
X31373Y84300D01*
X31481Y83754D01*
X31791Y83291D01*
X32254Y82981D01*
X32800Y82873D01*
X33346Y82981D01*
X33809Y83291D01*
X34119Y83754D01*
X34227Y84300D01*
X34119Y84846D01*
X33809Y85309D01*
X33346Y85619D01*
X32800Y85727D01*
D02*
G37*
G36*
X26200Y85627D02*
X25654Y85519D01*
X25191Y85209D01*
X24881Y84746D01*
X24773Y84200D01*
X24881Y83654D01*
X25191Y83191D01*
X25654Y82881D01*
X26200Y82773D01*
X26746Y82881D01*
X27209Y83191D01*
X27519Y83654D01*
X27627Y84200D01*
X27519Y84746D01*
X27209Y85209D01*
X26746Y85519D01*
X26200Y85627D01*
D02*
G37*
G36*
X72600Y82827D02*
X72054Y82719D01*
X71591Y82409D01*
X71281Y81946D01*
X71173Y81400D01*
X71281Y80854D01*
X71591Y80391D01*
X72054Y80081D01*
X72600Y79973D01*
X73146Y80081D01*
X73609Y80391D01*
X73919Y80854D01*
X74027Y81400D01*
X73919Y81946D01*
X73609Y82409D01*
X73146Y82719D01*
X72600Y82827D01*
D02*
G37*
G36*
X68300Y82227D02*
X67754Y82119D01*
X67291Y81809D01*
X66981Y81346D01*
X66873Y80800D01*
X66981Y80254D01*
X67291Y79791D01*
X67754Y79481D01*
X68300Y79373D01*
X68846Y79481D01*
X69309Y79791D01*
X69619Y80254D01*
X69727Y80800D01*
X69619Y81346D01*
X69309Y81809D01*
X68846Y82119D01*
X68300Y82227D01*
D02*
G37*
G36*
X84299Y85990D02*
X81490D01*
Y83378D01*
X82978D01*
X83388Y82878D01*
X83373Y82800D01*
X83481Y82254D01*
X83791Y81791D01*
X84235Y81494D01*
X84248Y81408D01*
X84216Y80988D01*
X84214Y80979D01*
X83752Y80671D01*
X83442Y80208D01*
X83334Y79661D01*
X83442Y79115D01*
X83752Y78652D01*
X84215Y78342D01*
X84761Y78234D01*
X85308Y78342D01*
X85771Y78652D01*
X86080Y79115D01*
X86189Y79661D01*
X86080Y80208D01*
X85771Y80671D01*
X85326Y80967D01*
X85313Y81054D01*
X85346Y81474D01*
X85347Y81482D01*
X85809Y81791D01*
X86119Y82254D01*
X86227Y82800D01*
X86119Y83346D01*
X85809Y83809D01*
X85346Y84119D01*
X84800Y84227D01*
X84686Y84205D01*
X84299Y84522D01*
Y85990D01*
D02*
G37*
G36*
X59700Y79827D02*
X59154Y79719D01*
X58691Y79409D01*
X58381Y78946D01*
X58273Y78400D01*
X58381Y77854D01*
X58691Y77391D01*
X59154Y77081D01*
X59700Y76973D01*
X60246Y77081D01*
X60709Y77391D01*
X61019Y77854D01*
X61127Y78400D01*
X61019Y78946D01*
X60709Y79409D01*
X60246Y79719D01*
X59700Y79827D01*
D02*
G37*
G36*
X78900Y79327D02*
X78354Y79219D01*
X77891Y78909D01*
X77581Y78446D01*
X77473Y77900D01*
X77581Y77354D01*
X77891Y76891D01*
X78354Y76581D01*
X78900Y76473D01*
X79446Y76581D01*
X79909Y76891D01*
X80219Y77354D01*
X80327Y77900D01*
X80219Y78446D01*
X79909Y78909D01*
X79446Y79219D01*
X78900Y79327D01*
D02*
G37*
G36*
X3024Y85344D02*
X-929D01*
X-4882D01*
Y82142D01*
X-4458D01*
X-4382Y81673D01*
X-4382Y81642D01*
Y74768D01*
X2524D01*
Y79149D01*
X3742D01*
X4230Y79246D01*
X4513Y79435D01*
X4746Y79481D01*
X5209Y79791D01*
X5519Y80254D01*
X5627Y80800D01*
X5519Y81346D01*
X5209Y81809D01*
X4746Y82119D01*
X4200Y82227D01*
X3654Y82119D01*
X3461Y81990D01*
X3024Y82299D01*
Y85344D01*
D02*
G37*
G36*
X4800Y74227D02*
X4254Y74119D01*
X3791Y73809D01*
X3627Y73565D01*
X2524D01*
Y73799D01*
X-4382D01*
Y66894D01*
X2524D01*
Y72035D01*
X3627D01*
X3791Y71791D01*
X4254Y71481D01*
X4800Y71373D01*
X5346Y71481D01*
X5809Y71791D01*
X6119Y72254D01*
X6227Y72800D01*
X6119Y73346D01*
X5809Y73809D01*
X5346Y74119D01*
X4800Y74227D01*
D02*
G37*
G36*
X65761Y74446D02*
X62755D01*
Y71834D01*
X65761D01*
Y74446D01*
D02*
G37*
G36*
X61255D02*
X58249D01*
Y71834D01*
X61255D01*
Y74446D01*
D02*
G37*
G36*
X105131D02*
X100550D01*
Y71834D01*
X105131D01*
Y74446D01*
D02*
G37*
G36*
X99050D02*
X94469D01*
Y71834D01*
X99050D01*
Y74446D01*
D02*
G37*
G36*
X69538Y72589D02*
X68992Y72481D01*
X68529Y72171D01*
X68219Y71708D01*
X68111Y71162D01*
X68219Y70616D01*
X68529Y70153D01*
X68992Y69843D01*
X69538Y69735D01*
X70084Y69843D01*
X70547Y70153D01*
X70857Y70616D01*
X70965Y71162D01*
X70857Y71708D01*
X70547Y72171D01*
X70084Y72481D01*
X69538Y72589D01*
D02*
G37*
G36*
X65761Y70334D02*
X62005D01*
X58249D01*
Y68238D01*
X55157D01*
X55109Y68309D01*
X54646Y68619D01*
X54100Y68727D01*
X53554Y68619D01*
X53091Y68309D01*
X52927Y68065D01*
X52773D01*
X52481Y68006D01*
X52232Y67841D01*
X51719Y67327D01*
X49800D01*
Y64327D01*
X52800D01*
Y65894D01*
X53300Y66151D01*
X53554Y65981D01*
X54100Y65873D01*
X54627Y65977D01*
X54649Y65980D01*
X55127Y65701D01*
Y64482D01*
X62426D01*
Y67722D01*
X65761D01*
Y70334D01*
D02*
G37*
G36*
X105131Y70334D02*
X100550D01*
Y67722D01*
X105131D01*
Y70334D01*
D02*
G37*
G36*
X99050D02*
X94469D01*
Y67722D01*
X99050D01*
Y70334D01*
D02*
G37*
G36*
X4400Y67227D02*
X3854Y67119D01*
X3391Y66809D01*
X3081Y66346D01*
X3000Y65940D01*
X1774D01*
X1700Y65925D01*
X-4382D01*
Y59020D01*
X2524D01*
Y64411D01*
X3423D01*
X3716Y64469D01*
X3794Y64521D01*
X3854Y64481D01*
X4400Y64373D01*
X4946Y64481D01*
X5409Y64791D01*
X5719Y65254D01*
X5827Y65800D01*
X5719Y66346D01*
X5409Y66809D01*
X4946Y67119D01*
X4400Y67227D01*
D02*
G37*
G36*
X65300Y66927D02*
X64754Y66819D01*
X64291Y66509D01*
X63981Y66046D01*
X63873Y65500D01*
X63981Y64954D01*
X64291Y64491D01*
X64754Y64181D01*
X65300Y64073D01*
X65846Y64181D01*
X66309Y64491D01*
X66619Y64954D01*
X66727Y65500D01*
X66619Y66046D01*
X66309Y66509D01*
X65846Y66819D01*
X65300Y66927D01*
D02*
G37*
G36*
X62426Y63907D02*
X55127D01*
Y63384D01*
X54773Y63194D01*
X54627Y63162D01*
X54133Y63261D01*
X53587Y63152D01*
X53300Y62960D01*
X52800Y63189D01*
Y63700D01*
X49800D01*
Y60700D01*
X52800D01*
X52800Y60700D01*
X53300Y60706D01*
X53587Y60514D01*
X54133Y60406D01*
X54627Y60504D01*
X54773Y60472D01*
X55127Y60283D01*
Y60151D01*
X62426D01*
Y63907D01*
D02*
G37*
G36*
X26250Y67281D02*
Y63150D01*
X30381D01*
X30310Y63689D01*
X29812Y64890D01*
X29021Y65921D01*
X27990Y66712D01*
X26789Y67210D01*
X26250Y67281D01*
D02*
G37*
G36*
X24750D02*
X24211Y67210D01*
X23010Y66712D01*
X21979Y65921D01*
X21188Y64890D01*
X20690Y63689D01*
X20619Y63150D01*
X24750D01*
Y67281D01*
D02*
G37*
G36*
X101910Y62577D02*
X100947Y62386D01*
X100130Y61840D01*
X99585Y61024D01*
X99393Y60061D01*
X99585Y59097D01*
X100130Y58281D01*
X100947Y57735D01*
X101910Y57544D01*
X102873Y57735D01*
X103690Y58281D01*
X104235Y59097D01*
X104427Y60061D01*
X104235Y61024D01*
X103690Y61840D01*
X102873Y62386D01*
X101910Y62577D01*
D02*
G37*
G36*
X30381Y61650D02*
X26250D01*
Y57519D01*
X26789Y57590D01*
X27990Y58087D01*
X29021Y58879D01*
X29812Y59910D01*
X30310Y61111D01*
X30381Y61650D01*
D02*
G37*
G36*
X24750D02*
X20619D01*
X20690Y61111D01*
X21188Y59910D01*
X21979Y58879D01*
X23010Y58087D01*
X24211Y57590D01*
X24750Y57519D01*
Y61650D01*
D02*
G37*
G36*
X71400Y59727D02*
X70854Y59619D01*
X70391Y59309D01*
X70081Y58846D01*
X69973Y58300D01*
X70081Y57754D01*
X70391Y57291D01*
X70854Y56981D01*
X71400Y56873D01*
X71946Y56981D01*
X72409Y57291D01*
X72719Y57754D01*
X72827Y58300D01*
X72719Y58846D01*
X72409Y59309D01*
X71946Y59619D01*
X71400Y59727D01*
D02*
G37*
G36*
X17173Y55266D02*
X15758D01*
Y53022D01*
X20069D01*
X20065Y53047D01*
X19766Y53769D01*
X19290Y54389D01*
X18670Y54865D01*
X17948Y55164D01*
X17173Y55266D01*
D02*
G37*
G36*
X14258D02*
X12843D01*
X12068Y55164D01*
X11345Y54865D01*
X10725Y54389D01*
X10249Y53769D01*
X9950Y53047D01*
X9947Y53022D01*
X14258D01*
Y55266D01*
D02*
G37*
G36*
X126D02*
X-699D01*
Y53022D01*
X3021D01*
X3018Y53047D01*
X2719Y53769D01*
X2243Y54389D01*
X1623Y54865D01*
X901Y55164D01*
X126Y55266D01*
D02*
G37*
G36*
X-2199D02*
X-3024D01*
X-3799Y55164D01*
X-4521Y54865D01*
X-5141Y54389D01*
X-5617Y53769D01*
X-5916Y53047D01*
X-5919Y53022D01*
X-2199D01*
Y55266D01*
D02*
G37*
G36*
X14998Y66875D02*
X13840Y66723D01*
X12761Y66276D01*
X11834Y65565D01*
X11123Y64638D01*
X10676Y63558D01*
X10523Y62400D01*
X10676Y61242D01*
X11123Y60162D01*
X11834Y59236D01*
X12761Y58524D01*
X13840Y58077D01*
X14998Y57925D01*
X16157Y58077D01*
X17120Y58476D01*
X19847Y55749D01*
X20261Y55472D01*
X20297Y54983D01*
X20281Y54959D01*
X20173Y54413D01*
X20281Y53867D01*
X20591Y53404D01*
X21054Y53095D01*
X21600Y52986D01*
X22146Y53095D01*
X22609Y53404D01*
X22919Y53867D01*
X23027Y54413D01*
X22919Y54959D01*
X22874Y55026D01*
Y55888D01*
X22919Y55954D01*
X23027Y56500D01*
X22919Y57046D01*
X22609Y57509D01*
X22146Y57819D01*
X21600Y57927D01*
X21477Y57903D01*
X21369Y57924D01*
X21276D01*
X18922Y60278D01*
X19321Y61242D01*
X19474Y62400D01*
X19321Y63558D01*
X18874Y64638D01*
X18163Y65565D01*
X17236Y66276D01*
X16157Y66723D01*
X14998Y66875D01*
D02*
G37*
G36*
X33500Y55727D02*
X32954Y55619D01*
X32491Y55309D01*
X32181Y54846D01*
X32073Y54300D01*
X32181Y53754D01*
X32491Y53291D01*
X32954Y52981D01*
X33500Y52873D01*
X34046Y52981D01*
X34509Y53291D01*
X34819Y53754D01*
X34927Y54300D01*
X34819Y54846D01*
X34509Y55309D01*
X34046Y55619D01*
X33500Y55727D01*
D02*
G37*
G36*
X32000Y74972D02*
X23700D01*
X23251Y74883D01*
X22871Y74629D01*
X21312Y73070D01*
X21054Y73019D01*
X20591Y72709D01*
X20281Y72246D01*
X20173Y71700D01*
X20281Y71154D01*
X20591Y70691D01*
X21054Y70381D01*
X21600Y70273D01*
X22146Y70381D01*
X22609Y70691D01*
X22919Y71154D01*
X23447Y71246D01*
X23488Y71223D01*
X23581Y70754D01*
X23891Y70291D01*
X24354Y69981D01*
X24900Y69873D01*
X25446Y69981D01*
X25909Y70291D01*
X26219Y70754D01*
X26327Y71300D01*
X26219Y71846D01*
X26031Y72127D01*
X26265Y72628D01*
X31514D01*
X39144Y64997D01*
X39525Y64743D01*
X39974Y64654D01*
X46257D01*
Y64327D01*
X46584D01*
Y63700D01*
X46257D01*
Y60700D01*
X46584D01*
Y60100D01*
X46257D01*
Y57100D01*
X46584D01*
Y53543D01*
X46674Y53094D01*
X46928Y52714D01*
X49799Y49843D01*
Y47883D01*
X49757Y47400D01*
X48507D01*
Y45400D01*
X47757D01*
Y44650D01*
X45757D01*
Y43400D01*
X47488D01*
X47679Y42938D01*
X47341Y42600D01*
X46257D01*
Y39600D01*
X46584D01*
Y39000D01*
X46257D01*
Y36000D01*
X46584D01*
Y35400D01*
X46257D01*
Y32400D01*
X46917D01*
Y32111D01*
X47006Y31662D01*
X47260Y31282D01*
X50571Y27971D01*
X50951Y27717D01*
X51400Y27628D01*
X63700D01*
X64149Y27717D01*
X64529Y27971D01*
X65929Y29371D01*
X66183Y29751D01*
X66272Y30200D01*
Y34435D01*
X66419Y34654D01*
X66527Y35200D01*
X66419Y35746D01*
X66109Y36209D01*
X65646Y36519D01*
X65100Y36627D01*
X64554Y36519D01*
X64091Y36209D01*
X63781Y35746D01*
X63673Y35200D01*
X63781Y34654D01*
X63928Y34435D01*
Y30686D01*
X63214Y29972D01*
X62426D01*
Y33592D01*
X55127D01*
X54949Y33699D01*
X54928Y34140D01*
X55127Y34167D01*
X55127Y34167D01*
X62426D01*
Y37923D01*
X55127D01*
Y37332D01*
X54627Y37065D01*
X54546Y37119D01*
X54000Y37227D01*
X53454Y37119D01*
X53263Y36991D01*
X52800Y37283D01*
Y39000D01*
X49800D01*
Y36000D01*
X51319D01*
X51386Y35900D01*
X51118Y35400D01*
X49800D01*
Y33325D01*
X49300Y33058D01*
X49262Y33084D01*
Y33567D01*
X49257Y33592D01*
Y35400D01*
X48930D01*
Y36000D01*
X49257D01*
Y39000D01*
X48930D01*
Y39600D01*
X49257D01*
Y40772D01*
X49300Y40801D01*
X49800Y40534D01*
Y39600D01*
X52800D01*
Y39611D01*
X55127D01*
Y38498D01*
X62426D01*
Y40135D01*
X62600D01*
X62893Y40194D01*
X63141Y40359D01*
X63944Y41163D01*
X64110Y41411D01*
X64168Y41703D01*
Y46503D01*
X64110Y46796D01*
X63944Y47044D01*
X63613Y47375D01*
X63365Y47541D01*
X63073Y47599D01*
X62426D01*
Y48272D01*
X62537D01*
X62830Y48331D01*
X63078Y48496D01*
X65111Y50530D01*
X65400Y50473D01*
X65946Y50581D01*
X66409Y50891D01*
X66719Y51354D01*
X66827Y51900D01*
X66719Y52446D01*
X66409Y52909D01*
X65946Y53219D01*
X65400Y53327D01*
X64854Y53219D01*
X64391Y52909D01*
X64081Y52446D01*
X63973Y51900D01*
X64030Y51611D01*
X63426Y51007D01*
X62926Y51215D01*
Y52618D01*
X58776D01*
Y54118D01*
X62926D01*
Y55746D01*
X62895D01*
X62426Y55821D01*
X62426Y56246D01*
Y59576D01*
X55127D01*
Y59420D01*
X54627Y59143D01*
X54200Y59227D01*
X53654Y59119D01*
X53300Y58882D01*
X52917Y59015D01*
X52800Y59104D01*
Y60100D01*
X49800D01*
Y57100D01*
X51976D01*
X52050Y57086D01*
X52994D01*
X53191Y56791D01*
X53654Y56481D01*
X54200Y56373D01*
X54456Y56423D01*
X54882Y56073D01*
X54830Y55773D01*
X54658Y55746D01*
X54627D01*
Y55720D01*
X54127Y55443D01*
X53700Y55527D01*
X53154Y55419D01*
X52691Y55109D01*
X52381Y54646D01*
X52273Y54100D01*
X52381Y53554D01*
X52691Y53091D01*
X52935Y52927D01*
Y48525D01*
X52994Y48233D01*
X53159Y47984D01*
X54765Y46379D01*
X54685Y46047D01*
X54572Y45879D01*
X52800D01*
Y46900D01*
X52144D01*
Y50329D01*
X52054Y50778D01*
X51800Y51158D01*
X48930Y54029D01*
Y57100D01*
X49257D01*
Y60100D01*
X48930D01*
Y60700D01*
X49257D01*
Y63700D01*
X48930D01*
Y64327D01*
X49257D01*
Y67326D01*
X46257D01*
Y66999D01*
X40459D01*
X32829Y74629D01*
X32449Y74883D01*
X32000Y74972D01*
D02*
G37*
G36*
X3021Y51522D02*
X-699D01*
Y49277D01*
X126D01*
X901Y49380D01*
X1623Y49679D01*
X2243Y50155D01*
X2719Y50775D01*
X3018Y51497D01*
X3021Y51522D01*
D02*
G37*
G36*
X-2199D02*
X-5919D01*
X-5916Y51497D01*
X-5617Y50775D01*
X-5141Y50155D01*
X-4521Y49679D01*
X-3799Y49380D01*
X-3024Y49277D01*
X-2199D01*
Y51522D01*
D02*
G37*
G36*
X92500Y50727D02*
X91954Y50619D01*
X91491Y50309D01*
X91181Y49846D01*
X91073Y49300D01*
X91181Y48754D01*
X91491Y48291D01*
X91954Y47981D01*
X92500Y47873D01*
X93046Y47981D01*
X93509Y48291D01*
X93819Y48754D01*
X93927Y49300D01*
X93819Y49846D01*
X93509Y50309D01*
X93046Y50619D01*
X92500Y50727D01*
D02*
G37*
G36*
X85500Y50327D02*
X84954Y50219D01*
X84491Y49909D01*
X84181Y49446D01*
X84073Y48900D01*
X84181Y48354D01*
X84491Y47891D01*
X84954Y47581D01*
X85500Y47473D01*
X86046Y47581D01*
X86509Y47891D01*
X86819Y48354D01*
X86927Y48900D01*
X86819Y49446D01*
X86509Y49909D01*
X86046Y50219D01*
X85500Y50327D01*
D02*
G37*
G36*
X47007Y47400D02*
X45757D01*
Y46150D01*
X47007D01*
Y47400D01*
D02*
G37*
G36*
X31200Y41943D02*
X29950D01*
Y40693D01*
X31200D01*
Y41943D01*
D02*
G37*
G36*
X28450D02*
X27200D01*
Y40693D01*
X28450D01*
Y41943D01*
D02*
G37*
G36*
X99100Y43227D02*
X98554Y43119D01*
X98091Y42809D01*
X97781Y42346D01*
X97673Y41800D01*
X97781Y41254D01*
X98091Y40791D01*
X98554Y40481D01*
X99100Y40373D01*
X99646Y40481D01*
X100109Y40791D01*
X100419Y41254D01*
X100527Y41800D01*
X100419Y42346D01*
X100109Y42809D01*
X99646Y43119D01*
X99100Y43227D01*
D02*
G37*
G36*
X88100Y43227D02*
X87554Y43119D01*
X87091Y42809D01*
X86781Y42346D01*
X86673Y41800D01*
X86781Y41254D01*
X87091Y40791D01*
X87554Y40481D01*
X88100Y40373D01*
X88646Y40481D01*
X89109Y40791D01*
X89419Y41254D01*
X89527Y41800D01*
X89419Y42346D01*
X89109Y42809D01*
X88646Y43119D01*
X88100Y43227D01*
D02*
G37*
G36*
X75100Y39027D02*
X74554Y38919D01*
X74091Y38609D01*
X73781Y38146D01*
X73673Y37600D01*
X73781Y37054D01*
X74091Y36591D01*
X74554Y36281D01*
X75100Y36173D01*
X75646Y36281D01*
X76109Y36591D01*
X76419Y37054D01*
X76527Y37600D01*
X76419Y38146D01*
X76109Y38609D01*
X75646Y38919D01*
X75100Y39027D01*
D02*
G37*
G36*
X101910Y31081D02*
X100947Y30890D01*
X100130Y30344D01*
X99585Y29528D01*
X99393Y28565D01*
X99585Y27601D01*
X100130Y26785D01*
X100947Y26239D01*
X101910Y26048D01*
X102873Y26239D01*
X103690Y26785D01*
X104235Y27601D01*
X104427Y28565D01*
X104235Y29528D01*
X103690Y30344D01*
X102873Y30890D01*
X101910Y31081D01*
D02*
G37*
G36*
X57400Y26727D02*
X56854Y26619D01*
X56391Y26309D01*
X56081Y25846D01*
X55973Y25300D01*
X56081Y24754D01*
X56391Y24291D01*
X56854Y23981D01*
X57400Y23873D01*
X57946Y23981D01*
X58409Y24291D01*
X58719Y24754D01*
X58827Y25300D01*
X58719Y25846D01*
X58409Y26309D01*
X57946Y26619D01*
X57400Y26727D01*
D02*
G37*
G36*
X61600Y26027D02*
X61054Y25919D01*
X60591Y25609D01*
X60281Y25146D01*
X60173Y24600D01*
X60281Y24054D01*
X60591Y23591D01*
X61054Y23281D01*
X61600Y23173D01*
X62146Y23281D01*
X62609Y23591D01*
X62919Y24054D01*
X63027Y24600D01*
X62919Y25146D01*
X62609Y25609D01*
X62146Y25919D01*
X61600Y26027D01*
D02*
G37*
G36*
X126Y21250D02*
X-699D01*
Y19006D01*
X3021D01*
X3018Y19031D01*
X2719Y19753D01*
X2243Y20373D01*
X1623Y20849D01*
X901Y21148D01*
X126Y21250D01*
D02*
G37*
G36*
X-2199D02*
X-3024D01*
X-3799Y21148D01*
X-4521Y20849D01*
X-5141Y20373D01*
X-5617Y19753D01*
X-5916Y19031D01*
X-5919Y19006D01*
X-2199D01*
Y21250D01*
D02*
G37*
G36*
X20069Y17506D02*
X15758D01*
Y15262D01*
X17173D01*
X17948Y15364D01*
X18670Y15663D01*
X19290Y16139D01*
X19766Y16759D01*
X20065Y17481D01*
X20069Y17506D01*
D02*
G37*
G36*
X14258D02*
X9947D01*
X9950Y17481D01*
X10249Y16759D01*
X10725Y16139D01*
X11345Y15663D01*
X12068Y15364D01*
X12843Y15262D01*
X14258D01*
Y17506D01*
D02*
G37*
G36*
X3021D02*
X-699D01*
Y15262D01*
X126D01*
X901Y15364D01*
X1623Y15663D01*
X2243Y16139D01*
X2719Y16759D01*
X3018Y17481D01*
X3021Y17506D01*
D02*
G37*
G36*
X-2199D02*
X-5919D01*
X-5916Y17481D01*
X-5617Y16759D01*
X-5141Y16139D01*
X-4521Y15663D01*
X-3799Y15364D01*
X-3024Y15262D01*
X-2199D01*
Y17506D01*
D02*
G37*
G36*
X65761Y17753D02*
X62755D01*
Y14354D01*
X65761D01*
Y17753D01*
D02*
G37*
G36*
X61255D02*
X58249D01*
Y14354D01*
X61255D01*
Y17753D01*
D02*
G37*
G36*
X78900Y15927D02*
X78354Y15819D01*
X77891Y15509D01*
X77581Y15046D01*
X77473Y14500D01*
X77581Y13954D01*
X77891Y13491D01*
X78354Y13181D01*
X78900Y13073D01*
X79446Y13181D01*
X79909Y13491D01*
X80219Y13954D01*
X80327Y14500D01*
X80219Y15046D01*
X79909Y15509D01*
X79446Y15819D01*
X78900Y15927D01*
D02*
G37*
G36*
X105131Y13423D02*
X100550D01*
Y10811D01*
X105131D01*
Y13423D01*
D02*
G37*
G36*
X99050D02*
X94469D01*
Y10811D01*
X99050D01*
Y13423D01*
D02*
G37*
G36*
X65761Y12854D02*
X62755D01*
Y9454D01*
X65761D01*
Y12854D01*
D02*
G37*
G36*
X61255D02*
X58249D01*
Y9454D01*
X61255D01*
Y12854D01*
D02*
G37*
G36*
X105131Y9311D02*
X100550D01*
Y6698D01*
X105131D01*
Y9311D01*
D02*
G37*
G36*
X99050D02*
X94469D01*
Y6698D01*
X99050D01*
Y9311D01*
D02*
G37*
%LPD*%
D10*
X21220Y34280D02*
X22900Y32600D01*
Y22500D02*
X25142Y20258D01*
X22900Y22500D02*
Y32600D01*
X25142Y20258D02*
X27285D01*
X24100Y23200D02*
Y34500D01*
Y23200D02*
X25072Y22228D01*
X27285D01*
X22352Y36248D02*
X24100Y34500D01*
X11600Y37300D02*
X12517Y38217D01*
X12300Y33300D02*
X13289Y32311D01*
X12300Y35200D02*
X13348Y36248D01*
X12300Y33300D02*
Y35200D01*
X13289Y32311D02*
X18236D01*
X13348Y36248D02*
X18236D01*
X22352D01*
X14421Y34280D02*
X18236D01*
X12517Y38217D02*
X18236D01*
Y34280D02*
X21220D01*
D12*
X35057Y130500D02*
X35179Y130378D01*
Y122821D02*
Y130378D01*
Y122821D02*
X35300Y122700D01*
X12017Y115045D02*
Y117013D01*
X11139Y114167D02*
X12017Y115045D01*
X9783Y114167D02*
X11139D01*
X8716Y113100D02*
X9783Y114167D01*
X8500Y113100D02*
X8716D01*
X8500Y99200D02*
X11720D01*
X12017Y98903D01*
X26200Y2900D02*
Y5200D01*
Y2900D02*
X26800Y2300D01*
X27285Y26168D02*
Y28485D01*
X28901Y30101D01*
X31217D01*
Y34383D01*
X29200Y36400D02*
X31217Y34383D01*
D15*
X29200Y36400D02*
D03*
X29200Y39943D02*
D03*
D16*
X38600Y130500D02*
D03*
X35057Y130500D02*
D03*
X51300Y62200D02*
D03*
X47757Y62200D02*
D03*
X51300Y58600D02*
D03*
X47757Y58600D02*
D03*
X51300Y41100D02*
D03*
X47757Y41100D02*
D03*
X51300Y37500D02*
D03*
X47757Y37500D02*
D03*
X51300Y33900D02*
D03*
X47757Y33900D02*
D03*
Y65826D02*
D03*
X51300Y65827D02*
D03*
X35057Y134100D02*
D03*
X38600Y134100D02*
D03*
X47757Y45400D02*
D03*
X51300Y45400D02*
D03*
D21*
X40634Y116744D02*
D03*
X43139Y119250D02*
D03*
X47184Y110194D02*
D03*
X49689Y112700D02*
D03*
X38000Y119300D02*
D03*
X40505Y121806D02*
D03*
D67*
X53700Y48525D02*
Y54100D01*
X51300Y33900D02*
X52050Y33150D01*
X53098D01*
X53548Y32700D01*
X53900D01*
X38600Y130500D02*
X45598D01*
X47056Y131958D01*
X38600Y130500D02*
Y134100D01*
X30900Y6800D02*
X31102Y7002D01*
X35100Y9873D02*
X35400Y10173D01*
X37127Y5673D02*
Y10416D01*
X31102Y10301D02*
X31217Y10416D01*
X35100Y6800D02*
Y9873D01*
X31102Y7002D02*
Y10301D01*
X37127Y5673D02*
X37200Y5600D01*
X39097Y6803D02*
X40200Y5700D01*
X35157Y10416D02*
X35400Y10173D01*
X39097Y6803D02*
Y10416D01*
X58798Y111102D02*
Y113102D01*
Y111102D02*
X58800Y111100D01*
X47056Y131958D02*
X48498Y133400D01*
X44200Y137698D02*
X48498Y133400D01*
X44200Y137698D02*
Y137700D01*
X54600Y117300D02*
X58798Y113102D01*
X87200Y101600D02*
X90800Y105200D01*
X80836Y101600D02*
X87200D01*
X71685Y92449D02*
X80836Y101600D01*
X71685Y92252D02*
Y92449D01*
Y102193D02*
Y102390D01*
X73797Y104502D01*
X73994D01*
X78892Y109400D01*
X81200D01*
X81133Y114300D02*
X89700D01*
X73994Y121439D02*
X81133Y114300D01*
X53700Y48525D02*
X55391Y46834D01*
X57517Y67300D02*
X58617Y66200D01*
X51300Y65827D02*
X52773Y67300D01*
X54100D02*
X57517D01*
X52773D02*
X54100D01*
X52050Y57850D02*
X54150D01*
X54200Y57800D01*
X51300Y58600D02*
X52050Y57850D01*
X51300Y62200D02*
X51667Y61833D01*
X54133D01*
X55391Y46834D02*
X63073D01*
X58776Y40376D02*
X59301Y40900D01*
X63403Y41703D02*
Y46503D01*
X62600Y40900D02*
X63403Y41703D01*
X59301Y40900D02*
X62600D01*
X63073Y46834D02*
X63403Y46503D01*
X58675Y57800D02*
X58776Y57698D01*
X54200Y57800D02*
X58675D01*
X58581Y61833D02*
X58776Y62029D01*
X54133Y61833D02*
X58581D01*
X62537Y49037D02*
X65400Y51900D01*
X58776Y49037D02*
X62537D01*
X58617Y66200D02*
X58776Y66360D01*
X54886Y31714D02*
X58776D01*
X53900Y32700D02*
X54886Y31714D01*
X51300Y37500D02*
X52757Y36043D01*
X53757D01*
X54000Y35800D01*
X58532D02*
X58776Y36045D01*
X54000Y35800D02*
X58532D01*
X52025Y40376D02*
X58776D01*
X71685Y123551D02*
Y123748D01*
Y123551D02*
X73797Y121439D01*
X73994D01*
X-929Y62472D02*
X1774Y65175D01*
X3423D01*
X4048Y65800D01*
X4400D01*
X1524Y72800D02*
X4800D01*
X-929Y70346D02*
X1524Y72800D01*
D68*
X82300Y8300D02*
Y21100D01*
X89400Y28200D01*
X93400D01*
X76300Y2300D02*
X82300Y8300D01*
X26200Y2300D02*
X26800D01*
X14100D02*
X26200D01*
X26800D02*
X76300D01*
X21600Y56500D02*
Y56500D01*
Y54413D02*
Y56500D01*
X93400Y28200D02*
X95204D01*
X-929Y78220D02*
X1274Y80423D01*
X3742D01*
X4119Y80800D01*
X4200D01*
X8000Y8400D02*
X14100Y2300D01*
X7700Y8400D02*
X8000D01*
X7700D02*
Y32942D01*
X14998Y62400D02*
X20748Y56650D01*
X21369D01*
X21519Y56500D01*
X21600D01*
X14396Y26246D02*
X17805D01*
X18236Y25815D01*
X7700Y32942D02*
X14396Y26246D01*
X7700Y32942D02*
Y37500D01*
X14481Y44282D02*
X17805D01*
X7700Y37500D02*
X14481Y44282D01*
X17805D02*
X18236Y44713D01*
D69*
X23700Y73800D02*
X32000D01*
X21600Y71700D02*
X23700Y73800D01*
X26700D01*
X39974Y65826D02*
X47757D01*
X32000Y73800D02*
X39974Y65826D01*
X17678Y48393D02*
X17705D01*
X16623D02*
X17678D01*
X15404Y52272D02*
X16460D01*
X15008D02*
X15404D01*
X18209Y47862D02*
X18236D01*
X17678Y48393D02*
X18209Y47862D01*
X16460Y52272D02*
X17678Y51054D01*
Y48393D02*
Y51054D01*
X16460Y18256D02*
X17860D01*
X15008D02*
X16460D01*
X18500Y22402D02*
X18600Y22302D01*
X16460Y18256D02*
X18500Y20296D01*
Y22402D01*
X18236Y22665D02*
X18500Y22402D01*
X17860Y18256D02*
X19589Y19984D01*
X18236Y22665D02*
X19058D01*
X19589Y22134D01*
Y19984D02*
Y22134D01*
X14863Y48393D02*
X16623D01*
X14309Y48947D02*
X14863Y48393D01*
X17705D02*
X18236Y47862D01*
X16623Y48393D02*
Y51054D01*
X15404Y52272D02*
X16623Y51054D01*
X50971Y45729D02*
Y50329D01*
X47757Y53543D02*
Y58600D01*
Y53543D02*
X50971Y50329D01*
Y45729D02*
X51300Y45400D01*
X51994Y44706D02*
X58776D01*
X51650Y45050D02*
X51994Y44706D01*
X48107Y41707D02*
X50950Y44550D01*
X48107Y41450D02*
Y41707D01*
X50950Y44550D02*
Y45050D01*
X47757Y41100D02*
X48107Y41450D01*
X47757Y62200D02*
Y65826D01*
Y33900D02*
Y37500D01*
Y33900D02*
X48089Y33567D01*
Y32111D02*
X51400Y28800D01*
X48089Y32111D02*
Y33567D01*
X51400Y28800D02*
X63700D01*
X65100Y30200D02*
Y35200D01*
X47757Y58600D02*
Y62200D01*
X63700Y28800D02*
X65100Y30200D01*
X47757Y37500D02*
Y41100D01*
D70*
X-4200Y106000D02*
X24700D01*
X-5618Y104582D02*
X-4200Y106000D01*
X35300Y122700D02*
X35453Y122547D01*
Y121847D02*
Y122547D01*
X24700Y106000D02*
X38000Y119300D01*
X58400Y107600D02*
X62100Y111300D01*
X54789Y107600D02*
X58400D01*
X49689Y112700D02*
X54789Y107600D01*
X41099Y119250D02*
X43139D01*
X40082Y119259D02*
X41090D01*
X40041Y119300D02*
X40082Y119259D01*
X38000Y119300D02*
X40041D01*
X41090Y119259D02*
X41099Y119250D01*
X49689Y112700D02*
X52600Y115611D01*
Y118700D01*
X52700Y118800D01*
X35453Y121847D02*
X38000Y119300D01*
X43139Y119250D02*
X46247Y122357D01*
Y123047D01*
X46400Y123200D01*
X49689Y112700D02*
Y112700D01*
X43139Y119250D02*
X49689Y112700D01*
D74*
X-1449Y18256D02*
D03*
Y52272D02*
D03*
D75*
X15008Y18256D02*
D03*
Y52272D02*
D03*
D76*
X101910Y28565D02*
D03*
Y60061D02*
D03*
D77*
X51300Y84600D02*
D03*
X64600Y102400D02*
D03*
X57200Y90800D02*
D03*
X34200Y37500D02*
D03*
X33400Y41000D02*
D03*
X32300Y48400D02*
D03*
X34700Y51100D02*
D03*
X64700Y138400D02*
D03*
X66100Y136000D02*
D03*
X70900Y132200D02*
D03*
X76800Y124200D02*
D03*
X79600Y133300D02*
D03*
X82000Y134300D02*
D03*
X73900Y130300D02*
D03*
X68100Y53250D02*
D03*
X40300Y54000D02*
D03*
X39800Y56100D02*
D03*
X80600Y90300D02*
D03*
X81800Y79900D02*
D03*
X76800Y75200D02*
D03*
X80400Y55500D02*
D03*
X103300Y83000D02*
D03*
X101100Y76500D02*
D03*
X104500Y76800D02*
D03*
X105300Y80500D02*
D03*
X102700Y79900D02*
D03*
X79900Y66800D02*
D03*
X81600Y68600D02*
D03*
X24900Y71300D02*
D03*
X21600Y71700D02*
D03*
X62800Y103800D02*
D03*
X57400Y12100D02*
D03*
Y14800D02*
D03*
X90300Y14200D02*
D03*
X92700Y14100D02*
D03*
X102900Y32500D02*
D03*
X113500Y14600D02*
D03*
X114800Y19400D02*
D03*
X110800Y71900D02*
D03*
X107600Y57600D02*
D03*
X109000Y48600D02*
D03*
X105300Y51200D02*
D03*
X109100Y62100D02*
D03*
X111800Y76000D02*
D03*
X90000Y54600D02*
D03*
X80400Y48200D02*
D03*
X80200Y26000D02*
D03*
X48900Y123400D02*
D03*
X41100Y127000D02*
D03*
X19900Y116100D02*
D03*
X5700Y121200D02*
D03*
X7600Y120000D02*
D03*
X5200Y100200D02*
D03*
X5700Y102700D02*
D03*
X11400Y67900D02*
D03*
Y69900D02*
D03*
X11500Y83500D02*
D03*
X87400Y90300D02*
D03*
X91200Y125700D02*
D03*
X87200Y126600D02*
D03*
X67500Y120500D02*
D03*
X66100Y118200D02*
D03*
X60500Y137400D02*
D03*
X54800Y137800D02*
D03*
X57200D02*
D03*
X37000Y137700D02*
D03*
X39300Y137600D02*
D03*
X95700Y119400D02*
D03*
X97800Y119100D02*
D03*
X102300Y101800D02*
D03*
X102600Y99300D02*
D03*
X95600Y57300D02*
D03*
X95700Y63100D02*
D03*
X87900Y56600D02*
D03*
X89200Y60900D02*
D03*
X85300Y66300D02*
D03*
X75800Y59800D02*
D03*
X75300Y56200D02*
D03*
X70800Y52000D02*
D03*
X71400Y58300D02*
D03*
X75400Y21500D02*
D03*
X78700Y20800D02*
D03*
X71400Y11100D02*
D03*
X74500Y17400D02*
D03*
X76900D02*
D03*
X90300Y5500D02*
D03*
X85900D02*
D03*
X88100D02*
D03*
X112300Y30200D02*
D03*
X106200Y10100D02*
D03*
X106000Y7800D02*
D03*
X105500Y20500D02*
D03*
X105600Y22500D02*
D03*
X109600Y28500D02*
D03*
X109000Y30600D02*
D03*
X106800Y29200D02*
D03*
X73400Y31200D02*
D03*
X73000Y42600D02*
D03*
X71400Y35100D02*
D03*
X74300Y33400D02*
D03*
X37100Y36000D02*
D03*
X4700Y83200D02*
D03*
X11300Y80800D02*
D03*
X3400Y24200D02*
D03*
X4800Y29500D02*
D03*
X3900Y36800D02*
D03*
X7200Y44500D02*
D03*
X34900Y47600D02*
D03*
X33900Y18200D02*
D03*
X40700D02*
D03*
X34000Y23300D02*
D03*
X40600Y23100D02*
D03*
X37200Y20300D02*
D03*
X36400Y40200D02*
D03*
X37700Y46700D02*
D03*
X36500Y43800D02*
D03*
X44266Y105301D02*
D03*
X41791Y102826D02*
D03*
X39316Y100352D02*
D03*
X36841Y102826D02*
D03*
X39316Y105301D02*
D03*
X41791Y107776D02*
D03*
X39316Y110251D02*
D03*
X34367Y105301D02*
D03*
X36841Y107776D02*
D03*
X57400Y25300D02*
D03*
X78900Y14500D02*
D03*
X19600Y108400D02*
D03*
X21400Y110400D02*
D03*
X17300Y97800D02*
D03*
X16800Y100300D02*
D03*
X18400Y102100D02*
D03*
X33500Y54300D02*
D03*
X46100Y29100D02*
D03*
X53700Y54100D02*
D03*
X32200Y90800D02*
D03*
X32800Y84300D02*
D03*
X26200Y84200D02*
D03*
X8500Y113100D02*
D03*
Y99200D02*
D03*
X26200Y5200D02*
D03*
X27285Y28485D02*
D03*
X35100Y6800D02*
D03*
X40200Y5700D02*
D03*
X30900Y6800D02*
D03*
X37200Y5600D02*
D03*
X25900Y33200D02*
D03*
X21600Y56500D02*
D03*
X7000Y94500D02*
D03*
X-4200Y105900D02*
D03*
X-5500Y104747D02*
D03*
X28700Y117600D02*
D03*
X55000Y111900D02*
D03*
X58800Y111100D02*
D03*
X56800Y109800D02*
D03*
X44200Y137700D02*
D03*
X100700Y112300D02*
D03*
X4200Y80800D02*
D03*
X27400Y91400D02*
D03*
X23900Y93300D02*
D03*
X29700Y91200D02*
D03*
X23200Y95600D02*
D03*
X93400Y28200D02*
D03*
X95200Y28200D02*
D03*
X21800Y50400D02*
D03*
X88100Y41800D02*
D03*
X99100Y41800D02*
D03*
X75100Y37600D02*
D03*
X21600Y54413D02*
D03*
X11600Y37300D02*
D03*
X14421Y34280D02*
D03*
X62100Y111300D02*
D03*
X54600Y117300D02*
D03*
X84800Y82800D02*
D03*
X68300Y80800D02*
D03*
X72600Y81400D02*
D03*
X71300Y84600D02*
D03*
X76300Y86800D02*
D03*
X55250Y96500D02*
D03*
X56900Y98200D02*
D03*
X85500Y48900D02*
D03*
X57757Y102050D02*
D03*
X58800Y100000D02*
D03*
X65000Y87400D02*
D03*
X52700Y118800D02*
D03*
X75500Y91500D02*
D03*
X59700Y78400D02*
D03*
X72000Y88100D02*
D03*
X78000Y82400D02*
D03*
X90800Y105200D02*
D03*
X90900Y109500D02*
D03*
X92500Y49300D02*
D03*
X81200Y109400D02*
D03*
X84761Y79661D02*
D03*
X89700Y114300D02*
D03*
X78900Y77900D02*
D03*
X69538Y71162D02*
D03*
X61600Y24600D02*
D03*
X54133Y61833D02*
D03*
X54100Y67300D02*
D03*
X54200Y57800D02*
D03*
X65300Y65500D02*
D03*
X65100Y35200D02*
D03*
X38400Y84400D02*
D03*
X65400Y51900D02*
D03*
X54200Y94300D02*
D03*
X51999Y91399D02*
D03*
X78700Y105400D02*
D03*
X46400Y123200D02*
D03*
X21500Y94000D02*
D03*
X53900Y32700D02*
D03*
X54000Y35800D02*
D03*
X19200Y112000D02*
D03*
X26400Y117100D02*
D03*
X24600Y115500D02*
D03*
X80500Y107200D02*
D03*
X22800Y113700D02*
D03*
X4400Y65800D02*
D03*
X4800Y72800D02*
D03*
X47300Y91400D02*
D03*
X49600D02*
D03*
X35300Y122700D02*
D03*
D78*
X13039Y46642D02*
D03*
Y23886D02*
D03*
D79*
X84284Y119811D02*
D03*
Y96189D02*
D03*
D80*
X37127Y20258D02*
D03*
D81*
X31217Y10417D02*
D03*
X33187D02*
D03*
X35157D02*
D03*
X37127D02*
D03*
X39097Y10417D02*
D03*
X41067D02*
D03*
X43037D02*
D03*
X43037Y30102D02*
D03*
X41067D02*
D03*
X39097D02*
D03*
X37127D02*
D03*
X35157Y30102D02*
D03*
X33187D02*
D03*
X31217D02*
D03*
D82*
X46970Y14349D02*
D03*
Y16319D02*
D03*
Y18289D02*
D03*
Y20259D02*
D03*
Y22229D02*
D03*
Y24199D02*
D03*
Y26169D02*
D03*
D83*
X27284Y26169D02*
D03*
Y24199D02*
D03*
Y22229D02*
D03*
X27284Y20259D02*
D03*
Y18289D02*
D03*
Y16319D02*
D03*
Y14349D02*
D03*
D84*
X63198Y131958D02*
D03*
X47056D02*
D03*
D85*
X18236Y42153D02*
D03*
Y40185D02*
D03*
Y38217D02*
D03*
Y36248D02*
D03*
Y34280D02*
D03*
Y32311D02*
D03*
Y30343D02*
D03*
Y28374D02*
D03*
D86*
Y47862D02*
D03*
Y44713D02*
D03*
Y25815D02*
D03*
Y22665D02*
D03*
D87*
X62005Y71084D02*
D03*
D88*
X58776Y66360D02*
D03*
Y57698D02*
D03*
Y53368D02*
D03*
Y49037D02*
D03*
Y40376D02*
D03*
Y36045D02*
D03*
Y31714D02*
D03*
Y44706D02*
D03*
Y62029D02*
D03*
D89*
X99800Y10061D02*
D03*
Y71084D02*
D03*
D90*
X62005Y13604D02*
D03*
D91*
X113135Y119135D02*
D03*
D92*
Y96865D02*
D03*
D93*
X96882Y129260D02*
D03*
X80740D02*
D03*
Y86740D02*
D03*
X96882D02*
D03*
D94*
X71685Y123748D02*
D03*
Y113807D02*
D03*
Y102193D02*
D03*
Y92252D02*
D03*
D95*
X14998Y62400D02*
D03*
X25500D02*
D03*
D96*
X-929Y86094D02*
D03*
Y78220D02*
D03*
Y70346D02*
D03*
Y62472D02*
D03*
D97*
X-1763Y117013D02*
D03*
X12017Y117013D02*
D03*
Y98903D02*
D03*
M02*
