M48
;Layer_Color=9474304
;FILE_FORMAT=2:5
INCH,LZ
;TYPE=PLATED
T1F00S00C0.00800
T3F00S00C0.02756
T4F00S00C0.03937
T5F00S00C0.06693
%
T01
X00034Y00242
X00048Y00295
X00039Y00368
X00116Y00373
X0014421Y003428
X00259Y00332
X0027285Y0028485
X0034Y00233
X00339Y00182
X00372Y00203
X00407Y00182
X00406Y00231
X00461Y00291
X00539Y00327
X0054Y00358
X00651Y00352
X00714Y00351
X00743Y00334
X00734Y00312
X00751Y00376
X0073Y00426
X00708Y0052
X00681Y005325
X00654Y00519
X00714Y00583
X00758Y00598
X00753Y00562
X00804Y00555
Y00482
X00855Y00489
X00925Y00493
X009Y00546
X00879Y00566
X00892Y00609
X00957Y00631
X00956Y00573
X00853Y00663
X00799Y00668
X00816Y00686
X00768Y00752
X00789Y00779
X00818Y00799
X0084761Y0079661
X00848Y00828
X0078Y00824
X00763Y00868
X00755Y00915
X00806Y00903
X00874
X0072Y00881
X00713Y00846
X00726Y00814
X00683Y00808
X0065Y00874
X00572Y00908
X0051999Y0091399
X00496Y00914
X00473
X00542Y00943
X005525Y00965
X00569Y00982
X00588Y01
X0057757Y010205
X00628Y01038
X00646Y01024
X00787Y01054
X00908Y01052
X0044266Y0105301
X0041791Y0102826
X0039316Y0100352
X0036841Y0102826
X0034367Y0105301
X0039316Y0105301
X00322Y00908
X00297Y00912
X00274Y00914
X00239Y00933
X00232Y00956
X00215Y0094
X00173Y00978
X00168Y01003
X00184Y01021
X00085Y00992
X00052Y01002
X00057Y01027
X0007Y00945
X00047Y00832
X00042Y00808
X00113
X00115Y00835
X00114Y00699
Y00679
X00044Y00658
X00048Y00728
X00216Y00717
X00249Y00713
X00262Y00842
X00328Y00843
X00384Y00844
X00513Y00846
X00597Y00784
X00541Y00673
X0054133Y0061833
X00542Y00578
X00537Y00541
X00403Y0054
X00398Y00561
X00335Y00543
X00347Y00511
X00349Y00476
X00323Y00484
X00377Y00467
X00365Y00438
X00364Y00402
X00334Y0041
X00342Y00375
X00371Y0036
X00218Y00504
X00216Y0054413
Y00565
X00072Y00445
X00262Y00052
X00309Y00068
X00351
X00372Y00056
X00402Y00057
X00574Y00121
Y00148
Y00253
X00616Y00246
X00754Y00215
X00787Y00208
X00769Y00174
X00745
X00789Y00145
X00714Y00111
X00859Y00055
X00881
X00903
Y00142
X00927Y00141
X00934Y00282
X00952Y00282
X00802Y0026
X00881Y00418
X00653Y00655
X0069538Y0071162
X-00055Y0104747
X01023Y01018
X01026Y00993
X01033Y0083
X01027Y00799
X01053Y00805
X01045Y00768
X01011Y00765
X01118Y0076
X01108Y00719
X01091Y00621
X01076Y00576
X01053Y00512
X0109Y00486
X00991Y00418
X01029Y00325
X01068Y00292
X01096Y00285
X0109Y00306
X01123Y00302
X01148Y00194
X01135Y00146
X01062Y00101
X0106Y00078
X01055Y00205
X01056Y00225
X01007Y01123
X00978Y01191
X00957Y01194
X00912Y01257
X00872Y01266
X00768Y01242
X00739Y01303
X00709Y01322
X00661Y0136
X00647Y01384
X00605Y01374
X00572Y01378
X00548
X00442Y01377
X00393Y01376
X0037Y01377
X00411Y0127
X00464Y01232
X00489Y01234
X00527Y01188
X00546Y01173
X0055Y01119
X00568Y01098
X00588Y01111
X00621Y01113
X00661Y01182
X00675Y01205
X00812Y01094
X00805Y01072
X00909Y01095
X00897Y01143
X0082Y01343
X00796Y01333
X00353Y01227
X00287Y01176
X00264Y01171
X00246Y01155
X00228Y01137
X00214Y01104
X00196Y01084
X00192Y0112
X00199Y01161
X00085Y01131
X00076Y012
X00057Y01212
X-00042Y01059
X0036841Y0107776
X0039316Y0110251
X0041791Y0107776
T03
X0013039Y0023886
Y0046642
T04
X010191Y0028565
Y0060061
T05
X0084284Y0096189
Y0119811
M30
