G04*
G04 #@! TF.GenerationSoftware,Altium Limited,Altium Designer,20.1.10 (176)*
G04*
G04 Layer_Color=65535*
%FSLAX25Y25*%
%MOIN*%
G70*
G04*
G04 #@! TF.SameCoordinates,F252A181-4E7B-4898-9581-9C64CF10C23C*
G04*
G04*
G04 #@! TF.FilePolarity,Positive*
G04*
G01*
G75*
%ADD10C,0.00600*%
%ADD11C,0.01181*%
%ADD12C,0.01000*%
%ADD13C,0.00787*%
%ADD14R,0.00700X0.01400*%
D10*
X67000Y31743D02*
X66707Y32450D01*
X66000Y32743D01*
X64400D02*
X63693Y32450D01*
X63400Y31743D01*
X63400Y26600D02*
X63693Y25893D01*
X64400Y25600D01*
X66000D02*
X66707Y25893D01*
X67000Y26600D01*
X67202Y133544D02*
X66495Y133837D01*
X65788Y133544D01*
X64657Y132413D02*
X64364Y131705D01*
X64657Y130998D01*
X68293Y127362D02*
X69000Y127069D01*
X69707Y127362D01*
X70838Y128493D02*
X71131Y129200D01*
X70838Y129907D01*
X48761Y133107D02*
X48469Y132400D01*
X48761Y131693D01*
X49893Y130561D02*
X50600Y130269D01*
X51307Y130561D01*
X54944Y134198D02*
X55237Y134905D01*
X54944Y135612D01*
X53813Y136743D02*
X53105Y137036D01*
X52398Y136743D01*
X45638Y80243D02*
X45931Y80950D01*
X45638Y81657D01*
X44507Y82788D02*
X43800Y83081D01*
X43093Y82788D01*
X39456Y79152D02*
X39163Y78445D01*
X39456Y77738D01*
X40587Y76607D02*
X41295Y76314D01*
X42002Y76607D01*
X5119Y114235D02*
X5826Y113942D01*
X6533Y114235D01*
X7665Y115366D02*
X7958Y116074D01*
X7665Y116781D01*
X4028Y120418D02*
X3321Y120711D01*
X2614Y120418D01*
X1483Y119286D02*
X1190Y118579D01*
X1483Y117872D01*
X8557Y102258D02*
X9264Y101965D01*
X9971Y102258D01*
X7425Y104803D02*
X7133Y104096D01*
X7425Y103389D01*
X12477Y108440D02*
X11769Y108732D01*
X11062Y108440D01*
X13608Y105894D02*
X13901Y106601D01*
X13608Y107308D01*
X18150Y81819D02*
X18857Y81526D01*
X19565Y81819D01*
X17019Y84364D02*
X16726Y83657D01*
X17019Y82950D01*
X22070Y88001D02*
X21363Y88294D01*
X20656Y88001D01*
X23201Y85455D02*
X23494Y86162D01*
X23201Y86870D01*
X67243Y105687D02*
X67536Y106395D01*
X67243Y107102D01*
X64698Y104556D02*
X65405Y104263D01*
X66112Y104556D01*
X61062Y109607D02*
X60769Y108900D01*
X61062Y108193D01*
X63607Y110739D02*
X62900Y111031D01*
X62193Y110739D01*
X-992Y116670D02*
X-1285Y115963D01*
X-992Y115256D01*
X1553Y117801D02*
X846Y118094D01*
X139Y117801D01*
X5190Y112750D02*
X5483Y113457D01*
X5190Y114164D01*
X2644Y111619D02*
X3351Y111326D01*
X4059Y111619D01*
X-3538Y114124D02*
X-3830Y113417D01*
X-3538Y112710D01*
X-992Y115256D02*
X-1699Y115549D01*
X-2406Y115256D01*
X2644Y110205D02*
X2937Y110912D01*
X2644Y111619D01*
X99Y109073D02*
X806Y108780D01*
X1513Y109073D01*
X92000Y115100D02*
X92293Y114393D01*
X93000Y114100D01*
Y117700D02*
X92293Y117407D01*
X92000Y116700D01*
X99143Y116700D02*
X98850Y117407D01*
X98143Y117700D01*
Y114100D02*
X98850Y114393D01*
X99143Y115100D01*
X92000Y100700D02*
X92293Y99993D01*
X93000Y99700D01*
Y103300D02*
X92293Y103007D01*
X92000Y102300D01*
X99143Y102300D02*
X98850Y103007D01*
X98143Y103300D01*
Y99700D02*
X98850Y99993D01*
X99143Y100700D01*
X500Y86100D02*
X-207Y85807D01*
X-500Y85100D01*
X3100D02*
X2807Y85807D01*
X2100Y86100D01*
X2100Y78957D02*
X2807Y79250D01*
X3100Y79957D01*
X-500D02*
X-207Y79250D01*
X500Y78957D01*
X44600Y128557D02*
X45307Y128850D01*
X45600Y129557D01*
X42000D02*
X42293Y128850D01*
X43000Y128557D01*
X43000Y135700D02*
X42293Y135407D01*
X42000Y134700D01*
X45600D02*
X45307Y135407D01*
X44600Y135700D01*
X37400Y128457D02*
X38107Y128750D01*
X38400Y129457D01*
X34800D02*
X35093Y128750D01*
X35800Y128457D01*
X35800Y135600D02*
X35093Y135307D01*
X34800Y134600D01*
X38400D02*
X38107Y135307D01*
X37400Y135600D01*
X38743Y58400D02*
X38450Y59107D01*
X37743Y59400D01*
Y55800D02*
X38450Y56093D01*
X38743Y56800D01*
X31600Y56800D02*
X31893Y56093D01*
X32600Y55800D01*
Y59400D02*
X31893Y59107D01*
X31600Y58400D01*
X38743Y62000D02*
X38450Y62707D01*
X37743Y63000D01*
Y59400D02*
X38450Y59693D01*
X38743Y60400D01*
X31600Y60400D02*
X31893Y59693D01*
X32600Y59400D01*
Y63000D02*
X31893Y62707D01*
X31600Y62000D01*
X13257Y73300D02*
X13550Y72593D01*
X14257Y72300D01*
Y75900D02*
X13550Y75607D01*
X13257Y74900D01*
X20400Y74900D02*
X20107Y75607D01*
X19400Y75900D01*
Y72300D02*
X20107Y72593D01*
X20400Y73300D01*
X13273Y69642D02*
X13566Y68935D01*
X14273Y68642D01*
Y72242D02*
X13566Y71949D01*
X13273Y71242D01*
X20416Y71241D02*
X20123Y71948D01*
X19416Y72241D01*
Y68641D02*
X20123Y68934D01*
X20416Y69641D01*
X104700Y14900D02*
X104407Y15607D01*
X103700Y15900D01*
Y12300D02*
X104407Y12593D01*
X104700Y13300D01*
X97557Y13300D02*
X97850Y12593D01*
X98557Y12300D01*
Y15900D02*
X97850Y15607D01*
X97557Y14900D01*
X104700Y11300D02*
X104407Y12007D01*
X103700Y12300D01*
Y8700D02*
X104407Y8993D01*
X104700Y9700D01*
X97557Y9700D02*
X97850Y8993D01*
X98557Y8700D01*
Y12300D02*
X97850Y12007D01*
X97557Y11300D01*
X86100Y27400D02*
X86393Y26693D01*
X87100Y26400D01*
Y30000D02*
X86393Y29707D01*
X86100Y29000D01*
X93243Y29000D02*
X92950Y29707D01*
X92243Y30000D01*
Y26400D02*
X92950Y26693D01*
X93243Y27400D01*
X70600Y25557D02*
Y28357D01*
X67000Y29900D02*
Y32700D01*
X67000Y25557D02*
X70600D01*
X67000D02*
Y28357D01*
X67000Y32700D02*
X70600D01*
Y29900D02*
Y32700D01*
X64400Y32743D02*
X66000D01*
X63400Y29943D02*
Y31743D01*
X67000Y29943D02*
X67000Y31743D01*
X64400Y25600D02*
X66000D01*
X67000Y26600D02*
Y28400D01*
X63400Y26600D02*
Y28400D01*
Y25700D02*
Y28500D01*
X59800Y32843D02*
X59800Y30043D01*
X59800Y25700D02*
X63400D01*
X59800D02*
Y28500D01*
X59800Y32843D02*
X63400Y32843D01*
Y30043D02*
Y32843D01*
X47700Y23700D02*
X50500Y23700D01*
X52043Y27300D02*
X54843D01*
X47700Y23700D02*
Y27300D01*
X50500D01*
X54843Y27300D02*
X54843Y23700D01*
X52043D02*
X54843D01*
X37200Y8600D02*
X37200Y11400D01*
X33600Y12943D02*
Y15743D01*
X33600Y8600D02*
X37200D01*
X33600D02*
Y11400D01*
X33600Y15743D02*
X37200D01*
Y12943D02*
Y15743D01*
X114000Y31957D02*
Y34757D01*
X110400Y36300D02*
Y39100D01*
X110400Y31957D02*
X114000D01*
X110400D02*
Y34757D01*
X110400Y39100D02*
X114000D01*
Y36300D02*
Y39100D01*
X88200Y33800D02*
X89200Y33800D01*
X87800Y32400D02*
Y35200D01*
Y32400D02*
X89200Y33800D01*
X87800Y35200D02*
X89200Y33800D01*
X89500Y32300D02*
Y35300D01*
X90777Y35800D02*
X93400D01*
X94400Y34800D01*
Y32800D02*
Y34800D01*
X90777Y31800D02*
X93400D01*
X94400Y32800D01*
X83200Y35800D02*
X90777D01*
X83200Y31800D02*
X90777Y31800D01*
X83200Y31800D02*
Y35800D01*
X64657Y132413D02*
X65788Y133544D01*
X64657Y130998D02*
X65929Y129726D01*
X67202Y133544D02*
X68475Y132271D01*
X69707Y127362D02*
X70838Y128493D01*
X69566Y131180D02*
X70838Y129907D01*
X67020Y128634D02*
X68293Y127362D01*
X48761Y131693D02*
X49893Y130561D01*
X51307D02*
X52580Y131834D01*
X48761Y133107D02*
X50034Y134380D01*
X53813Y136743D02*
X54944Y135612D01*
X51126Y135471D02*
X52398Y136743D01*
X53671Y132925D02*
X54944Y134198D01*
X44507Y82788D02*
X45638Y81657D01*
X41820Y81516D02*
X43093Y82788D01*
X44366Y78970D02*
X45638Y80243D01*
X39456Y77738D02*
X40587Y76607D01*
X42002D02*
X43274Y77879D01*
X39456Y79152D02*
X40729Y80425D01*
X39220Y84016D02*
X41200Y85996D01*
X38695Y78399D02*
X40674Y80379D01*
X41200Y85996D02*
X43746Y83450D01*
X41766Y81470D02*
X43746Y83450D01*
X36149Y80945D02*
X38695Y78399D01*
X36149Y80945D02*
X38129Y82925D01*
X6533Y114235D02*
X7665Y115366D01*
X6392Y118053D02*
X7665Y116781D01*
X3847Y115508D02*
X5119Y114235D01*
X1483Y119286D02*
X2614Y120418D01*
X1483Y117872D02*
X2756Y116599D01*
X4028Y120418D02*
X5301Y119145D01*
X68409Y85809D02*
X80527Y73692D01*
X68409Y85809D02*
X83101Y100501D01*
X95218Y88384D01*
X80527Y73692D02*
X95218Y88384D01*
X52874Y69933D02*
X59945Y62862D01*
X52874Y69933D02*
X67016Y84075D01*
X74087Y77004D01*
X59945Y62862D02*
X74087Y77004D01*
X83200Y35800D02*
Y39800D01*
Y35800D02*
X90777Y35800D01*
X83200Y39800D02*
X90777D01*
X93400Y35800D02*
X94400Y36800D01*
X90777Y35800D02*
X93400D01*
X94400Y36800D02*
Y38800D01*
X93400Y39800D02*
X94400Y38800D01*
X90777Y39800D02*
X93400D01*
X89500Y36300D02*
Y39300D01*
X87800Y39200D02*
X89200Y37800D01*
X87800Y36400D02*
X89200Y37800D01*
X87800Y36400D02*
Y39200D01*
X88200Y37800D02*
X89200Y37800D01*
X83200Y43800D02*
Y47800D01*
Y43800D02*
X90777Y43800D01*
X83200Y47800D02*
X90777D01*
X93400Y43800D02*
X94400Y44800D01*
X90777Y43800D02*
X93400D01*
X94400Y44800D02*
Y46800D01*
X93400Y47800D02*
X94400Y46800D01*
X90777Y47800D02*
X93400D01*
X89500Y44300D02*
Y47300D01*
X87800Y47200D02*
X89200Y45800D01*
X87800Y44400D02*
X89200Y45800D01*
X87800Y44400D02*
Y47200D01*
X88200Y45800D02*
X89200Y45800D01*
X83200Y39800D02*
Y43800D01*
Y39800D02*
X90777Y39800D01*
X83200Y43800D02*
X90777D01*
X93400Y39800D02*
X94400Y40800D01*
X90777Y39800D02*
X93400D01*
X94400Y40800D02*
Y42800D01*
X93400Y43800D02*
X94400Y42800D01*
X90777Y43800D02*
X93400D01*
X89500Y40300D02*
Y43300D01*
X87800Y43200D02*
X89200Y41800D01*
X87800Y40400D02*
X89200Y41800D01*
X87800Y40400D02*
Y43200D01*
X88200Y41800D02*
X89200Y41800D01*
X25429Y80682D02*
X27408Y82662D01*
X24863Y85208D02*
X27408Y82662D01*
X19812Y80157D02*
X21792Y82137D01*
X19812Y80157D02*
X22357Y77612D01*
X22883Y83228D02*
X24863Y85208D01*
X22357Y77612D02*
X24337Y79592D01*
X68100Y116646D02*
X70080Y114666D01*
X65554Y114100D02*
X68100Y116646D01*
X68625Y111029D02*
X70605Y109049D01*
X73151Y111594D01*
X65554Y114100D02*
X67534Y112120D01*
X71171Y113574D02*
X73151Y111594D01*
X65500Y114046D02*
X67480Y112066D01*
X62954Y111500D02*
X65500Y114046D01*
X66025Y108429D02*
X68005Y106449D01*
X70551Y108994D01*
X62954Y111500D02*
X64934Y109520D01*
X68571Y110974D02*
X70551Y108994D01*
X92000Y114100D02*
X94800D01*
X92000Y110500D02*
Y114100D01*
X96343Y110500D02*
X99143D01*
Y114100D01*
X92000Y110500D02*
X94800D01*
X96343Y114100D02*
X99143D01*
X92000Y106900D02*
X94800D01*
X92000Y103300D02*
Y106900D01*
X96343Y103300D02*
X99143D01*
Y106900D01*
X92000Y103300D02*
X94800D01*
X96343Y106900D02*
X99143D01*
X42000Y132900D02*
Y135700D01*
X38400D02*
X42000D01*
X38400Y128557D02*
Y131357D01*
Y128557D02*
X42000D01*
X38400Y132900D02*
Y135700D01*
X42000Y128557D02*
Y131357D01*
X92000Y110500D02*
X94800D01*
X92000Y106900D02*
Y110500D01*
X96343Y106900D02*
X99143D01*
Y110500D01*
X92000Y106900D02*
X94800D01*
X96343Y110500D02*
X99143D01*
X2571Y95325D02*
X4551Y97305D01*
X2005Y99851D02*
X4551Y97305D01*
X-3046Y94800D02*
X-1066Y96780D01*
X-3046Y94800D02*
X-500Y92254D01*
X26Y97871D02*
X2005Y99851D01*
X-500Y92254D02*
X1480Y94234D01*
X31557Y70200D02*
X34357D01*
X31557Y66600D02*
Y70200D01*
X35900Y66600D02*
X38700D01*
Y70200D01*
X31557Y66600D02*
X34357D01*
X35900Y70200D02*
X38700D01*
X17557Y35000D02*
X20357D01*
X17557Y31400D02*
Y35000D01*
X21900Y31400D02*
X24700D01*
Y35000D01*
X17557Y31400D02*
X20357D01*
X21900Y35000D02*
X24700Y35000D01*
X101900Y15900D02*
X104700D01*
Y19500D01*
X97557Y19500D02*
X100357D01*
X97557Y15900D02*
Y19500D01*
X101900Y19500D02*
X104700D01*
X97557Y15900D02*
X100357Y15900D01*
X31557Y66600D02*
X34357D01*
X31557Y63000D02*
Y66600D01*
X35900Y63000D02*
X38700D01*
Y66600D01*
X31557Y63000D02*
X34357D01*
X35900Y66600D02*
X38700D01*
X97557Y23100D02*
X100357D01*
X97557Y19500D02*
Y23100D01*
X101900Y19500D02*
X104700D01*
Y23100D01*
X97557Y19500D02*
X100357D01*
X101900Y23100D02*
X104700D01*
X16643Y115000D02*
Y118600D01*
X12571Y115000D02*
X13571D01*
X12572Y118600D02*
X13572Y118600D01*
X9500Y115000D02*
X10900D01*
X9500Y118600D02*
X10900D01*
X9500Y115000D02*
Y118600D01*
X15243Y115000D02*
X16643D01*
X15243Y118600D02*
X16643D01*
X7425Y104803D02*
X8698Y106076D01*
X9971Y102258D02*
X11244Y103530D01*
X7425Y103389D02*
X8557Y102258D01*
X12335Y104621D02*
X13608Y105894D01*
X9789Y107167D02*
X11062Y108440D01*
X12477D02*
X13608Y107308D01*
X17019Y84364D02*
X18292Y85637D01*
X19565Y81819D02*
X20837Y83092D01*
X17019Y82950D02*
X18150Y81819D01*
X21928Y84183D02*
X23201Y85455D01*
X19383Y86728D02*
X20656Y88001D01*
X22070D02*
X23201Y86870D01*
X63425Y105829D02*
X64698Y104556D01*
X65971Y108374D02*
X67243Y107102D01*
X66112Y104556D02*
X67243Y105687D01*
X63607Y110739D02*
X64880Y109466D01*
X61062Y108193D02*
X62334Y106920D01*
X61062Y109607D02*
X62193Y110739D01*
X1553Y117801D02*
X2826Y116528D01*
X-992Y115256D02*
X281Y113983D01*
X-992Y116670D02*
X139Y117801D01*
X1372Y112892D02*
X2644Y111619D01*
X3917Y115437D02*
X5190Y114164D01*
X4059Y111619D02*
X5190Y112750D01*
X-992Y115256D02*
X281Y113983D01*
X-3538Y112710D02*
X-2265Y111437D01*
X-3538Y114124D02*
X-2406Y115256D01*
X-1174Y110346D02*
X99Y109073D01*
X1372Y112892D02*
X2644Y111619D01*
X1513Y109073D02*
X2644Y110205D01*
X93000Y117700D02*
X94800D01*
X93000Y114100D02*
X94800D01*
X92000Y115100D02*
Y116700D01*
X96343Y114100D02*
X98143Y114100D01*
X96343Y117700D02*
X98143D01*
X99143Y115100D02*
Y116700D01*
X93000Y103300D02*
X94800D01*
X93000Y99700D02*
X94800D01*
X92000Y100700D02*
Y102300D01*
X96343Y99700D02*
X98143Y99700D01*
X96343Y103300D02*
X98143D01*
X99143Y100700D02*
Y102300D01*
X3100Y83300D02*
Y85100D01*
X-500Y83300D02*
Y85100D01*
X500Y86100D02*
X2100D01*
X-500Y79957D02*
X-500Y81757D01*
X3100Y79957D02*
Y81757D01*
X500Y78957D02*
X2100D01*
X42000Y129557D02*
Y131357D01*
X45600Y129557D02*
Y131357D01*
X43000Y128557D02*
X44600D01*
X45600Y132900D02*
X45600Y134700D01*
X42000Y132900D02*
Y134700D01*
X43000Y135700D02*
X44600D01*
X34800Y129457D02*
Y131257D01*
X38400Y129457D02*
Y131257D01*
X35800Y128457D02*
X37400D01*
X38400Y132800D02*
X38400Y134600D01*
X34800Y132800D02*
Y134600D01*
X35800Y135600D02*
X37400D01*
X35943Y55800D02*
X37743D01*
X35943Y59400D02*
X37743D01*
X38743Y56800D02*
Y58400D01*
X32600Y59400D02*
X34400D01*
X32600Y55800D02*
X34400Y55800D01*
X31600Y56800D02*
Y58400D01*
X35943Y59400D02*
X37743D01*
X35943Y63000D02*
X37743D01*
X38743Y60400D02*
X38743Y62000D01*
X32600Y63000D02*
X34400D01*
X32600Y59400D02*
X34400D01*
X31600Y60400D02*
Y62000D01*
X14257Y75900D02*
X16057D01*
X14257Y72300D02*
X16057D01*
X13257Y73300D02*
Y74900D01*
X17600Y72300D02*
X19400Y72300D01*
X17600Y75900D02*
X19400D01*
X20400Y73300D02*
Y74900D01*
X14273Y72242D02*
X16073Y72242D01*
X14273Y68642D02*
X16073D01*
X13273Y69642D02*
Y71242D01*
X17616Y68641D02*
X19416Y68641D01*
X17616Y72241D02*
X19416Y72241D01*
X20416Y69641D02*
Y71241D01*
X101900Y12300D02*
X103700D01*
X101900Y15900D02*
X103700D01*
X104700Y13300D02*
Y14900D01*
X98557Y15900D02*
X100357Y15900D01*
X98557Y12300D02*
X100357D01*
X97557Y13300D02*
Y14900D01*
X101900Y8700D02*
X103700D01*
X101900Y12300D02*
X103700D01*
X104700Y9700D02*
Y11300D01*
X98557Y12300D02*
X100357Y12300D01*
X98557Y8700D02*
X100357D01*
X97557Y9700D02*
Y11300D01*
X87100Y30000D02*
X88900D01*
X87100Y26400D02*
X88900D01*
X86100Y27400D02*
Y29000D01*
X90443Y26400D02*
X92243Y26400D01*
X90443Y30000D02*
X92243D01*
X93243Y27400D02*
Y29000D01*
X106900Y9218D02*
X107000D01*
X106200Y9918D02*
X106900Y9218D01*
X110500D02*
X111200Y9918D01*
X110400Y9218D02*
X110500D01*
X106200Y17218D02*
Y21118D01*
X106300Y10218D02*
X111100D01*
X111200Y9918D02*
Y14318D01*
X107059Y9218D02*
X110241D01*
X111200Y17218D02*
Y21118D01*
X106300D02*
X111100D01*
X106200Y9918D02*
Y14318D01*
X107000Y9218D02*
X107059D01*
X110241D02*
X110400D01*
X53491Y130045D02*
X54976Y131530D01*
X53986Y123469D02*
X56602Y120853D01*
X62966Y120428D02*
X64592Y122055D01*
X61481Y131106D02*
X64168Y128419D01*
X61481Y131106D02*
X62330Y130257D01*
X31201Y11100D02*
X31867D01*
X31534D01*
Y13100D01*
X31201Y12766D01*
X32867D02*
X33200Y13100D01*
X33867D01*
X34200Y12766D01*
Y11434D01*
X33867Y11100D01*
X33200D01*
X32867Y11434D01*
Y12766D01*
X34866Y13100D02*
Y11100D01*
Y11767D01*
X36199Y13100D01*
X35199Y12100D01*
X36199Y11100D01*
X49001Y25200D02*
X49667D01*
X49334D01*
Y27200D01*
X49001Y26866D01*
X50667D02*
X51000Y27200D01*
X51667D01*
X52000Y26866D01*
Y25534D01*
X51667Y25200D01*
X51000D01*
X50667Y25534D01*
Y26866D01*
X52666Y27200D02*
Y25200D01*
Y25867D01*
X53999Y27200D01*
X53000Y26200D01*
X53999Y25200D01*
X40468Y15867D02*
X40135Y16200D01*
X39468D01*
X39135Y15867D01*
Y15533D01*
X39468Y15200D01*
X40135D01*
X40468Y14867D01*
Y14534D01*
X40135Y14200D01*
X39468D01*
X39135Y14534D01*
X42467Y15867D02*
X42134Y16200D01*
X41468D01*
X41135Y15867D01*
Y15533D01*
X41468Y15200D01*
X42134D01*
X42467Y14867D01*
Y14534D01*
X42134Y14200D01*
X41468D01*
X41135Y14534D01*
X43134Y15867D02*
X43467Y16200D01*
X44134D01*
X44467Y15867D01*
Y15533D01*
X44134Y15200D01*
X44467Y14867D01*
Y14534D01*
X44134Y14200D01*
X43467D01*
X43134Y14534D01*
Y14867D01*
X43467Y15200D01*
X43134Y15533D01*
Y15867D01*
X43467Y15200D02*
X44134D01*
X45133Y15867D02*
X45467Y16200D01*
X46133D01*
X46466Y15867D01*
Y14534D01*
X46133Y14200D01*
X45467D01*
X45133Y14534D01*
Y15867D01*
X48465Y16200D02*
X47133D01*
Y15200D01*
X47799Y15533D01*
X48132D01*
X48465Y15200D01*
Y14534D01*
X48132Y14200D01*
X47466D01*
X47133Y14534D01*
X49132Y15867D02*
X49465Y16200D01*
X50132D01*
X50465Y15867D01*
Y14534D01*
X50132Y14200D01*
X49465D01*
X49132Y14534D01*
Y15867D01*
X53468Y12167D02*
X53135Y12500D01*
X52468D01*
X52135Y12167D01*
Y11833D01*
X52468Y11500D01*
X53135D01*
X53468Y11167D01*
Y10834D01*
X53135Y10500D01*
X52468D01*
X52135Y10834D01*
X55467Y12167D02*
X55134Y12500D01*
X54468D01*
X54135Y12167D01*
Y11833D01*
X54468Y11500D01*
X55134D01*
X55467Y11167D01*
Y10834D01*
X55134Y10500D01*
X54468D01*
X54135Y10834D01*
X56134Y12167D02*
X56467Y12500D01*
X57134D01*
X57467Y12167D01*
Y11833D01*
X57134Y11500D01*
X57467Y11167D01*
Y10834D01*
X57134Y10500D01*
X56467D01*
X56134Y10834D01*
Y11167D01*
X56467Y11500D01*
X56134Y11833D01*
Y12167D01*
X56467Y11500D02*
X57134D01*
X58133Y12167D02*
X58467Y12500D01*
X59133D01*
X59466Y12167D01*
Y10834D01*
X59133Y10500D01*
X58467D01*
X58133Y10834D01*
Y12167D01*
X61466Y12500D02*
X60133D01*
Y11500D01*
X60799Y11833D01*
X61132D01*
X61466Y11500D01*
Y10834D01*
X61132Y10500D01*
X60466D01*
X60133Y10834D01*
X62132Y12167D02*
X62465Y12500D01*
X63132D01*
X63465Y12167D01*
Y10834D01*
X63132Y10500D01*
X62465D01*
X62132Y10834D01*
Y12167D01*
X-6405Y3426D02*
Y1427D01*
X-5072D01*
X-3073Y3093D02*
X-3406Y3426D01*
X-4072D01*
X-4405Y3093D01*
Y1760D01*
X-4072Y1427D01*
X-3406D01*
X-3073Y1760D01*
X-2406Y3426D02*
Y1427D01*
X-1406D01*
X-1073Y1760D01*
Y3093D01*
X-1406Y3426D01*
X-2406D01*
X-407Y1427D02*
X260D01*
X-73D01*
Y3426D01*
X-407Y3093D01*
X1259Y1427D02*
Y1760D01*
X1593D01*
Y1427D01*
X1259D01*
X4259Y3426D02*
X2926D01*
Y2427D01*
X3592Y2760D01*
X3925D01*
X4259Y2427D01*
Y1760D01*
X3925Y1427D01*
X3259D01*
X2926Y1760D01*
X5925Y1427D02*
Y3426D01*
X4925Y2427D01*
X6258D01*
X6924D02*
X8257D01*
X8924Y1427D02*
X9590D01*
X9257D01*
Y3426D01*
X8924Y3093D01*
X11590Y1427D02*
Y3426D01*
X10590Y2427D01*
X11923D01*
X12589Y1427D02*
Y3426D01*
X13589D01*
X13922Y3093D01*
Y2427D01*
X13589Y2093D01*
X12589D01*
X83369Y32800D02*
X84035D01*
X83702D01*
Y34800D01*
X83369Y34466D01*
X85035Y32800D02*
Y34800D01*
X86368Y32800D01*
Y34800D01*
X88034Y32800D02*
Y34800D01*
X87034Y33800D01*
X88367D01*
X89033Y32800D02*
X89700D01*
X89367D01*
Y34800D01*
X89033Y34466D01*
X91699Y32800D02*
Y34800D01*
X90699Y33800D01*
X92032D01*
X92699Y34466D02*
X93032Y34800D01*
X93699D01*
X94032Y34466D01*
Y34133D01*
X93699Y33800D01*
X94032Y33467D01*
Y33134D01*
X93699Y32800D01*
X93032D01*
X92699Y33134D01*
Y33467D01*
X93032Y33800D01*
X92699Y34133D01*
Y34466D01*
X93032Y33800D02*
X93699D01*
X-4305Y125327D02*
Y126660D01*
X-3638Y127326D01*
X-2972Y126660D01*
Y125327D01*
Y126327D01*
X-4305D01*
X-2305Y125327D02*
Y127326D01*
X-972Y125327D01*
Y127326D01*
X-306D02*
X1027D01*
X360D01*
Y125327D01*
X37124Y94502D02*
X36181Y93559D01*
X37595Y92145D01*
X38537Y93088D01*
X36888Y92852D02*
X37359Y93324D01*
X38773Y95680D02*
X38302D01*
X37831Y95209D01*
X37831Y94737D01*
X38066Y94502D01*
X38537D01*
X39009Y94973D01*
X39480D01*
X39716Y94737D01*
Y94266D01*
X39244Y93795D01*
X38773D01*
X40423Y94973D02*
X39009Y96387D01*
X39716Y97094D01*
X40187D01*
X40658Y96622D01*
X40658Y96151D01*
X39951Y95444D01*
X40658Y97565D02*
X40658Y98036D01*
X41129Y98507D01*
X41601D01*
X41836Y98272D01*
Y97800D01*
X41601Y97565D01*
X41836Y97800D01*
X42308D01*
X42543Y97565D01*
Y97094D01*
X42072Y96622D01*
X41601D01*
X44193Y98743D02*
X43250Y97800D01*
Y99686D01*
X43014Y99921D01*
X42543D01*
X42072Y99450D01*
X42072Y98979D01*
X43957Y99921D02*
X44899Y100864D01*
X44664Y102042D02*
X46078Y100628D01*
X46784Y101335D01*
Y101806D01*
X45842Y102749D01*
X45371D01*
X44664Y102042D01*
X46313Y103220D02*
Y103691D01*
X46784Y104162D01*
X47256D01*
X48198Y103220D01*
X48198Y102749D01*
X47727Y102277D01*
X47256D01*
X46313Y103220D01*
X47491Y104869D02*
X48905Y103455D01*
Y104398D01*
X49848D01*
X48434Y105812D01*
X48905Y106283D02*
X50319Y104869D01*
X51026Y105576D01*
X51026Y106047D01*
X50083Y106990D01*
X49612D01*
X48905Y106283D01*
X52439Y107461D02*
X51497Y108404D01*
X51026D01*
X50555Y107932D01*
Y107461D01*
X51497Y106519D01*
X51968D01*
X52439Y106990D01*
X51733Y107226D02*
X52675D01*
X52439Y106990D02*
X52439Y107461D01*
X52675Y110053D02*
X52439Y109346D01*
Y108404D01*
X52911Y107932D01*
X53382D01*
X53853Y108404D01*
Y108875D01*
X53618Y109110D01*
X53146D01*
X52439Y108404D01*
X9440Y102726D02*
X9911Y103197D01*
X9675Y102962D01*
X8262Y104375D01*
X8262Y103904D01*
X9440Y105082D02*
X9440Y105553D01*
X9911Y106025D01*
X10382D01*
X11325Y105082D01*
Y104611D01*
X10853Y104140D01*
X10382D01*
X9440Y105082D01*
X12739Y106025D02*
X11325Y107439D01*
Y106025D01*
X12267Y106967D01*
X55395Y125027D02*
Y127026D01*
X54395Y126026D01*
X55728D01*
X56395Y126693D02*
X56728Y127026D01*
X57394D01*
X57727Y126693D01*
Y125360D01*
X57394Y125027D01*
X56728D01*
X56395Y125360D01*
Y126693D01*
X58394Y125027D02*
Y127026D01*
X59060Y126360D01*
X59727Y127026D01*
Y125027D01*
X60393Y127026D02*
Y125027D01*
Y126026D01*
X61726D01*
Y127026D01*
Y125027D01*
X62393Y127026D02*
X63726D01*
Y126693D01*
X62393Y125360D01*
Y125027D01*
X63726D01*
X58195Y71827D02*
Y73826D01*
X59195D01*
X59528Y73493D01*
Y72826D01*
X59195Y72493D01*
X58195D01*
X61528Y73493D02*
X61194Y73826D01*
X60528D01*
X60195Y73493D01*
Y73160D01*
X60528Y72826D01*
X61194D01*
X61528Y72493D01*
Y72160D01*
X61194Y71827D01*
X60528D01*
X60195Y72160D01*
X62194Y71827D02*
Y73826D01*
X63194D01*
X63527Y73493D01*
Y72826D01*
X63194Y72493D01*
X62194D01*
X62860D02*
X63527Y71827D01*
X64193D02*
Y73160D01*
X64860Y73826D01*
X65526Y73160D01*
Y71827D01*
Y72826D01*
X64193D01*
X66193Y71827D02*
Y73826D01*
X66859Y73160D01*
X67526Y73826D01*
Y71827D01*
X78128Y87726D02*
X76795D01*
Y86726D01*
X77462D01*
X76795D01*
Y85727D01*
X78795Y87726D02*
Y85727D01*
X80128D01*
X80794D02*
Y87060D01*
X81460Y87726D01*
X82127Y87060D01*
Y85727D01*
Y86726D01*
X80794D01*
X84126Y87393D02*
X83793Y87726D01*
X83127D01*
X82793Y87393D01*
Y87060D01*
X83127Y86726D01*
X83793D01*
X84126Y86393D01*
Y86060D01*
X83793Y85727D01*
X83127D01*
X82793Y86060D01*
X84793Y87726D02*
Y85727D01*
Y86726D01*
X86126D01*
Y87726D01*
Y85727D01*
X10714Y64500D02*
Y66500D01*
X11714D01*
X12047Y66167D01*
Y65500D01*
X11714Y65167D01*
X10714D01*
X11381D02*
X12047Y64500D01*
X12714Y66500D02*
X14047D01*
X13380D01*
Y64500D01*
X14713Y64834D02*
X15046Y64500D01*
X15713D01*
X16046Y64834D01*
Y66167D01*
X15713Y66500D01*
X15046D01*
X14713Y66167D01*
Y65833D01*
X15046Y65500D01*
X16046D01*
X16713Y66167D02*
X17046Y66500D01*
X17712D01*
X18045Y66167D01*
Y64834D01*
X17712Y64500D01*
X17046D01*
X16713Y64834D01*
Y66167D01*
X18712Y64500D02*
X19378D01*
X19045D01*
Y66500D01*
X18712Y66167D01*
X20378D02*
X20711Y66500D01*
X21378D01*
X21711Y66167D01*
Y65833D01*
X21378Y65500D01*
X21044D01*
X21378D01*
X21711Y65167D01*
Y64834D01*
X21378Y64500D01*
X20711D01*
X20378Y64834D01*
X22377Y65500D02*
X23710D01*
X24377Y66167D02*
X24710Y66500D01*
X25376D01*
X25710Y66167D01*
Y65833D01*
X25376Y65500D01*
X25043D01*
X25376D01*
X25710Y65167D01*
Y64834D01*
X25376Y64500D01*
X24710D01*
X24377Y64834D01*
X26376Y66167D02*
X26709Y66500D01*
X27376D01*
X27709Y66167D01*
Y65833D01*
X27376Y65500D01*
X27042D01*
X27376D01*
X27709Y65167D01*
Y64834D01*
X27376Y64500D01*
X26709D01*
X26376Y64834D01*
X29708Y66167D02*
X29375Y66500D01*
X28709D01*
X28375Y66167D01*
Y64834D01*
X28709Y64500D01*
X29375D01*
X29708Y64834D01*
Y65500D01*
X29042D01*
X30375Y66500D02*
Y64500D01*
X31374D01*
X31708Y64834D01*
Y65167D01*
X31374Y65500D01*
X30375D01*
X31374D01*
X31708Y65833D01*
Y66167D01*
X31374Y66500D01*
X30375D01*
X81396Y23059D02*
Y25058D01*
X82062Y24392D01*
X82729Y25058D01*
Y23059D01*
X84728Y24725D02*
X84395Y25058D01*
X83728D01*
X83395Y24725D01*
Y23392D01*
X83728Y23059D01*
X84395D01*
X84728Y23392D01*
X85395Y23059D02*
Y25058D01*
X86394D01*
X86727Y24725D01*
Y24058D01*
X86394Y23725D01*
X85395D01*
X87394Y25058D02*
X88727D01*
Y24725D01*
X87394Y23392D01*
Y23059D01*
X89393Y24725D02*
X89727Y25058D01*
X90393D01*
X90726Y24725D01*
Y24392D01*
X90393Y24058D01*
X90060D01*
X90393D01*
X90726Y23725D01*
Y23392D01*
X90393Y23059D01*
X89727D01*
X89393Y23392D01*
X91393Y24725D02*
X91726Y25058D01*
X92392D01*
X92725Y24725D01*
Y24392D01*
X92392Y24058D01*
X92725Y23725D01*
Y23392D01*
X92392Y23059D01*
X91726D01*
X91393Y23392D01*
Y23725D01*
X91726Y24058D01*
X91393Y24392D01*
Y24725D01*
X91726Y24058D02*
X92392D01*
X93392Y24725D02*
X93725Y25058D01*
X94392D01*
X94725Y24725D01*
Y24392D01*
X94392Y24058D01*
X94058D01*
X94392D01*
X94725Y23725D01*
Y23392D01*
X94392Y23059D01*
X93725D01*
X93392Y23392D01*
X95391Y23059D02*
X96058D01*
X95724D01*
Y25058D01*
X95391Y24725D01*
X38740Y79726D02*
X39211Y80197D01*
X38975Y79962D01*
X37562Y81375D01*
X37562Y80904D01*
X38740Y82082D02*
X38740Y82553D01*
X39211Y83025D01*
X39682D01*
X40625Y82082D01*
Y81611D01*
X40153Y81140D01*
X39682D01*
X38740Y82082D01*
X39918Y83732D02*
X41332Y82318D01*
X40860Y82789D01*
Y84674D01*
Y83260D01*
X42274Y83260D01*
X21095Y80427D02*
X21762D01*
X21429D01*
Y82426D01*
X21095Y82093D01*
X22761D02*
X23095Y82426D01*
X23761D01*
X24094Y82093D01*
Y80760D01*
X23761Y80427D01*
X23095D01*
X22761Y80760D01*
Y82093D01*
X24761Y82426D02*
Y80427D01*
Y81093D01*
X26094Y82426D01*
X25094Y81427D01*
X26094Y80427D01*
X66175Y114373D02*
X67589Y115787D01*
X66175Y115787D01*
X67117Y114844D01*
X68295Y115080D02*
X69238Y114137D01*
X69002Y113902D01*
X67117D01*
X66882Y113666D01*
X69473Y113430D02*
X69945D01*
X70416Y112959D01*
Y112488D01*
X69473Y111545D01*
X69002Y111545D01*
X68531Y112017D01*
Y112488D01*
X69473Y113430D01*
X69709Y110838D02*
X71123Y112252D01*
X71830Y111545D01*
Y111074D01*
X71359Y110603D01*
X70887Y110603D01*
X70180Y111310D01*
X70652Y110838D02*
Y109896D01*
X63908Y111778D02*
X65322Y113192D01*
X63908Y113192D01*
X64851Y112249D01*
X66029Y112485D02*
X66971Y111542D01*
X66736Y111307D01*
X64851D01*
X64615Y111071D01*
X67207Y110836D02*
X67678D01*
X68149Y110364D01*
Y109893D01*
X67207Y108951D01*
X66736Y108951D01*
X66264Y109422D01*
Y109893D01*
X67207Y110836D01*
X67443Y108244D02*
X68856Y109658D01*
X69563Y108951D01*
Y108479D01*
X69092Y108008D01*
X68621Y108008D01*
X67914Y108715D01*
X68385Y108244D02*
Y107301D01*
X93095Y111327D02*
X93762D01*
X93428D01*
Y113326D01*
X93095Y112993D01*
X94761D02*
X95095Y113326D01*
X95761D01*
X96094Y112993D01*
Y111660D01*
X95761Y111327D01*
X95095D01*
X94761Y111660D01*
Y112993D01*
X96761Y113326D02*
Y111327D01*
Y111993D01*
X98094Y113326D01*
X97094Y112327D01*
X98094Y111327D01*
X93095Y104127D02*
X93762D01*
X93428D01*
Y106126D01*
X93095Y105793D01*
X94761D02*
X95095Y106126D01*
X95761D01*
X96094Y105793D01*
Y104460D01*
X95761Y104127D01*
X95095D01*
X94761Y104460D01*
Y105793D01*
X96761Y106126D02*
Y104127D01*
Y104793D01*
X98094Y106126D01*
X97094Y105127D01*
X98094Y104127D01*
X41231Y132056D02*
Y130723D01*
X39898Y132056D01*
X39565D01*
X39232Y131722D01*
Y131056D01*
X39565Y130723D01*
Y132722D02*
X39232Y133055D01*
Y133722D01*
X39565Y134055D01*
X40898D01*
X41231Y133722D01*
Y133055D01*
X40898Y132722D01*
X39565D01*
X39232Y134721D02*
X41231D01*
X40564D01*
X39232Y136054D01*
X40231Y135055D01*
X41231Y136054D01*
X93095Y107727D02*
X93762D01*
X93428D01*
Y109726D01*
X93095Y109393D01*
X94761D02*
X95095Y109726D01*
X95761D01*
X96094Y109393D01*
Y108060D01*
X95761Y107727D01*
X95095D01*
X94761Y108060D01*
Y109393D01*
X96761Y109726D02*
Y107727D01*
Y108393D01*
X98094Y109726D01*
X97094Y108727D01*
X98094Y107727D01*
X109701Y34600D02*
X110367D01*
X110034D01*
Y36600D01*
X109701Y36266D01*
X111367D02*
X111700Y36600D01*
X112367D01*
X112700Y36266D01*
Y34934D01*
X112367Y34600D01*
X111700D01*
X111367Y34934D01*
Y36266D01*
X113366Y36600D02*
Y34600D01*
Y35267D01*
X114699Y36600D01*
X113699Y35600D01*
X114699Y34600D01*
X-1705Y95027D02*
X-1038D01*
X-1371D01*
Y97026D01*
X-1705Y96693D01*
X-39D02*
X295Y97026D01*
X961D01*
X1294Y96693D01*
Y95360D01*
X961Y95027D01*
X295D01*
X-39Y95360D01*
Y96693D01*
X1961Y97026D02*
Y95027D01*
Y95693D01*
X3294Y97026D01*
X2294Y96026D01*
X3294Y95027D01*
X60800Y31699D02*
Y31033D01*
Y31366D01*
X62800D01*
X62466Y31699D01*
Y30033D02*
X62800Y29700D01*
Y29033D01*
X62466Y28700D01*
X61134D01*
X60800Y29033D01*
Y29700D01*
X61134Y30033D01*
X62466D01*
X62800Y28034D02*
X60800D01*
X61467D01*
X62800Y26701D01*
X61800Y27700D01*
X60800Y26701D01*
X67795Y31626D02*
Y30959D01*
Y31293D01*
X69794D01*
X69461Y31626D01*
Y29960D02*
X69794Y29626D01*
Y28960D01*
X69461Y28627D01*
X68128D01*
X67795Y28960D01*
Y29626D01*
X68128Y29960D01*
X69461D01*
X67795Y27960D02*
X69794D01*
Y26961D01*
X69461Y26627D01*
X68795D01*
X68461Y26961D01*
Y27960D01*
Y27294D02*
X67795Y26627D01*
X32301Y67400D02*
X32967D01*
X32634D01*
Y69400D01*
X32301Y69067D01*
X33967D02*
X34300Y69400D01*
X34967D01*
X35300Y69067D01*
Y67734D01*
X34967Y67400D01*
X34300D01*
X33967Y67734D01*
Y69067D01*
X35966Y69400D02*
Y67400D01*
Y68067D01*
X37299Y69400D01*
X36299Y68400D01*
X37299Y67400D01*
X18595Y32227D02*
X19262D01*
X18928D01*
Y34226D01*
X18595Y33893D01*
X20261D02*
X20595Y34226D01*
X21261D01*
X21594Y33893D01*
Y32560D01*
X21261Y32227D01*
X20595D01*
X20261Y32560D01*
Y33893D01*
X22261Y34226D02*
Y32227D01*
Y32893D01*
X23594Y34226D01*
X22594Y33226D01*
X23594Y32227D01*
X99595Y16727D02*
X100262D01*
X99928D01*
Y18726D01*
X99595Y18393D01*
X101261Y18726D02*
Y16727D01*
Y17393D01*
X102594Y18726D01*
X101595Y17727D01*
X102594Y16727D01*
X32501Y63800D02*
X33167D01*
X32834D01*
Y65800D01*
X32501Y65466D01*
X34167D02*
X34500Y65800D01*
X35167D01*
X35500Y65466D01*
Y64134D01*
X35167Y63800D01*
X34500D01*
X34167Y64134D01*
Y65466D01*
X36166Y65800D02*
Y63800D01*
Y64467D01*
X37499Y65800D01*
X36500Y64800D01*
X37499Y63800D01*
X100828Y20327D02*
X99495D01*
X100828Y21660D01*
Y21993D01*
X100495Y22326D01*
X99828D01*
X99495Y21993D01*
X101495Y22326D02*
Y20327D01*
Y20993D01*
X102828Y22326D01*
X101828Y21327D01*
X102828Y20327D01*
X4095Y91127D02*
Y92460D01*
X4762Y93126D01*
X5428Y92460D01*
Y91127D01*
Y92127D01*
X4095D01*
X7094Y93126D02*
X6428D01*
X6095Y92793D01*
Y91460D01*
X6428Y91127D01*
X7094D01*
X7428Y91460D01*
Y92793D01*
X7094Y93126D01*
X8094Y92793D02*
X8427Y93126D01*
X9094D01*
X9427Y92793D01*
Y92460D01*
X9094Y92127D01*
X8760D01*
X9094D01*
X9427Y91793D01*
Y91460D01*
X9094Y91127D01*
X8427D01*
X8094Y91460D01*
X11093Y91127D02*
Y93126D01*
X10093Y92127D01*
X11426D01*
X12093Y92793D02*
X12426Y93126D01*
X13092D01*
X13426Y92793D01*
Y91460D01*
X13092Y91127D01*
X12426D01*
X12093Y91460D01*
Y92793D01*
X14092D02*
X14425Y93126D01*
X15092D01*
X15425Y92793D01*
Y91460D01*
X15092Y91127D01*
X14425D01*
X14092Y91460D01*
Y92793D01*
X64795Y14827D02*
Y16160D01*
X65462Y16826D01*
X66128Y16160D01*
Y14827D01*
Y15826D01*
X64795D01*
X67794Y16826D02*
X67128D01*
X66795Y16493D01*
Y15160D01*
X67128Y14827D01*
X67794D01*
X68128Y15160D01*
Y16493D01*
X67794Y16826D01*
X68794Y16493D02*
X69127Y16826D01*
X69794D01*
X70127Y16493D01*
Y16160D01*
X69794Y15826D01*
X69460D01*
X69794D01*
X70127Y15493D01*
Y15160D01*
X69794Y14827D01*
X69127D01*
X68794Y15160D01*
X71793Y14827D02*
Y16826D01*
X70793Y15826D01*
X72126D01*
X72793Y16493D02*
X73126Y16826D01*
X73792D01*
X74126Y16493D01*
Y15160D01*
X73792Y14827D01*
X73126D01*
X72793Y15160D01*
Y16493D01*
X74792D02*
X75125Y16826D01*
X75792D01*
X76125Y16493D01*
Y15160D01*
X75792Y14827D01*
X75125D01*
X74792Y15160D01*
Y16493D01*
X96895Y38327D02*
Y39660D01*
X97562Y40326D01*
X98228Y39660D01*
Y38327D01*
Y39327D01*
X96895D01*
X99894Y40326D02*
X99228D01*
X98895Y39993D01*
Y38660D01*
X99228Y38327D01*
X99894D01*
X100227Y38660D01*
Y39993D01*
X99894Y40326D01*
X100894Y39993D02*
X101227Y40326D01*
X101894D01*
X102227Y39993D01*
Y39660D01*
X101894Y39327D01*
X101560D01*
X101894D01*
X102227Y38993D01*
Y38660D01*
X101894Y38327D01*
X101227D01*
X100894Y38660D01*
X103893Y38327D02*
Y40326D01*
X102893Y39327D01*
X104226D01*
X104893Y39993D02*
X105226Y40326D01*
X105892D01*
X106226Y39993D01*
Y38660D01*
X105892Y38327D01*
X105226D01*
X104893Y38660D01*
Y39993D01*
X106892D02*
X107225Y40326D01*
X107892D01*
X108225Y39993D01*
Y38660D01*
X107892Y38327D01*
X107225D01*
X106892Y38660D01*
Y39993D01*
X18495Y41727D02*
Y43060D01*
X19162Y43726D01*
X19828Y43060D01*
Y41727D01*
Y42726D01*
X18495D01*
X21494Y43726D02*
X20828D01*
X20495Y43393D01*
Y42060D01*
X20828Y41727D01*
X21494D01*
X21827Y42060D01*
Y43393D01*
X21494Y43726D01*
X22494Y43393D02*
X22827Y43726D01*
X23494D01*
X23827Y43393D01*
Y43060D01*
X23494Y42726D01*
X23160D01*
X23494D01*
X23827Y42393D01*
Y42060D01*
X23494Y41727D01*
X22827D01*
X22494Y42060D01*
X25493Y41727D02*
Y43726D01*
X24493Y42726D01*
X25826D01*
X26493Y43393D02*
X26826Y43726D01*
X27492D01*
X27826Y43393D01*
Y42060D01*
X27492Y41727D01*
X26826D01*
X26493Y42060D01*
Y43393D01*
X28492Y41727D02*
X29158D01*
X28825D01*
Y43726D01*
X28492Y43393D01*
X104995Y16126D02*
Y14127D01*
X105995D01*
X106328Y14460D01*
Y14793D01*
X105995Y15126D01*
X104995D01*
X105995D01*
X106328Y15460D01*
Y15793D01*
X105995Y16126D01*
X104995D01*
X106995D02*
Y14127D01*
X108327D01*
X108994Y16126D02*
Y14460D01*
X109327Y14127D01*
X109994D01*
X110327Y14460D01*
Y16126D01*
X112326D02*
X110993D01*
Y14127D01*
X112326D01*
X110993Y15126D02*
X111660D01*
X11728Y115827D02*
X10395D01*
X11728Y117160D01*
Y117493D01*
X11395Y117826D01*
X10729D01*
X10395Y117493D01*
X12395Y115827D02*
Y117160D01*
X13394D01*
X13727Y116826D01*
Y115827D01*
X14394Y117826D02*
Y115827D01*
Y116826D01*
X15727D01*
Y117826D01*
Y115827D01*
X83368Y36100D02*
X84035D01*
X83702D01*
Y38100D01*
X83368Y37767D01*
X85035Y36100D02*
Y38100D01*
X86367Y36100D01*
Y38100D01*
X88034Y36100D02*
Y38100D01*
X87034Y37100D01*
X88367D01*
X89033Y36100D02*
X89700D01*
X89367D01*
Y38100D01*
X89033Y37767D01*
X91699Y36100D02*
Y38100D01*
X90699Y37100D01*
X92032D01*
X92699Y37767D02*
X93032Y38100D01*
X93698D01*
X94032Y37767D01*
Y37433D01*
X93698Y37100D01*
X94032Y36767D01*
Y36434D01*
X93698Y36100D01*
X93032D01*
X92699Y36434D01*
Y36767D01*
X93032Y37100D01*
X92699Y37433D01*
Y37767D01*
X93032Y37100D02*
X93698D01*
X83495Y44827D02*
X84162D01*
X83829D01*
Y46826D01*
X83495Y46493D01*
X85161Y44827D02*
Y46826D01*
X86494Y44827D01*
Y46826D01*
X88161Y44827D02*
Y46826D01*
X87161Y45827D01*
X88494D01*
X89160Y44827D02*
X89827D01*
X89493D01*
Y46826D01*
X89160Y46493D01*
X91826Y44827D02*
Y46826D01*
X90826Y45827D01*
X92159D01*
X92826Y46493D02*
X93159Y46826D01*
X93825D01*
X94159Y46493D01*
Y46160D01*
X93825Y45827D01*
X94159Y45493D01*
Y45160D01*
X93825Y44827D01*
X93159D01*
X92826Y45160D01*
Y45493D01*
X93159Y45827D01*
X92826Y46160D01*
Y46493D01*
X93159Y45827D02*
X93825D01*
X83495Y40827D02*
X84162D01*
X83829D01*
Y42826D01*
X83495Y42493D01*
X85161Y40827D02*
Y42826D01*
X86494Y40827D01*
Y42826D01*
X88161Y40827D02*
Y42826D01*
X87161Y41827D01*
X88494D01*
X89160Y40827D02*
X89827D01*
X89493D01*
Y42826D01*
X89160Y42493D01*
X91826Y40827D02*
Y42826D01*
X90826Y41827D01*
X92159D01*
X92826Y42493D02*
X93159Y42826D01*
X93825D01*
X94159Y42493D01*
Y42160D01*
X93825Y41827D01*
X94159Y41493D01*
Y41160D01*
X93825Y40827D01*
X93159D01*
X92826Y41160D01*
Y41493D01*
X93159Y41827D01*
X92826Y42160D01*
Y42493D01*
X93159Y41827D02*
X93825D01*
X41640Y77326D02*
X42111Y77797D01*
X41875Y77562D01*
X40462Y78975D01*
X40462Y78504D01*
X41875Y79447D02*
X42582Y78740D01*
X43053D01*
X43760Y79447D01*
X42818Y80389D01*
X43760Y82274D02*
X42818Y81332D01*
X43525Y80625D01*
X43996Y81096D01*
X43525Y80625D01*
X44232Y79918D01*
X65640Y131671D02*
X64698Y132614D01*
X66583D01*
X66818Y132850D01*
Y133321D01*
X66347Y133792D01*
X65876Y133792D01*
X67054Y130258D02*
X66111Y131200D01*
X67996D01*
X68232Y131436D01*
Y131907D01*
X67761Y132378D01*
X67290Y132378D01*
X67054Y129315D02*
X68468Y130729D01*
X69174Y130022D01*
Y129551D01*
X68703Y129079D01*
X68232Y129079D01*
X67525Y129786D01*
X71295Y128844D02*
X70353Y129786D01*
X69646Y129079D01*
X70117Y128608D01*
X69646Y129079D01*
X68939Y128373D01*
X50822Y131579D02*
X49879Y130637D01*
Y132522D01*
X49644Y132757D01*
X49172D01*
X48701Y132286D01*
X48701Y131815D01*
X52236Y132993D02*
X51293Y132051D01*
Y133936D01*
X51057Y134171D01*
X50586D01*
X50115Y133700D01*
X50115Y133229D01*
X53178Y132993D02*
X51764Y134407D01*
X52471Y135114D01*
X52943D01*
X53414Y134643D01*
X53414Y134171D01*
X52707Y133464D01*
X53649Y137234D02*
X52707Y136292D01*
X53414Y135585D01*
X53885Y136056D01*
X53414Y135585D01*
X54121Y134878D01*
X17595Y83927D02*
X18262D01*
X17929D01*
Y85926D01*
X17595Y85593D01*
X19261D02*
X19595Y85926D01*
X20261D01*
X20594Y85593D01*
Y84260D01*
X20261Y83927D01*
X19595D01*
X19261Y84260D01*
Y85593D01*
X22261Y83927D02*
Y85926D01*
X21261Y84926D01*
X22594D01*
X61626Y108760D02*
X62097Y108289D01*
X61862Y108525D01*
X63275Y109938D01*
X62804Y109938D01*
X63982Y108760D02*
X64453Y108760D01*
X64925Y108289D01*
Y107818D01*
X63982Y106875D01*
X63511D01*
X63040Y107347D01*
Y107818D01*
X63982Y108760D01*
X64925Y105462D02*
X66338Y106875D01*
X64925D01*
X65867Y105933D01*
X2026Y118260D02*
X2497Y117789D01*
X2262Y118025D01*
X3675Y119438D01*
X3204Y119438D01*
X4382Y118260D02*
X4853Y118260D01*
X5325Y117789D01*
Y117318D01*
X4382Y116375D01*
X3911D01*
X3440Y116847D01*
Y117318D01*
X4382Y118260D01*
X5325Y114962D02*
X6739Y116375D01*
X5325D01*
X6267Y115433D01*
X-374Y115360D02*
X97Y114889D01*
X-138Y115125D01*
X1275Y116538D01*
X804Y116538D01*
X1747Y115125D02*
X1040Y114418D01*
Y113947D01*
X1747Y113240D01*
X2689Y114182D01*
X4574Y113240D02*
X3632Y114182D01*
X2925Y113475D01*
X3396Y113004D01*
X2925Y113475D01*
X2218Y112768D01*
X-3381Y113867D02*
X-2910Y113396D01*
X-3145Y113632D01*
X-1732Y115045D01*
X-2203Y115045D01*
X-1025Y113867D02*
X-553Y113867D01*
X-82Y113396D01*
Y112925D01*
X-1025Y111982D01*
X-1496D01*
X-1967Y112453D01*
Y112925D01*
X-1025Y113867D01*
X153Y112218D02*
X-553Y111511D01*
Y111040D01*
X153Y110333D01*
X1096Y111275D01*
X2981Y110333D02*
X2038Y111275D01*
X1332Y110568D01*
X1803Y110097D01*
X1332Y110568D01*
X625Y109862D01*
X93095Y114927D02*
X93762D01*
X93428D01*
Y116926D01*
X93095Y116593D01*
X94761D02*
X95095Y116926D01*
X95761D01*
X96094Y116593D01*
Y115260D01*
X95761Y114927D01*
X95095D01*
X94761Y115260D01*
Y116593D01*
X97760Y114927D02*
Y116926D01*
X96761Y115927D01*
X98094D01*
X93095Y100527D02*
X93762D01*
X93428D01*
Y102526D01*
X93095Y102193D01*
X94761D02*
X95095Y102526D01*
X95761D01*
X96094Y102193D01*
Y100860D01*
X95761Y100527D01*
X95095D01*
X94761Y100860D01*
Y102193D01*
X97760Y100527D02*
Y102526D01*
X96761Y101526D01*
X98094D01*
X200Y84899D02*
Y84233D01*
Y84566D01*
X2200D01*
X1867Y84899D01*
Y83233D02*
X2200Y82900D01*
Y82233D01*
X1867Y81900D01*
X533D01*
X200Y82233D01*
Y82900D01*
X533Y83233D01*
X1867D01*
X200Y80234D02*
X2200D01*
X1200Y81234D01*
Y79901D01*
X43233Y129001D02*
X42900Y129335D01*
Y130001D01*
X43233Y130334D01*
X43567D01*
X43900Y130001D01*
Y129668D01*
Y130001D01*
X44233Y130334D01*
X44566D01*
X44900Y130001D01*
Y129335D01*
X44566Y129001D01*
X44900Y131001D02*
X44566D01*
Y131334D01*
X44900D01*
Y131001D01*
X43233Y132667D02*
X42900Y133000D01*
Y133667D01*
X43233Y134000D01*
X43567D01*
X43900Y133667D01*
Y133333D01*
Y133667D01*
X44233Y134000D01*
X44566D01*
X44900Y133667D01*
Y133000D01*
X44566Y132667D01*
X44900Y134666D02*
X43567D01*
Y135666D01*
X43900Y135999D01*
X44900D01*
X42900Y137998D02*
Y136666D01*
X43900D01*
Y137332D01*
Y136666D01*
X44900D01*
X37598Y129758D02*
Y130424D01*
Y130091D01*
X35599D01*
X35932Y129758D01*
Y131424D02*
X35599Y131757D01*
Y132424D01*
X35932Y132757D01*
X37265D01*
X37598Y132424D01*
Y131757D01*
X37265Y131424D01*
X35932D01*
X37598Y133423D02*
X36265D01*
Y134423D01*
X36599Y134756D01*
X37598D01*
X35599Y136756D02*
Y135423D01*
X36599D01*
Y136089D01*
Y135423D01*
X37598D01*
X32801Y56500D02*
X33467D01*
X33134D01*
Y58500D01*
X32801Y58166D01*
X34467D02*
X34800Y58500D01*
X35467D01*
X35800Y58166D01*
Y56834D01*
X35467Y56500D01*
X34800D01*
X34467Y56834D01*
Y58166D01*
X37466Y56500D02*
Y58500D01*
X36466Y57500D01*
X37799D01*
X31901Y60100D02*
X32568D01*
X32234D01*
Y62100D01*
X31901Y61766D01*
X33567D02*
X33900Y62100D01*
X34567D01*
X34900Y61766D01*
Y60434D01*
X34567Y60100D01*
X33900D01*
X33567Y60434D01*
Y61766D01*
X35567Y61433D02*
Y60434D01*
X35900Y60100D01*
X36900D01*
Y61433D01*
X38899Y62100D02*
X37566D01*
Y61100D01*
X38232D01*
X37566D01*
Y60100D01*
X13901Y72900D02*
X14568D01*
X14234D01*
Y74900D01*
X13901Y74567D01*
X15567D02*
X15901Y74900D01*
X16567D01*
X16900Y74567D01*
Y73234D01*
X16567Y72900D01*
X15901D01*
X15567Y73234D01*
Y74567D01*
X17567Y74233D02*
Y73234D01*
X17900Y72900D01*
X18900D01*
Y74233D01*
X20899Y74900D02*
X19566D01*
Y73900D01*
X20232D01*
X19566D01*
Y72900D01*
X14401Y69500D02*
X15067D01*
X14734D01*
Y71500D01*
X14401Y71166D01*
X16067D02*
X16400Y71500D01*
X17067D01*
X17400Y71166D01*
Y69834D01*
X17067Y69500D01*
X16400D01*
X16067Y69834D01*
Y71166D01*
X19066Y69500D02*
Y71500D01*
X18066Y70500D01*
X19399D01*
X64100Y31599D02*
Y30933D01*
Y31266D01*
X66100D01*
X65766Y31599D01*
Y29933D02*
X66100Y29600D01*
Y28933D01*
X65766Y28600D01*
X64434D01*
X64100Y28933D01*
Y29600D01*
X64434Y29933D01*
X65766D01*
X64100Y26934D02*
X66100D01*
X65100Y27934D01*
Y26601D01*
X98595Y13127D02*
X99262D01*
X98928D01*
Y15126D01*
X98595Y14793D01*
X100261D02*
X100595Y15126D01*
X101261D01*
X101594Y14793D01*
Y13460D01*
X101261Y13127D01*
X100595D01*
X100261Y13460D01*
Y14793D01*
X103260Y13127D02*
Y15126D01*
X102261Y14127D01*
X103594D01*
X97595Y9527D02*
X98262D01*
X97929D01*
Y11526D01*
X97595Y11193D01*
X99261D02*
X99595Y11526D01*
X100261D01*
X100594Y11193D01*
Y9860D01*
X100261Y9527D01*
X99595D01*
X99261Y9860D01*
Y11193D01*
X101261Y10860D02*
Y9860D01*
X101594Y9527D01*
X102594D01*
Y10860D01*
X104593Y11526D02*
X103260D01*
Y10526D01*
X103927D01*
X103260D01*
Y9527D01*
X86195Y27227D02*
X86862D01*
X86528D01*
Y29226D01*
X86195Y28893D01*
X87861D02*
X88195Y29226D01*
X88861D01*
X89194Y28893D01*
Y27560D01*
X88861Y27227D01*
X88195D01*
X87861Y27560D01*
Y28893D01*
X89861Y28560D02*
Y27560D01*
X90194Y27227D01*
X91194D01*
Y28560D01*
X93193Y29226D02*
X91860D01*
Y28227D01*
X92527D01*
X91860D01*
Y27227D01*
D11*
X84793Y69830D02*
X84202Y70421D01*
X83611Y69830D01*
X84202Y69239D01*
X84793Y69830D01*
X64213Y58053D02*
X63622Y58644D01*
X63031Y58053D01*
X63622Y57462D01*
X64213Y58053D01*
X37958Y123953D02*
X37367Y124544D01*
X36777Y123953D01*
X37367Y123363D01*
X37958Y123953D01*
D12*
X82746Y10047D02*
X81996Y10480D01*
Y9614D01*
X82746Y10047D01*
X27211Y54700D02*
X26461Y55133D01*
Y54267D01*
X27211Y54700D01*
X63305Y14594D02*
Y18531D01*
X51494Y14594D02*
Y18531D01*
X59904D02*
X63305D01*
X51494D02*
X54896Y18531D01*
X56164Y13020D02*
X58636D01*
X42964Y13020D02*
X45436D01*
X38295Y18531D02*
X41696D01*
X46704Y18531D02*
X50106D01*
X38295Y14594D02*
Y18531D01*
X50106Y14594D02*
Y18531D01*
X22694Y36794D02*
X26632D01*
X22694Y48605D02*
X26632D01*
Y36794D02*
X26632Y40196D01*
X26632Y45204D02*
Y48605D01*
X21120Y41464D02*
Y43936D01*
X13400Y130800D02*
Y136900D01*
X13127Y87107D02*
X15911Y89891D01*
X4775Y95458D02*
X7559Y98242D01*
X13505Y92296D02*
X15911Y89891D01*
X7559Y98242D02*
X9964Y95837D01*
X6963Y91043D02*
X8711Y89295D01*
X82884Y12910D02*
Y19996D01*
X87412D02*
X90561D01*
X95089Y12910D02*
Y19996D01*
X16762Y55338D02*
X23849Y55338D01*
X16762Y59865D02*
Y63015D01*
Y67543D02*
X23849D01*
X-6547Y6492D02*
Y139248D01*
X117547Y6492D02*
Y139248D01*
X-6547Y6492D02*
X117547D01*
X-6547Y139248D02*
X117547D01*
X33059Y6492D02*
Y49799D01*
X77941Y6492D02*
Y49799D01*
X33059D02*
X77941D01*
X76406Y14694D02*
Y18632D01*
X64595Y14694D02*
Y18632D01*
X73004D02*
X76406D01*
X64595D02*
X67996D01*
X69264Y13120D02*
X71736D01*
X101364Y36620D02*
X103836D01*
X96694Y42132D02*
X100096D01*
X105104D02*
X108505D01*
X96694Y38194D02*
Y42132D01*
X108505Y38194D02*
Y42132D01*
D13*
X37646Y89155D02*
X39316Y87484D01*
X40986Y89155D01*
X21499Y105301D02*
X23170Y106972D01*
X21499Y105301D02*
X23170Y103631D01*
X39316Y123118D02*
X40986Y121448D01*
X37646Y121448D02*
X39316Y123118D01*
X55463Y106972D02*
X57133Y105301D01*
X55463Y103631D02*
X57133Y105301D01*
D14*
X88350Y33800D02*
D03*
Y37800D02*
D03*
Y45800D02*
D03*
Y41800D02*
D03*
M02*
