G04*
G04 #@! TF.GenerationSoftware,Altium Limited,Altium Designer,20.1.10 (176)*
G04*
G04 Layer_Physical_Order=3*
G04 Layer_Color=16440176*
%FSLAX25Y25*%
%MOIN*%
G70*
G04*
G04 #@! TF.SameCoordinates,11B260F6-AB26-4D87-AEF0-EC618B47F653*
G04*
G04*
G04 #@! TF.FilePolarity,Positive*
G04*
G01*
G75*
%ADD10C,0.00600*%
%ADD12C,0.01000*%
%ADD67C,0.00500*%
%ADD74O,0.07087X0.03937*%
%ADD75O,0.08268X0.03937*%
%ADD76C,0.03937*%
%ADD77C,0.01800*%
%ADD78C,0.02756*%
%ADD79C,0.06693*%
G36*
X112000Y143979D02*
X113166Y143864D01*
X114288Y143524D01*
X115322Y142971D01*
X116228Y142228D01*
X116971Y141322D01*
X117524Y140288D01*
X117864Y139166D01*
X117979Y138000D01*
X117980D01*
Y8000D01*
X117980Y8000D01*
X117980D01*
X117935Y7510D01*
X117850Y6638D01*
X117452Y5328D01*
X116807Y4120D01*
X115938Y3062D01*
X114880Y2193D01*
X113672Y1548D01*
X112362Y1151D01*
X111011Y1017D01*
X111000Y1020D01*
X0D01*
X-11Y1017D01*
X-1362Y1151D01*
X-2672Y1548D01*
X-3880Y2193D01*
X-4938Y3062D01*
X-5807Y4120D01*
X-6452Y5328D01*
X-6849Y6638D01*
X-6983Y7989D01*
X-6980Y8000D01*
Y103543D01*
X-6637Y103685D01*
X-6480Y103719D01*
X-6046Y103428D01*
X-5500Y103320D01*
X-4954Y103428D01*
X-4491Y103738D01*
X-4181Y104201D01*
X-4124Y104488D01*
X-3654Y104581D01*
X-3191Y104891D01*
X-2881Y105354D01*
X-2773Y105900D01*
X-2881Y106446D01*
X-3191Y106909D01*
X-3654Y107219D01*
X-4200Y107327D01*
X-4746Y107219D01*
X-5209Y106909D01*
X-5519Y106446D01*
X-5576Y106160D01*
X-6046Y106066D01*
X-6480Y105776D01*
X-6637Y105810D01*
X-6980Y105952D01*
Y123500D01*
X27200D01*
Y143980D01*
X112000D01*
Y143979D01*
D02*
G37*
%LPC*%
G36*
X35300Y124127D02*
X34754Y124019D01*
X34291Y123709D01*
X33981Y123246D01*
X33873Y122700D01*
X33981Y122154D01*
X34291Y121691D01*
X34754Y121381D01*
X35300Y121273D01*
X35846Y121381D01*
X36309Y121691D01*
X36619Y122154D01*
X36727Y122700D01*
X36619Y123246D01*
X36309Y123709D01*
X35846Y124019D01*
X35300Y124127D01*
D02*
G37*
G36*
X84284Y123691D02*
X83279Y123558D01*
X82344Y123171D01*
X81540Y122554D01*
X80924Y121751D01*
X80536Y120815D01*
X80404Y119811D01*
X80536Y118807D01*
X80924Y117871D01*
X81540Y117068D01*
X82344Y116451D01*
X83279Y116064D01*
X84284Y115931D01*
X85288Y116064D01*
X86223Y116451D01*
X87027Y117068D01*
X87643Y117871D01*
X88031Y118807D01*
X88163Y119811D01*
X88031Y120815D01*
X87643Y121751D01*
X87027Y122554D01*
X86223Y123171D01*
X85288Y123558D01*
X84284Y123691D01*
D02*
G37*
G36*
X90100Y143120D02*
X48800D01*
X48410Y143042D01*
X48079Y142821D01*
X45679Y140421D01*
X45458Y140090D01*
X45380Y139700D01*
Y139196D01*
X44880Y138929D01*
X44746Y139019D01*
X44200Y139127D01*
X43654Y139019D01*
X43191Y138709D01*
X42881Y138246D01*
X42773Y137700D01*
X42881Y137154D01*
X43191Y136691D01*
X43435Y136527D01*
Y123658D01*
X38542Y118765D01*
X32617D01*
X30541Y120841D01*
X30293Y121007D01*
X30000Y121065D01*
X25300D01*
X25007Y121007D01*
X24759Y120841D01*
X24759Y120841D01*
X22259Y118341D01*
X22094Y118093D01*
X22035Y117800D01*
Y114873D01*
X21791Y114709D01*
X21627Y114465D01*
X17700D01*
X17407Y114407D01*
X17159Y114241D01*
X15759Y112841D01*
X15594Y112593D01*
X15535Y112300D01*
Y106900D01*
X15594Y106607D01*
X15759Y106359D01*
X18134Y103984D01*
X17970Y103442D01*
X17854Y103419D01*
X17391Y103109D01*
X17227Y102865D01*
X14600D01*
X14307Y102806D01*
X14059Y102641D01*
X10392Y98974D01*
X9985Y99172D01*
X9925Y99213D01*
X9819Y99746D01*
X9509Y100209D01*
X9046Y100519D01*
X8500Y100627D01*
X7954Y100519D01*
X7491Y100209D01*
X7181Y99746D01*
X7073Y99200D01*
X7181Y98654D01*
X7491Y98191D01*
X7954Y97881D01*
X8487Y97775D01*
X8528Y97715D01*
X8726Y97308D01*
X7289Y95870D01*
X7000Y95927D01*
X6454Y95819D01*
X5991Y95509D01*
X5681Y95046D01*
X5573Y94500D01*
X5681Y93954D01*
X5991Y93491D01*
X6454Y93181D01*
X7000Y93073D01*
X7546Y93181D01*
X8009Y93491D01*
X8319Y93954D01*
X8427Y94500D01*
X8370Y94789D01*
X14760Y101179D01*
X15122Y101141D01*
X15135Y101130D01*
X15447Y100673D01*
X15373Y100300D01*
X15430Y100011D01*
X6159Y90741D01*
X5993Y90493D01*
X5935Y90200D01*
Y81620D01*
X5435Y81471D01*
X5209Y81809D01*
X4746Y82119D01*
X4200Y82227D01*
X3654Y82119D01*
X3191Y81809D01*
X2881Y81346D01*
X2773Y80800D01*
X2881Y80254D01*
X3191Y79791D01*
X3654Y79481D01*
X4200Y79373D01*
X4746Y79481D01*
X5209Y79791D01*
X5435Y80129D01*
X5935Y79980D01*
Y75017D01*
X5089Y74170D01*
X4800Y74227D01*
X4254Y74119D01*
X3791Y73809D01*
X3481Y73346D01*
X3373Y72800D01*
X3481Y72254D01*
X3791Y71791D01*
X4254Y71481D01*
X4800Y71373D01*
X5346Y71481D01*
X5809Y71791D01*
X6119Y72254D01*
X6227Y72800D01*
X6170Y73089D01*
X7241Y74159D01*
X7241Y74159D01*
X7406Y74407D01*
X7465Y74700D01*
X7465Y74700D01*
Y89883D01*
X15053Y97471D01*
X15596Y97307D01*
X15617Y97199D01*
X8759Y90341D01*
X8593Y90093D01*
X8535Y89800D01*
Y71017D01*
X4689Y67170D01*
X4400Y67227D01*
X3854Y67119D01*
X3391Y66809D01*
X3081Y66346D01*
X2973Y65800D01*
X3081Y65254D01*
X3391Y64791D01*
X3854Y64481D01*
X4400Y64373D01*
X4946Y64481D01*
X5409Y64791D01*
X5719Y65254D01*
X5827Y65800D01*
X5770Y66089D01*
X9841Y70159D01*
X9841Y70159D01*
X10007Y70407D01*
X10065Y70700D01*
X10065Y70700D01*
Y89483D01*
X12386Y91805D01*
X12847Y91558D01*
X12835Y91500D01*
Y74900D01*
X12893Y74607D01*
X13059Y74359D01*
X24159Y63259D01*
X24407Y63094D01*
X24700Y63035D01*
X27783D01*
X40735Y50083D01*
Y27100D01*
X40793Y26807D01*
X40959Y26559D01*
X42759Y24759D01*
X42759Y24759D01*
X43007Y24593D01*
X43300Y24535D01*
X56227D01*
X56391Y24291D01*
X56854Y23981D01*
X57400Y23873D01*
X57946Y23981D01*
X58235Y24174D01*
X58735Y23947D01*
Y19300D01*
X58793Y19007D01*
X58959Y18759D01*
X63759Y13959D01*
X63759Y13959D01*
X64007Y13793D01*
X64300Y13735D01*
X64300Y13735D01*
X77727D01*
X77891Y13491D01*
X78354Y13181D01*
X78900Y13073D01*
X79446Y13181D01*
X79909Y13491D01*
X80219Y13954D01*
X80327Y14500D01*
X80219Y15046D01*
X79909Y15509D01*
X79446Y15819D01*
X78900Y15927D01*
X78354Y15819D01*
X77891Y15509D01*
X77727Y15265D01*
X64617D01*
X60265Y19617D01*
Y23247D01*
X60765Y23474D01*
X61054Y23281D01*
X61600Y23173D01*
X62146Y23281D01*
X62609Y23591D01*
X62773Y23835D01*
X74200D01*
X74493Y23893D01*
X74741Y24059D01*
X78941Y28259D01*
X79106Y28507D01*
X79165Y28800D01*
X79165Y28800D01*
Y62083D01*
X88341Y71259D01*
X88507Y71507D01*
X88565Y71800D01*
X88565Y71800D01*
Y85800D01*
X88507Y86093D01*
X88341Y86341D01*
X82429Y92253D01*
X82712Y92677D01*
X83279Y92441D01*
X84284Y92309D01*
X85288Y92441D01*
X86223Y92829D01*
X87027Y93446D01*
X87643Y94249D01*
X88031Y95185D01*
X88163Y96189D01*
X88031Y97193D01*
X87643Y98129D01*
X87027Y98932D01*
X86223Y99549D01*
X85288Y99936D01*
X84284Y100069D01*
X83279Y99936D01*
X82344Y99549D01*
X81540Y98932D01*
X80924Y98129D01*
X80536Y97193D01*
X80404Y96189D01*
X80536Y95185D01*
X80771Y94617D01*
X80347Y94334D01*
X65441Y109241D01*
X65193Y109406D01*
X64900Y109465D01*
X62612D01*
X62563Y109965D01*
X62646Y109981D01*
X63109Y110291D01*
X63419Y110754D01*
X63527Y111300D01*
X63419Y111846D01*
X63125Y112285D01*
X63153Y112421D01*
X63297Y112785D01*
X66847D01*
X68774Y110859D01*
X69022Y110694D01*
X69314Y110635D01*
X79740D01*
X80008Y110135D01*
X79881Y109946D01*
X79773Y109400D01*
X79881Y108854D01*
X79643Y108311D01*
X79491Y108209D01*
X79181Y107746D01*
X79073Y107200D01*
X79077Y107176D01*
X78724Y106823D01*
X78700Y106827D01*
X78154Y106719D01*
X77691Y106409D01*
X77381Y105946D01*
X77273Y105400D01*
X77381Y104854D01*
X77691Y104391D01*
X78154Y104081D01*
X78700Y103973D01*
X79246Y104081D01*
X79709Y104391D01*
X79873Y104635D01*
X82869D01*
X89435Y98069D01*
Y68831D01*
X81759Y61155D01*
X81594Y60907D01*
X81535Y60614D01*
Y12817D01*
X78483Y9765D01*
X37752D01*
X37459Y9707D01*
X37211Y9541D01*
X35732Y8061D01*
X35646Y8119D01*
X35100Y8227D01*
X34554Y8119D01*
X34091Y7809D01*
X33781Y7346D01*
X33673Y6800D01*
X33781Y6254D01*
X34091Y5791D01*
X34554Y5481D01*
X35100Y5373D01*
X35646Y5481D01*
X35810Y5413D01*
X35881Y5054D01*
X36191Y4591D01*
X36654Y4281D01*
X37200Y4173D01*
X37746Y4281D01*
X38209Y4591D01*
X38451Y4952D01*
X38846Y4992D01*
X39010Y4961D01*
X39191Y4691D01*
X39654Y4381D01*
X40200Y4273D01*
X40746Y4381D01*
X41209Y4691D01*
X41519Y5154D01*
X41627Y5700D01*
X41519Y6246D01*
X41259Y6635D01*
X41343Y6926D01*
X41472Y7135D01*
X79600D01*
X79893Y7193D01*
X80141Y7359D01*
X84041Y11259D01*
X84206Y11507D01*
X84265Y11800D01*
Y47440D01*
X84765Y47708D01*
X84954Y47581D01*
X85500Y47473D01*
X85789Y47530D01*
X86209Y47109D01*
X86457Y46944D01*
X86750Y46885D01*
X86750Y46885D01*
X93183D01*
X93476Y46944D01*
X93724Y47109D01*
X98741Y52126D01*
X98906Y52374D01*
X98965Y52666D01*
Y59653D01*
X99465Y59702D01*
X99585Y59097D01*
X100130Y58281D01*
X100947Y57735D01*
X101910Y57544D01*
X102873Y57735D01*
X103690Y58281D01*
X104235Y59097D01*
X104427Y60061D01*
X104235Y61024D01*
X103690Y61840D01*
X102873Y62386D01*
X101910Y62577D01*
X100947Y62386D01*
X100130Y61840D01*
X99585Y61024D01*
X99465Y60419D01*
X98965Y60469D01*
Y102200D01*
X98906Y102493D01*
X98741Y102741D01*
X92270Y109211D01*
X92327Y109500D01*
X92219Y110046D01*
X91909Y110509D01*
X91446Y110819D01*
X90900Y110927D01*
X90611Y110870D01*
X89439Y112043D01*
X89463Y112658D01*
X89700Y112873D01*
X90246Y112981D01*
X90709Y113291D01*
X91019Y113754D01*
X91127Y114300D01*
X91019Y114846D01*
X90709Y115309D01*
X90246Y115619D01*
X89700Y115727D01*
X89154Y115619D01*
X88691Y115309D01*
X88381Y114846D01*
X88273Y114300D01*
X88161Y114165D01*
X71017D01*
X69091Y116091D01*
X68843Y116256D01*
X68550Y116315D01*
X56154D01*
X55987Y116627D01*
X55931Y116815D01*
X56027Y117300D01*
X55919Y117846D01*
X55609Y118309D01*
X55146Y118619D01*
X54600Y118727D01*
X54600Y118727D01*
X54592Y118728D01*
X54575Y118731D01*
X54062Y119130D01*
X54019Y119346D01*
X53709Y119809D01*
X53246Y120119D01*
X52700Y120227D01*
X52154Y120119D01*
X51691Y119809D01*
X51381Y119346D01*
X51273Y118800D01*
X51381Y118254D01*
X51691Y117791D01*
X52154Y117481D01*
X52700Y117373D01*
X52708Y117372D01*
X53079Y117093D01*
X53238Y116970D01*
X53269Y116815D01*
X53213Y116627D01*
X53047Y116315D01*
X33653D01*
X33194Y116773D01*
X33385Y117235D01*
X38859D01*
X39152Y117294D01*
X39400Y117459D01*
X44575Y122635D01*
X44741Y122641D01*
X45102Y122570D01*
X45163Y122532D01*
X45391Y122191D01*
X45854Y121881D01*
X46400Y121773D01*
X46946Y121881D01*
X47409Y122191D01*
X47719Y122654D01*
X47827Y123200D01*
X47719Y123746D01*
X47420Y124194D01*
Y139278D01*
X49222Y141080D01*
X89678D01*
X99680Y131078D01*
Y113294D01*
X99381Y112846D01*
X99272Y112300D01*
X99381Y111753D01*
X99690Y111290D01*
X100153Y110981D01*
X100700Y110872D01*
X101246Y110981D01*
X101709Y111290D01*
X102018Y111753D01*
X102127Y112300D01*
X102018Y112846D01*
X101719Y113294D01*
Y131500D01*
X101642Y131890D01*
X101421Y132221D01*
X90821Y142821D01*
X90490Y143042D01*
X90100Y143120D01*
D02*
G37*
G36*
X17173Y55266D02*
X15758D01*
Y53022D01*
X20069D01*
X20065Y53047D01*
X19766Y53769D01*
X19290Y54389D01*
X18670Y54865D01*
X17948Y55164D01*
X17173Y55266D01*
D02*
G37*
G36*
X14258D02*
X12843D01*
X12068Y55164D01*
X11345Y54865D01*
X10725Y54389D01*
X10249Y53769D01*
X9950Y53047D01*
X9947Y53022D01*
X14258D01*
Y55266D01*
D02*
G37*
G36*
X126D02*
X-699D01*
Y53022D01*
X3021D01*
X3018Y53047D01*
X2719Y53769D01*
X2243Y54389D01*
X1623Y54865D01*
X901Y55164D01*
X126Y55266D01*
D02*
G37*
G36*
X-2199D02*
X-3024D01*
X-3799Y55164D01*
X-4521Y54865D01*
X-5141Y54389D01*
X-5617Y53769D01*
X-5916Y53047D01*
X-5919Y53022D01*
X-2199D01*
Y55266D01*
D02*
G37*
G36*
X21600Y57927D02*
X21054Y57819D01*
X20591Y57509D01*
X20281Y57046D01*
X20173Y56500D01*
X20281Y55954D01*
X20591Y55491D01*
Y55423D01*
X20281Y54959D01*
X20173Y54413D01*
X20281Y53867D01*
X20591Y53404D01*
X21054Y53095D01*
X21600Y52986D01*
X22146Y53095D01*
X22609Y53404D01*
X22919Y53867D01*
X23027Y54413D01*
X22919Y54959D01*
X22609Y55423D01*
Y55491D01*
X22919Y55954D01*
X23027Y56500D01*
X22919Y57046D01*
X22609Y57509D01*
X22146Y57819D01*
X21600Y57927D01*
D02*
G37*
G36*
X8500Y114527D02*
X7954Y114419D01*
X7491Y114109D01*
X7181Y113646D01*
X7073Y113100D01*
X7181Y112554D01*
X7480Y112106D01*
Y110322D01*
X-3021Y99821D01*
X-3242Y99490D01*
X-3320Y99100D01*
Y66600D01*
X-3242Y66210D01*
X-3021Y65879D01*
X3779Y59079D01*
X4110Y58858D01*
X4500Y58780D01*
X27578D01*
X32076Y54282D01*
X32181Y53754D01*
X32491Y53291D01*
X32954Y52981D01*
X33500Y52873D01*
X34046Y52981D01*
X34509Y53291D01*
X34819Y53754D01*
X34927Y54300D01*
X34819Y54846D01*
X34509Y55309D01*
X34046Y55619D01*
X33518Y55724D01*
X28721Y60521D01*
X28390Y60742D01*
X28000Y60820D01*
X4922D01*
X-1280Y67022D01*
Y98678D01*
X9221Y109179D01*
X9442Y109510D01*
X9520Y109900D01*
Y112106D01*
X9819Y112554D01*
X9927Y113100D01*
X9819Y113646D01*
X9509Y114109D01*
X9046Y114419D01*
X8500Y114527D01*
D02*
G37*
G36*
X20069Y51522D02*
X15758D01*
Y49277D01*
X17173D01*
X17948Y49380D01*
X18670Y49679D01*
X19290Y50155D01*
X19766Y50775D01*
X20065Y51497D01*
X20069Y51522D01*
D02*
G37*
G36*
X14258D02*
X9947D01*
X9950Y51497D01*
X10249Y50775D01*
X10725Y50155D01*
X11345Y49679D01*
X12068Y49380D01*
X12843Y49277D01*
X14258D01*
Y51522D01*
D02*
G37*
G36*
X3021D02*
X-699D01*
Y49277D01*
X126D01*
X901Y49380D01*
X1623Y49679D01*
X2243Y50155D01*
X2719Y50775D01*
X3018Y51497D01*
X3021Y51522D01*
D02*
G37*
G36*
X-2199D02*
X-5919D01*
X-5916Y51497D01*
X-5617Y50775D01*
X-5141Y50155D01*
X-4521Y49679D01*
X-3799Y49380D01*
X-3024Y49277D01*
X-2199D01*
Y51522D01*
D02*
G37*
G36*
X13039Y48557D02*
X12307Y48411D01*
X11685Y47996D01*
X11270Y47374D01*
X11125Y46642D01*
X11270Y45909D01*
X11685Y45288D01*
X12307Y44873D01*
X13039Y44727D01*
X13772Y44873D01*
X14393Y45288D01*
X14808Y45909D01*
X14954Y46642D01*
X14808Y47374D01*
X14393Y47996D01*
X13772Y48411D01*
X13039Y48557D01*
D02*
G37*
G36*
X11600Y38727D02*
X11054Y38619D01*
X10591Y38309D01*
X10281Y37846D01*
X10173Y37300D01*
X10281Y36754D01*
X10591Y36291D01*
X11054Y35981D01*
X11600Y35873D01*
X11662Y35885D01*
X13038Y34508D01*
X12993Y34280D01*
X13102Y33733D01*
X13411Y33270D01*
X13874Y32961D01*
X14421Y32852D01*
X14967Y32961D01*
X15430Y33270D01*
X15739Y33733D01*
X15848Y34280D01*
X15739Y34826D01*
X15430Y35289D01*
X14967Y35598D01*
X14421Y35707D01*
X14192Y35662D01*
X12949Y36905D01*
X13027Y37300D01*
X12919Y37846D01*
X12609Y38309D01*
X12146Y38619D01*
X11600Y38727D01*
D02*
G37*
G36*
X27285Y29912D02*
X26739Y29804D01*
X26275Y29494D01*
X25966Y29031D01*
X25857Y28485D01*
X25966Y27939D01*
X26275Y27475D01*
X26739Y27166D01*
X27285Y27057D01*
X27831Y27166D01*
X28294Y27475D01*
X28604Y27939D01*
X28712Y28485D01*
X28604Y29031D01*
X28294Y29494D01*
X27831Y29804D01*
X27285Y29912D01*
D02*
G37*
G36*
X93400Y29627D02*
X92854Y29519D01*
X92391Y29209D01*
X92081Y28746D01*
X91973Y28200D01*
X92081Y27654D01*
X92391Y27191D01*
X92854Y26881D01*
X93400Y26773D01*
X93946Y26881D01*
X94300Y27117D01*
X94654Y26881D01*
X95200Y26772D01*
X95746Y26881D01*
X96209Y27190D01*
X96519Y27653D01*
X96627Y28200D01*
X96519Y28746D01*
X96209Y29209D01*
X95746Y29518D01*
X95200Y29627D01*
X94654Y29518D01*
X94300Y29282D01*
X93946Y29519D01*
X93400Y29627D01*
D02*
G37*
G36*
X21800Y51827D02*
X21254Y51719D01*
X20791Y51409D01*
X20481Y50946D01*
X20373Y50400D01*
X20481Y49854D01*
X20791Y49391D01*
X21035Y49227D01*
Y37300D01*
Y5700D01*
X21093Y5407D01*
X21259Y5159D01*
X24659Y1759D01*
X24659Y1759D01*
X24907Y1594D01*
X25200Y1535D01*
X25200Y1535D01*
X96100D01*
X96393Y1594D01*
X96641Y1759D01*
X99641Y4759D01*
X99806Y5007D01*
X99865Y5300D01*
Y26361D01*
X100365Y26628D01*
X100947Y26239D01*
X101910Y26048D01*
X102873Y26239D01*
X103690Y26785D01*
X104235Y27601D01*
X104427Y28565D01*
X104235Y29528D01*
X103690Y30344D01*
X102873Y30890D01*
X101910Y31081D01*
X100947Y30890D01*
X100365Y30501D01*
X99865Y30768D01*
Y40627D01*
X100109Y40791D01*
X100419Y41254D01*
X100527Y41800D01*
X100419Y42346D01*
X100109Y42809D01*
X99646Y43119D01*
X99100Y43227D01*
X98554Y43119D01*
X98091Y42809D01*
X97927Y42565D01*
X89273D01*
X89109Y42809D01*
X88646Y43119D01*
X88100Y43227D01*
X87554Y43119D01*
X87091Y42809D01*
X86781Y42346D01*
X86673Y41800D01*
X86781Y41254D01*
X87091Y40791D01*
X87554Y40481D01*
X88100Y40373D01*
X88646Y40481D01*
X89109Y40791D01*
X89273Y41035D01*
X97927D01*
X98091Y40791D01*
X98335Y40627D01*
Y5617D01*
X95783Y3065D01*
X25517D01*
X22565Y6017D01*
Y34801D01*
X23027Y34992D01*
X24530Y33489D01*
X24473Y33200D01*
X24581Y32654D01*
X24891Y32191D01*
X25354Y31881D01*
X25900Y31773D01*
X26446Y31881D01*
X26909Y32191D01*
X27219Y32654D01*
X27327Y33200D01*
X27219Y33746D01*
X26909Y34209D01*
X26446Y34519D01*
X25900Y34627D01*
X25611Y34570D01*
X22565Y37617D01*
Y49227D01*
X22809Y49391D01*
X23119Y49854D01*
X23227Y50400D01*
X23119Y50946D01*
X22809Y51409D01*
X22346Y51719D01*
X21800Y51827D01*
D02*
G37*
G36*
X13039Y25801D02*
X12307Y25655D01*
X11685Y25240D01*
X11270Y24619D01*
X11125Y23886D01*
X11270Y23153D01*
X11685Y22532D01*
X12307Y22117D01*
X13039Y21971D01*
X13772Y22117D01*
X14393Y22532D01*
X14808Y23153D01*
X14954Y23886D01*
X14808Y24619D01*
X14393Y25240D01*
X13772Y25655D01*
X13039Y25801D01*
D02*
G37*
G36*
X17173Y21250D02*
X15758D01*
Y19006D01*
X20069D01*
X20065Y19031D01*
X19766Y19753D01*
X19290Y20373D01*
X18670Y20849D01*
X17948Y21148D01*
X17173Y21250D01*
D02*
G37*
G36*
X14258D02*
X12843D01*
X12068Y21148D01*
X11345Y20849D01*
X10725Y20373D01*
X10249Y19753D01*
X9950Y19031D01*
X9947Y19006D01*
X14258D01*
Y21250D01*
D02*
G37*
G36*
X126D02*
X-699D01*
Y19006D01*
X3021D01*
X3018Y19031D01*
X2719Y19753D01*
X2243Y20373D01*
X1623Y20849D01*
X901Y21148D01*
X126Y21250D01*
D02*
G37*
G36*
X-2199D02*
X-3024D01*
X-3799Y21148D01*
X-4521Y20849D01*
X-5141Y20373D01*
X-5617Y19753D01*
X-5916Y19031D01*
X-5919Y19006D01*
X-2199D01*
Y21250D01*
D02*
G37*
G36*
X20069Y17506D02*
X15758D01*
Y15262D01*
X17173D01*
X17948Y15364D01*
X18670Y15663D01*
X19290Y16139D01*
X19766Y16759D01*
X20065Y17481D01*
X20069Y17506D01*
D02*
G37*
G36*
X14258D02*
X9947D01*
X9950Y17481D01*
X10249Y16759D01*
X10725Y16139D01*
X11345Y15663D01*
X12068Y15364D01*
X12843Y15262D01*
X14258D01*
Y17506D01*
D02*
G37*
G36*
X3021D02*
X-699D01*
Y15262D01*
X126D01*
X901Y15364D01*
X1623Y15663D01*
X2243Y16139D01*
X2719Y16759D01*
X3018Y17481D01*
X3021Y17506D01*
D02*
G37*
G36*
X-2199D02*
X-5919D01*
X-5916Y17481D01*
X-5617Y16759D01*
X-5141Y16139D01*
X-4521Y15663D01*
X-3799Y15364D01*
X-3024Y15262D01*
X-2199D01*
Y17506D01*
D02*
G37*
G36*
X30900Y8227D02*
X30354Y8119D01*
X29891Y7809D01*
X29581Y7346D01*
X29473Y6800D01*
X29581Y6254D01*
X29891Y5791D01*
X30354Y5481D01*
X30900Y5373D01*
X31446Y5481D01*
X31909Y5791D01*
X32219Y6254D01*
X32327Y6800D01*
X32219Y7346D01*
X31909Y7809D01*
X31446Y8119D01*
X30900Y8227D01*
D02*
G37*
G36*
X26200Y6627D02*
X25654Y6519D01*
X25191Y6209D01*
X24881Y5746D01*
X24773Y5200D01*
X24881Y4654D01*
X25191Y4191D01*
X25654Y3881D01*
X26200Y3773D01*
X26746Y3881D01*
X27209Y4191D01*
X27519Y4654D01*
X27627Y5200D01*
X27519Y5746D01*
X27209Y6209D01*
X26746Y6519D01*
X26200Y6627D01*
D02*
G37*
%LPD*%
G36*
X29443Y113009D02*
X29691Y112844D01*
X29983Y112785D01*
X53352D01*
X53649Y112285D01*
X53573Y111900D01*
X53681Y111354D01*
X53991Y110891D01*
X54235Y110727D01*
Y108400D01*
X54294Y108107D01*
X54459Y107859D01*
X56159Y106159D01*
X56407Y105993D01*
X56700Y105935D01*
X58583D01*
X58959Y105559D01*
X59207Y105394D01*
X59500Y105335D01*
X63783D01*
X75726Y93392D01*
X75528Y92985D01*
X75487Y92925D01*
X74954Y92819D01*
X74491Y92509D01*
X74181Y92046D01*
X74165Y91965D01*
X68800D01*
X68507Y91906D01*
X68365Y91811D01*
X67865Y91982D01*
Y96549D01*
X67865Y96549D01*
X67807Y96842D01*
X67641Y97090D01*
X60490Y104241D01*
X60242Y104406D01*
X59949Y104465D01*
X55800D01*
X55800Y104465D01*
X55507Y104406D01*
X55259Y104241D01*
X53259Y102241D01*
X53093Y101993D01*
X53035Y101700D01*
Y98000D01*
X53093Y97707D01*
X53259Y97459D01*
X53800Y96919D01*
X53741Y96524D01*
X53267Y96315D01*
X51941Y97641D01*
X51693Y97807D01*
X51400Y97865D01*
X43000D01*
X42707Y97807D01*
X42459Y97641D01*
X39559Y94741D01*
X39393Y94493D01*
X39335Y94200D01*
Y86800D01*
X39393Y86507D01*
X39559Y86259D01*
X40597Y85221D01*
X40279Y84833D01*
X40241Y84858D01*
X39949Y84916D01*
X39725D01*
X39719Y84946D01*
X39409Y85409D01*
X38946Y85719D01*
X38400Y85827D01*
X37854Y85719D01*
X37765Y85659D01*
X37265Y85927D01*
Y95000D01*
X37207Y95293D01*
X37041Y95541D01*
X37041Y95541D01*
X22720Y109861D01*
X22827Y110400D01*
X22719Y110946D01*
X22409Y111409D01*
X21946Y111719D01*
X21400Y111827D01*
X21091Y111766D01*
X20709Y111959D01*
X20600Y112139D01*
X20541Y112435D01*
X20814Y112935D01*
X21627D01*
X21791Y112691D01*
X22254Y112381D01*
X22800Y112273D01*
X23346Y112381D01*
X23809Y112691D01*
X24119Y113154D01*
X24227Y113700D01*
X24223Y113724D01*
X24576Y114077D01*
X24600Y114073D01*
X25146Y114181D01*
X25609Y114491D01*
X25919Y114954D01*
X26027Y115500D01*
X26499Y115692D01*
X26717Y115735D01*
X29443Y113009D01*
D02*
G37*
G36*
X58235Y95783D02*
Y85500D01*
X58293Y85207D01*
X58459Y84959D01*
X63159Y80259D01*
X63407Y80093D01*
X63700Y80035D01*
X63700Y80035D01*
X67127D01*
X67291Y79791D01*
X67754Y79481D01*
X68300Y79373D01*
X68846Y79481D01*
X69309Y79791D01*
X69619Y80254D01*
X69727Y80800D01*
X69619Y81346D01*
X69559Y81435D01*
X69827Y81935D01*
X70839D01*
X71197Y81524D01*
X71173Y81400D01*
X71281Y80854D01*
X71591Y80391D01*
X72054Y80081D01*
X72600Y79973D01*
X73146Y80081D01*
X73609Y80391D01*
X73919Y80854D01*
X74027Y81400D01*
X73919Y81946D01*
X73609Y82409D01*
X73146Y82719D01*
X72600Y82827D01*
X72359Y83098D01*
X72309Y83591D01*
X72619Y84054D01*
X72727Y84600D01*
X72619Y85146D01*
X72309Y85609D01*
X71846Y85919D01*
X71300Y86027D01*
X70754Y85919D01*
X70291Y85609D01*
X70127Y85365D01*
X65933D01*
X65655Y85696D01*
X65749Y86216D01*
X66009Y86391D01*
X66319Y86854D01*
X66427Y87400D01*
X66370Y87689D01*
X69117Y90435D01*
X74557D01*
X74570Y90438D01*
X74954Y90181D01*
X75500Y90073D01*
X75885Y90149D01*
X76385Y89852D01*
Y88297D01*
X76300Y88227D01*
X75754Y88119D01*
X75291Y87809D01*
X74981Y87346D01*
X74892Y86897D01*
X74610Y86745D01*
X74383Y86699D01*
X73353Y87728D01*
X73427Y88100D01*
X73319Y88646D01*
X73009Y89109D01*
X72546Y89419D01*
X72000Y89527D01*
X71454Y89419D01*
X70991Y89109D01*
X70681Y88646D01*
X70573Y88100D01*
X70681Y87554D01*
X70991Y87091D01*
X71454Y86781D01*
X72000Y86673D01*
X72205Y86713D01*
X74635Y84283D01*
Y80217D01*
X69783Y75365D01*
X63817D01*
X61070Y78111D01*
X61127Y78400D01*
X61019Y78946D01*
X60709Y79409D01*
X60246Y79719D01*
X59700Y79827D01*
X59662Y79820D01*
X49949Y89532D01*
X50114Y90075D01*
X50146Y90081D01*
X50609Y90391D01*
X51142Y90288D01*
X51452Y90080D01*
X51999Y89971D01*
X52545Y90080D01*
X53008Y90389D01*
X53317Y90852D01*
X53426Y91399D01*
X53317Y91945D01*
X53008Y92408D01*
X52698Y92615D01*
Y92667D01*
X52640Y92959D01*
X52474Y93208D01*
X49941Y95741D01*
X49799Y95835D01*
X49905Y96335D01*
X51083D01*
X52830Y94589D01*
X52773Y94300D01*
X52881Y93754D01*
X53191Y93291D01*
X53654Y92981D01*
X54200Y92873D01*
X54746Y92981D01*
X55209Y93291D01*
X55519Y93754D01*
X55627Y94300D01*
X55563Y94625D01*
X55796Y95181D01*
X56259Y95491D01*
X56569Y95954D01*
X56677Y96500D01*
X57124Y96817D01*
X57189Y96830D01*
X58235Y95783D01*
D02*
G37*
G36*
X45942Y91053D02*
X45981Y90854D01*
X46291Y90391D01*
X46754Y90081D01*
X47300Y89973D01*
X47338Y89980D01*
X58380Y78939D01*
X58273Y78400D01*
X58381Y77854D01*
X58691Y77391D01*
X59154Y77081D01*
X59700Y76973D01*
X59989Y77030D01*
X62959Y74059D01*
X63207Y73893D01*
X63500Y73835D01*
X70100D01*
X70393Y73893D01*
X70430Y73918D01*
X70749Y73530D01*
X69763Y72545D01*
X69538Y72589D01*
X68992Y72481D01*
X68529Y72171D01*
X68219Y71708D01*
X68131Y71265D01*
X63017D01*
X44231Y90050D01*
X45399Y91218D01*
X45942Y91053D01*
D02*
G37*
G36*
X62159Y69959D02*
X62407Y69793D01*
X62700Y69735D01*
X68557D01*
X68850Y69793D01*
X68958Y69866D01*
X68992Y69843D01*
X69538Y69735D01*
X70084Y69843D01*
X70547Y70153D01*
X70857Y70616D01*
X70965Y71162D01*
X70895Y71514D01*
X77016Y77634D01*
X77558Y77470D01*
X77581Y77354D01*
X77891Y76891D01*
X78135Y76727D01*
Y73617D01*
X72883Y68365D01*
X62417D01*
X42765Y88017D01*
Y88647D01*
X43265Y88854D01*
X62159Y69959D01*
D02*
G37*
G36*
X83791Y81791D02*
X84235Y81494D01*
X84248Y81408D01*
X84216Y80988D01*
X84214Y80979D01*
X83752Y80671D01*
X83442Y80208D01*
X83334Y79661D01*
X83442Y79115D01*
X83752Y78652D01*
X83997Y78488D01*
Y75378D01*
X74783Y66165D01*
X66897D01*
X66787Y66335D01*
X67060Y66835D01*
X73200D01*
X73493Y66894D01*
X73741Y67059D01*
X79441Y72759D01*
X79606Y73007D01*
X79665Y73300D01*
X79665Y73300D01*
Y76727D01*
X79909Y76891D01*
X80219Y77354D01*
X80327Y77900D01*
X80219Y78446D01*
X79909Y78909D01*
X79446Y79219D01*
X79330Y79242D01*
X79166Y79784D01*
X81417Y82035D01*
X83627D01*
X83791Y81791D01*
D02*
G37*
G36*
X87035Y85483D02*
Y72117D01*
X77859Y62941D01*
X77693Y62693D01*
X77635Y62400D01*
Y29117D01*
X73883Y25365D01*
X62773D01*
X62609Y25609D01*
X62146Y25919D01*
X61600Y26027D01*
X61054Y25919D01*
X60740Y25709D01*
X60279Y25810D01*
X60170Y25880D01*
X60041Y26074D01*
X58274Y27841D01*
X58026Y28007D01*
X57734Y28065D01*
X55901D01*
X55747Y28541D01*
X55746Y28565D01*
X57241Y30059D01*
X57407Y30307D01*
X57465Y30600D01*
Y48400D01*
X57407Y48693D01*
X57241Y48941D01*
X57241Y48941D01*
X53966Y52216D01*
X54130Y52758D01*
X54246Y52781D01*
X54709Y53091D01*
X55019Y53554D01*
X55127Y54100D01*
X55019Y54646D01*
X54709Y55109D01*
X54246Y55419D01*
X53700Y55527D01*
X53411Y55470D01*
X29155Y79726D01*
X29177Y79834D01*
X29719Y79999D01*
X52393Y57326D01*
X52641Y57160D01*
X52933Y57102D01*
X52983D01*
X53191Y56791D01*
X53654Y56481D01*
X54200Y56373D01*
X54746Y56481D01*
X55209Y56791D01*
X55519Y57254D01*
X55525Y57286D01*
X56068Y57451D01*
X62159Y51359D01*
X62407Y51193D01*
X62700Y51135D01*
X64227D01*
X64391Y50891D01*
X64854Y50581D01*
X65400Y50473D01*
X65946Y50581D01*
X66409Y50891D01*
X66719Y51354D01*
X66827Y51900D01*
X66719Y52446D01*
X66409Y52909D01*
X65946Y53219D01*
X65400Y53327D01*
X64854Y53219D01*
X64391Y52909D01*
X64227Y52665D01*
X63017D01*
X55641Y60041D01*
X55393Y60207D01*
X55181Y60249D01*
X55081Y60470D01*
X55054Y60765D01*
X55143Y60824D01*
X55361Y61151D01*
X55924Y61294D01*
X62859Y54359D01*
X63107Y54194D01*
X63400Y54135D01*
X71783D01*
X74335Y51583D01*
Y38773D01*
X74091Y38609D01*
X73781Y38146D01*
X73673Y37600D01*
X73781Y37054D01*
X74091Y36591D01*
X74554Y36281D01*
X75100Y36173D01*
X75646Y36281D01*
X76109Y36591D01*
X76419Y37054D01*
X76527Y37600D01*
X76419Y38146D01*
X76109Y38609D01*
X75865Y38773D01*
Y51900D01*
X75865Y51900D01*
X75806Y52193D01*
X75641Y52441D01*
X75641Y52441D01*
X72641Y55441D01*
X72393Y55607D01*
X72100Y55665D01*
X63717D01*
X55241Y64141D01*
X55140Y64208D01*
X53957Y65391D01*
X54037Y65660D01*
X54169Y65886D01*
X54646Y65981D01*
X55109Y66291D01*
X55419Y66754D01*
X55442Y66870D01*
X55984Y67034D01*
X62259Y60759D01*
X62507Y60593D01*
X62800Y60535D01*
X68083D01*
X70030Y58589D01*
X69973Y58300D01*
X70081Y57754D01*
X70391Y57291D01*
X70854Y56981D01*
X71400Y56873D01*
X71946Y56981D01*
X72409Y57291D01*
X72719Y57754D01*
X72827Y58300D01*
X72719Y58846D01*
X72409Y59309D01*
X71946Y59619D01*
X71400Y59727D01*
X71111Y59670D01*
X68941Y61841D01*
X68693Y62006D01*
X68400Y62065D01*
X63117D01*
X60852Y64330D01*
X61170Y64718D01*
X61207Y64693D01*
X61500Y64635D01*
X64194D01*
X64291Y64491D01*
X64754Y64181D01*
X65300Y64073D01*
X65846Y64181D01*
X66309Y64491D01*
X66406Y64635D01*
X75100D01*
X75393Y64693D01*
X75641Y64859D01*
X85302Y74520D01*
X85302Y74520D01*
X85468Y74769D01*
X85526Y75061D01*
Y78488D01*
X85771Y78652D01*
X86080Y79115D01*
X86189Y79661D01*
X86080Y80208D01*
X85771Y80671D01*
X85326Y80967D01*
X85313Y81054D01*
X85346Y81474D01*
X85347Y81482D01*
X85809Y81791D01*
X86119Y82254D01*
X86227Y82800D01*
X86119Y83346D01*
X85809Y83809D01*
X85346Y84119D01*
X84800Y84227D01*
X84254Y84119D01*
X83791Y83809D01*
X83627Y83565D01*
X81100D01*
X81100Y83565D01*
X80807Y83507D01*
X80559Y83341D01*
X79884Y82666D01*
X79773Y82700D01*
X79406Y83050D01*
X79465Y83343D01*
Y92401D01*
X79927Y92592D01*
X87035Y85483D01*
D02*
G37*
G36*
X89530Y109789D02*
X89473Y109500D01*
X89581Y108954D01*
X89891Y108491D01*
X90354Y108181D01*
X90900Y108073D01*
X91189Y108130D01*
X97435Y101883D01*
Y52983D01*
X94291Y49839D01*
X93728Y49983D01*
X93509Y50309D01*
X93265Y50473D01*
Y68483D01*
X95737Y70956D01*
X95903Y71204D01*
X95961Y71497D01*
Y97703D01*
X95961Y97703D01*
X95903Y97996D01*
X95737Y98244D01*
X90698Y103283D01*
X90746Y103509D01*
X90897Y103792D01*
X91346Y103881D01*
X91809Y104191D01*
X92119Y104654D01*
X92227Y105200D01*
X92119Y105746D01*
X91809Y106209D01*
X91346Y106519D01*
X90800Y106627D01*
X90511Y106570D01*
X85908Y111173D01*
X86099Y111635D01*
X87683D01*
X89530Y109789D01*
D02*
G37*
G36*
X91735Y66901D02*
Y50473D01*
X91491Y50309D01*
X91181Y49846D01*
X91073Y49300D01*
X91149Y48915D01*
X90852Y48415D01*
X87294D01*
X86918Y48853D01*
X86927Y48900D01*
X86819Y49446D01*
X86509Y49909D01*
X86046Y50219D01*
X85500Y50327D01*
X84954Y50219D01*
X84765Y50093D01*
X84265Y50360D01*
Y60083D01*
X91273Y67092D01*
X91735Y66901D01*
D02*
G37*
G36*
X17641Y94356D02*
X18035Y94147D01*
Y77600D01*
X18093Y77307D01*
X18259Y77059D01*
X21701Y73617D01*
X21655Y73391D01*
X21503Y73108D01*
X21054Y73019D01*
X20591Y72709D01*
X20281Y72246D01*
X20173Y71700D01*
X20281Y71154D01*
X20591Y70691D01*
X21054Y70381D01*
X21600Y70273D01*
X22146Y70381D01*
X22609Y70691D01*
X22884Y71101D01*
X22968Y71168D01*
X23460Y71309D01*
X23471Y71301D01*
X23476Y71282D01*
X23581Y70754D01*
X23891Y70291D01*
X24354Y69981D01*
X24900Y69873D01*
X25446Y69981D01*
X25909Y70291D01*
X26194Y70717D01*
X26293Y70794D01*
X26701Y70918D01*
X42835Y54783D01*
Y28400D01*
X42893Y28107D01*
X43059Y27859D01*
X44159Y26759D01*
X44159Y26759D01*
X44407Y26594D01*
X44552Y26565D01*
X44503Y26065D01*
X43617D01*
X42265Y27417D01*
Y50400D01*
X42265Y50400D01*
X42206Y50693D01*
X42041Y50941D01*
X28641Y64341D01*
X28393Y64507D01*
X28100Y64565D01*
X25017D01*
X14365Y75217D01*
Y91183D01*
X17551Y94369D01*
X17641Y94356D01*
D02*
G37*
%LPC*%
G36*
X65100Y36627D02*
X64554Y36519D01*
X64091Y36209D01*
X63781Y35746D01*
X63673Y35200D01*
X63781Y34654D01*
X64091Y34191D01*
X64554Y33881D01*
X65100Y33773D01*
X65646Y33881D01*
X66109Y34191D01*
X66419Y34654D01*
X66527Y35200D01*
X66419Y35746D01*
X66109Y36209D01*
X65646Y36519D01*
X65100Y36627D01*
D02*
G37*
%LPD*%
D10*
X11600Y37100D02*
X14421Y34280D01*
D12*
X28000Y59800D02*
X33500Y54300D01*
X8500Y109900D02*
Y113100D01*
X-2300Y66600D02*
Y99100D01*
X8500Y109900D01*
X4500Y59800D02*
X28000D01*
X-2300Y66600D02*
X4500Y59800D01*
X48800Y142100D02*
X90100D01*
X46400Y123200D02*
Y139700D01*
X48800Y142100D01*
X90100D02*
X100700Y131500D01*
Y112300D02*
Y131500D01*
D67*
X54700Y63600D02*
X63400Y54900D01*
X72100D02*
X75100Y51900D01*
X63400Y54900D02*
X72100D01*
X87800Y71800D02*
Y85800D01*
X78400Y28800D02*
Y62400D01*
X87800Y71800D01*
X24900Y71300D02*
Y71500D01*
X18800Y77600D02*
X24900Y71500D01*
X20700Y78000D02*
X43600Y55100D01*
X20700Y78000D02*
Y91700D01*
X43600Y28400D02*
Y55100D01*
X20700Y91700D02*
X21500Y92500D01*
Y94000D01*
X53700Y54100D02*
Y54100D01*
X28100Y79700D02*
Y89600D01*
Y79700D02*
X53700Y54100D01*
X29500Y81300D02*
Y88100D01*
X54133Y57867D02*
X54200Y57800D01*
X52933Y57867D02*
X54133D01*
X29500Y81300D02*
X52933Y57867D01*
X30900Y82100D02*
Y86500D01*
X53500Y59500D02*
X55100D01*
X30900Y82100D02*
X53500Y59500D01*
X18800Y77600D02*
Y94300D01*
X23300Y98800D01*
X22400Y78500D02*
X51734Y49166D01*
X22400Y88800D02*
X23900Y90300D01*
X22400Y78500D02*
Y88800D01*
X24200Y79100D02*
Y88200D01*
Y79100D02*
X54000Y49300D01*
X24200Y88200D02*
X27400Y91400D01*
X77150Y87650D02*
Y93050D01*
X59500Y106100D02*
X64100D01*
X77150Y93050D01*
X58900Y106700D02*
X59500Y106100D01*
X57917Y109583D02*
X60000Y107500D01*
X64686D02*
X78700Y93486D01*
X60000Y107500D02*
X64686D01*
X58800Y111100D02*
X61200Y108700D01*
X64900D02*
X87800Y85800D01*
X61200Y108700D02*
X64900D01*
X74200Y24600D02*
X78400Y28800D01*
X39949Y84151D02*
X62800Y61300D01*
X68400D02*
X71400Y58300D01*
X62800Y61300D02*
X68400D01*
X55100Y59500D02*
X62700Y51900D01*
X65400D01*
X51734Y34866D02*
Y49166D01*
X13600Y74900D02*
X24700Y63800D01*
X13600Y74900D02*
Y91500D01*
X20900Y98800D01*
X59500Y19300D02*
X64300Y14500D01*
X43300Y25300D02*
X57400D01*
X44700Y27300D02*
X57734D01*
X43600Y28400D02*
X44700Y27300D01*
X64300Y14500D02*
X78900D01*
X57734Y27300D02*
X59500Y25533D01*
Y19300D02*
Y25533D01*
X41500Y27100D02*
X43300Y25300D01*
X82300Y60614D02*
X90200Y68514D01*
X82300Y12500D02*
Y60614D01*
X90200Y68514D02*
Y98386D01*
X83500Y11800D02*
Y60400D01*
X91300Y68200D02*
Y98700D01*
X83500Y60400D02*
X91300Y68200D01*
X39700Y7900D02*
X79600D01*
X83500Y11800D01*
X78800Y9000D02*
X82300Y12500D01*
X37752Y9000D02*
X78800D01*
X54000Y35800D02*
Y49300D01*
X56700Y30600D02*
Y48400D01*
X26200Y78900D02*
Y84200D01*
Y78900D02*
X56700Y48400D01*
X41500Y27100D02*
Y50400D01*
X24700Y63800D02*
X28100D01*
X41500Y50400D01*
X16300Y106900D02*
X20900Y102300D01*
X16300Y112300D02*
X17700Y113700D01*
X16300Y106900D02*
Y112300D01*
X17800Y110600D02*
X19200Y112000D01*
X17800Y107500D02*
X23300Y102000D01*
X17800Y107500D02*
Y110600D01*
X19600Y108400D02*
X19750Y108250D01*
X21250D01*
X23300Y98800D02*
Y102000D01*
X21400Y110100D02*
Y110400D01*
Y110100D02*
X36500Y95000D01*
X17700Y113700D02*
X22800D01*
X20900Y98800D02*
Y102300D01*
X9300Y89800D02*
X17300Y97800D01*
X9300Y70700D02*
Y89800D01*
X6700Y74700D02*
Y90200D01*
X16800Y100300D01*
X7000Y94500D02*
X14600Y102100D01*
X18400D01*
X46100Y29100D02*
X55200D01*
X56700Y30600D01*
X29500Y88100D02*
X32200Y90800D01*
X34100Y89700D02*
Y92600D01*
X35100Y83166D02*
Y94400D01*
Y83166D02*
X54667Y63600D01*
X21250Y108250D02*
X35100Y94400D01*
X54667Y63600D02*
X54700D01*
X30900Y86500D02*
X34100Y89700D01*
X31100Y95600D02*
X34100Y92600D01*
X23200Y95600D02*
X31100D01*
X32800Y83166D02*
Y84300D01*
Y83166D02*
X54133Y61833D01*
X28100Y89600D02*
X29700Y91200D01*
X25200Y2300D02*
X96100D01*
X21800Y5700D02*
Y37300D01*
Y5700D02*
X25200Y2300D01*
X21800Y37300D02*
X25900Y33200D01*
X28700Y117600D02*
X31750Y114550D01*
X55000Y108400D02*
Y111900D01*
X57017Y109583D02*
X57917D01*
X56800Y109800D02*
X57017Y109583D01*
X44200Y123341D02*
Y137700D01*
X4800Y72800D02*
X6700Y74700D01*
X4400Y65800D02*
X9300Y70700D01*
X37300Y5700D02*
X37500D01*
X37200Y5600D02*
X37300Y5700D01*
X37500D02*
X39700Y7900D01*
X35100Y6800D02*
X35552D01*
X37752Y9000D01*
X99100Y5300D02*
Y41800D01*
X96100Y2300D02*
X99100Y5300D01*
X21800Y37300D02*
Y50400D01*
X88100Y41800D02*
X99100D01*
X99100Y41800D01*
X75100Y37600D02*
Y51900D01*
X56700Y106700D02*
X58900D01*
X55000Y108400D02*
X56700Y106700D01*
X59949Y103700D02*
X67100Y96549D01*
X55800Y103700D02*
X59949D01*
X67100Y89500D02*
Y96549D01*
X78700Y83343D02*
Y93486D01*
X78000Y82400D02*
Y82643D01*
X78700Y83343D01*
X81100Y82800D02*
X84800D01*
X69500Y71200D02*
X81100Y82800D01*
X56900Y98200D02*
X59000Y96100D01*
Y85500D02*
X63700Y80800D01*
X59000Y85500D02*
Y96100D01*
X61000Y86200D02*
Y97800D01*
X64500Y82700D02*
X71300D01*
X61000Y86200D02*
X64500Y82700D01*
X63700Y80800D02*
X68300D01*
X71300Y82700D02*
X72600Y81400D01*
X65466Y84600D02*
X71300D01*
X62900Y87167D02*
X65466Y84600D01*
X72000Y88000D02*
Y88100D01*
X75400Y79900D02*
Y84600D01*
X72000Y88000D02*
X75400Y84600D01*
X76300Y86800D02*
X77150Y87650D01*
X62900Y87167D02*
Y98700D01*
X55250Y96500D02*
Y96550D01*
X53800Y98000D02*
X55250Y96550D01*
X61600Y24600D02*
X74200D01*
X85500Y48900D02*
X86750Y47650D01*
X65000Y87400D02*
X67100Y89500D01*
X68800Y91200D01*
X75251Y91251D02*
X75500Y91500D01*
X74608Y91251D02*
X75251D01*
X74557Y91200D02*
X74608Y91251D01*
X68800Y91200D02*
X74557D01*
X58049Y101851D02*
X59749D01*
X62900Y98700D01*
X57757Y102050D02*
X57850D01*
X58049Y101851D01*
X53800Y101700D02*
X55800Y103700D01*
X53800Y98000D02*
Y101700D01*
X70100Y74600D02*
X75400Y79900D01*
X59700Y78400D02*
X63500Y74600D01*
X70100D01*
X58800Y100000D02*
X61000Y97800D01*
X88757Y113400D02*
X89657Y114300D01*
X68550Y115550D02*
X70700Y113400D01*
X89657Y114300D02*
X89700D01*
X70700Y113400D02*
X88757D01*
X67578Y114550D02*
X69728Y112400D01*
X88000D01*
X90900Y109500D01*
X67164Y113550D02*
X69314Y111400D01*
X84600D02*
X90800Y105200D01*
X69314Y111400D02*
X84600D01*
X29983Y113550D02*
X67164D01*
X33336Y115550D02*
X68550D01*
X31750Y114550D02*
X67578D01*
X29586Y119300D02*
X33336Y115550D01*
X26433Y117100D02*
X29983Y113550D01*
X32300Y118000D02*
X38859D01*
X30000Y120300D02*
X32300Y118000D01*
X38859D02*
X44200Y123341D01*
X59700Y78400D02*
Y78700D01*
X47300Y91100D02*
X59700Y78700D01*
X62100Y67600D02*
X73200D01*
X42000Y87700D02*
Y91700D01*
Y87700D02*
X62100Y67600D01*
X81200Y109400D02*
X83500D01*
X95197Y71497D02*
Y97703D01*
X83500Y109400D02*
X95197Y97703D01*
X90900Y109500D02*
X98200Y102200D01*
X93183Y47650D02*
X98200Y52666D01*
Y102200D01*
X86750Y47650D02*
X93183D01*
X92500Y68800D02*
X95197Y71497D01*
X92500Y49300D02*
Y68800D01*
X75100Y65400D02*
X84761Y75061D01*
X61500Y65400D02*
X75100D01*
X84761Y75061D02*
Y79661D01*
X78900Y73300D02*
Y77900D01*
X53167Y67300D02*
X54100D01*
X36500Y83966D02*
X53167Y67300D01*
X69219Y71162D02*
X69538D01*
X68557Y70500D02*
X69219Y71162D01*
X62700Y70500D02*
X68557D01*
X51734Y34866D02*
X53900Y32700D01*
X23900Y90300D02*
Y93300D01*
X38400Y84400D02*
X38649Y84151D01*
X39949D01*
X36500Y83966D02*
Y95000D01*
X40100Y86800D02*
X61500Y65400D01*
X73200Y67600D02*
X78900Y73300D01*
X43357Y89843D02*
X62700Y70500D01*
X43357Y89843D02*
Y90257D01*
X46150Y93050D01*
X47983D02*
X49600Y91434D01*
X46150Y93050D02*
X47983D01*
X49600Y91400D02*
Y91434D01*
X40100Y86800D02*
Y94200D01*
X47300Y91100D02*
Y91400D01*
X51400Y97100D02*
X54200Y94300D01*
X51933Y91464D02*
X51999Y91399D01*
X51933Y91464D02*
Y92667D01*
X49400Y95200D02*
X51933Y92667D01*
X45500Y95200D02*
X49400D01*
X42000Y91700D02*
X45500Y95200D01*
X40100Y94200D02*
X43000Y97100D01*
X25300Y120300D02*
X30000D01*
X26000Y119300D02*
X29586D01*
X22800Y117800D02*
X25300Y120300D01*
X24600Y117900D02*
X26000Y119300D01*
X24600Y115500D02*
Y117900D01*
X22800Y113700D02*
Y117800D01*
X26400Y117100D02*
X26433D01*
X82800Y107200D02*
X91300Y98700D01*
X80500Y107200D02*
X82800D01*
X78700Y105400D02*
X83186D01*
X90200Y98386D01*
X43000Y97100D02*
X51400D01*
D74*
X-1449Y18256D02*
D03*
Y52272D02*
D03*
D75*
X15008Y18256D02*
D03*
Y52272D02*
D03*
D76*
X101910Y28565D02*
D03*
Y60061D02*
D03*
D77*
X51300Y84600D02*
D03*
X64600Y102400D02*
D03*
X57200Y90800D02*
D03*
X34200Y37500D02*
D03*
X33400Y41000D02*
D03*
X32300Y48400D02*
D03*
X34700Y51100D02*
D03*
X64700Y138400D02*
D03*
X66100Y136000D02*
D03*
X70900Y132200D02*
D03*
X76800Y124200D02*
D03*
X79600Y133300D02*
D03*
X82000Y134300D02*
D03*
X73900Y130300D02*
D03*
X68100Y53250D02*
D03*
X40300Y54000D02*
D03*
X39800Y56100D02*
D03*
X80600Y90300D02*
D03*
X81800Y79900D02*
D03*
X76800Y75200D02*
D03*
X80400Y55500D02*
D03*
X103300Y83000D02*
D03*
X101100Y76500D02*
D03*
X104500Y76800D02*
D03*
X105300Y80500D02*
D03*
X102700Y79900D02*
D03*
X79900Y66800D02*
D03*
X81600Y68600D02*
D03*
X24900Y71300D02*
D03*
X21600Y71700D02*
D03*
X62800Y103800D02*
D03*
X57400Y12100D02*
D03*
Y14800D02*
D03*
X90300Y14200D02*
D03*
X92700Y14100D02*
D03*
X102900Y32500D02*
D03*
X113500Y14600D02*
D03*
X114800Y19400D02*
D03*
X110800Y71900D02*
D03*
X107600Y57600D02*
D03*
X109000Y48600D02*
D03*
X105300Y51200D02*
D03*
X109100Y62100D02*
D03*
X111800Y76000D02*
D03*
X90000Y54600D02*
D03*
X80400Y48200D02*
D03*
X80200Y26000D02*
D03*
X48900Y123400D02*
D03*
X41100Y127000D02*
D03*
X19900Y116100D02*
D03*
X5700Y121200D02*
D03*
X7600Y120000D02*
D03*
X5200Y100200D02*
D03*
X5700Y102700D02*
D03*
X11400Y67900D02*
D03*
Y69900D02*
D03*
X11500Y83500D02*
D03*
X87400Y90300D02*
D03*
X91200Y125700D02*
D03*
X87200Y126600D02*
D03*
X67500Y120500D02*
D03*
X66100Y118200D02*
D03*
X60500Y137400D02*
D03*
X54800Y137800D02*
D03*
X57200D02*
D03*
X37000Y137700D02*
D03*
X39300Y137600D02*
D03*
X95700Y119400D02*
D03*
X97800Y119100D02*
D03*
X102300Y101800D02*
D03*
X102600Y99300D02*
D03*
X95600Y57300D02*
D03*
X95700Y63100D02*
D03*
X87900Y56600D02*
D03*
X89200Y60900D02*
D03*
X85300Y66300D02*
D03*
X75800Y59800D02*
D03*
X75300Y56200D02*
D03*
X70800Y52000D02*
D03*
X71400Y58300D02*
D03*
X75400Y21500D02*
D03*
X78700Y20800D02*
D03*
X71400Y11100D02*
D03*
X74500Y17400D02*
D03*
X76900D02*
D03*
X90300Y5500D02*
D03*
X85900D02*
D03*
X88100D02*
D03*
X112300Y30200D02*
D03*
X106200Y10100D02*
D03*
X106000Y7800D02*
D03*
X105500Y20500D02*
D03*
X105600Y22500D02*
D03*
X109600Y28500D02*
D03*
X109000Y30600D02*
D03*
X106800Y29200D02*
D03*
X73400Y31200D02*
D03*
X73000Y42600D02*
D03*
X71400Y35100D02*
D03*
X74300Y33400D02*
D03*
X37100Y36000D02*
D03*
X4700Y83200D02*
D03*
X11300Y80800D02*
D03*
X3400Y24200D02*
D03*
X4800Y29500D02*
D03*
X3900Y36800D02*
D03*
X7200Y44500D02*
D03*
X34900Y47600D02*
D03*
X33900Y18200D02*
D03*
X40700D02*
D03*
X34000Y23300D02*
D03*
X40600Y23100D02*
D03*
X37200Y20300D02*
D03*
X36400Y40200D02*
D03*
X37700Y46700D02*
D03*
X36500Y43800D02*
D03*
X44266Y105301D02*
D03*
X41791Y102826D02*
D03*
X39316Y100352D02*
D03*
X36841Y102826D02*
D03*
X39316Y105301D02*
D03*
X41791Y107776D02*
D03*
X39316Y110251D02*
D03*
X34367Y105301D02*
D03*
X36841Y107776D02*
D03*
X57400Y25300D02*
D03*
X78900Y14500D02*
D03*
X19600Y108400D02*
D03*
X21400Y110400D02*
D03*
X17300Y97800D02*
D03*
X16800Y100300D02*
D03*
X18400Y102100D02*
D03*
X33500Y54300D02*
D03*
X46100Y29100D02*
D03*
X53700Y54100D02*
D03*
X32200Y90800D02*
D03*
X32800Y84300D02*
D03*
X26200Y84200D02*
D03*
X8500Y113100D02*
D03*
Y99200D02*
D03*
X26200Y5200D02*
D03*
X27285Y28485D02*
D03*
X35100Y6800D02*
D03*
X40200Y5700D02*
D03*
X30900Y6800D02*
D03*
X37200Y5600D02*
D03*
X25900Y33200D02*
D03*
X21600Y56500D02*
D03*
X7000Y94500D02*
D03*
X-4200Y105900D02*
D03*
X-5500Y104747D02*
D03*
X28700Y117600D02*
D03*
X55000Y111900D02*
D03*
X58800Y111100D02*
D03*
X56800Y109800D02*
D03*
X44200Y137700D02*
D03*
X100700Y112300D02*
D03*
X4200Y80800D02*
D03*
X27400Y91400D02*
D03*
X23900Y93300D02*
D03*
X29700Y91200D02*
D03*
X23200Y95600D02*
D03*
X93400Y28200D02*
D03*
X95200Y28200D02*
D03*
X21800Y50400D02*
D03*
X88100Y41800D02*
D03*
X99100Y41800D02*
D03*
X75100Y37600D02*
D03*
X21600Y54413D02*
D03*
X11600Y37300D02*
D03*
X14421Y34280D02*
D03*
X62100Y111300D02*
D03*
X54600Y117300D02*
D03*
X84800Y82800D02*
D03*
X68300Y80800D02*
D03*
X72600Y81400D02*
D03*
X71300Y84600D02*
D03*
X76300Y86800D02*
D03*
X55250Y96500D02*
D03*
X56900Y98200D02*
D03*
X85500Y48900D02*
D03*
X57757Y102050D02*
D03*
X58800Y100000D02*
D03*
X65000Y87400D02*
D03*
X52700Y118800D02*
D03*
X75500Y91500D02*
D03*
X59700Y78400D02*
D03*
X72000Y88100D02*
D03*
X78000Y82400D02*
D03*
X90800Y105200D02*
D03*
X90900Y109500D02*
D03*
X92500Y49300D02*
D03*
X81200Y109400D02*
D03*
X84761Y79661D02*
D03*
X89700Y114300D02*
D03*
X78900Y77900D02*
D03*
X69538Y71162D02*
D03*
X61600Y24600D02*
D03*
X54133Y61833D02*
D03*
X54100Y67300D02*
D03*
X54200Y57800D02*
D03*
X65300Y65500D02*
D03*
X65100Y35200D02*
D03*
X38400Y84400D02*
D03*
X65400Y51900D02*
D03*
X54200Y94300D02*
D03*
X51999Y91399D02*
D03*
X78700Y105400D02*
D03*
X46400Y123200D02*
D03*
X21500Y94000D02*
D03*
X53900Y32700D02*
D03*
X54000Y35800D02*
D03*
X19200Y112000D02*
D03*
X26400Y117100D02*
D03*
X24600Y115500D02*
D03*
X80500Y107200D02*
D03*
X22800Y113700D02*
D03*
X4400Y65800D02*
D03*
X4800Y72800D02*
D03*
X47300Y91400D02*
D03*
X49600D02*
D03*
X35300Y122700D02*
D03*
D78*
X13039Y46642D02*
D03*
Y23886D02*
D03*
D79*
X84284Y119811D02*
D03*
Y96189D02*
D03*
M02*
