G04*
G04 #@! TF.GenerationSoftware,Altium Limited,Altium Designer,20.1.10 (176)*
G04*
G04 Layer_Physical_Order=1*
G04 Layer_Color=255*
%FSLAX25Y25*%
%MOIN*%
G70*
G04*
G04 #@! TF.SameCoordinates,F252A181-4E7B-4898-9581-9C64CF10C23C*
G04*
G04*
G04 #@! TF.FilePolarity,Positive*
G04*
G01*
G75*
%ADD10C,0.00600*%
%ADD12C,0.01000*%
%ADD15R,0.02000X0.02000*%
%ADD16R,0.02000X0.02000*%
%ADD17R,0.02362X0.05118*%
%ADD18R,0.03150X0.02756*%
G04:AMPARAMS|DCode=19|XSize=31.5mil|YSize=27.56mil|CornerRadius=0mil|HoleSize=0mil|Usage=FLASHONLY|Rotation=0.000|XOffset=0mil|YOffset=0mil|HoleType=Round|Shape=Octagon|*
%AMOCTAGOND19*
4,1,8,0.01575,-0.00689,0.01575,0.00689,0.00886,0.01378,-0.00886,0.01378,-0.01575,0.00689,-0.01575,-0.00689,-0.00886,-0.01378,0.00886,-0.01378,0.01575,-0.00689,0.0*
%
%ADD19OCTAGOND19*%

%ADD20P,0.02828X4X180.0*%
%ADD21P,0.02828X4X270.0*%
G04:AMPARAMS|DCode=22|XSize=24.8mil|YSize=88.58mil|CornerRadius=0mil|HoleSize=0mil|Usage=FLASHONLY|Rotation=45.000|XOffset=0mil|YOffset=0mil|HoleType=Round|Shape=Round|*
%AMOVALD22*
21,1,0.06378,0.02480,0.00000,0.00000,135.0*
1,1,0.02480,0.02255,-0.02255*
1,1,0.02480,-0.02255,0.02255*
%
%ADD22OVALD22*%

G04:AMPARAMS|DCode=23|XSize=80mil|YSize=24mil|CornerRadius=0mil|HoleSize=0mil|Usage=FLASHONLY|Rotation=135.000|XOffset=0mil|YOffset=0mil|HoleType=Round|Shape=Round|*
%AMOVALD23*
21,1,0.05600,0.02400,0.00000,0.00000,135.0*
1,1,0.02400,0.01980,-0.01980*
1,1,0.02400,-0.01980,0.01980*
%
%ADD23OVALD23*%

%ADD24R,0.05118X0.02362*%
%ADD25R,0.03000X0.03000*%
%ADD26P,0.03247X8X292.5*%
%ADD27P,0.23385X4X360.0*%
G04:AMPARAMS|DCode=28|XSize=8.66mil|YSize=39.37mil|CornerRadius=0mil|HoleSize=0mil|Usage=FLASHONLY|Rotation=315.000|XOffset=0mil|YOffset=0mil|HoleType=Round|Shape=Round|*
%AMOVALD28*
21,1,0.03071,0.00866,0.00000,0.00000,45.0*
1,1,0.00866,-0.01086,-0.01086*
1,1,0.00866,0.01086,0.01086*
%
%ADD28OVALD28*%

G04:AMPARAMS|DCode=29|XSize=8.66mil|YSize=39.37mil|CornerRadius=0mil|HoleSize=0mil|Usage=FLASHONLY|Rotation=45.000|XOffset=0mil|YOffset=0mil|HoleType=Round|Shape=Round|*
%AMOVALD29*
21,1,0.03071,0.00866,0.00000,0.00000,135.0*
1,1,0.00866,0.01086,-0.01086*
1,1,0.00866,-0.01086,0.01086*
%
%ADD29OVALD29*%

G04:AMPARAMS|DCode=30|XSize=31.5mil|YSize=70.87mil|CornerRadius=7.87mil|HoleSize=0mil|Usage=FLASHONLY|Rotation=180.000|XOffset=0mil|YOffset=0mil|HoleType=Round|Shape=RoundedRectangle|*
%AMROUNDEDRECTD30*
21,1,0.03150,0.05512,0,0,180.0*
21,1,0.01575,0.07087,0,0,180.0*
1,1,0.01575,-0.00787,0.02756*
1,1,0.01575,0.00787,0.02756*
1,1,0.01575,0.00787,-0.02756*
1,1,0.01575,-0.00787,-0.02756*
%
%ADD30ROUNDEDRECTD30*%
G04:AMPARAMS|DCode=31|XSize=55.12mil|YSize=47.24mil|CornerRadius=11.81mil|HoleSize=0mil|Usage=FLASHONLY|Rotation=315.000|XOffset=0mil|YOffset=0mil|HoleType=Round|Shape=RoundedRectangle|*
%AMROUNDEDRECTD31*
21,1,0.05512,0.02362,0,0,315.0*
21,1,0.03150,0.04724,0,0,315.0*
1,1,0.02362,0.00278,-0.01949*
1,1,0.02362,-0.01949,0.00278*
1,1,0.02362,-0.00278,0.01949*
1,1,0.02362,0.01949,-0.00278*
%
%ADD31ROUNDEDRECTD31*%
G04:AMPARAMS|DCode=32|XSize=55.12mil|YSize=47.24mil|CornerRadius=0mil|HoleSize=0mil|Usage=FLASHONLY|Rotation=315.000|XOffset=0mil|YOffset=0mil|HoleType=Round|Shape=Rectangle|*
%AMROTATEDRECTD32*
4,1,4,-0.03619,0.00278,-0.00278,0.03619,0.03619,-0.00278,0.00278,-0.03619,-0.03619,0.00278,0.0*
%
%ADD32ROTATEDRECTD32*%

G04:AMPARAMS|DCode=33|XSize=51.18mil|YSize=23.62mil|CornerRadius=0mil|HoleSize=0mil|Usage=FLASHONLY|Rotation=45.000|XOffset=0mil|YOffset=0mil|HoleType=Round|Shape=Rectangle|*
%AMROTATEDRECTD33*
4,1,4,-0.00974,-0.02645,-0.02645,-0.00974,0.00974,0.02645,0.02645,0.00974,-0.00974,-0.02645,0.0*
%
%ADD33ROTATEDRECTD33*%

%ADD34R,0.02165X0.03937*%
%ADD35R,0.02165X0.03937*%
%ADD36R,0.03937X0.02165*%
%ADD37R,0.03937X0.02165*%
%ADD38R,0.01378X0.11811*%
%ADD67C,0.00500*%
%ADD68C,0.01500*%
%ADD69C,0.01300*%
%ADD70C,0.01200*%
%ADD71C,0.00800*%
%ADD72R,0.10453X0.01600*%
G04:AMPARAMS|DCode=73|XSize=25.79mil|YSize=18.05mil|CornerRadius=0mil|HoleSize=0mil|Usage=FLASHONLY|Rotation=135.000|XOffset=0mil|YOffset=0mil|HoleType=Round|Shape=Rectangle|*
%AMROTATEDRECTD73*
4,1,4,0.01550,-0.00273,0.00273,-0.01550,-0.01550,0.00273,-0.00273,0.01550,0.01550,-0.00273,0.0*
%
%ADD73ROTATEDRECTD73*%

%ADD74O,0.07087X0.03937*%
%ADD75O,0.08268X0.03937*%
%ADD76C,0.03937*%
%ADD77C,0.01800*%
%ADD78C,0.02756*%
%ADD79C,0.06693*%
G36*
X112000Y143979D02*
X113166Y143864D01*
X114288Y143524D01*
X115322Y142971D01*
X116228Y142228D01*
X116971Y141322D01*
X117524Y140288D01*
X117864Y139166D01*
X117979Y138000D01*
X117980D01*
Y8000D01*
X117980Y8000D01*
X117980D01*
X117935Y7510D01*
X117850Y6638D01*
X117452Y5328D01*
X116807Y4120D01*
X115938Y3062D01*
X114880Y2193D01*
X113672Y1548D01*
X112362Y1151D01*
X111011Y1017D01*
X111000Y1020D01*
X92932D01*
X92775Y1431D01*
X92770Y1520D01*
X93628Y2378D01*
X93904Y2791D01*
X94001Y3279D01*
Y8079D01*
X94310D01*
Y9249D01*
X97857D01*
Y9000D01*
X100857Y9000D01*
X100900Y8518D01*
Y8500D01*
X102150D01*
Y10500D01*
X102900D01*
Y11250D01*
X104900D01*
Y12100D01*
Y14305D01*
X105362Y14496D01*
X106700Y13158D01*
Y11600D01*
X107700Y10600D01*
X109700D01*
X110700Y11600D01*
Y13600D01*
X109700Y14600D01*
X108142D01*
X106399Y16343D01*
X106731Y16718D01*
X110700D01*
Y20718D01*
X109720D01*
Y23200D01*
X109642Y23590D01*
X109421Y23921D01*
X107721Y25621D01*
X107390Y25842D01*
X107000Y25920D01*
X103295D01*
X103143Y26420D01*
X103690Y26785D01*
X104235Y27601D01*
X104427Y28565D01*
X104235Y29528D01*
X103690Y30344D01*
X102873Y30890D01*
X101910Y31081D01*
X100947Y30890D01*
X100130Y30344D01*
X99585Y29528D01*
X99393Y28565D01*
X99585Y27601D01*
X100130Y26785D01*
X100677Y26420D01*
X100525Y25920D01*
X94383D01*
X94001Y26233D01*
Y26916D01*
X94474Y26925D01*
X94587D01*
X94654Y26881D01*
X95200Y26772D01*
X95746Y26881D01*
X96209Y27190D01*
X96519Y27653D01*
X96627Y28200D01*
X96519Y28746D01*
X96209Y29209D01*
X95746Y29518D01*
X95200Y29627D01*
X94654Y29518D01*
X94587Y29474D01*
X94013D01*
X93946Y29519D01*
X93412Y29625D01*
X93400Y29627D01*
X92943Y29700D01*
X92467Y29759D01*
Y30307D01*
X92370Y30795D01*
X92094Y31208D01*
X91842Y31460D01*
X92034Y31922D01*
X93182D01*
X94121Y32861D01*
Y33035D01*
X97179D01*
Y31592D01*
X100541D01*
Y36629D01*
X102047Y38135D01*
X104159D01*
Y35401D01*
X106340D01*
X108521D01*
Y38135D01*
X110283D01*
X110700Y37719D01*
X110700Y35800D01*
X110218Y35757D01*
X110200D01*
Y34507D01*
X112200D01*
X114200D01*
Y35757D01*
X114182D01*
X113700Y35800D01*
X113700Y36257D01*
Y38800D01*
X111781D01*
X111141Y39441D01*
X110893Y39606D01*
X110600Y39665D01*
X101731D01*
X101438Y39606D01*
X101190Y39441D01*
X101190Y39441D01*
X99459Y37710D01*
X97179D01*
Y34565D01*
X94121D01*
Y34739D01*
X93363Y35497D01*
X93234Y35800D01*
X93363Y36103D01*
X94121Y36861D01*
Y38739D01*
X93363Y39497D01*
X93234Y39800D01*
X93363Y40103D01*
X94121Y40861D01*
Y42739D01*
X93363Y43497D01*
X93234Y43800D01*
X93363Y44103D01*
X94121Y44861D01*
Y46739D01*
X93300Y47561D01*
X93280Y48138D01*
X93509Y48291D01*
X93819Y48754D01*
X93927Y49300D01*
X93819Y49846D01*
X93509Y50309D01*
X93046Y50619D01*
X92500Y50727D01*
X91954Y50619D01*
X91491Y50309D01*
X91181Y49846D01*
X91073Y49300D01*
X91181Y48754D01*
X91299Y48578D01*
X91282Y48495D01*
Y47678D01*
X90911D01*
X89972Y46739D01*
Y44861D01*
X90730Y44103D01*
X90859Y43800D01*
X90730Y43497D01*
X89972Y42739D01*
Y42129D01*
X89472Y42080D01*
X89419Y42346D01*
X89109Y42809D01*
X88646Y43119D01*
X88100Y43227D01*
X87928Y43193D01*
X87428Y43591D01*
X87428Y44178D01*
Y47678D01*
X86969D01*
X86701Y48178D01*
X86819Y48354D01*
X86927Y48900D01*
X86819Y49446D01*
X86509Y49909D01*
X86046Y50219D01*
X85500Y50327D01*
X84954Y50219D01*
X84491Y49909D01*
X84181Y49446D01*
X84073Y48900D01*
X84181Y48354D01*
X84299Y48178D01*
X84031Y47678D01*
X83279D01*
Y44178D01*
X83279Y43922D01*
X83279Y43422D01*
Y40178D01*
X83279Y39922D01*
X83279Y39422D01*
Y38365D01*
X76273D01*
X76109Y38609D01*
X75646Y38919D01*
X75100Y39027D01*
X74554Y38919D01*
X74091Y38609D01*
X73781Y38146D01*
X73673Y37600D01*
X73781Y37054D01*
X74091Y36591D01*
X74554Y36281D01*
X75100Y36173D01*
X75646Y36281D01*
X76109Y36591D01*
X76273Y36835D01*
X82925D01*
X83279Y36482D01*
X83279Y35922D01*
X83279Y35422D01*
Y33295D01*
X83254Y33172D01*
Y32975D01*
X83279Y32852D01*
Y31922D01*
X83855D01*
X84041Y31798D01*
X84529Y31701D01*
X85017Y31798D01*
X85203Y31922D01*
X85626D01*
X86886Y30662D01*
X86695Y30200D01*
X85900D01*
Y28950D01*
X87900D01*
Y28200D01*
X88650D01*
Y26200D01*
X89900D01*
Y26217D01*
X89943Y26700D01*
X91141D01*
X91452Y26388D01*
Y24827D01*
X91144D01*
Y20120D01*
X91144Y19890D01*
X90756Y19620D01*
X87322D01*
X86849Y20093D01*
Y21776D01*
X86829Y21874D01*
Y24827D01*
X83664D01*
Y19890D01*
X84809D01*
Y19671D01*
X84887Y19281D01*
X85108Y18950D01*
X86179Y17879D01*
X86419Y17718D01*
X86489Y17351D01*
X86476Y17155D01*
X86425Y17121D01*
X84569Y15265D01*
X80073D01*
X79909Y15509D01*
X79446Y15819D01*
X78900Y15927D01*
X78354Y15819D01*
X77891Y15509D01*
X77581Y15046D01*
X77473Y14500D01*
X77581Y13954D01*
X77891Y13491D01*
X78354Y13181D01*
X78900Y13073D01*
X79446Y13181D01*
X79909Y13491D01*
X80073Y13735D01*
X84227D01*
Y13016D01*
X83664D01*
Y8079D01*
X86829Y8079D01*
X86904Y7610D01*
Y7579D01*
X88236D01*
Y10547D01*
Y13516D01*
X86904D01*
Y13485D01*
X86897Y13445D01*
X86364Y13272D01*
X86266Y13369D01*
Y14078D01*
X87569Y15380D01*
X97857D01*
Y12600D01*
X98083D01*
Y12000D01*
X97857D01*
Y11798D01*
X94310D01*
Y13016D01*
X91144Y13016D01*
X91069Y13485D01*
Y13516D01*
X89736D01*
Y10547D01*
Y7579D01*
X90952D01*
X91069Y7579D01*
X91452Y7296D01*
Y3807D01*
X91320Y3675D01*
X27337D01*
X27185Y4174D01*
X27209Y4191D01*
X27519Y4654D01*
X27627Y5200D01*
X27519Y5746D01*
X27220Y6194D01*
Y26761D01*
X27573Y27115D01*
X27831Y27166D01*
X28294Y27475D01*
X28604Y27939D01*
X28712Y28485D01*
X28604Y29031D01*
X28294Y29494D01*
X27831Y29804D01*
X27285Y29912D01*
X26739Y29804D01*
X26275Y29494D01*
X25966Y29031D01*
X25857Y28485D01*
X25891Y28316D01*
X25479Y27904D01*
X25258Y27574D01*
X25180Y27183D01*
Y6194D01*
X24881Y5746D01*
X24773Y5200D01*
X24788Y5121D01*
X24327Y4875D01*
X22275Y6928D01*
Y26100D01*
X22177Y26588D01*
X21901Y27001D01*
X20631Y28271D01*
Y31700D01*
X20857D01*
Y34700D01*
X20631D01*
Y37279D01*
X22210D01*
Y38838D01*
X25041Y41669D01*
X25287Y41627D01*
X25541Y41488D01*
Y41019D01*
X31659D01*
Y44381D01*
X29875D01*
Y56197D01*
X30021Y56375D01*
X31900D01*
Y56100D01*
X32430D01*
Y55219D01*
X32181Y54846D01*
X32073Y54300D01*
X32181Y53754D01*
X32491Y53291D01*
X32954Y52981D01*
X33500Y52873D01*
X34046Y52981D01*
X34509Y53291D01*
X34819Y53754D01*
X34927Y54300D01*
X34819Y54846D01*
X34677Y55059D01*
X34912Y55595D01*
X34943Y55600D01*
X34970Y55600D01*
X36193D01*
Y57600D01*
X36943D01*
Y58350D01*
X38943D01*
Y59200D01*
Y60450D01*
X36943D01*
Y61950D01*
X38943D01*
Y63200D01*
X38858D01*
X38400Y63300D01*
X38400Y63700D01*
Y66300D01*
X38859Y66400D01*
X38900D01*
Y67650D01*
X36900D01*
Y68400D01*
X36150D01*
Y70400D01*
X34900D01*
Y70382D01*
X34857Y69900D01*
X32939D01*
X30998Y71841D01*
X30750Y72006D01*
X30457Y72065D01*
X26073D01*
X25909Y72309D01*
X25446Y72619D01*
X24900Y72727D01*
X24354Y72619D01*
X23891Y72309D01*
X23581Y71846D01*
X23473Y71300D01*
X23581Y70754D01*
X23891Y70291D01*
X24354Y69981D01*
X24900Y69873D01*
X25446Y69981D01*
X25909Y70291D01*
X26073Y70535D01*
X30141D01*
X31857Y68819D01*
Y66900D01*
X33430D01*
X33496Y66800D01*
X33229Y66300D01*
X31857D01*
Y63300D01*
X32104D01*
Y62700D01*
X31900D01*
Y59700D01*
X32125D01*
Y59100D01*
X31900D01*
Y58925D01*
X29341D01*
X29179Y59358D01*
X29179D01*
Y60690D01*
X26211D01*
Y62190D01*
X29179D01*
Y63523D01*
X29149D01*
X28679Y63598D01*
Y66763D01*
X23742D01*
Y65617D01*
X23186D01*
X22796Y65540D01*
X22465Y65319D01*
X21879Y64733D01*
X21658Y64402D01*
X21580Y64012D01*
Y58868D01*
X21658Y58478D01*
X21699Y58418D01*
X21670Y58274D01*
X21445Y57897D01*
X21054Y57819D01*
X20591Y57509D01*
X20281Y57046D01*
X20173Y56500D01*
X20281Y55954D01*
X20325Y55888D01*
Y55026D01*
X20281Y54959D01*
X20173Y54413D01*
X20281Y53867D01*
X20591Y53404D01*
X21054Y53095D01*
X21132Y53079D01*
X21894Y52317D01*
X21853Y52104D01*
X21697Y51807D01*
X21254Y51719D01*
X20791Y51409D01*
X20481Y50946D01*
X20373Y50400D01*
X20481Y49854D01*
X20696Y49533D01*
Y48121D01*
X16092D01*
Y44759D01*
X22210D01*
Y47297D01*
X22225Y47371D01*
Y48674D01*
X22425Y48795D01*
X22926Y48511D01*
Y43159D01*
X20408Y40641D01*
X16092D01*
Y37279D01*
X18082D01*
Y34700D01*
X17857D01*
Y31700D01*
X18082D01*
Y27743D01*
X18180Y27255D01*
X18456Y26842D01*
X19726Y25572D01*
Y20543D01*
X19226Y20423D01*
X18670Y20849D01*
X17948Y21148D01*
X17173Y21250D01*
X15758D01*
Y18256D01*
Y15262D01*
X17173D01*
X17948Y15364D01*
X18670Y15663D01*
X19226Y16089D01*
X19726Y15969D01*
Y6400D01*
X19823Y5912D01*
X20099Y5499D01*
X24078Y1520D01*
X24073Y1431D01*
X23916Y1020D01*
X0D01*
X-11Y1017D01*
X-1362Y1151D01*
X-2672Y1548D01*
X-3880Y2193D01*
X-4938Y3062D01*
X-5807Y4120D01*
X-6452Y5328D01*
X-6849Y6638D01*
X-6983Y7989D01*
X-6980Y8000D01*
Y82466D01*
X-6480Y82617D01*
X-6401Y82499D01*
X-3758Y79856D01*
X-3345Y79580D01*
X-2857Y79483D01*
X-200D01*
Y79257D01*
X2800D01*
Y79483D01*
X3652D01*
X3654Y79481D01*
X4200Y79373D01*
X4746Y79481D01*
X4748Y79483D01*
X4815D01*
X7799Y76499D01*
X8212Y76222D01*
X8700Y76126D01*
X12567D01*
X13057Y76100D01*
Y74850D01*
X15057D01*
Y73350D01*
X13057D01*
Y72100D01*
X13073D01*
Y71192D01*
X15073D01*
Y70442D01*
X15823D01*
Y68442D01*
X17073D01*
X17350Y68056D01*
Y66808D01*
X16869Y66763D01*
X16850Y66763D01*
X11931D01*
Y63598D01*
X16850D01*
X16869Y63598D01*
X17350Y63553D01*
Y59436D01*
X17218Y59304D01*
X14730D01*
X14621Y59283D01*
X11931D01*
Y56117D01*
X16869D01*
Y56755D01*
X17746D01*
X18233Y56852D01*
X18647Y57129D01*
X19525Y58007D01*
X19802Y58421D01*
X19899Y58908D01*
Y68941D01*
X20116D01*
Y70568D01*
X20127Y70623D01*
X20692D01*
X21054Y70381D01*
X21600Y70273D01*
X22146Y70381D01*
X22609Y70691D01*
X22919Y71154D01*
X23027Y71700D01*
X22919Y72246D01*
X22609Y72709D01*
X22146Y73019D01*
X21600Y73127D01*
X21054Y73019D01*
X20978Y72968D01*
X20100D01*
Y74227D01*
X20124Y74350D01*
Y74922D01*
X23259Y78056D01*
X23535Y78470D01*
X23632Y78957D01*
Y79311D01*
X24479Y80157D01*
X23781Y80856D01*
X23791Y80906D01*
X24333Y81071D01*
X24863Y80541D01*
X26984Y82662D01*
Y82662D01*
X27024Y83067D01*
X27209Y83191D01*
X27373Y83435D01*
X28237D01*
X28530Y83494D01*
X28778Y83659D01*
X31535Y86417D01*
X32035Y86210D01*
Y85473D01*
X31791Y85309D01*
X31481Y84846D01*
X31373Y84300D01*
X31481Y83754D01*
X31791Y83291D01*
X32254Y82981D01*
X32800Y82873D01*
X33346Y82981D01*
X33809Y83291D01*
X34119Y83754D01*
X34227Y84300D01*
X34119Y84846D01*
X33809Y85309D01*
X33565Y85473D01*
Y86219D01*
X36444Y89099D01*
X36646Y89139D01*
X36955Y89345D01*
X38993Y91384D01*
X39316Y91467D01*
X39639Y91384D01*
X40051Y90971D01*
X37859Y88779D01*
X37694Y88531D01*
X37635Y88238D01*
Y85573D01*
X37391Y85409D01*
X37081Y84946D01*
X36973Y84400D01*
X37081Y83854D01*
X37391Y83391D01*
X37635Y83227D01*
Y82300D01*
X37684Y82056D01*
X36573Y80945D01*
X38416Y79102D01*
X38649Y78869D01*
X38466Y78445D01*
X38512Y78399D01*
X38512Y78399D01*
X39350Y77561D01*
X40764Y78975D01*
X41295Y78445D01*
X41825Y78975D01*
X43239Y77561D01*
X44067Y78389D01*
X44123Y78445D01*
X44555Y78609D01*
X45804Y77360D01*
X45804Y77360D01*
X46168Y77117D01*
X46597Y77031D01*
X46971D01*
X47194Y76697D01*
X51154Y72738D01*
X51716Y72362D01*
X52379Y72230D01*
X52618Y72278D01*
X52889Y72007D01*
X52889Y72007D01*
X53253Y71764D01*
X53682Y71678D01*
X53682Y71678D01*
X57400D01*
X57400Y71678D01*
X57829Y71764D01*
X58193Y72007D01*
X66499Y80313D01*
X67048Y80154D01*
X67291Y79791D01*
X67319Y79501D01*
X55859Y68041D01*
X55853Y68031D01*
X55276Y68060D01*
X55109Y68309D01*
X54646Y68619D01*
X54100Y68727D01*
X53554Y68619D01*
X53091Y68309D01*
X52781Y67846D01*
X52673Y67300D01*
X52781Y66754D01*
X53091Y66291D01*
X53554Y65981D01*
X53637Y65965D01*
X53588Y65465D01*
X50900D01*
X50607Y65407D01*
X50359Y65241D01*
X42558Y57439D01*
X42392Y57191D01*
X42334Y56898D01*
Y50780D01*
X42031Y50406D01*
X41093D01*
Y43500D01*
Y36595D01*
X42031D01*
Y37095D01*
X44287D01*
Y37095D01*
X44665D01*
Y37095D01*
X47043D01*
Y37095D01*
X47421D01*
Y37095D01*
X49799D01*
Y37095D01*
X50177D01*
Y37095D01*
X52428D01*
X52805Y36790D01*
X52847Y36595D01*
X52681Y36346D01*
X52573Y35800D01*
X52681Y35254D01*
X52991Y34791D01*
X53376Y34533D01*
X53380Y34190D01*
X53334Y34006D01*
X52891Y33709D01*
X52581Y33246D01*
X52473Y32700D01*
X52581Y32154D01*
X52891Y31691D01*
X53354Y31381D01*
X53900Y31273D01*
X54446Y31381D01*
X54909Y31691D01*
X55219Y32154D01*
X55327Y32700D01*
X55219Y33246D01*
X54909Y33709D01*
X54524Y33967D01*
X54520Y34310D01*
X54566Y34494D01*
X55009Y34791D01*
X55319Y35254D01*
X55427Y35800D01*
X55369Y36094D01*
X55687Y36563D01*
X55740Y36595D01*
X56128D01*
Y43500D01*
Y50406D01*
X55189D01*
X54965Y50813D01*
Y51383D01*
X61341Y57759D01*
X61506Y58007D01*
X61565Y58300D01*
Y65283D01*
X67640Y71359D01*
X67985Y71214D01*
X68117Y71129D01*
X68219Y70616D01*
X68529Y70153D01*
X68992Y69843D01*
X69379Y69766D01*
X69314Y69438D01*
X69446Y68774D01*
X69821Y68212D01*
X73781Y64252D01*
X74343Y63877D01*
X75007Y63745D01*
X75670Y63877D01*
X76232Y64252D01*
X76608Y64815D01*
X76740Y65478D01*
X76608Y66141D01*
X76232Y66704D01*
X72272Y70663D01*
X71710Y71039D01*
X71047Y71171D01*
X70871Y71638D01*
X70857Y71708D01*
X70547Y72171D01*
X70084Y72481D01*
X69571Y72583D01*
X69486Y72715D01*
X69341Y73060D01*
X77399Y81118D01*
X77454Y81081D01*
X78000Y80973D01*
X78546Y81081D01*
X79009Y81391D01*
X79319Y81854D01*
X79427Y82400D01*
X79319Y82946D01*
X79009Y83409D01*
X78546Y83719D01*
X78000Y83827D01*
X77565Y83741D01*
X77065Y84014D01*
Y85627D01*
X77309Y85791D01*
X77619Y86254D01*
X77727Y86800D01*
X77619Y87346D01*
X77309Y87809D01*
X76846Y88119D01*
X76300Y88227D01*
X75754Y88119D01*
X75291Y87809D01*
X74981Y87346D01*
X74873Y86800D01*
X74981Y86254D01*
X75291Y85791D01*
X75535Y85627D01*
Y82917D01*
X74401Y81782D01*
X73993Y81906D01*
X73894Y81983D01*
X73609Y82409D01*
X73146Y82719D01*
X72600Y82827D01*
X72054Y82719D01*
X71715Y82492D01*
X71263Y82688D01*
X71244Y83127D01*
X71300Y83173D01*
X71846Y83281D01*
X72309Y83591D01*
X72619Y84054D01*
X72727Y84600D01*
X72619Y85146D01*
X72309Y85609D01*
X71846Y85919D01*
X71300Y86027D01*
X70754Y85919D01*
X70291Y85609D01*
X69981Y85146D01*
X69873Y84600D01*
X69937Y84276D01*
X69859Y84198D01*
X69693Y83950D01*
X69635Y83657D01*
Y82153D01*
X69135Y81926D01*
X68846Y82119D01*
X68300Y82227D01*
X68022Y82172D01*
X67522Y82519D01*
Y84035D01*
X69486Y86000D01*
X69486Y86000D01*
X69730Y86364D01*
X69815Y86793D01*
X69815Y86793D01*
Y87671D01*
X70166Y87931D01*
X70643Y87744D01*
X70681Y87554D01*
X70991Y87091D01*
X71454Y86781D01*
X72000Y86673D01*
X72546Y86781D01*
X73009Y87091D01*
X73319Y87554D01*
X73427Y88100D01*
X73319Y88646D01*
X73009Y89109D01*
X72860Y89209D01*
Y91203D01*
X73153Y91262D01*
X73591Y91554D01*
X73679Y91544D01*
X74041Y91393D01*
X74104Y91342D01*
X74181Y90954D01*
X74491Y90491D01*
X74954Y90181D01*
X75500Y90073D01*
X76046Y90181D01*
X76509Y90491D01*
X76819Y90954D01*
X76927Y91500D01*
X76870Y91789D01*
X80074Y94993D01*
X80591Y94931D01*
X80660Y94886D01*
X80924Y94249D01*
X81540Y93446D01*
X82344Y92829D01*
X83279Y92441D01*
X84284Y92309D01*
X85288Y92441D01*
X86223Y92829D01*
X87027Y93446D01*
X87643Y94249D01*
X88031Y95185D01*
X88163Y96189D01*
X88031Y97193D01*
X87643Y98129D01*
X87027Y98932D01*
X86223Y99549D01*
X85288Y99936D01*
X84284Y100069D01*
X83279Y99936D01*
X82344Y99549D01*
X81540Y98932D01*
X81148Y99239D01*
X81184Y99293D01*
X81319Y99972D01*
X81184Y100651D01*
X80800Y101226D01*
X78529Y103497D01*
X78638Y103800D01*
X78750Y103983D01*
X79246Y104081D01*
X79709Y104391D01*
X80019Y104854D01*
X80127Y105400D01*
X80123Y105424D01*
X80476Y105777D01*
X80500Y105773D01*
X81046Y105881D01*
X81509Y106191D01*
X81819Y106654D01*
X81927Y107200D01*
X81819Y107746D01*
X82057Y108289D01*
X82209Y108391D01*
X82519Y108854D01*
X82627Y109400D01*
X82519Y109946D01*
X82209Y110409D01*
X81746Y110719D01*
X81200Y110827D01*
X80654Y110719D01*
X80191Y110409D01*
X79881Y109946D01*
X79825Y109664D01*
X79282Y109499D01*
X78341Y110441D01*
X78093Y110607D01*
X77800Y110665D01*
X72616D01*
X72206Y111075D01*
X72726Y111594D01*
X70605Y113716D01*
X68484Y111594D01*
X70605Y109473D01*
X71125Y109993D01*
X71759Y109359D01*
X71900Y109265D01*
X71795Y108765D01*
X70377D01*
X69606Y109535D01*
X69544Y109577D01*
X68005Y111116D01*
X66259Y109370D01*
X65928Y109457D01*
X65859Y109738D01*
X67621Y111500D01*
X66505Y112617D01*
X66682Y113147D01*
X66901Y113177D01*
X68100Y111979D01*
X70221Y114100D01*
X68100Y116221D01*
X66743Y114865D01*
X64631D01*
X63605Y115891D01*
X63357Y116057D01*
X63064Y116115D01*
X61229D01*
X61037Y116577D01*
X61850Y117389D01*
X59194Y120045D01*
X60255Y121106D01*
X62911Y118450D01*
X64758Y120297D01*
X64458Y120597D01*
X64736Y120982D01*
X68783Y125030D01*
X67347Y126466D01*
X68480Y127599D01*
X69000Y127079D01*
X71121Y129200D01*
X69323Y130998D01*
X69000Y131321D01*
X69311Y131693D01*
X69323Y131705D01*
X68440Y132589D01*
X67025Y131175D01*
X65611Y129761D01*
X66495Y128877D01*
X66507Y128889D01*
X66698Y129049D01*
X67149Y128774D01*
Y128430D01*
X66266Y127547D01*
X64179Y129634D01*
X60896Y126351D01*
X59270D01*
X59063Y126851D01*
X60458Y128246D01*
X57802Y130902D01*
X58333Y131433D01*
X57802Y131963D01*
X60180Y134340D01*
X58054Y136466D01*
X56392Y134803D01*
X55934Y134905D01*
X55860Y134979D01*
X55050Y135789D01*
X53636Y134375D01*
X53106Y134905D01*
X52575Y134375D01*
X51161Y135789D01*
X50277Y134905D01*
X50289Y134893D01*
X50600Y134521D01*
X48479Y132400D01*
X49835Y131043D01*
Y129700D01*
X49894Y129407D01*
X50059Y129159D01*
X50734Y128485D01*
X50439Y128190D01*
X50068Y127634D01*
X49937Y126978D01*
X50068Y126322D01*
X50439Y125766D01*
X51786Y124420D01*
X47818Y120452D01*
X47318Y120659D01*
Y122129D01*
X47409Y122191D01*
X47719Y122654D01*
X47827Y123200D01*
X47719Y123746D01*
X47409Y124209D01*
X46946Y124519D01*
X46400Y124627D01*
X45854Y124519D01*
X45391Y124209D01*
X45365Y124170D01*
X44865Y124322D01*
Y128857D01*
X45300D01*
Y131857D01*
X42300D01*
Y131122D01*
X41700D01*
Y131857D01*
X40489D01*
X40222Y132357D01*
X40251Y132400D01*
X41700D01*
Y133135D01*
X42300D01*
Y132400D01*
X45300D01*
Y135400D01*
X42300D01*
Y134665D01*
X41700D01*
Y135400D01*
X38700D01*
X38600Y135800D01*
X37350D01*
Y133800D01*
X36600D01*
Y133050D01*
X34600D01*
Y131800D01*
X34617D01*
X35100Y131757D01*
Y128757D01*
X35735D01*
Y126082D01*
X35794Y125789D01*
X35959Y125541D01*
X40960Y120540D01*
X39639Y119218D01*
X39316Y119135D01*
X38993Y119218D01*
X36955Y121257D01*
X36811Y121353D01*
X36375Y121789D01*
X36619Y122154D01*
X36727Y122700D01*
X36619Y123246D01*
X36309Y123709D01*
X35846Y124019D01*
X35300Y124127D01*
X34754Y124019D01*
X34291Y123709D01*
X33981Y123246D01*
X33938Y123028D01*
X33395Y122863D01*
X27200Y129058D01*
Y143980D01*
X112000D01*
Y143979D01*
D02*
G37*
G36*
X38700Y130129D02*
Y128857D01*
X41700D01*
Y129592D01*
X42300D01*
Y128857D01*
X43335D01*
Y121622D01*
X42835Y121383D01*
X42715Y121464D01*
X42351Y121536D01*
X42164Y121499D01*
X37265Y126399D01*
Y128757D01*
X38100D01*
Y130330D01*
X38200Y130396D01*
X38700Y130129D01*
D02*
G37*
G36*
X30845Y122096D02*
X30825Y121754D01*
X30694Y121541D01*
X20600D01*
X20217Y121383D01*
X20215Y121376D01*
X19661Y121322D01*
X17989Y120814D01*
X16448Y119991D01*
X15097Y118882D01*
X15110Y118869D01*
X15110Y118869D01*
X14541Y118300D01*
X13343D01*
Y115300D01*
X16343D01*
Y116497D01*
X16912Y117067D01*
X16922Y117081D01*
X17871Y117860D01*
X18969Y118447D01*
X20161Y118808D01*
X20671Y118859D01*
X25681D01*
X25707Y118793D01*
X25764Y118359D01*
X25391Y118109D01*
X25081Y117646D01*
X24973Y117100D01*
X24501Y116908D01*
X24054Y116819D01*
X23591Y116509D01*
X23281Y116046D01*
X23173Y115500D01*
X23177Y115476D01*
X22824Y115123D01*
X22800Y115127D01*
X22254Y115019D01*
X21791Y114709D01*
X21481Y114246D01*
X21373Y113700D01*
X21449Y113315D01*
X21152Y112815D01*
X20339D01*
X20209Y113009D01*
X19746Y113319D01*
X19200Y113427D01*
X18654Y113319D01*
X18191Y113009D01*
X18027Y112765D01*
X17168D01*
X16876Y112706D01*
X16628Y112541D01*
X12289Y108202D01*
X11769Y108722D01*
X9971Y106924D01*
X9648Y106601D01*
X9277Y106912D01*
X9264Y106924D01*
X8380Y106041D01*
X9794Y104626D01*
X11208Y103212D01*
X12092Y104096D01*
X12080Y104108D01*
X11769Y104480D01*
X13891Y106601D01*
X13371Y107121D01*
X17485Y111235D01*
X18027D01*
X18191Y110991D01*
X18654Y110681D01*
X19200Y110573D01*
X19509Y110634D01*
X19617Y110579D01*
X19684Y110282D01*
X19335Y109775D01*
X19054Y109719D01*
X18591Y109409D01*
X18281Y108946D01*
X18173Y108400D01*
X18281Y107854D01*
X18591Y107391D01*
X19054Y107081D01*
X19600Y106973D01*
X20146Y107081D01*
X20609Y107391D01*
X20919Y107854D01*
X20935Y107935D01*
X23178D01*
X23360Y107663D01*
X25399Y105624D01*
X25482Y105301D01*
X25399Y104979D01*
X23360Y102939D01*
X23154Y102631D01*
X23114Y102429D01*
X23033Y102348D01*
X19778D01*
X19719Y102646D01*
X19409Y103109D01*
X18946Y103419D01*
X18400Y103527D01*
X17854Y103419D01*
X17391Y103109D01*
X17081Y102646D01*
X16992Y102199D01*
X16938Y102066D01*
X16547Y101677D01*
X16254Y101619D01*
X15791Y101309D01*
X15481Y100846D01*
X15373Y100300D01*
X15481Y99754D01*
X15791Y99291D01*
X15975Y99168D01*
X16222Y98887D01*
X16102Y98527D01*
X15981Y98346D01*
X15873Y97800D01*
X15886Y97733D01*
X15425Y97486D01*
X14101Y98810D01*
X12316Y97026D01*
X9874Y99468D01*
X9819Y99746D01*
X9509Y100209D01*
X9046Y100519D01*
X8500Y100627D01*
X7954Y100519D01*
X7491Y100209D01*
X7181Y99746D01*
X7073Y99200D01*
X7181Y98654D01*
X7491Y98191D01*
X7954Y97881D01*
X8500Y97773D01*
X8655Y97803D01*
X10875Y95583D01*
X9775Y94484D01*
X12152Y92107D01*
X16257Y96211D01*
X16323Y96277D01*
X16654Y96434D01*
X16977Y96437D01*
X17300Y96373D01*
X17846Y96481D01*
X18309Y96791D01*
X18473Y97035D01*
X19400D01*
X19693Y97093D01*
X19941Y97259D01*
X21017Y98335D01*
X21867D01*
X22059Y97873D01*
X20959Y96774D01*
X20794Y96526D01*
X20735Y96233D01*
Y95173D01*
X20491Y95009D01*
X20181Y94546D01*
X20073Y94000D01*
X20181Y93454D01*
X20491Y92991D01*
X20954Y92681D01*
X21500Y92573D01*
X22046Y92681D01*
X22081Y92705D01*
X22581Y92754D01*
X22706Y92567D01*
X22891Y92291D01*
X23194Y92088D01*
X23329Y91515D01*
X22307Y90493D01*
X22064Y90129D01*
X21978Y89700D01*
X21979Y89700D01*
Y88375D01*
X21617Y88029D01*
X21363Y88284D01*
X19241Y86162D01*
X18870Y86473D01*
X18857Y86486D01*
X17974Y85602D01*
X19388Y84188D01*
X18857Y83657D01*
X19388Y83127D01*
X17974Y81713D01*
X18857Y80829D01*
X20434Y82405D01*
X20579Y82391D01*
X21236Y81734D01*
Y81157D01*
X20236Y80157D01*
X20996Y79398D01*
X19011Y77413D01*
X18123Y78301D01*
X17709Y78578D01*
X17221Y78675D01*
X9228D01*
X6244Y81658D01*
X5831Y81934D01*
X5343Y82032D01*
X4877D01*
X4746Y82119D01*
X4200Y82227D01*
X3731Y82134D01*
X3440Y82340D01*
X3300Y82484D01*
Y83550D01*
X1300D01*
X-700D01*
Y82531D01*
X-700Y82300D01*
X-1089Y82032D01*
X-2329D01*
X-4225Y83928D01*
Y104135D01*
X-4181Y104201D01*
X-4166Y104279D01*
X-3916Y104529D01*
X-3654Y104581D01*
X-3191Y104891D01*
X-2881Y105354D01*
X-2829Y105616D01*
X576Y109021D01*
X806Y108790D01*
X2927Y110912D01*
X2697Y111142D01*
X3121Y111566D01*
X3351Y111336D01*
X5473Y113457D01*
X5243Y113688D01*
X5667Y114112D01*
X5826Y113952D01*
X6977Y115103D01*
X7081Y115172D01*
X7434Y115525D01*
X9800D01*
Y115300D01*
X12800D01*
Y118300D01*
X9800D01*
Y118075D01*
X6906D01*
X6647Y118023D01*
X6406Y118178D01*
X6150Y118579D01*
Y118579D01*
X5266Y119463D01*
X3852Y118049D01*
X3321Y118579D01*
X2791Y118049D01*
X1377Y119463D01*
X493Y118579D01*
X564Y118508D01*
X-38Y117907D01*
X1377Y116493D01*
X316Y115433D01*
X-1098Y116847D01*
X-1982Y115963D01*
X-2583Y115362D01*
X-1169Y113948D01*
X-1699Y113417D01*
X-1169Y112887D01*
X-2583Y111473D01*
X-1934Y110823D01*
X-1884Y110166D01*
X-5001Y107048D01*
X-5209Y106909D01*
X-5348Y106701D01*
X-5968Y106082D01*
X-6046Y106066D01*
X-6480Y105776D01*
X-6637Y105810D01*
X-6980Y105952D01*
Y123500D01*
X27200D01*
Y125089D01*
X27662Y125280D01*
X30845Y122096D01*
D02*
G37*
G36*
X69520Y107459D02*
X69768Y107293D01*
X70060Y107235D01*
X75783D01*
X77125Y105893D01*
X77113Y105620D01*
X76896Y105489D01*
X76566Y105460D01*
X76290Y105736D01*
X75714Y106121D01*
X75035Y106256D01*
X74356Y106121D01*
X73780Y105736D01*
X73396Y105161D01*
X73261Y104482D01*
X73396Y103803D01*
X73780Y103227D01*
X78290Y98717D01*
X78866Y98333D01*
X78935Y98319D01*
Y96017D01*
X75789Y92870D01*
X75500Y92927D01*
X74954Y92819D01*
X74709Y92655D01*
X74415Y92812D01*
X74240Y92943D01*
X74113Y93580D01*
X73729Y94156D01*
X69218Y98665D01*
X68643Y99050D01*
X67964Y99185D01*
X67285Y99050D01*
X66709Y98665D01*
X66325Y98090D01*
X66190Y97411D01*
X66325Y96732D01*
X66709Y96156D01*
X71219Y91646D01*
X71330Y91572D01*
Y89724D01*
X71265Y89628D01*
X71178Y89584D01*
X70615Y89857D01*
X70578Y90044D01*
X70193Y90620D01*
X65683Y95130D01*
X65107Y95515D01*
X64428Y95649D01*
X63749Y95515D01*
X63174Y95130D01*
X62789Y94554D01*
X62654Y93875D01*
X62789Y93196D01*
X63174Y92621D01*
X67572Y88223D01*
Y87258D01*
X65607Y85293D01*
X65364Y84929D01*
X65278Y84500D01*
X65278Y84500D01*
Y82265D01*
X61600Y78586D01*
X61058Y78751D01*
X61019Y78946D01*
X60709Y79409D01*
X60780Y79964D01*
X61052Y80371D01*
X61184Y81034D01*
X61052Y81698D01*
X60676Y82260D01*
X56716Y86220D01*
X56154Y86595D01*
X55490Y86727D01*
X54947Y86619D01*
X53525Y88041D01*
X53277Y88206D01*
X52985Y88265D01*
X47417D01*
X46365Y89317D01*
Y89786D01*
X46865Y90059D01*
X47300Y89973D01*
X47846Y90081D01*
X48088Y90243D01*
X48450Y90349D01*
X48812Y90243D01*
X49054Y90081D01*
X49600Y89973D01*
X50146Y90081D01*
X50456Y90288D01*
X50989Y90389D01*
X51452Y90080D01*
X51999Y89971D01*
X52545Y90080D01*
X53008Y90389D01*
X53317Y90852D01*
X53426Y91399D01*
X53702Y91735D01*
X57800D01*
X58093Y91794D01*
X58341Y91959D01*
X67817Y101435D01*
X69428D01*
X69746Y101049D01*
X69725Y100946D01*
X69860Y100267D01*
X70245Y99692D01*
X74755Y95182D01*
X75330Y94797D01*
X76009Y94662D01*
X76688Y94797D01*
X77264Y95182D01*
X77649Y95758D01*
X77784Y96436D01*
X77649Y97115D01*
X77264Y97691D01*
X72754Y102201D01*
X72178Y102585D01*
X71500Y102721D01*
X70922Y102606D01*
X70786Y102741D01*
X70539Y102907D01*
X70246Y102965D01*
X67500D01*
X67207Y102907D01*
X66959Y102741D01*
X57483Y93265D01*
X55793D01*
X55519Y93754D01*
X55521Y93765D01*
X55627Y94300D01*
X55519Y94846D01*
X55865Y95227D01*
X56259Y95491D01*
X56569Y95954D01*
X56677Y96500D01*
X57124Y96817D01*
X57446Y96881D01*
X57909Y97191D01*
X58219Y97654D01*
X58327Y98200D01*
X58762Y98580D01*
X58800Y98573D01*
X59346Y98681D01*
X59809Y98991D01*
X60119Y99454D01*
X60227Y100000D01*
X60119Y100546D01*
X59809Y101009D01*
X59346Y101319D01*
X59148Y101868D01*
X59185Y102050D01*
X59076Y102596D01*
X58767Y103059D01*
X58303Y103369D01*
X57757Y103477D01*
X57211Y103369D01*
X56748Y103059D01*
X56438Y102596D01*
X56412Y102465D01*
X55512D01*
X55479Y102631D01*
X55272Y102939D01*
X53233Y104979D01*
X53185Y105164D01*
Y105438D01*
X53233Y105624D01*
X54735Y107126D01*
X54953Y107082D01*
X61151D01*
X61503Y107152D01*
X61800Y107351D01*
X61814Y107365D01*
X62314Y107365D01*
X62900Y106779D01*
X62589Y106407D01*
X62577Y106395D01*
X63460Y105511D01*
X64875Y106925D01*
X65405Y106395D01*
X65935Y106925D01*
X67350Y105511D01*
X68234Y106395D01*
X68182Y106446D01*
X68005Y106873D01*
X68805Y107674D01*
X69305D01*
X69520Y107459D01*
D02*
G37*
G36*
X46559Y86959D02*
X46807Y86794D01*
X47100Y86735D01*
X52668D01*
X53865Y85538D01*
X53757Y84994D01*
X53889Y84331D01*
X54265Y83768D01*
X58225Y79809D01*
X58691Y79497D01*
Y79409D01*
X58381Y78946D01*
X58273Y78400D01*
X58294Y78292D01*
X58012Y78027D01*
X57545Y78154D01*
X57508Y78174D01*
X57140Y78724D01*
X53181Y82684D01*
X52618Y83060D01*
X51955Y83192D01*
X51292Y83060D01*
X50729Y82684D01*
X50354Y82122D01*
X50222Y81459D01*
X50354Y80795D01*
X50729Y80233D01*
X54689Y76273D01*
X55251Y75897D01*
X55915Y75766D01*
X56578Y75897D01*
X56863Y76088D01*
X57128Y76035D01*
X58100D01*
X58393Y76094D01*
X58416Y76109D01*
X58734Y75721D01*
X56935Y73922D01*
X54592D01*
X54112Y73963D01*
X53981Y74627D01*
X53605Y75189D01*
X49645Y79149D01*
X49083Y79524D01*
X48419Y79656D01*
X47756Y79524D01*
X47382Y79274D01*
X47062D01*
X45654Y80682D01*
X45921Y80950D01*
X43800Y83071D01*
X43507Y82779D01*
X43079Y83207D01*
X43321Y83450D01*
X43054Y83718D01*
X44793Y85457D01*
X44793Y85457D01*
X45036Y85821D01*
X45122Y86250D01*
X45122Y86250D01*
Y87690D01*
X45622Y87897D01*
X46559Y86959D01*
D02*
G37*
G36*
X107680Y22778D02*
Y20718D01*
X106700D01*
Y16749D01*
X106325Y16417D01*
X104821Y17921D01*
X104490Y18142D01*
X104400Y18160D01*
X104400Y19200D01*
X104859Y19300D01*
X104900D01*
Y20550D01*
X102900D01*
Y21300D01*
X102150D01*
Y23300D01*
X100900D01*
Y23282D01*
X100857Y22800D01*
X100400Y22800D01*
X97857D01*
Y21242D01*
X96234Y19620D01*
X94698D01*
X94310Y19890D01*
X94310Y20120D01*
Y23385D01*
X94805Y23880D01*
X106578D01*
X107680Y22778D01*
D02*
G37*
%LPC*%
G36*
X44200Y139127D02*
X43654Y139019D01*
X43191Y138709D01*
X42881Y138246D01*
X42773Y137700D01*
X42881Y137154D01*
X43191Y136691D01*
X43654Y136381D01*
X44200Y136273D01*
X44746Y136381D01*
X45209Y136691D01*
X45519Y137154D01*
X45627Y137700D01*
X45519Y138246D01*
X45209Y138709D01*
X44746Y139019D01*
X44200Y139127D01*
D02*
G37*
G36*
X53105Y137733D02*
X52222Y136850D01*
X53106Y135966D01*
X53989Y136850D01*
X53105Y137733D01*
D02*
G37*
G36*
X35850Y135800D02*
X34600D01*
Y134550D01*
X35850D01*
Y135800D01*
D02*
G37*
G36*
X66495Y134534D02*
X65611Y133650D01*
X66495Y132766D01*
X67379Y133650D01*
X66495Y134534D01*
D02*
G37*
G36*
X64550Y132589D02*
X63666Y131705D01*
X64550Y130822D01*
X65434Y131705D01*
X64550Y132589D01*
D02*
G37*
G36*
X61240Y133280D02*
X59393Y131433D01*
X61519Y129307D01*
X63366Y131154D01*
X61240Y133280D01*
D02*
G37*
G36*
X99343Y117900D02*
X98093D01*
Y116650D01*
X99343D01*
Y117900D01*
D02*
G37*
G36*
X84284Y123691D02*
X83279Y123558D01*
X82344Y123171D01*
X81540Y122554D01*
X80924Y121751D01*
X80536Y120815D01*
X80404Y119811D01*
X80536Y118807D01*
X80924Y117871D01*
X81540Y117068D01*
X82344Y116451D01*
X83279Y116064D01*
X84284Y115931D01*
X85288Y116064D01*
X86223Y116451D01*
X87027Y117068D01*
X87643Y117871D01*
X88031Y118807D01*
X88163Y119811D01*
X88031Y120815D01*
X87643Y121751D01*
X87027Y122554D01*
X86223Y123171D01*
X85288Y123558D01*
X84284Y123691D01*
D02*
G37*
G36*
X96593Y117900D02*
X95343D01*
Y117882D01*
X95300Y117400D01*
X94843Y117400D01*
X92300D01*
Y114400D01*
X93035D01*
Y113800D01*
X92300D01*
Y113489D01*
X91800Y113281D01*
X91070Y114011D01*
X91127Y114300D01*
X91019Y114846D01*
X90709Y115309D01*
X90246Y115619D01*
X89700Y115727D01*
X89154Y115619D01*
X88691Y115309D01*
X88381Y114846D01*
X88273Y114300D01*
X88381Y113754D01*
X88691Y113291D01*
X89154Y112981D01*
X89700Y112873D01*
X89989Y112930D01*
X91159Y111759D01*
X91407Y111593D01*
X91700Y111535D01*
X91700Y111535D01*
X91946D01*
X92300Y111182D01*
Y111144D01*
X92248Y110773D01*
X92226Y110748D01*
X92113Y110663D01*
X91750Y110616D01*
X91446Y110819D01*
X90900Y110927D01*
X90354Y110819D01*
X89891Y110509D01*
X89581Y110046D01*
X89473Y109500D01*
X89581Y108954D01*
X89891Y108491D01*
X90354Y108181D01*
X90900Y108073D01*
X91446Y108181D01*
X91471Y108198D01*
X91509Y108159D01*
X91757Y107993D01*
X92050Y107935D01*
X92300D01*
Y107200D01*
X95300D01*
Y110200D01*
X92416D01*
X92355Y110297D01*
X92353Y110301D01*
X92515Y110666D01*
X92690Y110800D01*
X92787Y110800D01*
X95300D01*
Y113251D01*
X95521Y113414D01*
X95843Y113228D01*
Y110800D01*
X96323D01*
Y110200D01*
X95843D01*
Y107200D01*
X96323D01*
Y106600D01*
X95843D01*
X95843Y104171D01*
X95522Y103985D01*
X95300Y104150D01*
Y106600D01*
X92300D01*
Y106375D01*
X91809Y106209D01*
X91346Y106519D01*
X90800Y106627D01*
X90254Y106519D01*
X89791Y106209D01*
X89481Y105746D01*
X89373Y105200D01*
X89481Y104654D01*
X89791Y104191D01*
X90254Y103881D01*
X90800Y103773D01*
X91346Y103881D01*
X91809Y104191D01*
X92300Y104025D01*
Y103600D01*
X93035D01*
Y103000D01*
X92300D01*
Y100000D01*
X95300Y100000D01*
X95343Y99518D01*
Y99500D01*
X96593D01*
Y101500D01*
X97343D01*
Y102250D01*
X99343D01*
Y103500D01*
X99302D01*
X98843Y103600D01*
X98843Y104000D01*
Y106600D01*
X98363D01*
Y107200D01*
X98843D01*
Y110200D01*
X98363D01*
Y110800D01*
X98843D01*
Y111280D01*
X99706D01*
X100153Y110981D01*
X100700Y110872D01*
X101246Y110981D01*
X101709Y111290D01*
X102018Y111753D01*
X102127Y112300D01*
X102018Y112846D01*
X101709Y113309D01*
X101246Y113619D01*
X100700Y113727D01*
X100153Y113619D01*
X99706Y113319D01*
X99196D01*
X99159Y113357D01*
X99289Y113850D01*
X99343Y113900D01*
X99343D01*
Y115150D01*
X97343D01*
Y115900D01*
X96593D01*
Y117900D01*
D02*
G37*
G36*
X99343Y100750D02*
X98093D01*
Y99500D01*
X99343D01*
Y100750D01*
D02*
G37*
G36*
X94689Y87112D02*
X93815Y86938D01*
X93710Y86868D01*
X96944Y83633D01*
X98029Y84718D01*
X96304Y86443D01*
X95563Y86938D01*
X94689Y87112D01*
D02*
G37*
G36*
X92649Y85807D02*
X92579Y85702D01*
X92405Y84828D01*
X92579Y83954D01*
X93074Y83213D01*
X94799Y81488D01*
X95884Y82573D01*
X92649Y85807D01*
D02*
G37*
G36*
X99089Y83657D02*
X98005Y82573D01*
X101239Y79339D01*
X101309Y79444D01*
X101483Y80318D01*
X101309Y81192D01*
X100814Y81933D01*
X99089Y83657D01*
D02*
G37*
G36*
X96944Y81512D02*
X95859Y80427D01*
X97584Y78703D01*
X98325Y78208D01*
X99199Y78034D01*
X100073Y78208D01*
X100178Y78278D01*
X96944Y81512D01*
D02*
G37*
G36*
X41295Y77384D02*
X40411Y76500D01*
X41295Y75617D01*
X42178Y76500D01*
X41295Y77384D01*
D02*
G37*
G36*
X84800Y84227D02*
X84254Y84119D01*
X83791Y83809D01*
X83481Y83346D01*
X83373Y82800D01*
X83481Y82254D01*
X83791Y81791D01*
X84235Y81494D01*
X84248Y81408D01*
X84216Y80988D01*
X84214Y80979D01*
X83752Y80671D01*
X83442Y80208D01*
X83334Y79661D01*
X83442Y79115D01*
X83752Y78652D01*
X84215Y78342D01*
X84761Y78234D01*
X85308Y78342D01*
X85490Y78465D01*
X85923Y78152D01*
X85844Y77757D01*
X85979Y77078D01*
X86364Y76502D01*
X90873Y71992D01*
X91449Y71608D01*
X92128Y71473D01*
X92807Y71608D01*
X93383Y71992D01*
X93767Y72568D01*
X93902Y73247D01*
X93767Y73926D01*
X93383Y74501D01*
X88873Y79011D01*
X88297Y79396D01*
X87618Y79531D01*
X87040Y79416D01*
X86503Y79953D01*
X86255Y80119D01*
X86091Y80152D01*
X86080Y80208D01*
X85771Y80671D01*
X85326Y80967D01*
X85313Y81054D01*
X85346Y81474D01*
X85347Y81482D01*
X85809Y81791D01*
X85973Y82035D01*
X89087D01*
X89445Y81623D01*
X89379Y81292D01*
X89514Y80613D01*
X89899Y80038D01*
X94409Y75528D01*
X94985Y75143D01*
X95663Y75008D01*
X96342Y75143D01*
X96918Y75528D01*
X97303Y76103D01*
X97438Y76782D01*
X97303Y77461D01*
X96918Y78037D01*
X92408Y82547D01*
X91833Y82931D01*
X91154Y83066D01*
X90495Y82936D01*
X90090Y83341D01*
X89842Y83507D01*
X89549Y83565D01*
X85973D01*
X85809Y83809D01*
X85346Y84119D01*
X84800Y84227D01*
D02*
G37*
G36*
X74582Y75216D02*
X73724Y75046D01*
X73632Y74984D01*
X76562Y72054D01*
X77618Y73110D01*
X76169Y74559D01*
X75441Y75046D01*
X74582Y75216D01*
D02*
G37*
G36*
X4800Y74227D02*
X4254Y74119D01*
X3791Y73809D01*
X3481Y73346D01*
X3373Y72800D01*
X3481Y72254D01*
X3791Y71791D01*
X4254Y71481D01*
X4800Y71373D01*
X5346Y71481D01*
X5809Y71791D01*
X6119Y72254D01*
X6227Y72800D01*
X6119Y73346D01*
X5809Y73809D01*
X5346Y74119D01*
X4800Y74227D01*
D02*
G37*
G36*
X72571Y73924D02*
X72510Y73832D01*
X72339Y72973D01*
X72510Y72115D01*
X72996Y71387D01*
X74446Y69938D01*
X75502Y70993D01*
X72571Y73924D01*
D02*
G37*
G36*
X38900Y70400D02*
X37650D01*
Y69150D01*
X38900D01*
Y70400D01*
D02*
G37*
G36*
X14323Y69692D02*
X13073D01*
Y68442D01*
X14323D01*
Y69692D01*
D02*
G37*
G36*
X78679Y72049D02*
X77623Y70993D01*
X80553Y68063D01*
X80615Y68155D01*
X80785Y69014D01*
X80615Y69872D01*
X80128Y70600D01*
X78679Y72049D01*
D02*
G37*
G36*
X78900Y79327D02*
X78354Y79219D01*
X77891Y78909D01*
X77581Y78446D01*
X77473Y77900D01*
X77581Y77354D01*
X77891Y76891D01*
X78354Y76581D01*
X78900Y76473D01*
X79446Y76581D01*
X79909Y76891D01*
X80110Y76910D01*
X82390Y74631D01*
X82308Y74221D01*
X82443Y73542D01*
X82828Y72966D01*
X87338Y68457D01*
X87914Y68072D01*
X88592Y67937D01*
X89271Y68072D01*
X89847Y68457D01*
X90232Y69032D01*
X90367Y69711D01*
X90232Y70390D01*
X89847Y70966D01*
X85337Y75476D01*
X84762Y75860D01*
X84083Y75995D01*
X83404Y75860D01*
X83355Y75828D01*
X80743Y78441D01*
X80494Y78606D01*
X80202Y78665D01*
X80073D01*
X79909Y78909D01*
X79446Y79219D01*
X78900Y79327D01*
D02*
G37*
G36*
X76562Y69933D02*
X75507Y68877D01*
X76956Y67427D01*
X77684Y66941D01*
X78542Y66770D01*
X79400Y66941D01*
X79492Y67002D01*
X76562Y69933D01*
D02*
G37*
G36*
X67511Y67636D02*
X66848Y67504D01*
X66286Y67128D01*
X66007Y66711D01*
X65846Y66819D01*
X65300Y66927D01*
X64754Y66819D01*
X64291Y66509D01*
X63981Y66046D01*
X63873Y65500D01*
X63981Y64954D01*
X64247Y64556D01*
X64156Y64308D01*
X63999Y64095D01*
X63976Y64100D01*
X63313Y63968D01*
X62750Y63592D01*
X62374Y63030D01*
X62243Y62367D01*
X62374Y61703D01*
X62750Y61141D01*
X66710Y57181D01*
X67272Y56806D01*
X67936Y56674D01*
X68599Y56806D01*
X69161Y57181D01*
X69398Y57535D01*
X70227D01*
X70391Y57291D01*
X70854Y56981D01*
X71400Y56873D01*
X71946Y56981D01*
X72409Y57291D01*
X72719Y57754D01*
X72827Y58300D01*
X72719Y58846D01*
X72409Y59309D01*
X71946Y59619D01*
X71409Y59726D01*
X71471Y60209D01*
X72134Y60341D01*
X72697Y60717D01*
X73072Y61279D01*
X73204Y61942D01*
X73072Y62606D01*
X72697Y63168D01*
X68737Y67128D01*
X68175Y67504D01*
X67511Y67636D01*
D02*
G37*
G36*
X4400Y67227D02*
X3854Y67119D01*
X3391Y66809D01*
X3081Y66346D01*
X2973Y65800D01*
X3081Y65254D01*
X3391Y64791D01*
X3854Y64481D01*
X4400Y64373D01*
X4946Y64481D01*
X5409Y64791D01*
X5719Y65254D01*
X5827Y65800D01*
X5719Y66346D01*
X5409Y66809D01*
X4946Y67119D01*
X4400Y67227D01*
D02*
G37*
G36*
X101910Y62577D02*
X100947Y62386D01*
X100130Y61840D01*
X99585Y61024D01*
X99393Y60061D01*
X99585Y59097D01*
X100130Y58281D01*
X100947Y57735D01*
X101910Y57544D01*
X102873Y57735D01*
X103690Y58281D01*
X104235Y59097D01*
X104427Y60061D01*
X104235Y61024D01*
X103690Y61840D01*
X102873Y62386D01*
X101910Y62577D01*
D02*
G37*
G36*
X38943Y56850D02*
X37693D01*
Y55600D01*
X38943D01*
Y56850D01*
D02*
G37*
G36*
X17173Y55266D02*
X15758D01*
Y53022D01*
X20069D01*
X20065Y53047D01*
X19766Y53769D01*
X19290Y54389D01*
X18670Y54865D01*
X17948Y55164D01*
X17173Y55266D01*
D02*
G37*
G36*
X14258D02*
X12843D01*
X12068Y55164D01*
X11345Y54865D01*
X10725Y54389D01*
X10249Y53769D01*
X9950Y53047D01*
X9947Y53022D01*
X14258D01*
Y55266D01*
D02*
G37*
G36*
X126D02*
X-699D01*
Y53022D01*
X3021D01*
X3018Y53047D01*
X2719Y53769D01*
X2243Y54389D01*
X1623Y54865D01*
X901Y55164D01*
X126Y55266D01*
D02*
G37*
G36*
X-2199D02*
X-3024D01*
X-3799Y55164D01*
X-4521Y54865D01*
X-5141Y54389D01*
X-5617Y53769D01*
X-5916Y53047D01*
X-5919Y53022D01*
X-2199D01*
Y55266D01*
D02*
G37*
G36*
X65400Y53327D02*
X64854Y53219D01*
X64391Y52909D01*
X64081Y52446D01*
X63973Y51900D01*
X64081Y51354D01*
X64391Y50891D01*
X64854Y50581D01*
X65400Y50473D01*
X65946Y50581D01*
X66409Y50891D01*
X66719Y51354D01*
X66827Y51900D01*
X66719Y52446D01*
X66409Y52909D01*
X65946Y53219D01*
X65400Y53327D01*
D02*
G37*
G36*
X20069Y51522D02*
X15758D01*
Y49277D01*
X17173D01*
X17948Y49380D01*
X18670Y49679D01*
X19290Y50155D01*
X19766Y50775D01*
X20065Y51497D01*
X20069Y51522D01*
D02*
G37*
G36*
X14258D02*
X9947D01*
X9950Y51497D01*
X10249Y50775D01*
X10725Y50155D01*
X11345Y49679D01*
X12068Y49380D01*
X12843Y49277D01*
X14258D01*
Y51522D01*
D02*
G37*
G36*
X3021D02*
X-699D01*
Y49277D01*
X126D01*
X901Y49380D01*
X1623Y49679D01*
X2243Y50155D01*
X2719Y50775D01*
X3018Y51497D01*
X3021Y51522D01*
D02*
G37*
G36*
X-2199D02*
X-5919D01*
X-5916Y51497D01*
X-5617Y50775D01*
X-5141Y50155D01*
X-4521Y49679D01*
X-3799Y49380D01*
X-3024Y49277D01*
X-2199D01*
Y51522D01*
D02*
G37*
G36*
X13039Y48557D02*
X12307Y48411D01*
X11685Y47996D01*
X11270Y47374D01*
X11125Y46642D01*
X11270Y45909D01*
X11685Y45288D01*
X12307Y44873D01*
X13039Y44727D01*
X13772Y44873D01*
X14393Y45288D01*
X14808Y45909D01*
X14954Y46642D01*
X14808Y47374D01*
X14393Y47996D01*
X13772Y48411D01*
X13039Y48557D01*
D02*
G37*
G36*
X72347Y50406D02*
X71408D01*
Y44250D01*
X72347D01*
Y50406D01*
D02*
G37*
G36*
X39592D02*
X38654D01*
Y44250D01*
X39592D01*
Y50406D01*
D02*
G37*
G36*
X104281Y47159D02*
X100919D01*
Y42565D01*
X100273D01*
X100109Y42809D01*
X99646Y43119D01*
X99100Y43227D01*
X98554Y43119D01*
X98091Y42809D01*
X97781Y42346D01*
X97673Y41800D01*
X97781Y41254D01*
X98091Y40791D01*
X98554Y40481D01*
X99100Y40373D01*
X99646Y40481D01*
X100109Y40791D01*
X100273Y41035D01*
X101669D01*
X101698Y41041D01*
X104281D01*
Y47159D01*
D02*
G37*
G36*
X72347Y42750D02*
X71408D01*
Y36595D01*
X72347D01*
Y42750D01*
D02*
G37*
G36*
X57628Y50406D02*
Y43500D01*
Y36595D01*
X58884D01*
Y43500D01*
Y50406D01*
X57628D01*
D02*
G37*
G36*
X39592Y42750D02*
X38654D01*
Y36595D01*
X39592D01*
Y42750D01*
D02*
G37*
G36*
X11600Y38727D02*
X11054Y38619D01*
X10591Y38309D01*
X10281Y37846D01*
X10173Y37300D01*
X10281Y36754D01*
X10591Y36291D01*
X11054Y35981D01*
X11600Y35873D01*
X12146Y35981D01*
X12609Y36291D01*
X12919Y36754D01*
X13027Y37300D01*
X12919Y37846D01*
X12609Y38309D01*
X12146Y38619D01*
X11600Y38727D01*
D02*
G37*
G36*
X14421Y35707D02*
X13874Y35598D01*
X13411Y35289D01*
X13102Y34826D01*
X12993Y34280D01*
X13102Y33733D01*
X13411Y33270D01*
X13874Y32961D01*
X14421Y32852D01*
X14967Y32961D01*
X15430Y33270D01*
X15739Y33733D01*
X15848Y34280D01*
X15739Y34826D01*
X15430Y35289D01*
X14967Y35598D01*
X14421Y35707D01*
D02*
G37*
G36*
X60850Y33043D02*
X59600D01*
Y31793D01*
X60850D01*
Y33043D01*
D02*
G37*
G36*
X24400Y34700D02*
X21400D01*
Y31700D01*
X24400D01*
Y32025D01*
X24891Y32191D01*
X25354Y31881D01*
X25900Y31773D01*
X26446Y31881D01*
X26909Y32191D01*
X27219Y32654D01*
X27327Y33200D01*
X27219Y33746D01*
X26909Y34209D01*
X26446Y34519D01*
X25900Y34627D01*
X25354Y34519D01*
X24891Y34209D01*
X24400Y34375D01*
Y34700D01*
D02*
G37*
G36*
X114200Y33007D02*
X112950D01*
Y31757D01*
X114200D01*
Y33007D01*
D02*
G37*
G36*
X111450D02*
X110200D01*
Y31757D01*
X111450D01*
Y33007D01*
D02*
G37*
G36*
X108521Y33901D02*
X107090D01*
Y31092D01*
X108521D01*
Y33901D01*
D02*
G37*
G36*
X105590D02*
X104159D01*
Y31092D01*
X105590D01*
Y33901D01*
D02*
G37*
G36*
X46100Y30527D02*
X45554Y30419D01*
X45091Y30109D01*
X44781Y29646D01*
X44673Y29100D01*
X44730Y28811D01*
X43659Y27741D01*
X43494Y27493D01*
X43435Y27200D01*
Y23559D01*
X42519D01*
Y17441D01*
X45881D01*
Y23559D01*
X44965D01*
Y26883D01*
X45811Y27730D01*
X46100Y27673D01*
X46646Y27781D01*
X47109Y28091D01*
X47419Y28554D01*
X47527Y29100D01*
X47419Y29646D01*
X47109Y30109D01*
X46646Y30419D01*
X46100Y30527D01*
D02*
G37*
G36*
X87150Y27450D02*
X85900D01*
Y26200D01*
X87150D01*
Y27450D01*
D02*
G37*
G36*
X13039Y25801D02*
X12307Y25655D01*
X11685Y25240D01*
X11270Y24619D01*
X11125Y23886D01*
X11270Y23153D01*
X11685Y22532D01*
X12307Y22117D01*
X13039Y21971D01*
X13772Y22117D01*
X14393Y22532D01*
X14808Y23153D01*
X14954Y23886D01*
X14808Y24619D01*
X14393Y25240D01*
X13772Y25655D01*
X13039Y25801D01*
D02*
G37*
G36*
X14258Y21250D02*
X12843D01*
X12068Y21148D01*
X11345Y20849D01*
X10725Y20373D01*
X10249Y19753D01*
X9950Y19031D01*
X9947Y19006D01*
X14258D01*
Y21250D01*
D02*
G37*
G36*
X126D02*
X-699D01*
Y19006D01*
X3021D01*
X3018Y19031D01*
X2719Y19753D01*
X2243Y20373D01*
X1623Y20849D01*
X901Y21148D01*
X126Y21250D01*
D02*
G37*
G36*
X-2199D02*
X-3024D01*
X-3799Y21148D01*
X-4521Y20849D01*
X-5141Y20373D01*
X-5617Y19753D01*
X-5916Y19031D01*
X-5919Y19006D01*
X-2199D01*
Y21250D01*
D02*
G37*
G36*
X60384Y50406D02*
Y43500D01*
Y36595D01*
X61115D01*
Y36210D01*
X61212Y35723D01*
X61489Y35309D01*
X62499Y34299D01*
X62912Y34023D01*
X63400Y33926D01*
X63898D01*
Y33419D01*
X63600Y33043D01*
X63398Y33043D01*
X62350D01*
Y31043D01*
X61600D01*
Y30293D01*
X59600D01*
Y29043D01*
X59618D01*
X60100Y29000D01*
X60100Y28543D01*
Y26000D01*
X60296D01*
X60385Y25883D01*
X60518Y25500D01*
X60281Y25146D01*
X60173Y24600D01*
X60281Y24054D01*
X60591Y23591D01*
X61054Y23281D01*
X61600Y23173D01*
X61889Y23230D01*
X65995Y19123D01*
Y14210D01*
X65079D01*
Y8092D01*
X68441D01*
Y14210D01*
X67524D01*
Y19440D01*
X67466Y19733D01*
X67300Y19981D01*
X62970Y24311D01*
X63027Y24600D01*
X62947Y25005D01*
X63263Y25354D01*
X63339Y25400D01*
X64450D01*
Y27400D01*
X65950D01*
Y25400D01*
X67196D01*
X67196Y25400D01*
X67200D01*
X67304Y25857D01*
X67700Y25857D01*
X68714D01*
X69378Y25192D01*
Y23659D01*
X68819D01*
Y17541D01*
X72181D01*
Y23659D01*
X71622D01*
Y25657D01*
X71622Y25657D01*
X71536Y26086D01*
X71293Y26450D01*
X71293Y26450D01*
X70300Y27443D01*
Y28857D01*
X67856Y28857D01*
X67699Y29128D01*
X67857Y29400D01*
X70300D01*
Y32400D01*
X69023D01*
Y36595D01*
X69907D01*
Y43500D01*
Y50406D01*
X68968D01*
Y49905D01*
X66835D01*
X66713Y49905D01*
X66335D01*
X66213Y49905D01*
X63957D01*
Y49905D01*
X63579D01*
Y49905D01*
X61323D01*
Y50406D01*
X60384D01*
D02*
G37*
G36*
X57400Y26727D02*
X56854Y26619D01*
X56391Y26309D01*
X56081Y25846D01*
X55973Y25300D01*
X56081Y24754D01*
X56391Y24291D01*
X56635Y24127D01*
Y23559D01*
X55719D01*
Y17441D01*
X59081D01*
Y23559D01*
X58165D01*
Y24127D01*
X58409Y24291D01*
X58719Y24754D01*
X58827Y25300D01*
X58719Y25846D01*
X58409Y26309D01*
X57946Y26619D01*
X57400Y26727D01*
D02*
G37*
G36*
X14258Y17506D02*
X9947D01*
X9950Y17481D01*
X10249Y16759D01*
X10725Y16139D01*
X11345Y15663D01*
X12068Y15364D01*
X12843Y15262D01*
X14258D01*
Y17506D01*
D02*
G37*
G36*
X3021D02*
X-699D01*
Y15262D01*
X126D01*
X901Y15364D01*
X1623Y15663D01*
X2243Y16139D01*
X2719Y16759D01*
X3018Y17481D01*
X3021Y17506D01*
D02*
G37*
G36*
X-2199D02*
X-5919D01*
X-5916Y17481D01*
X-5617Y16759D01*
X-5141Y16139D01*
X-4521Y15663D01*
X-3799Y15364D01*
X-3024Y15262D01*
X-2199D01*
Y17506D01*
D02*
G37*
G36*
X51000Y27000D02*
X48000D01*
Y25081D01*
X47400Y24481D01*
X47234Y24233D01*
X47175Y23940D01*
Y14602D01*
X47009Y14125D01*
X43268D01*
X40853Y16541D01*
X40604Y16706D01*
X40312Y16765D01*
X33600D01*
X33600Y16765D01*
X33307Y16706D01*
X33059Y16541D01*
X30359Y13841D01*
X30193Y13593D01*
X30135Y13300D01*
Y7973D01*
X29891Y7809D01*
X29581Y7346D01*
X29473Y6800D01*
X29581Y6254D01*
X29891Y5791D01*
X30354Y5481D01*
X30900Y5373D01*
X31446Y5481D01*
X31909Y5791D01*
X32219Y6254D01*
X32327Y6800D01*
X32219Y7346D01*
X31909Y7809D01*
X31665Y7973D01*
Y12983D01*
X33438Y14757D01*
X33900Y14566D01*
Y12443D01*
X36900D01*
Y13178D01*
X38629D01*
X38779Y13029D01*
Y8756D01*
X38317Y8565D01*
X36900Y9981D01*
Y11900D01*
X33900D01*
Y8900D01*
X35819D01*
X37114Y7605D01*
X36971Y7108D01*
X36419Y7346D01*
X36109Y7809D01*
X35646Y8119D01*
X35100Y8227D01*
X34554Y8119D01*
X34091Y7809D01*
X33781Y7346D01*
X33673Y6800D01*
X33781Y6254D01*
X34091Y5791D01*
X34554Y5481D01*
X35100Y5373D01*
X35646Y5481D01*
X35810Y5413D01*
X35881Y5054D01*
X36191Y4591D01*
X36654Y4281D01*
X37200Y4173D01*
X37746Y4281D01*
X38209Y4591D01*
X38451Y4952D01*
X38846Y4992D01*
X39010Y4961D01*
X39191Y4691D01*
X39654Y4381D01*
X40200Y4273D01*
X40746Y4381D01*
X41209Y4691D01*
X41373Y4935D01*
X60200D01*
X60493Y4993D01*
X60741Y5159D01*
X61681Y6100D01*
X61681Y6100D01*
X61847Y6348D01*
X61905Y6640D01*
Y7992D01*
X62821D01*
Y14110D01*
X59459D01*
Y7992D01*
X60375D01*
Y6957D01*
X59883Y6465D01*
X41373D01*
X41209Y6709D01*
X40746Y7019D01*
X40200Y7127D01*
X39828Y7053D01*
X39351Y7530D01*
X39542Y7992D01*
X42141D01*
Y12399D01*
X42641Y12666D01*
X42659Y12654D01*
X42952Y12596D01*
X46259D01*
Y7992D01*
X49621D01*
Y14110D01*
X48705D01*
Y23623D01*
X49081Y24000D01*
X51000D01*
Y27000D01*
D02*
G37*
G36*
X76421Y14710D02*
X74990D01*
Y11901D01*
X76421D01*
Y14710D01*
D02*
G37*
G36*
X73490D02*
X72059D01*
Y11901D01*
X73490D01*
Y14710D01*
D02*
G37*
G36*
X104900Y9750D02*
X103650D01*
Y8500D01*
X104900D01*
Y9750D01*
D02*
G37*
G36*
X54543Y27000D02*
X51543D01*
Y24000D01*
X52895D01*
Y14110D01*
X51979D01*
Y7992D01*
X55341D01*
Y14110D01*
X54425D01*
Y24000D01*
X54543D01*
Y27000D01*
D02*
G37*
G36*
X76421Y10401D02*
X74990D01*
Y7592D01*
X76421D01*
Y10401D01*
D02*
G37*
G36*
X73490D02*
X72059D01*
Y7592D01*
X73490D01*
Y10401D01*
D02*
G37*
G36*
X3321Y121408D02*
X2437Y120524D01*
X3321Y119640D01*
X4205Y120524D01*
X3321Y121408D01*
D02*
G37*
G36*
X-3644Y114301D02*
X-4528Y113417D01*
X-3644Y112533D01*
X-2760Y113417D01*
X-3644Y114301D01*
D02*
G37*
G36*
X8500Y114527D02*
X7954Y114419D01*
X7491Y114109D01*
X7181Y113646D01*
X7073Y113100D01*
X7181Y112554D01*
X7491Y112091D01*
X7954Y111781D01*
X8500Y111673D01*
X9046Y111781D01*
X9509Y112091D01*
X9819Y112554D01*
X9927Y113100D01*
X9819Y113646D01*
X9509Y114109D01*
X9046Y114419D01*
X8500Y114527D01*
D02*
G37*
G36*
X7319Y104980D02*
X6436Y104096D01*
X7319Y103212D01*
X8203Y104096D01*
X7319Y104980D01*
D02*
G37*
G36*
X9264Y103035D02*
X8380Y102151D01*
X9264Y101268D01*
X10148Y102151D01*
X9264Y103035D01*
D02*
G37*
G36*
X2005Y100134D02*
X1122Y99250D01*
X2006Y98366D01*
X2889Y99250D01*
X2005Y100134D01*
D02*
G37*
G36*
X3950Y98189D02*
X3066Y97305D01*
X3950Y96421D01*
X4834Y97305D01*
X3950Y98189D01*
D02*
G37*
G36*
X61Y98189D02*
X-823Y97305D01*
X-811Y97293D01*
X-500Y96921D01*
X-2621Y94800D01*
X-500Y92679D01*
X20Y93199D01*
X1610Y91609D01*
X449Y90447D01*
X2826Y88070D01*
X7153Y92396D01*
X6956Y92593D01*
X6964Y92682D01*
X7153Y93103D01*
X7546Y93181D01*
X8009Y93491D01*
X8319Y93954D01*
X8427Y94500D01*
X8319Y95046D01*
X8009Y95509D01*
X7546Y95819D01*
X7000Y95927D01*
X6454Y95819D01*
X5991Y95509D01*
X5681Y95046D01*
X5603Y94653D01*
X5182Y94464D01*
X5093Y94456D01*
X4775Y94774D01*
X2692Y92690D01*
X1351Y94030D01*
Y94374D01*
X1802Y94649D01*
X1993Y94489D01*
X2005Y94477D01*
X2889Y95360D01*
X1475Y96775D01*
X61Y98189D01*
D02*
G37*
G36*
X10065Y90191D02*
X8078Y88205D01*
X9090Y87193D01*
X11077Y89179D01*
X10065Y90191D01*
D02*
G37*
G36*
X12137Y88119D02*
X10151Y86132D01*
X11163Y85120D01*
X13149Y87107D01*
X12137Y88119D01*
D02*
G37*
G36*
X3300Y86300D02*
X2050D01*
Y85050D01*
X3300D01*
Y86300D01*
D02*
G37*
G36*
X550D02*
X-700D01*
Y85050D01*
X550D01*
Y86300D01*
D02*
G37*
G36*
X7018Y87144D02*
X5031Y85158D01*
X6043Y84146D01*
X8030Y86132D01*
X7018Y87144D01*
D02*
G37*
G36*
X16913Y84541D02*
X16029Y83657D01*
X16913Y82774D01*
X17797Y83657D01*
X16913Y84541D01*
D02*
G37*
G36*
X9090Y85072D02*
X7104Y83085D01*
X8116Y82073D01*
X10102Y84060D01*
X9090Y85072D01*
D02*
G37*
G36*
X65405Y105334D02*
X64521Y104450D01*
X65405Y103566D01*
X66289Y104450D01*
X65405Y105334D01*
D02*
G37*
G36*
X59026Y90263D02*
X58363Y90131D01*
X57800Y89755D01*
X57425Y89193D01*
X57293Y88530D01*
X57425Y87866D01*
X57800Y87304D01*
X61760Y83344D01*
X62322Y82968D01*
X62986Y82837D01*
X63649Y82968D01*
X64211Y83344D01*
X64587Y83907D01*
X64719Y84570D01*
X64587Y85233D01*
X64303Y85658D01*
X64648Y86043D01*
X65000Y85973D01*
X65546Y86081D01*
X66009Y86391D01*
X66319Y86854D01*
X66427Y87400D01*
X66319Y87946D01*
X66009Y88409D01*
X65546Y88719D01*
X65000Y88827D01*
X64454Y88719D01*
X63991Y88409D01*
X63681Y87946D01*
X63573Y87400D01*
X63592Y87302D01*
X63149Y86858D01*
X60252Y89755D01*
X59689Y90131D01*
X59026Y90263D01*
D02*
G37*
G36*
X104900Y23300D02*
X103650D01*
Y22050D01*
X104900D01*
Y23300D01*
D02*
G37*
%LPD*%
D10*
X11600Y37100D02*
Y37300D01*
X14421Y34280D02*
Y34280D01*
D12*
X87146Y16400D02*
X98057D01*
X85246Y14500D02*
X87146Y16400D01*
X33450Y54350D02*
X33500Y54300D01*
X33450Y54350D02*
Y57550D01*
X8500Y99200D02*
X8700D01*
X12442Y95458D01*
X13127D01*
X26200Y5200D02*
Y27183D01*
X27285Y28268D01*
Y28485D01*
X33400Y57600D02*
X33450Y57550D01*
X97343Y112300D02*
X100700D01*
X97343Y108700D02*
Y112300D01*
Y105100D02*
Y108700D01*
X23186Y58283D02*
X25628D01*
X23186Y64598D02*
X25628D01*
X22600Y58868D02*
Y64012D01*
Y58868D02*
X23186Y58283D01*
X22600Y64012D02*
X23186Y64598D01*
X25628D02*
X26211Y65180D01*
X25628Y58283D02*
X26211Y57700D01*
X85246Y10547D02*
Y14500D01*
X92727Y23244D02*
X94383Y24900D01*
X107000D01*
X108700Y23200D01*
Y18718D02*
Y23200D01*
X104100Y17200D02*
X108700Y12600D01*
X102900Y17700D02*
X103400Y17200D01*
X104100D01*
X85246Y22358D02*
X85829Y21776D01*
Y19671D02*
Y21776D01*
Y19671D02*
X86900Y18600D01*
X96657D01*
X99357Y21300D01*
X98057Y16400D02*
X99357Y17700D01*
X32900Y121700D02*
X32939D01*
D15*
X68800Y27357D02*
D03*
X68800Y30900D02*
D03*
X65200Y27400D02*
D03*
X65200Y30943D02*
D03*
X61600Y27500D02*
D03*
X61600Y31043D02*
D03*
X35400Y10400D02*
D03*
X35400Y13943D02*
D03*
X112200Y33757D02*
D03*
X112200Y37300D02*
D03*
X40200Y133900D02*
D03*
X40200Y130357D02*
D03*
X1300Y80757D02*
D03*
X1300Y84300D02*
D03*
X43800Y133900D02*
D03*
X43800Y130357D02*
D03*
X36600Y133800D02*
D03*
X36600Y130257D02*
D03*
D16*
X49500Y25500D02*
D03*
X53043Y25500D02*
D03*
X93800Y112300D02*
D03*
X97343Y112300D02*
D03*
X93800Y105100D02*
D03*
X97343Y105100D02*
D03*
X93800Y108700D02*
D03*
X97343Y108700D02*
D03*
X33357Y68400D02*
D03*
X36900Y68400D02*
D03*
X19357Y33200D02*
D03*
X22900Y33200D02*
D03*
X102900Y17700D02*
D03*
X99357Y17700D02*
D03*
X33357Y64800D02*
D03*
X36900Y64800D02*
D03*
X99357Y21300D02*
D03*
X102900Y21300D02*
D03*
X11300Y116800D02*
D03*
X14843Y116800D02*
D03*
X97343Y115900D02*
D03*
X93800Y115900D02*
D03*
X97343Y101500D02*
D03*
X93800Y101500D02*
D03*
X33400Y57600D02*
D03*
X36943Y57600D02*
D03*
X33400Y61200D02*
D03*
X36943Y61200D02*
D03*
X18600Y74100D02*
D03*
X15057Y74100D02*
D03*
X18616Y70441D02*
D03*
X15073Y70442D02*
D03*
X99357Y14100D02*
D03*
X102900Y14100D02*
D03*
X99357Y10500D02*
D03*
X102900Y10500D02*
D03*
X91443Y28200D02*
D03*
X87900Y28200D02*
D03*
D17*
X53660Y11051D02*
D03*
X57400Y20500D02*
D03*
X61140Y11051D02*
D03*
X47940Y11051D02*
D03*
X44200Y20500D02*
D03*
X40460Y11051D02*
D03*
X66760Y11151D02*
D03*
X70500Y20600D02*
D03*
X74240Y11151D02*
D03*
X106340Y34651D02*
D03*
X102600Y44100D02*
D03*
X98860Y34651D02*
D03*
D18*
X85354Y33800D02*
D03*
Y37800D02*
D03*
Y45800D02*
D03*
Y41800D02*
D03*
D19*
X92047Y33800D02*
D03*
Y37800D02*
D03*
Y45800D02*
D03*
Y41800D02*
D03*
D20*
X69000Y129200D02*
D03*
X66495Y131705D02*
D03*
X3321Y118579D02*
D03*
X5826Y116074D02*
D03*
X68100Y114100D02*
D03*
X70605Y111594D02*
D03*
X65500Y111500D02*
D03*
X68005Y108994D02*
D03*
X62900Y108900D02*
D03*
X65405Y106395D02*
D03*
X3351Y113457D02*
D03*
X846Y115963D02*
D03*
X806Y110912D02*
D03*
X-1699Y113417D02*
D03*
D21*
X53105Y134905D02*
D03*
X50600Y132400D02*
D03*
X41295Y78445D02*
D03*
X43800Y80950D02*
D03*
X41200Y83450D02*
D03*
X38695Y80945D02*
D03*
X24863Y82662D02*
D03*
X22357Y80157D02*
D03*
X2005Y97305D02*
D03*
X-500Y94800D02*
D03*
X11769Y106601D02*
D03*
X9264Y104096D02*
D03*
X21363Y86162D02*
D03*
X18857Y83657D02*
D03*
D22*
X86338Y71966D02*
D03*
X89873Y75502D02*
D03*
X93409Y79037D02*
D03*
X96944Y82573D02*
D03*
X66683Y91620D02*
D03*
X70219Y95156D02*
D03*
X73754Y98691D02*
D03*
X77290Y102227D02*
D03*
D23*
X65956Y60387D02*
D03*
X61006Y86550D02*
D03*
X57470Y83014D02*
D03*
X73027Y67458D02*
D03*
X53935Y79479D02*
D03*
X50399Y75943D02*
D03*
X76562Y70993D02*
D03*
X69491Y63922D02*
D03*
D24*
X19151Y46440D02*
D03*
X28600Y42700D02*
D03*
X19151Y38960D02*
D03*
D25*
X108700Y18718D02*
D03*
D26*
Y12600D02*
D03*
D27*
X39316Y105301D02*
D03*
D28*
X25118Y103352D02*
D03*
X26232Y102239D02*
D03*
X27345Y101125D02*
D03*
X28459Y100012D02*
D03*
X29573Y98898D02*
D03*
X30686Y97785D02*
D03*
X31800Y96671D02*
D03*
X32913Y95558D02*
D03*
X34027Y94444D02*
D03*
X35140Y93331D02*
D03*
X36254Y92217D02*
D03*
X37367Y91103D02*
D03*
X53514Y107250D02*
D03*
X52400Y108363D02*
D03*
X51287Y109477D02*
D03*
X50173Y110591D02*
D03*
X49060Y111704D02*
D03*
X47946Y112818D02*
D03*
X46833Y113931D02*
D03*
X45719Y115045D02*
D03*
X44606Y116158D02*
D03*
X43492Y117272D02*
D03*
X42379Y118386D02*
D03*
X41265Y119499D02*
D03*
D29*
X53514Y103352D02*
D03*
X52400Y102239D02*
D03*
X51287Y101125D02*
D03*
X50173Y100012D02*
D03*
X49060Y98898D02*
D03*
X47946Y97785D02*
D03*
X46833Y96671D02*
D03*
X45719Y95558D02*
D03*
X44606Y94444D02*
D03*
X43492Y93331D02*
D03*
X42379Y92217D02*
D03*
X41265Y91103D02*
D03*
X25118Y107250D02*
D03*
X26232Y108363D02*
D03*
X27345Y109477D02*
D03*
X28459Y110591D02*
D03*
X29573Y111704D02*
D03*
X30686Y112818D02*
D03*
X31800Y113931D02*
D03*
X32913Y115045D02*
D03*
X34027Y116158D02*
D03*
X35140Y117272D02*
D03*
X36254Y118386D02*
D03*
X37367Y119499D02*
D03*
D30*
X17200Y133900D02*
D03*
X-2891D02*
D03*
D31*
X53600Y126700D02*
D03*
D32*
X59724Y120575D02*
D03*
X64457Y125308D02*
D03*
X58333Y131433D02*
D03*
D33*
X3801Y91422D02*
D03*
X13127Y95458D02*
D03*
X9090Y86132D02*
D03*
D34*
X85246Y10547D02*
D03*
X92727D02*
D03*
Y22358D02*
D03*
X85246D02*
D03*
D35*
X88987Y10547D02*
D03*
D36*
X26211Y57700D02*
D03*
Y65180D02*
D03*
X14400D02*
D03*
Y57700D02*
D03*
D37*
X26211Y61440D02*
D03*
D38*
X70657Y43500D02*
D03*
X67902D02*
D03*
X65146D02*
D03*
X62390D02*
D03*
X59634D02*
D03*
X56878D02*
D03*
X54122D02*
D03*
X51366D02*
D03*
X48610D02*
D03*
X45854D02*
D03*
X43098D02*
D03*
X40343D02*
D03*
D67*
X52507Y124059D02*
X53100Y124833D01*
X53473Y125734D01*
X53600Y126700D01*
X52506Y124059D02*
X52507Y124059D01*
X52985Y87500D02*
X57470Y83014D01*
X45600Y89000D02*
X47100Y87500D01*
X52985D01*
X53231Y92500D02*
X57800D01*
X67500Y102200D01*
X70246D01*
X30457Y71300D02*
X33357Y68400D01*
X24900Y71300D02*
X30457D01*
X65956Y60387D02*
X68042Y58300D01*
X71400D01*
X57400Y20500D02*
Y25300D01*
X78900Y14500D02*
X85246D01*
X20252Y108700D02*
X23569D01*
X21400Y110400D02*
X24195D01*
X17300Y97800D02*
X19400D01*
X20700Y99100D01*
X25320D01*
X16800Y100300D02*
X24293D01*
X26232Y102239D01*
X18916Y101584D02*
X23350D01*
X18400Y102100D02*
X18916Y101584D01*
X23350D02*
X25118Y103352D01*
X33357Y68400D02*
X36150Y65607D01*
X44200Y27200D02*
X46100Y29100D01*
X44200Y20500D02*
Y27200D01*
X32200Y90800D02*
X32610D01*
X32083Y92500D02*
X34027Y94444D01*
X31000Y92500D02*
X32083D01*
X29700Y91200D02*
X31000Y92500D01*
X32610Y90800D02*
X35140Y93331D01*
X32800Y86536D02*
X37367Y91103D01*
X32800Y84300D02*
Y86536D01*
X68005Y108994D02*
X69066D01*
X70060Y108000D01*
X76100D01*
X78700Y105400D01*
X77800Y109900D02*
X80500Y107200D01*
X70605Y111594D02*
X72300Y109900D01*
X77800D01*
X70605Y111594D02*
X70605D01*
X66760Y11151D02*
Y19440D01*
X61600Y24600D02*
X66760Y19440D01*
X40312Y16000D02*
X42952Y13360D01*
X30900Y13300D02*
X33600Y16000D01*
X40312D01*
X30900Y6800D02*
Y13300D01*
X22900Y33200D02*
X25900D01*
X40200Y5700D02*
X60200D01*
X40100D02*
X40200D01*
X60200D02*
X61140Y6640D01*
Y11051D01*
X3922Y91422D02*
X7000Y94500D01*
X2878Y91422D02*
X3801D01*
X3922D01*
X92050Y108700D02*
X93800D01*
X91250Y109500D02*
X92050Y108700D01*
X90900Y109500D02*
X91250D01*
X91700Y112300D02*
X93800D01*
X89700Y114300D02*
X91700Y112300D01*
X93800D02*
Y115900D01*
X53610Y111800D02*
X54900D01*
X55000Y111900D01*
X56468Y110132D02*
X56800Y109800D01*
X-500Y94800D02*
X2878Y91422D01*
X27400Y91400D02*
X27400D01*
X29600Y93600D01*
X23900Y93300D02*
X26500Y95900D01*
X28801D01*
X29573Y98898D02*
X29573D01*
X24700Y97100D02*
X27774D01*
X23200Y95600D02*
Y95600D01*
X24700Y97100D01*
X27774D02*
X29573Y98898D01*
X36150Y65550D02*
Y65607D01*
Y65550D02*
X36900Y64800D01*
X48610Y43500D02*
Y57010D01*
X51500Y59900D01*
X35400Y10400D02*
X40100Y5700D01*
X21460Y50060D02*
X21800Y50400D01*
X19151Y46440D02*
X20529D01*
X21460Y47371D01*
Y50060D01*
X85354Y41800D02*
X88100D01*
X85354Y41800D02*
X85354Y41800D01*
X102600Y42731D02*
Y44100D01*
X101669Y41800D02*
X102600Y42731D01*
X99100Y41800D02*
X101669D01*
X75100Y37600D02*
X85154D01*
X110600Y38900D02*
X112200Y37300D01*
X101731Y38900D02*
X110600D01*
X98860Y34651D02*
Y36029D01*
X101731Y38900D01*
X92047Y33800D02*
X98009D01*
X98860Y34651D01*
X92047Y33800D02*
Y37800D01*
X47946Y112818D02*
X52279Y117150D01*
X54450D01*
X54600Y117300D01*
X52400Y108363D02*
X54169Y110132D01*
X56468D01*
X89549Y82800D02*
X93312Y79037D01*
X84800Y82800D02*
X89549D01*
X68300Y79400D02*
Y80800D01*
X56400Y67500D02*
X68300Y79400D01*
X57600Y67286D02*
X70400Y80086D01*
X71300Y84557D02*
Y84600D01*
X70400Y80086D02*
Y83657D01*
X71300Y84557D01*
X56400Y66700D02*
Y67500D01*
X58600Y66400D02*
X72600Y80400D01*
Y81400D01*
X59700Y66000D02*
X76300Y82600D01*
X59700Y60300D02*
Y66000D01*
X76300Y82600D02*
Y86800D01*
X53685Y96500D02*
X55250D01*
X54212Y98200D02*
X56900D01*
X51287Y101125D02*
X54212Y98200D01*
X47946Y97785D02*
X53231Y92500D01*
X51287Y109477D02*
X53610Y111800D01*
X85500Y45946D02*
Y48900D01*
X85354Y45800D02*
X85500Y45946D01*
X57048Y101700D02*
X57398Y102050D01*
X57757D01*
X54639Y100000D02*
X58800D01*
X64772Y87400D02*
X65000D01*
X64314Y114100D02*
X68100D01*
X63064Y115350D02*
X64314Y114100D01*
X62800Y114200D02*
X65500Y111500D01*
X53783Y114200D02*
X62800D01*
X52706Y115350D02*
X63064D01*
X50173Y110591D02*
X53783Y114200D01*
X49060Y111704D02*
X52706Y115350D01*
X75500Y91500D02*
X79700Y95700D01*
X78417Y101100D02*
X79700Y99817D01*
Y95700D02*
Y99817D01*
X53935Y79479D02*
X54449D01*
X58100Y76800D02*
X59700Y78400D01*
X57128Y76800D02*
X58100D01*
X54449Y79479D02*
X57128Y76800D01*
X60800Y65600D02*
X77133Y81933D01*
X60800Y58300D02*
Y65600D01*
X77133Y81933D02*
X77182D01*
X77648Y82400D01*
X78000D01*
X58600Y61500D02*
Y66400D01*
X57600Y65600D02*
Y67286D01*
X63084Y85712D02*
X64772Y87400D01*
X61006Y86550D02*
X61843Y85712D01*
X63084D01*
X72000Y88100D02*
X72095Y88195D01*
X54400Y64700D02*
X56400Y66700D01*
X50900Y64700D02*
X54400D01*
X93700Y105200D02*
X93800Y105100D01*
X90800Y105200D02*
X93700D01*
X93800Y101500D02*
Y105100D01*
X70219Y95156D02*
X72095Y93280D01*
Y88195D02*
Y93280D01*
X92500Y48948D02*
Y49300D01*
X92047Y48495D02*
X92500Y48948D01*
X92047Y45800D02*
Y48495D01*
Y41800D02*
Y45800D01*
X85962Y79413D02*
X89873Y75502D01*
X84761Y79661D02*
X85010Y79413D01*
X85962D01*
X85154Y37600D02*
X85354Y37800D01*
X78900Y77900D02*
X80202D01*
X69538Y71054D02*
X73027Y67566D01*
Y67458D02*
Y67566D01*
X69538Y71054D02*
Y71162D01*
X55700Y63700D02*
X57600Y65600D01*
X52000Y63700D02*
X55700D01*
X61600Y24600D02*
Y27500D01*
X52833Y55933D02*
X55333D01*
X59700Y60300D01*
X54200Y43578D02*
Y51700D01*
X60800Y58300D01*
X51366Y54466D02*
X52833Y55933D01*
X51366Y43500D02*
Y54466D01*
X51500Y59900D02*
X57000D01*
X58600Y61500D01*
X45854Y57554D02*
X52000Y63700D01*
X43098Y56898D02*
X50900Y64700D01*
X43098Y43500D02*
Y56898D01*
X45854Y43500D02*
Y57554D01*
X54122Y43500D02*
X54200Y43578D01*
X65501Y65701D02*
X67712D01*
X65300Y65500D02*
X65501Y65701D01*
X67712D02*
X69491Y63922D01*
X38400Y84400D02*
Y88238D01*
Y82300D02*
Y84400D01*
X38695Y80945D02*
Y82006D01*
X38400Y82300D02*
X38695Y82006D01*
X41265Y91103D02*
Y91103D01*
X38400Y88238D02*
X41265Y91103D01*
X49600Y91400D02*
Y91677D01*
X45719Y95558D02*
X49600Y91677D01*
X93312Y79037D02*
X93409D01*
X80202Y77900D02*
X86136Y71966D01*
X86338D01*
X49060Y98898D02*
X53658Y94300D01*
X50173Y100012D02*
X53685Y96500D01*
X52400Y102239D02*
X54639Y100000D01*
X53658Y94300D02*
X54200D01*
X51999Y91399D02*
Y91505D01*
X46833Y96671D02*
X51999Y91505D01*
X57470Y83014D02*
X57470D01*
X45600Y89000D02*
Y91223D01*
X70246Y102200D02*
X73754Y98691D01*
X36500Y126082D02*
X42054Y120528D01*
X41265Y119499D02*
X42054Y120288D01*
Y120528D01*
X36500Y126082D02*
Y130157D01*
X43800Y130357D02*
X44100Y130057D01*
X42379Y118386D02*
Y118485D01*
X44100Y120206D02*
Y130057D01*
X42379Y118485D02*
X44100Y120206D01*
X36600Y130257D02*
X39450Y133107D01*
X36500Y130157D02*
X36600Y130257D01*
X40200Y133900D02*
X43800D01*
X39450Y133107D02*
Y133150D01*
X40200Y133900D01*
X40200Y130357D02*
X43800D01*
X64457Y125308D02*
X65108D01*
X69000Y129200D01*
X64179Y125586D02*
X64457Y125308D01*
X58486Y125586D02*
X64179D01*
X55350Y122450D02*
X58486Y125586D01*
X45719Y115045D02*
X53124Y122450D01*
X55350D01*
X53600Y126700D02*
Y126700D01*
X50600Y129700D02*
X53600Y126700D01*
X50600Y129700D02*
Y132400D01*
X52506Y124059D02*
X52507Y124059D01*
X44606Y116158D02*
X52506Y124059D01*
X28700Y117031D02*
X31800Y113931D01*
X28700Y117031D02*
Y117600D01*
X24863Y82662D02*
Y82863D01*
X28237Y84200D02*
X36254Y92217D01*
X24863Y82863D02*
X26200Y84200D01*
X28237D01*
X53660Y11051D02*
Y24883D01*
X53043Y25500D02*
X53660Y24883D01*
X47940Y12429D02*
Y23940D01*
Y11051D02*
Y12429D01*
Y23940D02*
X49500Y25500D01*
X47009Y13360D02*
X47940Y12429D01*
X42952Y13360D02*
X47009D01*
X35400Y13943D02*
X38946D01*
X40460Y12429D01*
Y11051D02*
Y12429D01*
X21500Y94000D02*
Y96233D01*
X23367Y98100D01*
X26547D01*
X28459Y100012D02*
X28459D01*
X26547Y98100D02*
X28459Y100012D01*
X17168Y112000D02*
X19200D01*
X26404Y117100D02*
X30686Y112818D01*
X24650Y115450D02*
X25827D01*
X26400Y117100D02*
X26404D01*
X24600Y115500D02*
X24650Y115450D01*
X25827D02*
X29573Y111704D01*
X19250Y112050D02*
X24772D01*
X19200Y112000D02*
X19250Y112050D01*
X11769Y106601D02*
X17168Y112000D01*
X11769Y106601D02*
X11769D01*
X22850Y113650D02*
X25400D01*
X22800Y113700D02*
X22850Y113650D01*
X25400D02*
X28459Y110591D01*
X24772Y112050D02*
X27345Y109477D01*
X23569Y108700D02*
X25019Y107250D01*
X25118D01*
X24195Y110400D02*
X26232Y108363D01*
X25320Y99100D02*
X27345Y101125D01*
X29600Y93600D02*
X30956D01*
X28801Y95900D02*
X30686Y97785D01*
X30686D01*
X30956Y93600D02*
X32913Y95558D01*
X32913D01*
X44606Y94444D02*
X47300Y91750D01*
Y91400D02*
Y91750D01*
X55167Y101700D02*
X57048D01*
X53514Y103352D02*
X55167Y101700D01*
X43492Y93331D02*
X45600Y91223D01*
D68*
X21400Y120200D02*
X20405Y120135D01*
X19428Y119940D01*
X18484Y119620D01*
X17590Y119179D01*
X16761Y118625D01*
X16011Y117968D01*
X3281Y113528D02*
X5826Y116074D01*
X4200Y80757D02*
X5343D01*
X-4274Y105974D02*
X735Y110983D01*
X3281Y113528D01*
X18616Y72263D02*
Y74084D01*
Y70441D02*
Y72263D01*
X65173Y35200D02*
Y43473D01*
Y30970D02*
Y35200D01*
X-5500Y104747D02*
X-4274Y105974D01*
X1300Y80757D02*
X4200D01*
X18616Y70441D02*
X18866Y70691D01*
X17221Y77400D02*
X18600Y76021D01*
X8700Y77400D02*
X17221D01*
X18600Y74100D02*
X18850Y74350D01*
Y75450D01*
X18600Y74100D02*
X18616Y74084D01*
X25000Y2400D02*
X91848D01*
X21000Y6400D02*
X25000Y2400D01*
X91848D02*
X92727Y3279D01*
Y10547D01*
X19357Y27743D02*
Y38754D01*
X21000Y6400D02*
Y26100D01*
X19357Y27743D02*
X21000Y26100D01*
X91443Y28200D02*
X95200D01*
X91443D02*
X92727Y26916D01*
X21600Y54413D02*
Y56500D01*
X-5500Y83400D02*
X-2857Y80757D01*
X-5500Y83400D02*
Y104747D01*
X5343Y80757D02*
X8700Y77400D01*
X6906Y116800D02*
X11300D01*
X6180Y116074D02*
X6906Y116800D01*
X5826Y116074D02*
X6180D01*
X-2857Y80757D02*
X1300D01*
X18850Y75450D02*
X22357Y78957D01*
Y80157D01*
X33378Y61221D02*
X33400Y61200D01*
X33378Y61221D02*
Y64779D01*
X33357Y64800D02*
X33378Y64779D01*
X14730Y58030D02*
X17746D01*
X18616Y70199D02*
Y70441D01*
Y70199D02*
X18624Y70191D01*
X17746Y58030D02*
X18624Y58908D01*
X14400Y57700D02*
X14730Y58030D01*
X18624Y58908D02*
Y70191D01*
X27147Y57650D02*
X28600Y56197D01*
X27097Y57700D02*
X27147Y57650D01*
X28600Y42700D02*
Y56197D01*
X26211Y57700D02*
X27097D01*
X33400Y57600D02*
Y61200D01*
X27147Y57650D02*
X33350D01*
X33400Y57600D01*
X99357Y10500D02*
Y14100D01*
X92727Y10547D02*
X92750Y10524D01*
X99334D01*
X99357Y10500D01*
X24200Y42631D02*
Y51813D01*
X21600Y54413D02*
X24200Y51813D01*
X20529Y38960D02*
X24200Y42631D01*
X19151Y38960D02*
X20529D01*
X19151D02*
X19357Y38754D01*
X85157Y33800D02*
X85354D01*
X84529Y33172D02*
X85157Y33800D01*
X84529Y32975D02*
Y33172D01*
X91193Y28450D02*
X91443Y28200D01*
X91193Y28450D02*
Y30307D01*
X90449Y31051D02*
X91193Y30307D01*
X85354Y33800D02*
X85550D01*
X88300Y31051D01*
X90449D01*
X92727Y23244D02*
Y26916D01*
Y22358D02*
Y23244D01*
X65100Y35200D02*
X65173D01*
X63400D02*
X65100D01*
X62390Y36210D02*
X63400Y35200D01*
X62390Y36210D02*
Y43500D01*
X65146D02*
X65173Y43473D01*
Y30970D02*
X65200Y30943D01*
X14843Y116800D02*
X16011Y117968D01*
D69*
X23175Y131425D02*
X22468Y132056D01*
X21696Y132605D01*
X20866Y133063D01*
X19991Y133426D01*
X19080Y133688D01*
X18146Y133847D01*
X17200Y133900D01*
X21504Y71796D02*
X21600Y71700D01*
X19083Y71796D02*
X21504D01*
X18616Y72263D02*
X19083Y71796D01*
X102900Y10500D02*
Y14100D01*
X23175Y131425D02*
X32900Y121700D01*
D70*
X48329Y78153D02*
X53682Y72800D01*
X23100Y89700D02*
X24800Y91400D01*
X21363Y86162D02*
Y86162D01*
X23100Y87900D01*
Y89700D01*
X22357Y80157D02*
Y82198D01*
X21372Y83184D02*
X22357Y82198D01*
X21372Y83184D02*
Y84113D01*
X21363Y84122D02*
X21372Y84113D01*
X21363Y84122D02*
Y86162D01*
X66400Y84500D02*
X68693Y86793D01*
X66400Y81800D02*
Y84500D01*
X68693Y86793D02*
Y89610D01*
X57400Y72800D02*
X66400Y81800D01*
X66683Y91620D02*
X68693Y89610D01*
X53682Y72800D02*
X57400D01*
X41200Y83450D02*
X44000Y86250D01*
Y88301D01*
X67902Y31798D02*
Y43500D01*
Y31798D02*
X68800Y30900D01*
X70500Y20600D02*
Y25657D01*
X68800Y27357D02*
X70500Y25657D01*
X43800Y80950D02*
X46597Y78153D01*
X48329D01*
X43750Y80950D02*
X43800D01*
X41200Y83450D02*
X41250D01*
X43750Y80950D01*
D71*
X24800Y91400D02*
X28150Y94750D01*
X62100Y109700D02*
Y111300D01*
Y109700D02*
X62900Y108900D01*
X54953Y108000D02*
X61151D01*
X54630Y108323D02*
X54953Y108000D01*
X61151D02*
X62051Y108900D01*
X53514Y107250D02*
X54587Y108323D01*
X54630D01*
X62051Y108900D02*
X62900D01*
X51701Y118800D02*
X52700D01*
X46400Y120180D02*
Y123200D01*
X46833Y113931D02*
X51701Y118800D01*
X31039Y119961D02*
X31586Y119414D01*
X34027Y116158D02*
Y116176D01*
X31586Y118617D02*
X34027Y116176D01*
X31586Y118617D02*
Y119414D01*
X35140Y117272D02*
X35140D01*
X32998Y119414D02*
X35140Y117272D01*
X31586Y119414D02*
X32998D01*
X28150Y94750D02*
X29861D01*
X31782Y96671D02*
X31800D01*
X29861Y94750D02*
X31782Y96671D01*
X43492Y117272D02*
X46400Y120180D01*
X35300Y121566D02*
X37367Y119499D01*
X35300Y121566D02*
Y122700D01*
X42379Y92199D02*
X44000Y90578D01*
Y88301D02*
Y90578D01*
X42379Y92199D02*
Y92217D01*
X32939Y121700D02*
X36254Y118386D01*
D72*
X25827Y120200D02*
D03*
D73*
X31327Y119550D02*
D03*
D74*
X-1449Y18256D02*
D03*
Y52272D02*
D03*
D75*
X15008Y18256D02*
D03*
Y52272D02*
D03*
D76*
X101910Y28565D02*
D03*
Y60061D02*
D03*
D77*
X51300Y84600D02*
D03*
X64600Y102400D02*
D03*
X57200Y90800D02*
D03*
X34200Y37500D02*
D03*
X33400Y41000D02*
D03*
X32300Y48400D02*
D03*
X34700Y51100D02*
D03*
X64700Y138400D02*
D03*
X66100Y136000D02*
D03*
X70900Y132200D02*
D03*
X76800Y124200D02*
D03*
X79600Y133300D02*
D03*
X82000Y134300D02*
D03*
X73900Y130300D02*
D03*
X68100Y53250D02*
D03*
X40300Y54000D02*
D03*
X39800Y56100D02*
D03*
X80600Y90300D02*
D03*
X81800Y79900D02*
D03*
X76800Y75200D02*
D03*
X80400Y55500D02*
D03*
X103300Y83000D02*
D03*
X101100Y76500D02*
D03*
X104500Y76800D02*
D03*
X105300Y80500D02*
D03*
X102700Y79900D02*
D03*
X79900Y66800D02*
D03*
X81600Y68600D02*
D03*
X24900Y71300D02*
D03*
X21600Y71700D02*
D03*
X62800Y103800D02*
D03*
X57400Y12100D02*
D03*
Y14800D02*
D03*
X90300Y14200D02*
D03*
X92700Y14100D02*
D03*
X102900Y32500D02*
D03*
X113500Y14600D02*
D03*
X114800Y19400D02*
D03*
X110800Y71900D02*
D03*
X107600Y57600D02*
D03*
X109000Y48600D02*
D03*
X105300Y51200D02*
D03*
X109100Y62100D02*
D03*
X111800Y76000D02*
D03*
X90000Y54600D02*
D03*
X80400Y48200D02*
D03*
X80200Y26000D02*
D03*
X48900Y123400D02*
D03*
X41100Y127000D02*
D03*
X19900Y116100D02*
D03*
X5700Y121200D02*
D03*
X7600Y120000D02*
D03*
X5200Y100200D02*
D03*
X5700Y102700D02*
D03*
X11400Y67900D02*
D03*
Y69900D02*
D03*
X11500Y83500D02*
D03*
X87400Y90300D02*
D03*
X91200Y125700D02*
D03*
X87200Y126600D02*
D03*
X67500Y120500D02*
D03*
X66100Y118200D02*
D03*
X60500Y137400D02*
D03*
X54800Y137800D02*
D03*
X57200D02*
D03*
X37000Y137700D02*
D03*
X39300Y137600D02*
D03*
X95700Y119400D02*
D03*
X97800Y119100D02*
D03*
X102300Y101800D02*
D03*
X102600Y99300D02*
D03*
X95600Y57300D02*
D03*
X95700Y63100D02*
D03*
X87900Y56600D02*
D03*
X89200Y60900D02*
D03*
X85300Y66300D02*
D03*
X75800Y59800D02*
D03*
X75300Y56200D02*
D03*
X70800Y52000D02*
D03*
X71400Y58300D02*
D03*
X75400Y21500D02*
D03*
X78700Y20800D02*
D03*
X71400Y11100D02*
D03*
X74500Y17400D02*
D03*
X76900D02*
D03*
X90300Y5500D02*
D03*
X85900D02*
D03*
X88100D02*
D03*
X112300Y30200D02*
D03*
X106200Y10100D02*
D03*
X106000Y7800D02*
D03*
X105500Y20500D02*
D03*
X105600Y22500D02*
D03*
X109600Y28500D02*
D03*
X109000Y30600D02*
D03*
X106800Y29200D02*
D03*
X73400Y31200D02*
D03*
X73000Y42600D02*
D03*
X71400Y35100D02*
D03*
X74300Y33400D02*
D03*
X37100Y36000D02*
D03*
X4700Y83200D02*
D03*
X11300Y80800D02*
D03*
X3400Y24200D02*
D03*
X4800Y29500D02*
D03*
X3900Y36800D02*
D03*
X7200Y44500D02*
D03*
X34900Y47600D02*
D03*
X33900Y18200D02*
D03*
X40700D02*
D03*
X34000Y23300D02*
D03*
X40600Y23100D02*
D03*
X37200Y20300D02*
D03*
X36400Y40200D02*
D03*
X37700Y46700D02*
D03*
X36500Y43800D02*
D03*
X44266Y105301D02*
D03*
X41791Y102826D02*
D03*
X39316Y100352D02*
D03*
X36841Y102826D02*
D03*
X39316Y105301D02*
D03*
X41791Y107776D02*
D03*
X39316Y110251D02*
D03*
X34367Y105301D02*
D03*
X36841Y107776D02*
D03*
X57400Y25300D02*
D03*
X78900Y14500D02*
D03*
X19600Y108400D02*
D03*
X21400Y110400D02*
D03*
X17300Y97800D02*
D03*
X16800Y100300D02*
D03*
X18400Y102100D02*
D03*
X33500Y54300D02*
D03*
X46100Y29100D02*
D03*
X53700Y54100D02*
D03*
X32200Y90800D02*
D03*
X32800Y84300D02*
D03*
X26200Y84200D02*
D03*
X8500Y113100D02*
D03*
Y99200D02*
D03*
X26200Y5200D02*
D03*
X27285Y28485D02*
D03*
X35100Y6800D02*
D03*
X40200Y5700D02*
D03*
X30900Y6800D02*
D03*
X37200Y5600D02*
D03*
X25900Y33200D02*
D03*
X21600Y56500D02*
D03*
X7000Y94500D02*
D03*
X-4200Y105900D02*
D03*
X-5500Y104747D02*
D03*
X28700Y117600D02*
D03*
X55000Y111900D02*
D03*
X58800Y111100D02*
D03*
X56800Y109800D02*
D03*
X44200Y137700D02*
D03*
X100700Y112300D02*
D03*
X4200Y80800D02*
D03*
X27400Y91400D02*
D03*
X23900Y93300D02*
D03*
X29700Y91200D02*
D03*
X23200Y95600D02*
D03*
X93400Y28200D02*
D03*
X95200Y28200D02*
D03*
X21800Y50400D02*
D03*
X88100Y41800D02*
D03*
X99100Y41800D02*
D03*
X75100Y37600D02*
D03*
X21600Y54413D02*
D03*
X11600Y37300D02*
D03*
X14421Y34280D02*
D03*
X62100Y111300D02*
D03*
X54600Y117300D02*
D03*
X84800Y82800D02*
D03*
X68300Y80800D02*
D03*
X72600Y81400D02*
D03*
X71300Y84600D02*
D03*
X76300Y86800D02*
D03*
X55250Y96500D02*
D03*
X56900Y98200D02*
D03*
X85500Y48900D02*
D03*
X57757Y102050D02*
D03*
X58800Y100000D02*
D03*
X65000Y87400D02*
D03*
X52700Y118800D02*
D03*
X75500Y91500D02*
D03*
X59700Y78400D02*
D03*
X72000Y88100D02*
D03*
X78000Y82400D02*
D03*
X90800Y105200D02*
D03*
X90900Y109500D02*
D03*
X92500Y49300D02*
D03*
X81200Y109400D02*
D03*
X84761Y79661D02*
D03*
X89700Y114300D02*
D03*
X78900Y77900D02*
D03*
X69538Y71162D02*
D03*
X61600Y24600D02*
D03*
X54133Y61833D02*
D03*
X54100Y67300D02*
D03*
X54200Y57800D02*
D03*
X65300Y65500D02*
D03*
X65100Y35200D02*
D03*
X38400Y84400D02*
D03*
X65400Y51900D02*
D03*
X54200Y94300D02*
D03*
X51999Y91399D02*
D03*
X78700Y105400D02*
D03*
X46400Y123200D02*
D03*
X21500Y94000D02*
D03*
X53900Y32700D02*
D03*
X54000Y35800D02*
D03*
X19200Y112000D02*
D03*
X26400Y117100D02*
D03*
X24600Y115500D02*
D03*
X80500Y107200D02*
D03*
X22800Y113700D02*
D03*
X4400Y65800D02*
D03*
X4800Y72800D02*
D03*
X47300Y91400D02*
D03*
X49600D02*
D03*
X35300Y122700D02*
D03*
D78*
X13039Y46642D02*
D03*
Y23886D02*
D03*
D79*
X84284Y119811D02*
D03*
Y96189D02*
D03*
M02*
