G04*
G04 #@! TF.GenerationSoftware,Altium Limited,Altium Designer,20.1.10 (176)*
G04*
G04 Layer_Color=16711935*
%FSLAX25Y25*%
%MOIN*%
G70*
G04*
G04 #@! TF.SameCoordinates,11B260F6-AB26-4D87-AEF0-EC618B47F653*
G04*
G04*
G04 #@! TF.FilePolarity,Negative*
G04*
G01*
G75*
%ADD39R,0.02800X0.02800*%
%ADD40R,0.02800X0.02800*%
%ADD45P,0.03960X4X270.0*%
%ADD63O,0.07887X0.04737*%
%ADD64O,0.09068X0.04737*%
%ADD65C,0.04737*%
%ADD66C,0.07493*%
%ADD98R,0.14580X0.14580*%
%ADD99O,0.01902X0.04327*%
%ADD100O,0.04326X0.01902*%
%ADD101O,0.04327X0.01902*%
%ADD102R,0.04343X0.07493*%
%ADD103R,0.05328X0.01981*%
%ADD104R,0.05328X0.03162*%
%ADD105R,0.06312X0.05524*%
%ADD106R,0.07099X0.03556*%
%ADD107R,0.09461X0.05524*%
%ADD108R,0.06312X0.07099*%
G04:AMPARAMS|DCode=109|XSize=41.47mil|YSize=55.24mil|CornerRadius=0mil|HoleSize=0mil|Usage=FLASHONLY|Rotation=315.000|XOffset=0mil|YOffset=0mil|HoleType=Round|Shape=Rectangle|*
%AMROTATEDRECTD109*
4,1,4,-0.03419,-0.00487,0.00487,0.03419,0.03419,0.00487,-0.00487,-0.03419,-0.03419,-0.00487,0.0*
%
%ADD109ROTATEDRECTD109*%

G04:AMPARAMS|DCode=110|XSize=41.47mil|YSize=55.24mil|CornerRadius=0mil|HoleSize=0mil|Usage=FLASHONLY|Rotation=45.000|XOffset=0mil|YOffset=0mil|HoleType=Round|Shape=Rectangle|*
%AMROTATEDRECTD110*
4,1,4,0.00487,-0.03419,-0.03419,0.00487,-0.00487,0.03419,0.03419,-0.00487,0.00487,-0.03419,0.0*
%
%ADD110ROTATEDRECTD110*%

%ADD111R,0.05918X0.05524*%
%ADD112R,0.05524X0.05918*%
%ADD113O,0.08674X0.08674*%
%ADD114R,0.06706X0.06706*%
%ADD115R,0.03556X0.07493*%
D39*
X29200Y36400D02*
D03*
X29200Y39943D02*
D03*
D40*
X38600Y130500D02*
D03*
X35057Y130500D02*
D03*
X51300Y62200D02*
D03*
X47757Y62200D02*
D03*
X51300Y58600D02*
D03*
X47757Y58600D02*
D03*
X51300Y41100D02*
D03*
X47757Y41100D02*
D03*
X51300Y37500D02*
D03*
X47757Y37500D02*
D03*
X51300Y33900D02*
D03*
X47757Y33900D02*
D03*
Y65826D02*
D03*
X51300Y65827D02*
D03*
X35057Y134100D02*
D03*
X38600Y134100D02*
D03*
X47757Y45400D02*
D03*
X51300Y45400D02*
D03*
D45*
X40634Y116744D02*
D03*
X43139Y119250D02*
D03*
X47184Y110194D02*
D03*
X49689Y112700D02*
D03*
X38000Y119300D02*
D03*
X40505Y121806D02*
D03*
D63*
X-1449Y18256D02*
D03*
Y52272D02*
D03*
D64*
X15008Y18256D02*
D03*
Y52272D02*
D03*
D65*
X101910Y28565D02*
D03*
Y60061D02*
D03*
D66*
X84284Y119811D02*
D03*
Y96189D02*
D03*
D98*
X37127Y20258D02*
D03*
D99*
X31217Y10417D02*
D03*
X33187D02*
D03*
X35157D02*
D03*
X37127D02*
D03*
X39097Y10417D02*
D03*
X41067D02*
D03*
X43037D02*
D03*
X43037Y30102D02*
D03*
X41067D02*
D03*
X39097D02*
D03*
X37127D02*
D03*
X35157Y30102D02*
D03*
X33187D02*
D03*
X31217D02*
D03*
D100*
X46970Y14349D02*
D03*
Y16319D02*
D03*
Y18289D02*
D03*
Y20259D02*
D03*
Y22229D02*
D03*
Y24199D02*
D03*
Y26169D02*
D03*
D101*
X27284Y26169D02*
D03*
Y24199D02*
D03*
Y22229D02*
D03*
X27284Y20259D02*
D03*
Y18289D02*
D03*
Y16319D02*
D03*
Y14349D02*
D03*
D102*
X63198Y131958D02*
D03*
X47056D02*
D03*
D103*
X18236Y42153D02*
D03*
Y40185D02*
D03*
Y38217D02*
D03*
Y36248D02*
D03*
Y34280D02*
D03*
Y32311D02*
D03*
Y30343D02*
D03*
Y28374D02*
D03*
D104*
Y47862D02*
D03*
Y44713D02*
D03*
Y25815D02*
D03*
Y22665D02*
D03*
D105*
X62005Y71084D02*
D03*
D106*
X58776Y66360D02*
D03*
Y57698D02*
D03*
Y53368D02*
D03*
Y49037D02*
D03*
Y40376D02*
D03*
Y36045D02*
D03*
Y31714D02*
D03*
Y44706D02*
D03*
Y62029D02*
D03*
D107*
X99800Y10061D02*
D03*
Y71084D02*
D03*
D108*
X62005Y13604D02*
D03*
D109*
X113135Y119135D02*
D03*
D110*
Y96865D02*
D03*
D111*
X96882Y129260D02*
D03*
X80740D02*
D03*
Y86740D02*
D03*
X96882D02*
D03*
D112*
X71685Y123748D02*
D03*
Y113807D02*
D03*
Y102193D02*
D03*
Y92252D02*
D03*
D113*
X14998Y62400D02*
D03*
X25500D02*
D03*
D114*
X-929Y86094D02*
D03*
Y78220D02*
D03*
Y70346D02*
D03*
Y62472D02*
D03*
D115*
X-1763Y117013D02*
D03*
X12017Y117013D02*
D03*
Y98903D02*
D03*
M02*
