G04*
G04 #@! TF.GenerationSoftware,Altium Limited,Altium Designer,20.1.10 (176)*
G04*
G04 Layer_Color=255*
%FSLAX25Y25*%
%MOIN*%
G70*
G04*
G04 #@! TF.SameCoordinates,F252A181-4E7B-4898-9581-9C64CF10C23C*
G04*
G04*
G04 #@! TF.FilePolarity,Positive*
G04*
G01*
G75*
%ADD15R,0.02000X0.02000*%
%ADD16R,0.02000X0.02000*%
%ADD21P,0.02828X4X270.0*%
%ADD74O,0.07087X0.03937*%
%ADD75O,0.08268X0.03937*%
%ADD76C,0.03937*%
%ADD80R,0.13780X0.13780*%
%ADD81O,0.01102X0.03527*%
%ADD82O,0.03526X0.01102*%
%ADD83O,0.03527X0.01102*%
%ADD84R,0.03543X0.06693*%
%ADD85R,0.04528X0.01181*%
%ADD86R,0.04528X0.02362*%
%ADD87R,0.05512X0.04724*%
%ADD88R,0.06299X0.02756*%
%ADD89R,0.08661X0.04724*%
%ADD90R,0.05512X0.06299*%
G04:AMPARAMS|DCode=91|XSize=33.47mil|YSize=47.24mil|CornerRadius=0mil|HoleSize=0mil|Usage=FLASHONLY|Rotation=315.000|XOffset=0mil|YOffset=0mil|HoleType=Round|Shape=Rectangle|*
%AMROTATEDRECTD91*
4,1,4,-0.02854,-0.00487,0.00487,0.02854,0.02854,0.00487,-0.00487,-0.02854,-0.02854,-0.00487,0.0*
%
%ADD91ROTATEDRECTD91*%

G04:AMPARAMS|DCode=92|XSize=33.47mil|YSize=47.24mil|CornerRadius=0mil|HoleSize=0mil|Usage=FLASHONLY|Rotation=45.000|XOffset=0mil|YOffset=0mil|HoleType=Round|Shape=Rectangle|*
%AMROTATEDRECTD92*
4,1,4,0.00487,-0.02854,-0.02854,0.00487,-0.00487,0.02854,0.02854,-0.00487,0.00487,-0.02854,0.0*
%
%ADD92ROTATEDRECTD92*%

%ADD93R,0.05118X0.04724*%
%ADD94R,0.04724X0.05118*%
%ADD95O,0.07874X0.07874*%
%ADD96R,0.05906X0.05906*%
%ADD97R,0.02756X0.06693*%
D15*
X29200Y36400D02*
D03*
X29200Y39943D02*
D03*
D16*
X38600Y130500D02*
D03*
X35057Y130500D02*
D03*
X51300Y62200D02*
D03*
X47757Y62200D02*
D03*
X51300Y58600D02*
D03*
X47757Y58600D02*
D03*
X51300Y41100D02*
D03*
X47757Y41100D02*
D03*
X51300Y37500D02*
D03*
X47757Y37500D02*
D03*
X51300Y33900D02*
D03*
X47757Y33900D02*
D03*
Y65826D02*
D03*
X51300Y65827D02*
D03*
X35057Y134100D02*
D03*
X38600Y134100D02*
D03*
X47757Y45400D02*
D03*
X51300Y45400D02*
D03*
D21*
X40634Y116744D02*
D03*
X43139Y119250D02*
D03*
X47184Y110194D02*
D03*
X49689Y112700D02*
D03*
X38000Y119300D02*
D03*
X40505Y121806D02*
D03*
D74*
X-1449Y18256D02*
D03*
Y52272D02*
D03*
D75*
X15008Y18256D02*
D03*
Y52272D02*
D03*
D76*
X101910Y28565D02*
D03*
Y60061D02*
D03*
D80*
X37127Y20258D02*
D03*
D81*
X31217Y10417D02*
D03*
X33187D02*
D03*
X35157D02*
D03*
X37127D02*
D03*
X39097Y10417D02*
D03*
X41067D02*
D03*
X43037D02*
D03*
X43037Y30102D02*
D03*
X41067D02*
D03*
X39097D02*
D03*
X37127D02*
D03*
X35157Y30102D02*
D03*
X33187D02*
D03*
X31217D02*
D03*
D82*
X46970Y14349D02*
D03*
Y16319D02*
D03*
Y18289D02*
D03*
Y20259D02*
D03*
Y22229D02*
D03*
Y24199D02*
D03*
Y26169D02*
D03*
D83*
X27284Y26169D02*
D03*
Y24199D02*
D03*
Y22229D02*
D03*
X27284Y20259D02*
D03*
Y18289D02*
D03*
Y16319D02*
D03*
Y14349D02*
D03*
D84*
X63198Y131958D02*
D03*
X47056D02*
D03*
D85*
X18236Y42153D02*
D03*
Y40185D02*
D03*
Y38217D02*
D03*
Y36248D02*
D03*
Y34280D02*
D03*
Y32311D02*
D03*
Y30343D02*
D03*
Y28374D02*
D03*
D86*
Y47862D02*
D03*
Y44713D02*
D03*
Y25815D02*
D03*
Y22665D02*
D03*
D87*
X62005Y71084D02*
D03*
D88*
X58776Y66360D02*
D03*
Y57698D02*
D03*
Y53368D02*
D03*
Y49037D02*
D03*
Y40376D02*
D03*
Y36045D02*
D03*
Y31714D02*
D03*
Y44706D02*
D03*
Y62029D02*
D03*
D89*
X99800Y10061D02*
D03*
Y71084D02*
D03*
D90*
X62005Y13604D02*
D03*
D91*
X113135Y119135D02*
D03*
D92*
Y96865D02*
D03*
D93*
X96882Y129260D02*
D03*
X80740D02*
D03*
Y86740D02*
D03*
X96882D02*
D03*
D94*
X71685Y123748D02*
D03*
Y113807D02*
D03*
Y102193D02*
D03*
Y92252D02*
D03*
D95*
X14998Y62400D02*
D03*
X25500D02*
D03*
D96*
X-929Y86094D02*
D03*
Y78220D02*
D03*
Y70346D02*
D03*
Y62472D02*
D03*
D97*
X-1763Y117013D02*
D03*
X12017Y117013D02*
D03*
Y98903D02*
D03*
M02*
